<svg xmlns="http://www.w3.org/2000/svg" width="494.378" height="39.212" viewBox="0 0 494.378 39.212">
  <g id="Grupo_999429" data-name="Grupo 999429" transform="translate(9453.745 -6002.933)">
    <path id="Trazado_704878" data-name="Trazado 704878" d="M3.589-10.1A1.943,1.943,0,0,1,5.035-9.5,1.892,1.892,0,0,1,5.51-8.039l-.041.526a2.227,2.227,0,0,1-.738,1.5,2.159,2.159,0,0,1-1.552.54A1.913,1.913,0,0,1,1.753-6.05a1.907,1.907,0,0,1-.5-1.463l.034-.458A2.282,2.282,0,0,1,2-9.529,2.195,2.195,0,0,1,3.589-10.1ZM2.55-7.485a.966.966,0,0,0,.126.629.594.594,0,0,0,.509.26A.834.834,0,0,0,3.8-6.833a1.2,1.2,0,0,0,.352-.68l.068-.533A.943.943,0,0,0,4.1-8.7.6.6,0,0,0,3.6-8.962a.841.841,0,0,0-.646.253,1.159,1.159,0,0,0-.332.67ZM4.942-2.44a2.182,2.182,0,0,1,.725-1.5A2.231,2.231,0,0,1,7.239-4.5a1.958,1.958,0,0,1,1.442.6A1.874,1.874,0,0,1,9.16-2.44l-.034.458A2.252,2.252,0,0,1,8.4-.41,2.17,2.17,0,0,1,6.829.144,1.936,1.936,0,0,1,5.4-.441a1.852,1.852,0,0,1-.5-1.466Zm1.237.547a.928.928,0,0,0,.144.632.613.613,0,0,0,.506.27.848.848,0,0,0,.649-.232,1.209,1.209,0,0,0,.328-.684l.068-.547A.907.907,0,0,0,7.752-3.1a.612.612,0,0,0-.506-.256.86.86,0,0,0-.639.236,1.2,1.2,0,0,0-.352.68ZM2.639-.759l-.95-.581,6-7.684.937.567ZM20.262-4.313H16.447l-.465,2.666h4.484L20.18,0H13.692l1.729-9.953H21.9L21.6-8.292H17.138L16.721-5.92h3.828Zm6.077-1.23a3.98,3.98,0,0,0-.649-.068,1.869,1.869,0,0,0-1.634.772L23.2,0H21.273l1.285-7.4L24.37-7.4l-.178.9a2.034,2.034,0,0,1,1.723-1.046,2.812,2.812,0,0,1,.67.1Zm5.024,0a3.98,3.98,0,0,0-.649-.068,1.869,1.869,0,0,0-1.634.772L28.226,0H26.3l1.285-7.4L29.395-7.4l-.178.9a2.034,2.034,0,0,1,1.723-1.046,2.812,2.812,0,0,1,.67.1Zm3.944-1.989a2.967,2.967,0,0,1,1.685.5,2.83,2.83,0,0,1,1.039,1.347,4.166,4.166,0,0,1,.236,1.9A4.5,4.5,0,0,1,37.041-.926,3.465,3.465,0,0,1,34.4.137a2.958,2.958,0,0,1-1.668-.5A2.819,2.819,0,0,1,31.691-1.7a4.075,4.075,0,0,1-.239-1.887A4.633,4.633,0,0,1,32.7-6.494,3.393,3.393,0,0,1,35.308-7.533ZM33.359-2.883a1.707,1.707,0,0,0,.308,1.034,1.022,1.022,0,0,0,.827.392,1.5,1.5,0,0,0,1.395-.816,4.066,4.066,0,0,0,.472-2.215,1.856,1.856,0,0,0-.318-1.048,1,1,0,0,0-.831-.406,1.5,1.5,0,0,0-1.377.809A4.024,4.024,0,0,0,33.359-2.883ZM43.887-5.544a3.98,3.98,0,0,0-.649-.068A1.869,1.869,0,0,0,41.6-4.84L40.749,0H38.821l1.285-7.4L41.918-7.4l-.178.9a2.034,2.034,0,0,1,1.723-1.046,2.812,2.812,0,0,1,.67.1Zm6.945.444h-5.94l.287-1.613h5.94Zm-.513,2.96h-5.94l.287-1.613h5.94Z" transform="translate(-9455 6027)" fill="#12263f"/>
    <path id="Trazado_704879" data-name="Trazado 704879" d="M3.582-5.2,5.134-7.4H7.3L4.621-3.678,6.118,0H4.163L3.254-2.311,1.62,0H-.561L2.229-3.869.8-7.4H2.755ZM15.039,0H13.111l1.313-7.574L12-6.843l.3-1.688,4.156-1.436.253-.007Zm6.569.137a2.524,2.524,0,0,1-2-.875A3.68,3.68,0,0,1,18.888-3.1a7.528,7.528,0,0,1,.055-1.012l.28-1.866a5.808,5.808,0,0,1,1.319-3.09,3.2,3.2,0,0,1,2.522-1.019,2.539,2.539,0,0,1,2,.872,3.641,3.641,0,0,1,.728,2.355,7.589,7.589,0,0,1-.055,1.019L25.45-3.992A5.933,5.933,0,0,1,24.134-.885,3.176,3.176,0,0,1,21.608.137Zm2.317-7.228q0-1.358-.957-1.405-1.381-.062-1.757,2.1L20.87-4.09a8.308,8.308,0,0,0-.109,1.2q-.034,1.385.95,1.433,1.388.089,1.764-2.163l.362-2.429A7.156,7.156,0,0,0,23.926-7.092ZM29.47.137a2.524,2.524,0,0,1-2-.875A3.68,3.68,0,0,1,26.749-3.1,7.528,7.528,0,0,1,26.8-4.115l.28-1.866A5.808,5.808,0,0,1,28.4-9.071a3.2,3.2,0,0,1,2.522-1.019,2.539,2.539,0,0,1,2,.872,3.641,3.641,0,0,1,.728,2.355A7.589,7.589,0,0,1,33.6-5.845l-.287,1.853A5.933,5.933,0,0,1,32-.885,3.176,3.176,0,0,1,29.47.137Zm2.317-7.228q0-1.358-.957-1.405-1.381-.062-1.757,2.1L28.731-4.09a8.308,8.308,0,0,0-.109,1.2q-.034,1.385.95,1.433,1.388.089,1.764-2.163L31.7-6.048A7.156,7.156,0,0,0,31.787-7.092Zm9.27-3.012A1.943,1.943,0,0,1,42.5-9.5a1.892,1.892,0,0,1,.475,1.456l-.041.526a2.227,2.227,0,0,1-.738,1.5,2.159,2.159,0,0,1-1.552.54,1.913,1.913,0,0,1-1.425-.581,1.907,1.907,0,0,1-.5-1.463l.034-.458a2.282,2.282,0,0,1,.708-1.559A2.195,2.195,0,0,1,41.057-10.1ZM40.018-7.485a.966.966,0,0,0,.126.629.594.594,0,0,0,.509.26.834.834,0,0,0,.619-.236,1.2,1.2,0,0,0,.352-.68l.068-.533a.943.943,0,0,0-.12-.653.6.6,0,0,0-.509-.263.841.841,0,0,0-.646.253,1.159,1.159,0,0,0-.332.67ZM42.41-2.44a2.182,2.182,0,0,1,.725-1.5A2.231,2.231,0,0,1,44.707-4.5a1.958,1.958,0,0,1,1.442.6,1.874,1.874,0,0,1,.479,1.456l-.034.458A2.252,2.252,0,0,1,45.873-.41,2.17,2.17,0,0,1,44.3.144a1.936,1.936,0,0,1-1.425-.584,1.852,1.852,0,0,1-.5-1.466Zm1.237.547a.928.928,0,0,0,.144.632.613.613,0,0,0,.506.27.848.848,0,0,0,.649-.232,1.209,1.209,0,0,0,.328-.684l.068-.547A.907.907,0,0,0,45.22-3.1a.612.612,0,0,0-.506-.256.86.86,0,0,0-.639.236,1.2,1.2,0,0,0-.352.68ZM40.106-.759l-.95-.581,6-7.684.937.567Z" transform="translate(-9006 6026)" fill="#12263f"/>
    <path id="Trazado_704880" data-name="Trazado 704880" d="M.834-4.02A11.552,11.552,0,0,1,2.293-8.384a6.278,6.278,0,0,1,2.84-2.683l.328,1.1A8.525,8.525,0,0,0,2.5-4.231a16.954,16.954,0,0,0-.226,2.406q-.034,2.81,1.285,3.9L3.131,3.11A4.489,4.489,0,0,1,1.066.273a9.511,9.511,0,0,1-.349-2.9,11.48,11.48,0,0,1,.089-1.23ZM9.112-2.488l3.35-7.465h2.3L9.844,0H7.752L5.961-9.953H8.114ZM17.9,0a2,2,0,0,1-.075-.67,2.505,2.505,0,0,1-1.887.807A2.27,2.27,0,0,1,14.332-.5a1.913,1.913,0,0,1-.6-1.528,2.211,2.211,0,0,1,1.015-1.856,4.608,4.608,0,0,1,2.594-.646l.9.014.1-.444a1.543,1.543,0,0,0,.021-.431.74.74,0,0,0-.243-.5.836.836,0,0,0-.55-.188,1.177,1.177,0,0,0-.766.222,1.077,1.077,0,0,0-.4.68l-1.935.007a2.15,2.15,0,0,1,.974-1.719,3.773,3.773,0,0,1,2.287-.646,2.727,2.727,0,0,1,1.969.749,2.19,2.19,0,0,1,.595,1.856l-.567,3.541-.034.438a2.111,2.111,0,0,0,.116.82L19.8,0ZM16.42-1.36a1.765,1.765,0,0,0,1.456-.725l.239-1.278-.67-.007a1.872,1.872,0,0,0-1.538.649,1.131,1.131,0,0,0-.212.554.656.656,0,0,0,.154.584A.779.779,0,0,0,16.42-1.36ZM23.01,0H21.068l1.825-10.5h1.935Zm5.865-7.533a2.967,2.967,0,0,1,1.685.5A2.83,2.83,0,0,1,31.6-5.684a4.166,4.166,0,0,1,.236,1.9A4.5,4.5,0,0,1,30.608-.926,3.465,3.465,0,0,1,27.966.137a2.958,2.958,0,0,1-1.668-.5A2.819,2.819,0,0,1,25.259-1.7a4.075,4.075,0,0,1-.239-1.887,4.633,4.633,0,0,1,1.244-2.912A3.393,3.393,0,0,1,28.875-7.533ZM26.927-2.883a1.707,1.707,0,0,0,.308,1.034,1.022,1.022,0,0,0,.827.392,1.5,1.5,0,0,0,1.395-.816,4.066,4.066,0,0,0,.472-2.215,1.856,1.856,0,0,0-.318-1.048,1,1,0,0,0-.831-.406,1.5,1.5,0,0,0-1.377.809A4.024,4.024,0,0,0,26.927-2.883ZM37.454-5.544a3.98,3.98,0,0,0-.649-.068,1.869,1.869,0,0,0-1.634.772L34.316,0H32.389l1.285-7.4L35.485-7.4l-.178.9A2.034,2.034,0,0,1,37.03-7.547a2.812,2.812,0,0,1,.67.1ZM43.941-7.4l-.157.841a2.723,2.723,0,0,1,2.167-.971,2.081,2.081,0,0,1,1.135.314,1.469,1.469,0,0,1,.608.813,2.848,2.848,0,0,1,2.3-1.128,1.86,1.86,0,0,1,1.535.7,2.862,2.862,0,0,1,.434,1.955l-.014.171L51.16,0H49.226l.786-4.729a3.419,3.419,0,0,0,.021-.472.732.732,0,0,0-.82-.739,1.628,1.628,0,0,0-1.36.849l-.021.157L46.97,0H45.042l.786-4.71a3.411,3.411,0,0,0,.021-.472.731.731,0,0,0-.813-.745,1.634,1.634,0,0,0-1.319.69L42.793,0H40.865l1.278-7.4ZM56.205.137a3.218,3.218,0,0,1-1.719-.475,2.88,2.88,0,0,1-1.118-1.285,3.582,3.582,0,0,1-.287-1.8L53.1-3.7a4.782,4.782,0,0,1,.629-1.982,3.8,3.8,0,0,1,1.354-1.391,3.349,3.349,0,0,1,1.832-.461A2.559,2.559,0,0,1,59.08-6.482a3.6,3.6,0,0,1,.557,2.591l-.109.842H55A1.587,1.587,0,0,0,55.344-1.9a1.331,1.331,0,0,0,1.025.444,2.365,2.365,0,0,0,1.846-.82L59.1-1.183a2.743,2.743,0,0,1-1.2.981A3.934,3.934,0,0,1,56.205.137ZM56.82-5.94a1.37,1.37,0,0,0-.947.335,2.943,2.943,0,0,0-.742,1.21h2.652l.041-.178a1.812,1.812,0,0,0,.007-.52.992.992,0,0,0-.335-.619A1.05,1.05,0,0,0,56.82-5.94Zm6.952-1.6a2.1,2.1,0,0,1,1.668.827l.725-3.787H68.1L66.281,0H64.559l.109-.793A2.394,2.394,0,0,1,62.74.144a2.129,2.129,0,0,1-1.21-.362,2.281,2.281,0,0,1-.8-1.022,4.116,4.116,0,0,1-.311-1.487,5.6,5.6,0,0,1,.021-.834l.041-.308a5.921,5.921,0,0,1,.632-2,3.3,3.3,0,0,1,1.148-1.278A2.708,2.708,0,0,1,63.772-7.54Zm-1.4,3.979a5.536,5.536,0,0,0-.034.875q.068,1.2.971,1.224a1.65,1.65,0,0,0,1.415-.766l.526-2.939a1.092,1.092,0,0,0-1.066-.766,1.4,1.4,0,0,0-1.172.543A3.654,3.654,0,0,0,62.371-3.562ZM69.856,0H67.915L69.2-7.4h1.941Zm-.431-9.276a.963.963,0,0,1,.3-.759,1.058,1.058,0,0,1,.759-.3,1.063,1.063,0,0,1,.759.267.959.959,0,0,1,.335.725.99.99,0,0,1-.284.738,1.063,1.063,0,0,1-.776.328,1.081,1.081,0,0,1-.755-.26A.954.954,0,0,1,69.426-9.276ZM75.161-7.54a2.1,2.1,0,0,1,1.668.827l.725-3.787h1.935L77.67,0H75.947l.109-.793a2.394,2.394,0,0,1-1.928.937,2.129,2.129,0,0,1-1.21-.362,2.281,2.281,0,0,1-.8-1.022A4.116,4.116,0,0,1,71.8-2.728a5.6,5.6,0,0,1,.021-.834l.041-.308a5.921,5.921,0,0,1,.632-2,3.3,3.3,0,0,1,1.148-1.278A2.708,2.708,0,0,1,75.161-7.54Zm-1.4,3.979a5.536,5.536,0,0,0-.034.875q.068,1.2.971,1.224a1.65,1.65,0,0,0,1.415-.766l.526-2.939a1.092,1.092,0,0,0-1.066-.766A1.4,1.4,0,0,0,74.4-5.39,3.654,3.654,0,0,0,73.76-3.562Zm9.68-3.972a2.967,2.967,0,0,1,1.685.5,2.83,2.83,0,0,1,1.039,1.347,4.166,4.166,0,0,1,.236,1.9A4.5,4.5,0,0,1,85.172-.926,3.465,3.465,0,0,1,82.53.137a2.958,2.958,0,0,1-1.668-.5A2.819,2.819,0,0,1,79.823-1.7a4.075,4.075,0,0,1-.239-1.887,4.633,4.633,0,0,1,1.244-2.912A3.393,3.393,0,0,1,83.439-7.533ZM81.491-2.883A1.707,1.707,0,0,0,81.8-1.849a1.022,1.022,0,0,0,.827.392,1.5,1.5,0,0,0,1.395-.816,4.066,4.066,0,0,0,.472-2.215,1.856,1.856,0,0,0-.318-1.048,1,1,0,0,0-.831-.406,1.5,1.5,0,0,0-1.377.809A4.024,4.024,0,0,0,81.491-2.883ZM92.019-5.544a3.98,3.98,0,0,0-.649-.068,1.869,1.869,0,0,0-1.634.772L88.881,0H86.953l1.285-7.4L90.05-7.4l-.178.9a2.034,2.034,0,0,1,1.723-1.046,2.812,2.812,0,0,1,.67.1ZM98.67-1.449a1.266,1.266,0,0,0,.889-.291,1.428,1.428,0,0,0,.465-.81l1.812-.007a2.657,2.657,0,0,1-.489,1.4,2.969,2.969,0,0,1-1.176.971,3.366,3.366,0,0,1-1.548.328,2.733,2.733,0,0,1-2.133-.93,3.469,3.469,0,0,1-.759-2.42l.021-.376.007-.075a4.624,4.624,0,0,1,1.217-2.861,3.291,3.291,0,0,1,2.55-1.015,2.666,2.666,0,0,1,1.986.817,2.885,2.885,0,0,1,.721,2.082h-1.8a1.514,1.514,0,0,0-.26-.937.987.987,0,0,0-.779-.369q-1.381-.041-1.675,2.017a6.81,6.81,0,0,0-.075,1.258Q97.713-1.47,98.67-1.449Zm8.142-6.084a2.967,2.967,0,0,1,1.685.5,2.83,2.83,0,0,1,1.039,1.347,4.166,4.166,0,0,1,.236,1.9,4.5,4.5,0,0,1-1.227,2.854A3.465,3.465,0,0,1,105.9.137a2.958,2.958,0,0,1-1.668-.5A2.819,2.819,0,0,1,103.2-1.7a4.075,4.075,0,0,1-.239-1.887A4.633,4.633,0,0,1,104.2-6.494,3.393,3.393,0,0,1,106.812-7.533Zm-1.948,4.651a1.707,1.707,0,0,0,.308,1.034,1.022,1.022,0,0,0,.827.392,1.5,1.5,0,0,0,1.395-.816,4.066,4.066,0,0,0,.472-2.215,1.856,1.856,0,0,0-.318-1.048,1,1,0,0,0-.831-.406,1.5,1.5,0,0,0-1.377.809A4.024,4.024,0,0,0,104.863-2.883ZM113.374-7.4l-.164.875a2.661,2.661,0,0,1,2.153-1,1.774,1.774,0,0,1,1.545.766,3.085,3.085,0,0,1,.362,2.064L116.491,0h-1.928l.793-4.724a2.212,2.212,0,0,0,.014-.485.783.783,0,0,0-.875-.718,1.659,1.659,0,0,0-1.36.7L112.212,0h-1.928l1.285-7.4ZM124.968.137a3.218,3.218,0,0,1-1.719-.475,2.88,2.88,0,0,1-1.118-1.285,3.582,3.582,0,0,1-.287-1.8l.021-.273a4.782,4.782,0,0,1,.629-1.982,3.8,3.8,0,0,1,1.354-1.391,3.349,3.349,0,0,1,1.832-.461,2.559,2.559,0,0,1,2.164,1.051,3.6,3.6,0,0,1,.557,2.591l-.109.842h-4.532a1.587,1.587,0,0,0,.349,1.148,1.331,1.331,0,0,0,1.025.444,2.365,2.365,0,0,0,1.846-.82l.882,1.094a2.743,2.743,0,0,1-1.2.981A3.934,3.934,0,0,1,124.968.137Zm.615-6.077a1.37,1.37,0,0,0-.947.335,2.943,2.943,0,0,0-.742,1.21h2.652l.041-.178a1.812,1.812,0,0,0,.007-.52.992.992,0,0,0-.335-.619A1.05,1.05,0,0,0,125.583-5.94ZM130.9,0H128.96l1.825-10.5h1.935Zm7.123,0h-1.941l1.285-7.4h1.941Zm-.431-9.276a.963.963,0,0,1,.3-.759,1.058,1.058,0,0,1,.759-.3,1.063,1.063,0,0,1,.759.267.959.959,0,0,1,.335.725.99.99,0,0,1-.284.738,1.063,1.063,0,0,1-.776.328,1.081,1.081,0,0,1-.755-.26A.954.954,0,0,1,137.594-9.276ZM142.707-7.4l-.164.875a2.661,2.661,0,0,1,2.153-1,1.774,1.774,0,0,1,1.545.766A3.085,3.085,0,0,1,146.6-4.7L145.824,0H143.9l.793-4.724a2.212,2.212,0,0,0,.014-.485.783.783,0,0,0-.875-.718,1.659,1.659,0,0,0-1.36.7L141.545,0h-1.928L140.9-7.4Zm8.914,5.318q.109-.547-.759-.793l-.622-.157q-2.208-.608-2.146-2.146a2.124,2.124,0,0,1,.926-1.706,3.449,3.449,0,0,1,2.15-.646,3.094,3.094,0,0,1,2.023.663,2.184,2.184,0,0,1,.786,1.729l-1.914-.007a.843.843,0,0,0-.943-.964,1.358,1.358,0,0,0-.783.226.929.929,0,0,0-.407.608q-.1.547.827.772l.273.062a5.5,5.5,0,0,1,1.442.516,2.177,2.177,0,0,1,.769.721,1.785,1.785,0,0,1,.25,1.032,1.97,1.97,0,0,1-.455,1.23,2.782,2.782,0,0,1-1.189.813,4.144,4.144,0,0,1-1.589.267,3.122,3.122,0,0,1-2.051-.708,2.281,2.281,0,0,1-.834-1.794l1.818.014a1,1,0,0,0,1.135,1.073,1.614,1.614,0,0,0,.878-.219A.864.864,0,0,0,151.621-2.085Zm6.672-7.13L157.972-7.4h1.23l-.253,1.449h-1.23l-.629,3.705a.942.942,0,0,0,.055.533q.1.185.465.2.109.007.588-.034l-.137,1.511a3.242,3.242,0,0,1-1.107.157,1.737,1.737,0,0,1-1.415-.595,2.149,2.149,0,0,1-.383-1.572l.636-3.9h-1.046L155-7.4h1.046l.314-1.818ZM164.1-5.544a3.98,3.98,0,0,0-.649-.068,1.869,1.869,0,0,0-1.634.772L160.966,0h-1.928l1.285-7.4,1.812-.007-.178.9a2.034,2.034,0,0,1,1.723-1.046,2.812,2.812,0,0,1,.67.1Zm4.539,4.778a2.554,2.554,0,0,1-2.037.9,1.9,1.9,0,0,1-1.613-.766,2.8,2.8,0,0,1-.424-1.982l.8-4.785H167.3l-.813,4.811a1.9,1.9,0,0,0-.007.424.7.7,0,0,0,.759.7,1.762,1.762,0,0,0,1.483-.691l.923-5.249h1.941L170.3,0h-1.8ZM174.809-7.4l-.157.841a2.723,2.723,0,0,1,2.167-.971,2.081,2.081,0,0,1,1.135.314,1.469,1.469,0,0,1,.608.813,2.848,2.848,0,0,1,2.3-1.128,1.86,1.86,0,0,1,1.535.7,2.862,2.862,0,0,1,.434,1.955l-.014.171L182.027,0h-1.935l.786-4.729A3.418,3.418,0,0,0,180.9-5.2a.732.732,0,0,0-.82-.739,1.628,1.628,0,0,0-1.36.849l-.021.157L177.837,0h-1.928l.786-4.71a3.41,3.41,0,0,0,.021-.472.731.731,0,0,0-.813-.745,1.634,1.634,0,0,0-1.319.69L173.66,0h-1.928l1.278-7.4ZM187.072.137a3.218,3.218,0,0,1-1.719-.475,2.88,2.88,0,0,1-1.118-1.285,3.582,3.582,0,0,1-.287-1.8l.021-.273a4.782,4.782,0,0,1,.629-1.982,3.8,3.8,0,0,1,1.354-1.391,3.349,3.349,0,0,1,1.832-.461,2.559,2.559,0,0,1,2.164,1.051,3.6,3.6,0,0,1,.557,2.591l-.109.842h-4.532a1.587,1.587,0,0,0,.349,1.148,1.331,1.331,0,0,0,1.025.444,2.365,2.365,0,0,0,1.846-.82l.882,1.094a2.743,2.743,0,0,1-1.2.981A3.934,3.934,0,0,1,187.072.137Zm.615-6.077a1.37,1.37,0,0,0-.947.335A2.943,2.943,0,0,0,186-4.4h2.652l.041-.178a1.812,1.812,0,0,0,.007-.52.992.992,0,0,0-.335-.619A1.05,1.05,0,0,0,187.688-5.94Zm6.33-1.463-.164.875a2.661,2.661,0,0,1,2.153-1,1.774,1.774,0,0,1,1.545.766,3.085,3.085,0,0,1,.362,2.064L197.135,0h-1.928L196-4.724a2.212,2.212,0,0,0,.014-.485.783.783,0,0,0-.875-.718,1.659,1.659,0,0,0-1.36.7L192.855,0h-1.928l1.285-7.4Zm8.538-1.812L202.234-7.4h1.23l-.253,1.449h-1.23l-.629,3.705a.942.942,0,0,0,.055.533q.1.185.465.2.109.007.588-.034l-.137,1.511a3.242,3.242,0,0,1-1.107.157A1.737,1.737,0,0,1,199.8-.472a2.149,2.149,0,0,1-.383-1.572l.636-3.9h-1.046l.253-1.449h1.046l.314-1.818Zm4.771,1.682a2.967,2.967,0,0,1,1.685.5,2.83,2.83,0,0,1,1.039,1.347,4.167,4.167,0,0,1,.236,1.9A4.5,4.5,0,0,1,209.06-.926,3.465,3.465,0,0,1,206.418.137a2.958,2.958,0,0,1-1.668-.5A2.819,2.819,0,0,1,203.711-1.7a4.075,4.075,0,0,1-.239-1.887,4.633,4.633,0,0,1,1.244-2.912A3.393,3.393,0,0,1,207.327-7.533Zm-1.948,4.651a1.707,1.707,0,0,0,.308,1.034,1.022,1.022,0,0,0,.827.392,1.5,1.5,0,0,0,1.395-.816,4.066,4.066,0,0,0,.472-2.215,1.856,1.856,0,0,0-.318-1.048,1,1,0,0,0-.831-.406,1.5,1.5,0,0,0-1.377.809A4.024,4.024,0,0,0,205.379-2.883Zm13.255-.583h-3.746l.273-1.593h3.753Zm8.565.978,3.35-7.465h2.3L227.931,0h-2.092l-1.791-9.953H226.2ZM235.99,0a2,2,0,0,1-.075-.67,2.505,2.505,0,0,1-1.887.807,2.27,2.27,0,0,1-1.61-.632,1.913,1.913,0,0,1-.6-1.528,2.211,2.211,0,0,1,1.015-1.856,4.608,4.608,0,0,1,2.594-.646l.9.014.1-.444a1.543,1.543,0,0,0,.021-.431.74.74,0,0,0-.243-.5.836.836,0,0,0-.55-.188,1.177,1.177,0,0,0-.766.222,1.077,1.077,0,0,0-.4.68l-1.935.007a2.15,2.15,0,0,1,.974-1.719,3.773,3.773,0,0,1,2.287-.646,2.727,2.727,0,0,1,1.969.749,2.19,2.19,0,0,1,.595,1.856l-.567,3.541-.034.438a2.111,2.111,0,0,0,.116.82l-.007.13Zm-1.483-1.36a1.765,1.765,0,0,0,1.456-.725l.239-1.278-.67-.007a1.872,1.872,0,0,0-1.538.649,1.131,1.131,0,0,0-.212.554.656.656,0,0,0,.154.584A.779.779,0,0,0,234.507-1.36ZM241.1,0h-1.941l1.825-10.5h1.935Zm5.865-7.533a2.967,2.967,0,0,1,1.685.5,2.83,2.83,0,0,1,1.039,1.347,4.167,4.167,0,0,1,.236,1.9,4.5,4.5,0,0,1-1.227,2.854A3.465,3.465,0,0,1,246.053.137a2.958,2.958,0,0,1-1.668-.5A2.819,2.819,0,0,1,243.346-1.7a4.075,4.075,0,0,1-.239-1.887,4.633,4.633,0,0,1,1.244-2.912A3.393,3.393,0,0,1,246.962-7.533Zm-1.948,4.651a1.707,1.707,0,0,0,.308,1.034,1.022,1.022,0,0,0,.827.392,1.5,1.5,0,0,0,1.395-.816,4.066,4.066,0,0,0,.472-2.215,1.856,1.856,0,0,0-.318-1.048,1,1,0,0,0-.831-.406,1.5,1.5,0,0,0-1.377.809A4.024,4.024,0,0,0,245.014-2.883Zm10.527-2.661a3.98,3.98,0,0,0-.649-.068,1.869,1.869,0,0,0-1.634.772L252.4,0h-1.928l1.285-7.4,1.812-.007-.178.9a2.034,2.034,0,0,1,1.723-1.046,2.812,2.812,0,0,1,.67.1Zm8.477,0a3.98,3.98,0,0,0-.649-.068,1.869,1.869,0,0,0-1.634.772L260.88,0h-1.928l1.285-7.4,1.812-.007-.178.9a2.034,2.034,0,0,1,1.723-1.046,2.812,2.812,0,0,1,.67.1ZM267.36.137a3.218,3.218,0,0,1-1.719-.475,2.88,2.88,0,0,1-1.118-1.285,3.582,3.582,0,0,1-.287-1.8l.021-.273a4.782,4.782,0,0,1,.629-1.982,3.8,3.8,0,0,1,1.354-1.391,3.349,3.349,0,0,1,1.832-.461,2.559,2.559,0,0,1,2.164,1.051,3.6,3.6,0,0,1,.557,2.591l-.109.842H266.15A1.587,1.587,0,0,0,266.5-1.9a1.331,1.331,0,0,0,1.025.444,2.365,2.365,0,0,0,1.846-.82l.882,1.094a2.743,2.743,0,0,1-1.2.981A3.934,3.934,0,0,1,267.36.137Zm.615-6.077a1.37,1.37,0,0,0-.947.335,2.943,2.943,0,0,0-.742,1.21h2.652l.041-.178a1.812,1.812,0,0,0,.007-.52.992.992,0,0,0-.335-.619A1.05,1.05,0,0,0,267.976-5.94ZM275.536,0a2,2,0,0,1-.075-.67,2.505,2.505,0,0,1-1.887.807,2.27,2.27,0,0,1-1.61-.632,1.913,1.913,0,0,1-.6-1.528,2.211,2.211,0,0,1,1.015-1.856,4.608,4.608,0,0,1,2.594-.646l.9.014.1-.444a1.543,1.543,0,0,0,.021-.431.74.74,0,0,0-.243-.5.836.836,0,0,0-.55-.188,1.177,1.177,0,0,0-.766.222,1.077,1.077,0,0,0-.4.68l-1.935.007a2.15,2.15,0,0,1,.974-1.719,3.773,3.773,0,0,1,2.287-.646,2.727,2.727,0,0,1,1.969.749,2.19,2.19,0,0,1,.595,1.856l-.567,3.541-.034.438a2.111,2.111,0,0,0,.116.82L277.43,0Zm-1.483-1.36a1.765,1.765,0,0,0,1.456-.725l.239-1.278-.67-.007a1.872,1.872,0,0,0-1.538.649,1.131,1.131,0,0,0-.212.554.656.656,0,0,0,.154.584A.779.779,0,0,0,274.053-1.36ZM280.643,0H278.7l1.825-10.5h1.935ZM289.4-7.54a2.1,2.1,0,0,1,1.668.827l.725-3.787h1.935L291.908,0h-1.723l.109-.793a2.394,2.394,0,0,1-1.928.937,2.129,2.129,0,0,1-1.21-.362,2.281,2.281,0,0,1-.8-1.022,4.116,4.116,0,0,1-.311-1.487,5.6,5.6,0,0,1,.021-.834l.041-.308a5.921,5.921,0,0,1,.632-2,3.3,3.3,0,0,1,1.148-1.278A2.708,2.708,0,0,1,289.4-7.54ZM288-3.562a5.535,5.535,0,0,0-.034.875q.068,1.2.971,1.224a1.65,1.65,0,0,0,1.415-.766l.526-2.939a1.092,1.092,0,0,0-1.066-.766,1.4,1.4,0,0,0-1.172.543A3.654,3.654,0,0,0,288-3.562Zm8.962,3.7a3.218,3.218,0,0,1-1.719-.475,2.88,2.88,0,0,1-1.118-1.285,3.582,3.582,0,0,1-.287-1.8l.021-.273a4.782,4.782,0,0,1,.629-1.982,3.8,3.8,0,0,1,1.354-1.391,3.349,3.349,0,0,1,1.832-.461,2.559,2.559,0,0,1,2.164,1.051,3.6,3.6,0,0,1,.557,2.591l-.109.842H295.75A1.587,1.587,0,0,0,296.1-1.9a1.331,1.331,0,0,0,1.025.444,2.365,2.365,0,0,0,1.846-.82l.882,1.094a2.743,2.743,0,0,1-1.2.981A3.934,3.934,0,0,1,296.96.137Zm.615-6.077a1.37,1.37,0,0,0-.947.335,2.943,2.943,0,0,0-.742,1.21h2.652l.041-.178a1.812,1.812,0,0,0,.007-.52.992.992,0,0,0-.335-.619A1.05,1.05,0,0,0,297.575-5.94ZM306.346,0H304.4l1.825-10.5h1.935Zm5.913,0a2,2,0,0,1-.075-.67A2.505,2.505,0,0,1,310.3.137a2.27,2.27,0,0,1-1.61-.632,1.913,1.913,0,0,1-.6-1.528A2.211,2.211,0,0,1,309.1-3.879a4.608,4.608,0,0,1,2.594-.646l.9.014.1-.444a1.543,1.543,0,0,0,.021-.431.74.74,0,0,0-.243-.5.836.836,0,0,0-.55-.188,1.177,1.177,0,0,0-.766.222,1.077,1.077,0,0,0-.4.68l-1.935.007a2.15,2.15,0,0,1,.974-1.719,3.773,3.773,0,0,1,2.287-.646,2.727,2.727,0,0,1,1.969.749,2.19,2.19,0,0,1,.595,1.856l-.567,3.541-.034.438a2.111,2.111,0,0,0,.116.82l-.007.13Zm-1.483-1.36a1.765,1.765,0,0,0,1.456-.725l.239-1.278-.67-.007a1.872,1.872,0,0,0-1.538.649,1.131,1.131,0,0,0-.212.554.656.656,0,0,0,.154.584A.779.779,0,0,0,310.775-1.36Zm11.115-1.08L324-7.4h2.078L322.5,0h-1.846l-1.265-7.4h1.955Zm8,2.44a2,2,0,0,1-.075-.67,2.505,2.505,0,0,1-1.887.807,2.27,2.27,0,0,1-1.61-.632,1.913,1.913,0,0,1-.6-1.528,2.211,2.211,0,0,1,1.015-1.856,4.608,4.608,0,0,1,2.594-.646l.9.014.1-.444a1.543,1.543,0,0,0,.021-.431.74.74,0,0,0-.243-.5.836.836,0,0,0-.55-.188,1.177,1.177,0,0,0-.766.222,1.077,1.077,0,0,0-.4.68l-1.935.007a2.15,2.15,0,0,1,.974-1.719,3.773,3.773,0,0,1,2.287-.646,2.727,2.727,0,0,1,1.969.749,2.19,2.19,0,0,1,.595,1.856l-.567,3.541-.034.438a2.111,2.111,0,0,0,.116.82l-.007.13Zm-1.483-1.36a1.765,1.765,0,0,0,1.456-.725l.239-1.278-.67-.007a1.872,1.872,0,0,0-1.538.649,1.131,1.131,0,0,0-.212.554.656.656,0,0,0,.154.584A.779.779,0,0,0,328.405-1.36Zm9.618-4.184a3.98,3.98,0,0,0-.649-.068,1.869,1.869,0,0,0-1.634.772L334.886,0h-1.928l1.285-7.4,1.812-.007-.178.9A2.034,2.034,0,0,1,337.6-7.547a2.812,2.812,0,0,1,.67.1Zm2,5.544h-1.941l1.285-7.4H341.3Zm-.431-9.276a.963.963,0,0,1,.3-.759,1.058,1.058,0,0,1,.759-.3,1.063,1.063,0,0,1,.759.267.959.959,0,0,1,.335.725.99.99,0,0,1-.284.738,1.063,1.063,0,0,1-.776.328,1.081,1.081,0,0,1-.755-.26A.954.954,0,0,1,339.589-9.276ZM345.933,0a2,2,0,0,1-.075-.67,2.505,2.505,0,0,1-1.887.807,2.27,2.27,0,0,1-1.61-.632,1.913,1.913,0,0,1-.6-1.528,2.211,2.211,0,0,1,1.015-1.856,4.608,4.608,0,0,1,2.594-.646l.9.014.1-.444a1.543,1.543,0,0,0,.021-.431.74.74,0,0,0-.243-.5.836.836,0,0,0-.55-.188,1.177,1.177,0,0,0-.766.222,1.077,1.077,0,0,0-.4.68l-1.935.007a2.15,2.15,0,0,1,.974-1.719,3.773,3.773,0,0,1,2.287-.646,2.727,2.727,0,0,1,1.969.749,2.19,2.19,0,0,1,.595,1.856l-.567,3.541-.034.438a2.111,2.111,0,0,0,.116.82l-.007.13Zm-1.483-1.36a1.765,1.765,0,0,0,1.456-.725l.239-1.278-.67-.007a1.872,1.872,0,0,0-1.538.649,1.131,1.131,0,0,0-.212.554.656.656,0,0,0,.154.584A.779.779,0,0,0,344.449-1.36Zm11.662-2.317a5.3,5.3,0,0,1-1.066,2.8A2.654,2.654,0,0,1,352.816.144,2.063,2.063,0,0,1,351.039-.8l-.28.8H349l1.818-10.5h1.935l-.745,3.78a2.3,2.3,0,0,1,1.8-.813,2.087,2.087,0,0,1,1.685.769,3.4,3.4,0,0,1,.653,2.088A7.987,7.987,0,0,1,356.111-3.678ZM354.2-3.822a5.735,5.735,0,0,0,.041-.905q-.075-1.193-.984-1.214a1.6,1.6,0,0,0-1.415.775l-.533,2.948a1.1,1.1,0,0,0,1.107.768q1.422.041,1.743-2.071ZM358.75,0h-1.941l1.825-10.5h1.935ZM363.9.137a3.218,3.218,0,0,1-1.719-.475,2.88,2.88,0,0,1-1.118-1.285,3.582,3.582,0,0,1-.287-1.8l.021-.273a4.782,4.782,0,0,1,.629-1.982,3.8,3.8,0,0,1,1.354-1.391,3.349,3.349,0,0,1,1.832-.461,2.559,2.559,0,0,1,2.164,1.051,3.6,3.6,0,0,1,.557,2.591l-.109.842h-4.532a1.587,1.587,0,0,0,.349,1.148,1.331,1.331,0,0,0,1.025.444,2.365,2.365,0,0,0,1.846-.82l.882,1.094a2.743,2.743,0,0,1-1.2.981A3.934,3.934,0,0,1,363.9.137Zm.615-6.077a1.37,1.37,0,0,0-.947.335,2.943,2.943,0,0,0-.742,1.21h2.652l.041-.178a1.812,1.812,0,0,0,.007-.52.992.992,0,0,0-.335-.619A1.05,1.05,0,0,0,364.513-5.94Zm2.878,9.071-.328-1.08a8.632,8.632,0,0,0,2.96-5.8,16.866,16.866,0,0,0,.212-2.358q.034-2.81-1.271-3.91l.431-1.032a4,4,0,0,1,1.384,1.275,5.884,5.884,0,0,1,.854,2.02,10.15,10.15,0,0,1,.263,2.434,12.132,12.132,0,0,1-.656,3.695,9.659,9.659,0,0,1-1.61,3.011A5.845,5.845,0,0,1,367.391,3.131Z" transform="translate(-9393 6014)" fill="#12263f"/>
    <path id="Trazado_704881" data-name="Trazado 704881" d="M7.595-2.488l3.35-7.465h2.3L8.326,0H6.234L4.443-9.953H6.6ZM16.386,0a2,2,0,0,1-.075-.67,2.505,2.505,0,0,1-1.887.807A2.27,2.27,0,0,1,12.814-.5a1.913,1.913,0,0,1-.6-1.528,2.211,2.211,0,0,1,1.015-1.856,4.608,4.608,0,0,1,2.594-.646l.9.014.1-.444a1.543,1.543,0,0,0,.021-.431.74.74,0,0,0-.243-.5.836.836,0,0,0-.55-.188,1.177,1.177,0,0,0-.766.222,1.077,1.077,0,0,0-.4.68l-1.935.007a2.15,2.15,0,0,1,.974-1.719,3.773,3.773,0,0,1,2.287-.646,2.727,2.727,0,0,1,1.969.749,2.19,2.19,0,0,1,.595,1.856L18.2-1.388,18.17-.95a2.111,2.111,0,0,0,.116.82L18.279,0ZM14.9-1.36a1.765,1.765,0,0,0,1.456-.725L16.6-3.363l-.67-.007a1.872,1.872,0,0,0-1.538.649,1.131,1.131,0,0,0-.212.554.656.656,0,0,0,.154.584A.779.779,0,0,0,14.9-1.36ZM21.492,0H19.551l1.825-10.5h1.935Zm5.865-7.533a2.967,2.967,0,0,1,1.685.5,2.83,2.83,0,0,1,1.039,1.347,4.166,4.166,0,0,1,.236,1.9A4.5,4.5,0,0,1,29.09-.926,3.465,3.465,0,0,1,26.448.137a2.958,2.958,0,0,1-1.668-.5A2.819,2.819,0,0,1,23.741-1.7,4.075,4.075,0,0,1,23.5-3.582a4.633,4.633,0,0,1,1.244-2.912A3.393,3.393,0,0,1,27.357-7.533ZM25.409-2.883a1.707,1.707,0,0,0,.308,1.034,1.022,1.022,0,0,0,.827.392,1.5,1.5,0,0,0,1.395-.816,4.066,4.066,0,0,0,.472-2.215,1.856,1.856,0,0,0-.318-1.048,1,1,0,0,0-.831-.406,1.5,1.5,0,0,0-1.377.809A4.024,4.024,0,0,0,25.409-2.883ZM35.937-5.544a3.98,3.98,0,0,0-.649-.068,1.869,1.869,0,0,0-1.634.772L32.8,0H30.871l1.285-7.4L33.968-7.4l-.178.9a2.034,2.034,0,0,1,1.723-1.046,2.812,2.812,0,0,1,.67.1Zm8.477,0a3.98,3.98,0,0,0-.649-.068,1.869,1.869,0,0,0-1.634.772L41.275,0H39.348l1.285-7.4L42.444-7.4l-.178.9a2.034,2.034,0,0,1,1.723-1.046,2.812,2.812,0,0,1,.67.1ZM47.756.137a3.218,3.218,0,0,1-1.719-.475,2.88,2.88,0,0,1-1.118-1.285,3.582,3.582,0,0,1-.287-1.8l.021-.273a4.782,4.782,0,0,1,.629-1.982,3.8,3.8,0,0,1,1.354-1.391,3.349,3.349,0,0,1,1.832-.461A2.559,2.559,0,0,1,50.63-6.482a3.6,3.6,0,0,1,.557,2.591l-.109.842H46.546A1.587,1.587,0,0,0,46.895-1.9a1.331,1.331,0,0,0,1.025.444,2.365,2.365,0,0,0,1.846-.82l.882,1.094a2.743,2.743,0,0,1-1.2.981A3.934,3.934,0,0,1,47.756.137Zm.615-6.077a1.37,1.37,0,0,0-.947.335,2.943,2.943,0,0,0-.742,1.21h2.652l.041-.178a1.812,1.812,0,0,0,.007-.52.992.992,0,0,0-.335-.619A1.05,1.05,0,0,0,48.371-5.94ZM55.932,0a2,2,0,0,1-.075-.67A2.505,2.505,0,0,1,53.97.137,2.27,2.27,0,0,1,52.36-.5a1.913,1.913,0,0,1-.6-1.528,2.211,2.211,0,0,1,1.015-1.856,4.608,4.608,0,0,1,2.594-.646l.9.014.1-.444a1.543,1.543,0,0,0,.021-.431.74.74,0,0,0-.243-.5.836.836,0,0,0-.55-.188,1.177,1.177,0,0,0-.766.222,1.077,1.077,0,0,0-.4.68l-1.935.007a2.15,2.15,0,0,1,.974-1.719,3.773,3.773,0,0,1,2.287-.646,2.727,2.727,0,0,1,1.969.749,2.19,2.19,0,0,1,.595,1.856L57.75-1.388l-.034.438a2.111,2.111,0,0,0,.116.82L57.825,0ZM54.448-1.36A1.765,1.765,0,0,0,55.9-2.085l.239-1.278-.67-.007a1.872,1.872,0,0,0-1.538.649,1.131,1.131,0,0,0-.212.554.656.656,0,0,0,.154.584A.779.779,0,0,0,54.448-1.36ZM61.038,0H59.1l1.825-10.5h1.935Zm8.757-7.54a2.1,2.1,0,0,1,1.668.827l.725-3.787h1.935L72.3,0H70.581l.109-.793a2.394,2.394,0,0,1-1.928.937,2.129,2.129,0,0,1-1.21-.362,2.281,2.281,0,0,1-.8-1.022,4.116,4.116,0,0,1-.311-1.487,5.6,5.6,0,0,1,.021-.834l.041-.308a5.921,5.921,0,0,1,.632-2,3.3,3.3,0,0,1,1.148-1.278A2.708,2.708,0,0,1,69.795-7.54Zm-1.4,3.979a5.536,5.536,0,0,0-.034.875q.068,1.2.971,1.224a1.65,1.65,0,0,0,1.415-.766l.526-2.939a1.092,1.092,0,0,0-1.066-.766,1.4,1.4,0,0,0-1.172.543A3.654,3.654,0,0,0,68.394-3.562Zm8.962,3.7a3.218,3.218,0,0,1-1.719-.475,2.88,2.88,0,0,1-1.118-1.285,3.582,3.582,0,0,1-.287-1.8l.021-.273a4.782,4.782,0,0,1,.629-1.982,3.8,3.8,0,0,1,1.354-1.391,3.349,3.349,0,0,1,1.832-.461A2.559,2.559,0,0,1,80.23-6.482a3.6,3.6,0,0,1,.557,2.591l-.109.842H76.146A1.587,1.587,0,0,0,76.494-1.9a1.331,1.331,0,0,0,1.025.444,2.365,2.365,0,0,0,1.846-.82l.882,1.094a2.743,2.743,0,0,1-1.2.981A3.934,3.934,0,0,1,77.355.137Zm.615-6.077a1.37,1.37,0,0,0-.947.335,2.943,2.943,0,0,0-.742,1.21h2.652l.041-.178a1.812,1.812,0,0,0,.007-.52.992.992,0,0,0-.335-.619A1.05,1.05,0,0,0,77.971-5.94ZM86.741,0H84.8l1.825-10.5H88.56Zm5.913,0a2,2,0,0,1-.075-.67,2.505,2.505,0,0,1-1.887.807A2.27,2.27,0,0,1,89.083-.5a1.913,1.913,0,0,1-.6-1.528A2.211,2.211,0,0,1,89.5-3.879a4.608,4.608,0,0,1,2.594-.646l.9.014.1-.444a1.543,1.543,0,0,0,.021-.431.74.74,0,0,0-.243-.5.836.836,0,0,0-.55-.188,1.177,1.177,0,0,0-.766.222,1.077,1.077,0,0,0-.4.68l-1.935.007a2.15,2.15,0,0,1,.974-1.719,3.773,3.773,0,0,1,2.287-.646,2.727,2.727,0,0,1,1.969.749,2.19,2.19,0,0,1,.595,1.856l-.567,3.541-.034.438a2.111,2.111,0,0,0,.116.82L94.548,0ZM91.171-1.36a1.765,1.765,0,0,0,1.456-.725l.239-1.278L92.2-3.37a1.872,1.872,0,0,0-1.538.649,1.131,1.131,0,0,0-.212.554.656.656,0,0,0,.154.584A.779.779,0,0,0,91.171-1.36Zm11.115-1.08L104.392-7.4h2.078L102.895,0h-1.846L99.784-7.4h1.955Zm8,2.44a2,2,0,0,1-.075-.67,2.505,2.505,0,0,1-1.887.807,2.27,2.27,0,0,1-1.61-.632,1.913,1.913,0,0,1-.6-1.528,2.211,2.211,0,0,1,1.015-1.856,4.608,4.608,0,0,1,2.594-.646l.9.014.1-.444a1.543,1.543,0,0,0,.021-.431.74.74,0,0,0-.243-.5.836.836,0,0,0-.55-.188,1.177,1.177,0,0,0-.766.222,1.077,1.077,0,0,0-.4.68l-1.935.007a2.15,2.15,0,0,1,.974-1.719,3.773,3.773,0,0,1,2.287-.646,2.727,2.727,0,0,1,1.969.749,2.19,2.19,0,0,1,.595,1.856L112.1-1.388l-.034.438a2.111,2.111,0,0,0,.116.82l-.007.13ZM108.8-1.36a1.765,1.765,0,0,0,1.456-.725l.239-1.278-.67-.007a1.872,1.872,0,0,0-1.538.649,1.131,1.131,0,0,0-.212.554.656.656,0,0,0,.154.584A.779.779,0,0,0,108.8-1.36Zm9.618-4.184a3.98,3.98,0,0,0-.649-.068,1.869,1.869,0,0,0-1.634.772L115.281,0h-1.928l1.285-7.4L116.45-7.4l-.178.9A2.034,2.034,0,0,1,118-7.547a2.812,2.812,0,0,1,.67.1Zm2,5.544h-1.941l1.285-7.4H121.7Zm-.431-9.276a.963.963,0,0,1,.3-.759,1.058,1.058,0,0,1,.759-.3,1.063,1.063,0,0,1,.759.267.959.959,0,0,1,.335.725.99.99,0,0,1-.284.738,1.063,1.063,0,0,1-.776.328,1.081,1.081,0,0,1-.755-.26A.954.954,0,0,1,119.984-9.276ZM126.328,0a2,2,0,0,1-.075-.67,2.505,2.505,0,0,1-1.887.807,2.27,2.27,0,0,1-1.61-.632,1.913,1.913,0,0,1-.6-1.528,2.211,2.211,0,0,1,1.015-1.856,4.608,4.608,0,0,1,2.594-.646l.9.014.1-.444a1.543,1.543,0,0,0,.021-.431.74.74,0,0,0-.243-.5.836.836,0,0,0-.55-.188,1.177,1.177,0,0,0-.766.222,1.077,1.077,0,0,0-.4.68l-1.935.007a2.15,2.15,0,0,1,.974-1.719,3.773,3.773,0,0,1,2.287-.646,2.727,2.727,0,0,1,1.969.749,2.19,2.19,0,0,1,.595,1.856l-.567,3.541-.034.438a2.111,2.111,0,0,0,.116.82l-.007.13Zm-1.483-1.36a1.765,1.765,0,0,0,1.456-.725l.239-1.278-.67-.007a1.872,1.872,0,0,0-1.538.649,1.131,1.131,0,0,0-.212.554.656.656,0,0,0,.154.584A.779.779,0,0,0,124.845-1.36Zm11.662-2.317a5.3,5.3,0,0,1-1.066,2.8A2.654,2.654,0,0,1,133.212.144,2.062,2.062,0,0,1,131.435-.8l-.28.8H129.4l1.818-10.5h1.935l-.745,3.78a2.3,2.3,0,0,1,1.8-.813,2.087,2.087,0,0,1,1.685.769,3.4,3.4,0,0,1,.653,2.088A7.993,7.993,0,0,1,136.507-3.678Zm-1.914-.144a5.735,5.735,0,0,0,.041-.905q-.075-1.193-.984-1.214a1.6,1.6,0,0,0-1.415.775L131.7-2.217a1.1,1.1,0,0,0,1.107.768q1.422.041,1.743-2.071ZM139.146,0H137.2l1.825-10.5h1.935Zm5.147.137a3.218,3.218,0,0,1-1.719-.475,2.88,2.88,0,0,1-1.118-1.285,3.582,3.582,0,0,1-.287-1.8l.021-.273a4.782,4.782,0,0,1,.629-1.982,3.8,3.8,0,0,1,1.354-1.391A3.349,3.349,0,0,1,145-7.533a2.559,2.559,0,0,1,2.164,1.051,3.6,3.6,0,0,1,.557,2.591l-.109.842h-4.532a1.587,1.587,0,0,0,.349,1.148,1.331,1.331,0,0,0,1.025.444,2.365,2.365,0,0,0,1.846-.82l.882,1.094a2.743,2.743,0,0,1-1.2.981A3.934,3.934,0,0,1,144.293.137Zm.615-6.077a1.37,1.37,0,0,0-.947.335,2.943,2.943,0,0,0-.742,1.21h2.652l.041-.178a1.812,1.812,0,0,0,.007-.52.992.992,0,0,0-.335-.619A1.05,1.05,0,0,0,144.908-5.94Z" transform="translate(-9300 6042)" fill="#12263f"/>
    <path id="Trazado_704882" data-name="Trazado 704882" d="M0,0H380.27" transform="translate(-9395.77 6023.553)" fill="none" stroke="#707070" stroke-width="1"/>
  </g>
</svg>
