<svg xmlns="http://www.w3.org/2000/svg" xmlns:xlink="http://www.w3.org/1999/xlink" width="519" height="383.641" viewBox="0 0 519 383.641">
  <defs>
    <linearGradient id="linear-gradient" x1="-13.337" y1="-40.221" x2="-12.357" y2="-40.021" gradientUnits="objectBoundingBox">
      <stop offset="0" stop-color="#09005d"/>
      <stop offset="1" stop-color="#1a0f91"/>
    </linearGradient>
    <linearGradient id="linear-gradient-2" x1="0.671" y1="-8.919" x2="0.22" y2="15.909" xlink:href="#linear-gradient"/>
    <linearGradient id="linear-gradient-3" x1="-13.744" y1="-43.803" x2="-12.764" y2="-43.603" xlink:href="#linear-gradient"/>
  </defs>
  <g id="Grupo_936798" data-name="Grupo 936798" transform="translate(-895 -129.333)">
    <g id="Grupo_936745" data-name="Grupo 936745" transform="translate(1185.724 129.333)">
      <g id="Grupo_936741" data-name="Grupo 936741" transform="translate(104.275 106.396)">
        <path id="Trazado_678228" data-name="Trazado 678228" d="M2113.069,1050.11l4.536-209.284h12.441v214.379Z" transform="translate(-2106.72 -840.826)" fill="#ad84ff"/>
        <path id="Trazado_678229" data-name="Trazado 678229" d="M2131.254,1209.568c0,3.3-1.565,5.76-3.5,5.76h-22.242c-1.93,0-3.5-2.459-3.5-5.76h0c0-3.3,1.565-5.76,3.5-5.76h22.242c1.931,0,3.5,2.459,3.5,5.76Z" transform="translate(-2102.022 -995.184)" fill="#ad84ff"/>
      </g>
      <g id="Grupo_936744" data-name="Grupo 936744">
        <path id="Trazado_678230" data-name="Trazado 678230" d="M2195.7,657.1c-2.453-12.07-42.888,57.722-56.315,74.89s-2.952,22.561-2.952,22.561l1.757,1.663.008,0a12.348,12.348,0,0,0,13.347-5.715C2163.957,728.409,2197.7,666.958,2195.7,657.1Z" transform="translate(-2010.725 -655.709)" fill="#25ffff"/>
        <path id="Trazado_678231" data-name="Trazado 678231" d="M2195.607,952.408c11.769,3.634-30.091-65.312-38.72-85.327s-18.25-13.253-18.25-13.253l-2.169.9-.005.006a11.586,11.586,0,0,0-1.518,14.3C2148.385,890.517,2186,949.441,2195.607,952.408Z" transform="translate(-2010.987 -739.492)" fill="#25ffff"/>
        <path id="Trazado_678232" data-name="Trazado 678232" d="M1921.515,856.945c-10.34-6.693,69.4-18.847,90.284-25.076s21.746,5.488,21.746,5.488l.572,2.241v.008c0,5.321-4.572,9.606-9.861,10.34C1999.154,853.43,1929.957,862.408,1921.515,856.945Z" transform="translate(-1920.594 -729.845)" fill="#25ffff"/>
        <g id="Grupo_936743" data-name="Grupo 936743" transform="translate(109.806 94.512)">
          <path id="Trazado_678233" data-name="Trazado 678233" d="M2135.923,837.112a12.54,12.54,0,1,1-7.318-16.154A12.54,12.54,0,0,1,2135.923,837.112Z" transform="translate(-2111.644 -820.15)" fill="url(#linear-gradient)"/>
          <g id="Grupo_936742" data-name="Grupo 936742" transform="translate(3.612 3.642)">
            <path id="Trazado_678234" data-name="Trazado 678234" d="M2126.878,844.414a8.962,8.962,0,1,1,8.4-5.8h0A8.975,8.975,0,0,1,2126.878,844.414Zm.006-16.646a7.683,7.683,0,1,0,7.193,10.392h0a7.693,7.693,0,0,0-7.193-10.392Z" transform="translate(-2117.928 -826.487)" fill="#7d97f4"/>
          </g>
        </g>
      </g>
    </g>
    <g id="Grupo_936750" data-name="Grupo 936750" transform="translate(1161.71 292.603)">
      <g id="Grupo_936746" data-name="Grupo 936746" transform="translate(51.735 52.932)">
        <path id="Trazado_678235" data-name="Trazado 678235" d="M1778.9,1069.291l2.325-103.76h6.022v106.214Z" transform="translate(-1775.822 -965.531)" fill="#ad84ff"/>
        <path id="Trazado_678236" data-name="Trazado 678236" d="M1784.109,1280.243c0,1.638-.776,2.948-1.734,2.948H1771.34c-.958,0-1.734-1.31-1.734-2.948h0c0-1.637.776-2.948,1.734-2.948h11.035c.958,0,1.734,1.311,1.734,2.948Z" transform="translate(-1769.606 -1174.117)" fill="url(#linear-gradient-2)"/>
      </g>
      <g id="Grupo_936749" data-name="Grupo 936749">
        <path id="Trazado_678237" data-name="Trazado 678237" d="M1827.238,806.283c-1.217-5.988-21.278,28.637-27.94,37.155s-1.465,11.193-1.465,11.193l.872.825,0,0a6.126,6.126,0,0,0,6.622-2.836C1811.488,841.66,1828.231,811.172,1827.238,806.283Z" transform="translate(-1735.465 -805.591)" fill="#25ffff"/>
        <path id="Trazado_678238" data-name="Trazado 678238" d="M1827.416,1024.8c5.839,1.8-14.93-32.4-19.21-42.333s-9.054-6.576-9.054-6.576l-1.076.446,0,0a5.748,5.748,0,0,0-.753,7.094C1803.988,994.093,1822.649,1023.328,1827.416,1024.8Z" transform="translate(-1735.82 -919.165)" fill="#25ffff"/>
        <path id="Trazado_678239" data-name="Trazado 678239" d="M1613.742,969.146c-5.13-3.32,34.43-9.35,44.792-12.441s10.89,2.722,10.89,2.722l.385,1.112v0c0,2.64-2.369,4.766-4.993,5.13C1652.362,967.4,1617.93,971.857,1613.742,969.146Z" transform="translate(-1613.285 -906.088)" fill="#25ffff"/>
        <g id="Grupo_936748" data-name="Grupo 936748" transform="translate(54.478 46.891)">
          <path id="Trazado_678240" data-name="Trazado 678240" d="M1789.941,955.691a6.221,6.221,0,1,1-3.63-8.015A6.221,6.221,0,0,1,1789.941,955.691Z" transform="translate(-1777.895 -947.275)" fill="url(#linear-gradient-3)"/>
          <g id="Grupo_936747" data-name="Grupo 936747" transform="translate(1.739 1.756)">
            <path id="Trazado_678241" data-name="Trazado 678241" d="M1787.643,961.578a4.5,4.5,0,1,1,4.213-2.913h0A4.5,4.5,0,0,1,1787.643,961.578Zm0-8.258a3.76,3.76,0,1,0,3.521,5.086h0a3.765,3.765,0,0,0-3.521-5.086Z" transform="translate(-1783.149 -952.583)" fill="#7d97f4"/>
          </g>
        </g>
      </g>
    </g>
    <g id="Grupo_936740" data-name="Grupo 936740" transform="translate(895 178.977)">
      <g id="Grupo_936732" data-name="Grupo 936732" transform="translate(0 64.369)">
        <path id="Trazado_678206" data-name="Trazado 678206" d="M835.535,461.593a2.336,2.336,0,0,1-2.336-2.336V442.323a2.336,2.336,0,0,1,4.672,0v16.934A2.336,2.336,0,0,1,835.535,461.593Z" transform="translate(-827.36 -439.987)" fill="#fff"/>
        <g id="Grupo_936731" data-name="Grupo 936731" transform="translate(0 7.591)">
          <path id="Trazado_678207" data-name="Trazado 678207" d="M827.865,470.98a2.044,2.044,0,0,1-2.044,2.044H812.975a2.044,2.044,0,0,1-2.044-2.044h0a2.044,2.044,0,0,1,2.044-2.044h12.846a2.044,2.044,0,0,1,2.044,2.044Z" transform="translate(-810.931 -468.936)" fill="#fff"/>
          <path id="Trazado_678208" data-name="Trazado 678208" d="M827.865,508.838a2.044,2.044,0,0,1-2.044,2.044H812.975a2.044,2.044,0,0,1-2.044-2.044h0a2.044,2.044,0,0,1,2.044-2.044h12.846a2.044,2.044,0,0,1,2.044,2.044Z" transform="translate(-810.931 -496.867)" fill="#fff"/>
        </g>
      </g>
      <g id="Grupo_936734" data-name="Grupo 936734" transform="translate(218.976 64.369)">
        <path id="Trazado_678209" data-name="Trazado 678209" d="M1670.617,461.593a2.336,2.336,0,0,1-2.336-2.336V442.323a2.336,2.336,0,1,1,4.671,0v16.934A2.336,2.336,0,0,1,1670.617,461.593Z" transform="translate(-1662.442 -439.987)" fill="#fff"/>
        <g id="Grupo_936733" data-name="Grupo 936733" transform="translate(0 7.591)">
          <path id="Trazado_678210" data-name="Trazado 678210" d="M1662.946,470.98a2.044,2.044,0,0,1-2.044,2.044h-12.846a2.044,2.044,0,0,1-2.044-2.044h0a2.044,2.044,0,0,1,2.044-2.044H1660.9a2.044,2.044,0,0,1,2.044,2.044Z" transform="translate(-1646.012 -468.936)" fill="#fff"/>
          <path id="Trazado_678211" data-name="Trazado 678211" d="M1662.946,508.838a2.044,2.044,0,0,1-2.044,2.044h-12.846a2.044,2.044,0,0,1-2.044-2.044h0a2.043,2.043,0,0,1,2.044-2.044H1660.9a2.044,2.044,0,0,1,2.044,2.044Z" transform="translate(-1646.012 -496.867)" fill="#fff"/>
        </g>
      </g>
      <g id="Grupo_936736" data-name="Grupo 936736" transform="translate(216.057 146.704)">
        <path id="Trazado_678212" data-name="Trazado 678212" d="M1659.482,775.583a2.336,2.336,0,0,1-2.336-2.336V756.314a2.336,2.336,0,0,1,4.672,0v16.934A2.336,2.336,0,0,1,1659.482,775.583Z" transform="translate(-1651.307 -753.978)" fill="#fff"/>
        <g id="Grupo_936735" data-name="Grupo 936735" transform="translate(0 7.591)">
          <path id="Trazado_678213" data-name="Trazado 678213" d="M1651.811,784.971a2.044,2.044,0,0,1-2.044,2.044h-12.846a2.044,2.044,0,0,1-2.044-2.044h0a2.044,2.044,0,0,1,2.044-2.044h12.846a2.044,2.044,0,0,1,2.044,2.044Z" transform="translate(-1634.877 -782.927)" fill="#fff"/>
          <path id="Trazado_678214" data-name="Trazado 678214" d="M1651.811,822.828a2.044,2.044,0,0,1-2.044,2.044h-12.846a2.044,2.044,0,0,1-2.044-2.044h0a2.044,2.044,0,0,1,2.044-2.044h12.846a2.044,2.044,0,0,1,2.044,2.044Z" transform="translate(-1634.877 -810.857)" fill="#fff"/>
        </g>
      </g>
      <g id="Grupo_936738" data-name="Grupo 936738" transform="translate(0 146.704)">
        <path id="Trazado_678215" data-name="Trazado 678215" d="M835.535,775.583a2.336,2.336,0,0,1-2.336-2.336V756.314a2.336,2.336,0,0,1,4.672,0v16.934A2.336,2.336,0,0,1,835.535,775.583Z" transform="translate(-827.36 -753.978)" fill="#fff"/>
        <g id="Grupo_936737" data-name="Grupo 936737" transform="translate(0 7.591)">
          <path id="Trazado_678216" data-name="Trazado 678216" d="M827.865,784.971a2.044,2.044,0,0,1-2.044,2.044H812.975a2.044,2.044,0,0,1-2.044-2.044h0a2.044,2.044,0,0,1,2.044-2.044h12.846a2.044,2.044,0,0,1,2.044,2.044Z" transform="translate(-810.931 -782.927)" fill="#fff"/>
          <path id="Trazado_678217" data-name="Trazado 678217" d="M827.865,822.828a2.044,2.044,0,0,1-2.044,2.044H812.975a2.044,2.044,0,0,1-2.044-2.044h0a2.044,2.044,0,0,1,2.044-2.044h12.846a2.044,2.044,0,0,1,2.044,2.044Z" transform="translate(-810.931 -810.857)" fill="#fff"/>
        </g>
      </g>
      <g id="Grupo_936739" data-name="Grupo 936739" transform="translate(4.573)">
        <path id="Trazado_678218" data-name="Trazado 678218" d="M1124.8,528.508a2.337,2.337,0,0,1-2.307-1.987l-49.434-327.1-43.427,4.809L982.344,526.511a2.336,2.336,0,1,1-4.622-.679l47.553-324.069a2.335,2.335,0,0,1,2.054-1.982l47.451-5.255a2.333,2.333,0,0,1,2.567,1.972l49.77,329.324a2.336,2.336,0,0,1-1.961,2.659A2.387,2.387,0,0,1,1124.8,528.508Z" transform="translate(-938.541 -194.511)" fill="#fff"/>
        <path id="Trazado_678219" data-name="Trazado 678219" d="M1054.268,302.292H830.706a2.336,2.336,0,0,1-1.13-4.38l84.951-46.971a2.336,2.336,0,0,1,2.26,4.089L839.757,297.62h205.932L965.7,250.578a2.336,2.336,0,0,1,2.368-4.027l87.385,51.392a2.336,2.336,0,0,1-1.184,4.349Z" transform="translate(-828.37 -232.667)" fill="#fff"/>
        <path id="Trazado_678220" data-name="Trazado 678220" d="M1050.765,528.613H830.706a2.336,2.336,0,0,1-1.688-3.95l78.1-81.685a2.336,2.336,0,1,1,3.376,3.229l-74.326,77.735H1045.4L972.95,446.11a2.336,2.336,0,1,1,3.419-3.183l76.1,81.759a2.336,2.336,0,0,1-1.71,3.927Z" transform="translate(-828.37 -377.237)" fill="#fff"/>
        <path id="Trazado_678221" data-name="Trazado 678221" d="M1218.09,275.225a2.326,2.326,0,0,1-1.641-.674l-56.708-56a2.336,2.336,0,1,1,3.282-3.323l56.708,56a2.335,2.335,0,0,1-1.641,4Z" transform="translate(-1072.336 -209.298)" fill="#fff"/>
        <path id="Trazado_678222" data-name="Trazado 678222" d="M1130.044,260.441a2.336,2.336,0,0,1-1.728-3.907l55.669-61.255a2.336,2.336,0,0,1,3.457,3.142l-55.669,61.255A2.33,2.33,0,0,1,1130.044,260.441Z" transform="translate(-1049.216 -194.514)" fill="#fff"/>
        <path id="Trazado_678223" data-name="Trazado 678223" d="M1022.846,631.35a2.335,2.335,0,0,1-1.628-4.01L1124.88,526.521l-76.655-80.37a2.336,2.336,0,1,1,3.381-3.224l78.251,82.043a2.335,2.335,0,0,1-.062,3.286L1024.474,630.689A2.329,2.329,0,0,1,1022.846,631.35Z" transform="translate(-970.126 -377.253)" fill="#fff"/>
        <path id="Trazado_678224" data-name="Trazado 678224" d="M1186.065,629.122a2.328,2.328,0,0,1-1.628-.661l-105.32-102.432a2.335,2.335,0,0,1-.062-3.286l78.251-82.043a2.336,2.336,0,0,1,3.381,3.224l-76.655,80.369,103.663,100.819a2.335,2.335,0,0,1-1.629,4.01Z" transform="translate(-1012.843 -375.609)" fill="#fff"/>
      </g>
      <path id="Trazado_678225" data-name="Trazado 678225" d="M1144.636,1163.941H1022.594a2.336,2.336,0,0,1,0-4.671h122.043a2.336,2.336,0,1,1,0,4.671Z" transform="translate(-965.368 -906.289)" fill="#fff"/>
      <path id="Trazado_678226" data-name="Trazado 678226" d="M981.906,1236.925a2.336,2.336,0,0,1-1.923-3.659l50.192-73a2.336,2.336,0,0,1,3.849,2.647l-50.192,73A2.333,2.333,0,0,1,981.906,1236.925Z" transform="translate(-935.351 -906.28)" fill="#fff"/>
      <path id="Trazado_678227" data-name="Trazado 678227" d="M1390.631,1236.925a2.332,2.332,0,0,1-1.927-1.012l-50.192-73a2.336,2.336,0,1,1,3.849-2.647l50.192,73a2.336,2.336,0,0,1-1.923,3.659Z" transform="translate(-1199.865 -906.28)" fill="#fff"/>
    </g>
    <g id="Grupo_936797" data-name="Grupo 936797" transform="translate(831.578 177.39)">
      <g id="Grupo_936763" data-name="Grupo 936763" transform="translate(63.422 191.355)">
        <path id="Trazado_678244" data-name="Trazado 678244" d="M226.587,249.444v31.5H73.978V208.17l5.562,5.435v60.9H219.915V249.444Z" transform="translate(-60.703 -168.916)" fill="#dee4f0"/>
        <path id="Trazado_678245" data-name="Trazado 678245" d="M264.256,256.639v.014H93.6L82.26,226.7l-2.247-5.946L63.436,177v-.014l-.014-.027H232.745l18.564,46.938Z" transform="translate(-63.422 -176.957)" fill="#fff"/>
        <path id="Trazado_678246" data-name="Trazado 678246" d="M96.088,263.157h-3.3l-.033-.066-29.327-77v-9.118l30.25,79.761Z" transform="translate(-63.42 -176.953)" fill="#64819b"/>
        <path id="Trazado_678247" data-name="Trazado 678247" d="M258.261,240.316v6.521H86.746v-.068l.932-6.357v-.1Z" transform="translate(-57.413 -160.635)" fill="#7da9c9"/>
        <g id="Grupo_936759" data-name="Grupo 936759" transform="translate(5.441 3.134)">
          <path id="Trazado_678248" data-name="Trazado 678248" d="M139.809,199.744l8.568,22.4H172.37l-8.649-22.4Z" transform="translate(-49.184 -174.221)" fill="#40b4e2"/>
          <path id="Trazado_678249" data-name="Trazado 678249" d="M118.713,202.022h23.9L134.1,179.969l-23.893-.187Z" transform="translate(-56.81 -179.364)" fill="#40b4e2"/>
          <path id="Trazado_678250" data-name="Trazado 678250" d="M132.239,179.954l8.424,22.023h23.9l-8.432-21.836Z" transform="translate(-51.134 -179.319)" fill="#40b4e2"/>
          <path id="Trazado_678251" data-name="Trazado 678251" d="M98.1,202.064h22.215l-8.6-22.27-22.2-.174Z" transform="translate(-62.14 -179.405)" fill="#40b4e2"/>
          <path id="Trazado_678252" data-name="Trazado 678252" d="M150.4,222.142l-8.649-22.4H117.842l8.568,22.4Z" transform="translate(-54.843 -174.221)" fill="#40b4e2"/>
          <path id="Trazado_678253" data-name="Trazado 678253" d="M83.834,222.142h23.938l-8.649-22.4H75.395Z" transform="translate(-65.779 -174.221)" fill="#40b4e2"/>
          <path id="Trazado_678254" data-name="Trazado 678254" d="M162.613,201.933H186.66l-8.233-21.617-24.154-.189Z" transform="translate(-45.458 -179.275)" fill="#40b4e2"/>
          <path id="Trazado_678255" data-name="Trazado 678255" d="M158.179,242.229l-8.649-22.4h-24l8.568,22.4Z" transform="translate(-52.864 -169.046)" fill="#40b4e2"/>
          <path id="Trazado_678256" data-name="Trazado 678256" d="M97.216,199.744l8.568,22.4h22.307l-8.65-22.4Z" transform="translate(-60.157 -174.221)" fill="#40b4e2"/>
          <path id="Trazado_678257" data-name="Trazado 678257" d="M180.147,242.229l-8.649-22.4h-24l8.568,22.4Z" transform="translate(-47.204 -169.046)" fill="#40b4e2"/>
          <path id="Trazado_678258" data-name="Trazado 678258" d="M135.867,242.229l-8.649-22.4H104.9l8.568,22.4Z" transform="translate(-58.177 -169.046)" fill="#40b4e2"/>
          <path id="Trazado_678259" data-name="Trazado 678259" d="M99.986,202.108l-8.679-22.474-23.559-.185,8.537,22.658Z" transform="translate(-67.748 -179.449)" fill="#40b4e2"/>
          <path id="Trazado_678260" data-name="Trazado 678260" d="M161.776,199.744l8.568,22.4h24l-8.531-22.4Z" transform="translate(-43.525 -174.221)" fill="#40b4e2"/>
          <path id="Trazado_678261" data-name="Trazado 678261" d="M115.578,242.229l-8.649-22.4H82.964l8.439,22.4Z" transform="translate(-63.829 -169.046)" fill="#40b4e2"/>
          <path id="Trazado_678262" data-name="Trazado 678262" d="M193.46,219.832h-24l8.568,22.4h23.963Z" transform="translate(-41.545 -169.046)" fill="#40b4e2"/>
        </g>
        <g id="Grupo_936762" data-name="Grupo 936762" transform="translate(5.441 3.134)">
          <g id="Grupo_936760" data-name="Grupo 936760">
            <path id="Trazado_678263" data-name="Trazado 678263" d="M172.372,222.129H148.391l-8.582-22.377h23.919l5.546,14.345Z" transform="translate(-49.184 -174.219)" fill="#40b4e2"/>
            <path id="Trazado_678264" data-name="Trazado 678264" d="M142.6,202.024H118.717l-.062-.188-1.766-4.594-6.692-17.47,23.919.188.465,1.188,1.518,3.969,5.143,13.376,1.239,3.25Z" transform="translate(-56.813 -179.366)" fill="#40b4e2"/>
            <path id="Trazado_678265" data-name="Trazado 678265" d="M164.561,201.98H140.673l-1.146-3.032-1.239-3.219-5.081-13.282-.96-2.5,3.5.031,18.125.125,2.262.031.589,1.531Z" transform="translate(-51.132 -179.321)" fill="#40b4e2"/>
            <path id="Trazado_678266" data-name="Trazado 678266" d="M120.324,202.063H98.109l-4.431-11.626-4.152-10.813,14.314.094,7.87.063,7.746,20.033Z" transform="translate(-62.138 -179.404)" fill="#40b4e2"/>
            <path id="Trazado_678267" data-name="Trazado 678267" d="M150.4,222.129H126.416l-3.129-8.188-1.3-3.313-4.152-10.876h23.919Z" transform="translate(-54.845 -174.219)" fill="#40b4e2"/>
            <path id="Trazado_678268" data-name="Trazado 678268" d="M107.763,222.129H83.844L77.709,205.94l-2.324-6.188H99.119l4.771,12.376,2.076,5.344Z" transform="translate(-65.781 -174.219)" fill="#40b4e2"/>
            <path id="Trazado_678269" data-name="Trazado 678269" d="M186.648,201.935H162.6L154.27,180.12l24.167.188,6.661,17.564Z" transform="translate(-45.458 -179.276)" fill="#40b4e2"/>
            <path id="Trazado_678270" data-name="Trazado 678270" d="M158.176,242.24H134.1l-8.582-22.408h24.012l3.966,10.251Z" transform="translate(-52.865 -169.046)" fill="#40b4e2"/>
            <path id="Trazado_678271" data-name="Trazado 678271" d="M128.1,222.129H105.8l-2.788-7.25-2.014-5.251-3.78-9.876h22.215l5.236,13.5,1.3,3.313Z" transform="translate(-60.158 -174.219)" fill="#40b4e2"/>
            <path id="Trazado_678272" data-name="Trazado 678272" d="M180.152,242.24h-24.1l-1.023-2.656-4.678-12.251-2.85-7.5h24.012l.651,1.656Z" transform="translate(-47.204 -169.046)" fill="#40b4e2"/>
            <path id="Trazado_678273" data-name="Trazado 678273" d="M135.852,242.24h-22.37l-5.608-14.658-1.3-3.375-1.673-4.375h22.308Z" transform="translate(-58.177 -169.046)" fill="#40b4e2"/>
            <path id="Trazado_678274" data-name="Trazado 678274" d="M100,202.108H76.3l-.96-2.594-7.591-20.064,23.547.188.93,2.438,4.368,11.251Z" transform="translate(-67.748 -179.449)" fill="#40b4e2"/>
            <path id="Trazado_678275" data-name="Trazado 678275" d="M194.347,222.129H170.336l-4.152-10.845-4.4-11.532h24.043l2.324,6.094Z" transform="translate(-43.522 -174.219)" fill="#40b4e2"/>
            <path id="Trazado_678276" data-name="Trazado 678276" d="M115.568,242.24H91.4l-4.9-13.032-2.293-6.094-1.239-3.282h23.95l2.7,6.969,1.3,3.407Z" transform="translate(-63.826 -169.046)" fill="#40b4e2"/>
            <path id="Trazado_678277" data-name="Trazado 678277" d="M202,242.24H178.022l-.558-1.469-7.994-20.94h23.981l.836,2.219,1.58,4.125Z" transform="translate(-41.542 -169.046)" fill="#40b4e2"/>
            <path id="Trazado_678278" data-name="Trazado 678278" d="M208.866,201.935H184.823l-8.334-21.815,24.167.188,6.661,17.564Z" transform="translate(-39.734 -179.276)" fill="#40b4e2"/>
            <path id="Trazado_678279" data-name="Trazado 678279" d="M216.566,222.129H192.554L188.4,211.285,184,199.752h24.043l2.324,6.094Z" transform="translate(-37.798 -174.219)" fill="#40b4e2"/>
            <path id="Trazado_678280" data-name="Trazado 678280" d="M224.221,242.24H200.24l-.558-1.469-7.994-20.94H215.67l.836,2.219,1.58,4.125Z" transform="translate(-35.818 -169.046)" fill="#40b4e2"/>
          </g>
          <g id="Grupo_936761" data-name="Grupo 936761" transform="translate(7.591 0.219)" opacity="0.37">
            <path id="Trazado_678281" data-name="Trazado 678281" d="M75.386,199.752h8.179l-5.856,6.188Z" transform="translate(-73.372 -174.437)" fill="#fff"/>
            <path id="Trazado_678282" data-name="Trazado 678282" d="M86.7,201.57H74.745l-.96-2.594L90.67,181.537l4.368,11.251Z" transform="translate(-73.784 -179.13)" fill="#fff"/>
            <path id="Trazado_678283" data-name="Trazado 678283" d="M87.553,219.832h8.4c-3.377,3.25-6.63,6.406-9.7,9.376l-2.293-6.094Z" transform="translate(-71.163 -169.264)" fill="#fff"/>
            <path id="Trazado_678284" data-name="Trazado 678284" d="M102.374,214.938c-1.642,1.562-3.253,3.125-4.834,4.656H89.33l10.968-10Z" transform="translate(-69.779 -171.902)" fill="#fff"/>
            <path id="Trazado_678285" data-name="Trazado 678285" d="M114.7,197.927h-3.346l2.479-2.25Z" transform="translate(-64.105 -175.487)" fill="#fff"/>
            <path id="Trazado_678286" data-name="Trazado 678286" d="M111.062,199.752h6.972c-5.268,5.032-10.6,10.126-15.8,15.127l-2.013-5.251Z" transform="translate(-66.974 -174.437)" fill="#fff"/>
            <path id="Trazado_678287" data-name="Trazado 678287" d="M134.727,184.835c-5.515,5.281-11.432,10.938-17.443,16.72l-1.766-4.594,17.691-16.1Z" transform="translate(-63.033 -179.303)" fill="#fff"/>
            <path id="Trazado_678288" data-name="Trazado 678288" d="M93.678,190.437l-4.152-10.813,14.314.094Z" transform="translate(-69.729 -179.623)" fill="#fff"/>
            <path id="Trazado_678289" data-name="Trazado 678289" d="M107.321,225.373l1.3,3.407L96.663,240.812H91.892Z" transform="translate(-69.119 -167.837)" fill="#fff"/>
            <path id="Trazado_678290" data-name="Trazado 678290" d="M110.6,219.832h4.648l-7.715,7.751-1.3-3.375Z" transform="translate(-65.426 -169.264)" fill="#fff"/>
            <path id="Trazado_678291" data-name="Trazado 678291" d="M122.157,213.8l-5.546,5.563H112l8.861-8.876Z" transform="translate(-63.94 -171.672)" fill="#fff"/>
            <path id="Trazado_678292" data-name="Trazado 678292" d="M132.01,199.752h4.524l-14.1,14.189-1.3-3.313Z" transform="translate(-61.586 -174.437)" fill="#fff"/>
            <path id="Trazado_678293" data-name="Trazado 678293" d="M135.605,194.658l1.239,3.25-.279.281h-4.492Z" transform="translate(-58.768 -175.75)" fill="#fff"/>
            <path id="Trazado_678294" data-name="Trazado 678294" d="M155.485,181.633l-17.2,17.283L137.05,195.7l15.584-15.626,2.262.031Z" transform="translate(-57.486 -179.508)" fill="#fff"/>
            <path id="Trazado_678295" data-name="Trazado 678295" d="M133.206,182.446l-.96-2.5,3.5.031C134.91,180.79,134.073,181.6,133.206,182.446Z" transform="translate(-58.723 -179.54)" fill="#fff"/>
            <path id="Trazado_678296" data-name="Trazado 678296" d="M167.853,219.191h-10.5l7.405-8.032Z" transform="translate(-52.256 -171.499)" fill="#fff"/>
            <path id="Trazado_678297" data-name="Trazado 678297" d="M154.742,240.14H138.848l11.216-12.158Z" transform="translate(-57.022 -167.165)" fill="#fff"/>
            <path id="Trazado_678298" data-name="Trazado 678298" d="M171.574,221.488l-17.134,18.1-4.678-12.251,6.909-7.5h14.252Z" transform="translate(-54.211 -169.264)" fill="#fff"/>
            <path id="Trazado_678299" data-name="Trazado 678299" d="M187.25,205.847l-15.4,16.283h-2.417l-4.152-10.845,10.627-11.532h9.016Z" transform="translate(-50.212 -174.437)" fill="#fff"/>
            <path id="Trazado_678300" data-name="Trazado 678300" d="M181.094,198.3h-5.267l3.718-4.063Z" transform="translate(-47.496 -175.859)" fill="#fff"/>
            <path id="Trazado_678301" data-name="Trazado 678301" d="M194.231,225.721l-14.624,16.064h-3.222l-.558-1.469L192.651,221.6Z" transform="translate(-47.496 -168.81)" fill="#fff"/>
          </g>
        </g>
      </g>
      <g id="Grupo_936769" data-name="Grupo 936769" transform="translate(72.507 122.304)">
        <path id="Trazado_678302" data-name="Trazado 678302" d="M87.456,133.658a7.255,7.255,0,0,0,0,3.339l.458,1.542s-3.452-2.569-4.98.685-.835,2.312-3.793,4.024-.817,2.26-1.759,4.641-4.8,5.744-3.168,7.059,1.727,2.242,2.226,3.97,15.328-.172,17.639-5.994,3.255-9.505,3-12.588.429-7.192-2.483-7.365A34.83,34.83,0,0,0,87.456,133.658Z" transform="translate(-69.829 -119.243)" fill="#242754"/>
        <path id="Trazado_678303" data-name="Trazado 678303" d="M88.04,150.156a4.1,4.1,0,0,0,2.511-3.882,12.225,12.225,0,0,0-1.113-5.479s-2.2-1.713-1.4-3.768,2.519-.457,2.519-.457v-2.511h13.008s1.256,9.133-.913,10.96-5.708.457-5.708.457l1.027,3.311s4.91,6.279,2.169,9.476-10.626,4.452-12.277,0A10.9,10.9,0,0,1,88.04,150.156Z" transform="translate(-66.388 -118.958)" fill="#ed8772"/>
        <path id="Trazado_678304" data-name="Trazado 678304" d="M95.622,143.37l-3.311-1.142s2.284,4.4,2.569,3.768A23.029,23.029,0,0,0,95.622,143.37Z" transform="translate(-65.065 -116.853)" fill="#b76255"/>
        <path id="Trazado_678305" data-name="Trazado 678305" d="M133.369,164.581c.343-.086,7.45-4.71,6.765-2.484s1.2,1.371,3.255.171,3.253-.942,1.8,1.114a8.12,8.12,0,0,1-4.366,3.681c-2.484,1.113-5.052,3-6.336,1.627S133.369,164.581,133.369,164.581Z" transform="translate(-54.489 -111.89)" fill="#ed8772"/>
        <g id="Grupo_936764" data-name="Grupo 936764" transform="translate(9.311 29.828)">
          <path id="Trazado_678306" data-name="Trazado 678306" d="M150.9,174.087s-28.88,12.783-30.484,11.864c-1.315-.753-7.357-10.768-9.371-14.166-.425-.7-.672-1.123-.672-1.123s-3.535,26.14-2.631,29.675-9.247,5.6-14.837,5.823-15.289-.562-14.837-2.617,4.9-22.688,6.165-27.551c1.248-4.878-.233-10.248-.684-15.044-.467-4.8-5.481-9.015-5.481-9.015a22.221,22.221,0,0,1,5.357-3.315,29.428,29.428,0,0,1,6.974-1.48s2.616,6.165,7.755,6.055,2.178-7.425,2.178-7.425,10.152,1.821,11.3,4.219,10.042,26.839,12.783,25.921,23.181-9.823,24.661-7.878S150.9,174.087,150.9,174.087Z" transform="translate(-78.05 -145.769)" fill="#f4bd5b"/>
        </g>
        <g id="Grupo_936765" data-name="Grupo 936765" transform="translate(16.859)">
          <path id="Trazado_678307" data-name="Trazado 678307" d="M91.364,137.151s-6.429,0-7.029-1.027-1.219-13.359,9.066-14.043S104.03,132.613,105.57,133.3s3.6,1.884,1.713,2.826a9.108,9.108,0,0,1-2.911,1.027Z" transform="translate(-84.051 -122.051)" fill="#f4d65b"/>
        </g>
        <g id="Grupo_936766" data-name="Grupo 936766" transform="translate(40.079 34.048)">
          <path id="Trazado_678308" data-name="Trazado 678308" d="M144.594,173.223s-28.88,12.783-30.484,11.864c-1.315-.753-7.357-10.768-9.371-14.166l-.357-2.055c.685-3.754-.191-5.316-1.575-9-1.371-3.7,2.52-10.741,2.52-10.741,1.137,2.4,10.042,26.839,12.783,25.921s23.181-9.823,24.661-7.878S144.594,173.223,144.594,173.223Z" transform="translate(-102.515 -149.124)" fill="#f4d05b"/>
        </g>
        <path id="Trazado_678309" data-name="Trazado 678309" d="M83.1,272.41s.342,8.22-1.6,10.846-1.894,6.508,1.621,7.192,18.472,3.653,19.5,1.713-.8-3.311-3.2-4.8-7.307-3.653-9.249-6.507-.342-8.449-.342-8.449Z" transform="translate(-68.181 -83.315)" fill="#232538"/>
        <path id="Trazado_678310" data-name="Trazado 678310" d="M107.563,271.766a27.5,27.5,0,0,1,1.6,10.5c-.343,4-.114,6.508,3.31,5.937s20.094.684,20.322-2.969-5.708-3.653-10.16-4.566-8.22-4.224-8.905-8.22S107.563,271.766,107.563,271.766Z" transform="translate(-61.135 -83.812)" fill="#232538"/>
        <path id="Trazado_678311" data-name="Trazado 678311" d="M103.7,189.617s14.557,46.653,14.557,55.265,2.4,48.172,1.027,49.029-6.6,1.884-7.581,0-4.921-46.618-6.12-50.8S94.516,210.51,94.516,210.51L90,190.843Z" transform="translate(-65.661 -104.644)" fill="#242754"/>
        <path id="Trazado_678312" data-name="Trazado 678312" d="M78.064,191.7a40.9,40.9,0,0,0,1.822,12.1c2.055,7.021,7.021,27.23,7.021,32.025s-1.027,31.986-2.569,43.822-2.226,14.918-1.027,15.6,8.392,2.055,9.249,0,8.391-45.61,8.734-51.233-3.7-52.32-3.7-52.32Z" transform="translate(-68.737 -104.107)" fill="#333970"/>
        <g id="Grupo_936767" data-name="Grupo 936767" transform="translate(40.376 44.784)">
          <path id="Trazado_678313" data-name="Trazado 678313" d="M104.007,167.594a8.806,8.806,0,0,0,.571-4.566,36.759,36.759,0,0,0-1.827-5.366,16.4,16.4,0,0,1,3.539,7.992,62.2,62.2,0,0,0,2.618,10.009Z" transform="translate(-102.751 -157.661)" fill="#f4bd5b"/>
        </g>
        <path id="Trazado_678314" data-name="Trazado 678314" d="M88.975,208.538,99.45,168.464s8.1,1.368,12.212,3.139a23.307,23.307,0,0,0,11.08,2.227,16.3,16.3,0,0,0,5.137-.951l-9.134,39.883a28.858,28.858,0,0,1-13.015-1.371c-6.165-2.4-9.362-2.968-11.988-2.854S88.975,208.538,88.975,208.538Z" transform="translate(-65.924 -110.094)" fill="#fff"/>
        <path id="Trazado_678315" data-name="Trazado 678315" d="M92.054,184.535s3.086-2.842,2.915-1.216-1.014,3.168.008,3.34,7.014.321,5.3,2.857-4.709,3.907-6.592,2.537-4.71-3.853-4.71-3.853Z" transform="translate(-65.924 -106.396)" fill="#ed8772"/>
        <g id="Grupo_936768" data-name="Grupo 936768" transform="translate(0 35.705)">
          <path id="Trazado_678316" data-name="Trazado 678316" d="M94.81,197.653c-.795,1.6-21.126-6.616-23.743-12.562s7.878-32.415,8.905-34.361a1.364,1.364,0,0,1,.219-.288c4.207.809,7.1,5.974,6.974,7.371-.233,2.508-6.85,19.057-7.083,22.03s14.961,10.728,16.332,11.413S95.6,196.051,94.81,197.653Z" transform="translate(-70.646 -150.442)" fill="#f4d65b"/>
        </g>
      </g>
      <g id="Grupo_936774" data-name="Grupo 936774" transform="translate(254.638 218.576)">
        <path id="Trazado_678317" data-name="Trazado 678317" d="M352.261,246.235v42.178H229.556V224.261l-4.86-5.076v74.374h133.4V245.972Z" transform="translate(-213.089 -193.299)" fill="#dee4f0"/>
        <path id="Trazado_678318" data-name="Trazado 678318" d="M391.019,262.292H241.851L215.467,198.6H363.472Z" transform="translate(-215.467 -198.602)" fill="#fff"/>
        <path id="Trazado_678319" data-name="Trazado 678319" d="M244.019,267.494h-2.883l-.029-.053L215.471,205.9v-7.286l26.443,63.743Z" transform="translate(-215.466 -198.597)" fill="#64819b"/>
        <path id="Trazado_678320" data-name="Trazado 678320" d="M385.772,249.24v5.212H235.855V254.4l.808-5.079v-.08Z" transform="translate(-210.214 -185.556)" fill="#7da9c9"/>
        <g id="Grupo_936770" data-name="Grupo 936770" transform="translate(4.754 2.508)">
          <path id="Trazado_678321" data-name="Trazado 678321" d="M282.236,216.815l7.49,17.9H310.7l-7.561-17.9Z" transform="translate(-203.019 -196.418)" fill="#40b4e2"/>
          <path id="Trazado_678322" data-name="Trazado 678322" d="M263.8,218.636h20.893l-7.444-17.624-20.885-.15Z" transform="translate(-209.685 -200.528)" fill="#40b4e2"/>
          <path id="Trazado_678323" data-name="Trazado 678323" d="M275.619,201l7.364,17.6h20.893l-7.371-17.451Z" transform="translate(-204.723 -200.492)" fill="#40b4e2"/>
          <path id="Trazado_678324" data-name="Trazado 678324" d="M245.78,218.669H265.2l-7.517-17.8-19.406-.139Z" transform="translate(-214.344 -200.561)" fill="#40b4e2"/>
          <path id="Trazado_678325" data-name="Trazado 678325" d="M291.5,234.715l-7.561-17.9h-20.9l7.49,17.9Z" transform="translate(-207.966 -196.418)" fill="#40b4e2"/>
          <path id="Trazado_678326" data-name="Trazado 678326" d="M233.307,234.715h20.925l-7.561-17.9H225.931Z" transform="translate(-217.525 -196.418)" fill="#40b4e2"/>
          <path id="Trazado_678327" data-name="Trazado 678327" d="M302.171,218.564H323.19l-7.2-17.276-21.114-.151Z" transform="translate(-199.762 -200.457)" fill="#40b4e2"/>
          <path id="Trazado_678328" data-name="Trazado 678328" d="M298.294,250.768l-7.56-17.9H269.751l7.489,17.9Z" transform="translate(-206.235 -192.282)" fill="#40b4e2"/>
          <path id="Trazado_678329" data-name="Trazado 678329" d="M245,216.815l7.489,17.9h19.5l-7.561-17.9Z" transform="translate(-212.611 -196.418)" fill="#40b4e2"/>
          <path id="Trazado_678330" data-name="Trazado 678330" d="M317.5,250.768l-7.561-17.9H288.953l7.489,17.9Z" transform="translate(-201.288 -192.282)" fill="#40b4e2"/>
          <path id="Trazado_678331" data-name="Trazado 678331" d="M278.791,250.768l-7.561-17.9H251.721l7.489,17.9Z" transform="translate(-210.88 -192.282)" fill="#40b4e2"/>
          <path id="Trazado_678332" data-name="Trazado 678332" d="M247.427,218.7l-7.586-17.96-20.594-.148,7.462,18.108Z" transform="translate(-219.247 -200.596)" fill="#40b4e2"/>
          <path id="Trazado_678333" data-name="Trazado 678333" d="M301.439,216.815l7.489,17.9h20.983l-7.457-17.9Z" transform="translate(-198.072 -196.418)" fill="#40b4e2"/>
          <path id="Trazado_678334" data-name="Trazado 678334" d="M261.056,250.768l-7.561-17.9H232.546l7.377,17.9Z" transform="translate(-215.82 -192.282)" fill="#40b4e2"/>
          <path id="Trazado_678335" data-name="Trazado 678335" d="M329.134,232.869H308.155l7.489,17.9h20.947Z" transform="translate(-196.341 -192.282)" fill="#40b4e2"/>
        </g>
        <g id="Grupo_936773" data-name="Grupo 936773" transform="translate(4.754 2.508)">
          <g id="Grupo_936771" data-name="Grupo 936771">
            <path id="Trazado_678336" data-name="Trazado 678336" d="M310.7,234.7H289.739l-7.5-17.883h20.908l4.848,11.464Z" transform="translate(-203.019 -196.416)" fill="#40b4e2"/>
            <path id="Trazado_678337" data-name="Trazado 678337" d="M284.68,218.638H263.8l-.054-.15-1.544-3.672-5.85-13.962,20.908.15.406.949,1.327,3.172,4.5,10.69,1.083,2.6Z" transform="translate(-209.687 -200.53)" fill="#40b4e2"/>
            <path id="Trazado_678338" data-name="Trazado 678338" d="M303.873,218.6H282.992l-1-2.423-1.083-2.573-4.442-10.615-.84-2,3.06.025,15.843.1,1.977.025.515,1.224Z" transform="translate(-204.722 -200.494)" fill="#40b4e2"/>
            <path id="Trazado_678339" data-name="Trazado 678339" d="M265.2,218.668H245.785l-3.873-9.291-3.629-8.642,12.512.075,6.879.05,6.771,16.01Z" transform="translate(-214.342 -200.56)" fill="#40b4e2"/>
            <path id="Trazado_678340" data-name="Trazado 678340" d="M291.492,234.7H270.529l-2.735-6.544-1.138-2.648-3.629-8.692h20.908Z" transform="translate(-207.967 -196.416)" fill="#40b4e2"/>
            <path id="Trazado_678341" data-name="Trazado 678341" d="M254.224,234.7H233.316l-5.363-12.938-2.031-4.945h20.746l4.171,9.891,1.814,4.271Z" transform="translate(-217.527 -196.416)" fill="#40b4e2"/>
            <path id="Trazado_678342" data-name="Trazado 678342" d="M323.18,218.566H302.163l-7.285-17.434,21.125.15,5.823,14.037Z" transform="translate(-199.762 -200.458)" fill="#40b4e2"/>
            <path id="Trazado_678343" data-name="Trazado 678343" d="M298.292,250.777H277.248l-7.5-17.908h20.989l3.467,8.192Z" transform="translate(-206.237 -192.282)" fill="#40b4e2"/>
            <path id="Trazado_678344" data-name="Trazado 678344" d="M272,234.7H252.5l-2.437-5.794-1.76-4.2-3.3-7.893h19.419L269,227.612l1.137,2.648Z" transform="translate(-212.611 -196.416)" fill="#40b4e2"/>
            <path id="Trazado_678345" data-name="Trazado 678345" d="M317.5,250.777H296.43l-.894-2.123-4.09-9.791-2.492-5.994h20.989l.569,1.324Z" transform="translate(-201.288 -192.282)" fill="#40b4e2"/>
            <path id="Trazado_678346" data-name="Trazado 678346" d="M278.777,250.777H259.223l-4.9-11.714-1.137-2.7-1.462-3.5h19.5Z" transform="translate(-210.88 -192.282)" fill="#40b4e2"/>
            <path id="Trazado_678347" data-name="Trazado 678347" d="M247.44,218.7H226.722l-.84-2.073L219.247,200.6l20.583.15.813,1.948,3.819,8.992Z" transform="translate(-219.247 -200.596)" fill="#40b4e2"/>
            <path id="Trazado_678348" data-name="Trazado 678348" d="M329.91,234.7H308.921l-3.629-8.667-3.846-9.216h21.016l2.031,4.871Z" transform="translate(-198.07 -196.416)" fill="#40b4e2"/>
            <path id="Trazado_678349" data-name="Trazado 678349" d="M261.047,250.777H239.922l-4.279-10.415-2-4.871-1.083-2.623H253.49l2.356,5.57,1.138,2.723Z" transform="translate(-215.818 -192.282)" fill="#40b4e2"/>
            <path id="Trazado_678350" data-name="Trazado 678350" d="M336.6,250.777H315.64l-.487-1.174-6.988-16.734h20.962l.731,1.773,1.381,3.3Z" transform="translate(-196.339 -192.282)" fill="#40b4e2"/>
            <path id="Trazado_678351" data-name="Trazado 678351" d="M342.6,218.566H321.584L314.3,201.132l21.125.15,5.823,14.037Z" transform="translate(-194.759 -200.458)" fill="#40b4e2"/>
            <path id="Trazado_678352" data-name="Trazado 678352" d="M349.331,234.7H328.342l-3.629-8.667-3.846-9.216h21.016l2.031,4.871Z" transform="translate(-193.066 -196.416)" fill="#40b4e2"/>
            <path id="Trazado_678353" data-name="Trazado 678353" d="M356.023,250.777H335.061l-.487-1.174-6.987-16.734h20.962l.731,1.773,1.381,3.3Z" transform="translate(-191.336 -192.282)" fill="#40b4e2"/>
          </g>
          <g id="Grupo_936772" data-name="Grupo 936772" transform="translate(6.635 0.175)" opacity="0.37">
            <path id="Trazado_678354" data-name="Trazado 678354" d="M225.922,216.822h7.15l-5.119,4.945Z" transform="translate(-224.162 -196.591)" fill="#fff"/>
            <path id="Trazado_678355" data-name="Trazado 678355" d="M235.816,218.274H225.362l-.84-2.073,14.76-13.937,3.819,8.992Z" transform="translate(-224.523 -200.341)" fill="#fff"/>
            <path id="Trazado_678356" data-name="Trazado 678356" d="M236.559,232.869h7.34c-2.953,2.6-5.8,5.12-8.478,7.493l-2-4.871Z" transform="translate(-222.231 -192.457)" fill="#fff"/>
            <path id="Trazado_678357" data-name="Trazado 678357" d="M249.513,228.957c-1.435,1.249-2.844,2.5-4.224,3.721h-7.177l9.588-7.992Z" transform="translate(-221.022 -194.565)" fill="#fff"/>
            <path id="Trazado_678358" data-name="Trazado 678358" d="M260.289,215.363h-2.925l2.167-1.8Z" transform="translate(-216.062 -197.43)" fill="#fff"/>
            <path id="Trazado_678359" data-name="Trazado 678359" d="M257.109,216.822H263.2c-4.6,4.021-9.262,8.092-13.811,12.088l-1.761-4.2Z" transform="translate(-218.57 -196.591)" fill="#fff"/>
            <path id="Trazado_678360" data-name="Trazado 678360" d="M277.795,204.9c-4.822,4.222-9.994,8.742-15.247,13.364L261,214.591l15.464-12.863Z" transform="translate(-215.124 -200.479)" fill="#fff"/>
            <path id="Trazado_678361" data-name="Trazado 678361" d="M241.913,209.377l-3.629-8.642,12.512.075Z" transform="translate(-220.977 -200.735)" fill="#fff"/>
            <path id="Trazado_678362" data-name="Trazado 678362" d="M253.838,237.3l1.138,2.723-10.454,9.616h-4.171Z" transform="translate(-220.445 -191.316)" fill="#fff"/>
            <path id="Trazado_678363" data-name="Trazado 678363" d="M256.7,232.869h4.063l-6.744,6.194-1.137-2.7Z" transform="translate(-217.216 -192.457)" fill="#fff"/>
            <path id="Trazado_678364" data-name="Trazado 678364" d="M266.807,228.049l-4.848,4.446h-4.035l7.746-7.093Z" transform="translate(-215.918 -194.38)" fill="#fff"/>
            <path id="Trazado_678365" data-name="Trazado 678365" d="M275.419,216.822h3.954l-12.323,11.339-1.138-2.648Z" transform="translate(-213.859 -196.591)" fill="#fff"/>
            <path id="Trazado_678366" data-name="Trazado 678366" d="M278.562,212.75l1.083,2.6-.244.225h-3.927Z" transform="translate(-211.396 -197.64)" fill="#fff"/>
            <path id="Trazado_678367" data-name="Trazado 678367" d="M295.939,202.341l-15.031,13.812-1.083-2.573,13.623-12.488,1.977.025Z" transform="translate(-210.275 -200.643)" fill="#fff"/>
            <path id="Trazado_678368" data-name="Trazado 678368" d="M276.465,202.991l-.84-2,3.061.025C277.954,201.667,277.223,202.317,276.465,202.991Z" transform="translate(-211.357 -200.669)" fill="#fff"/>
            <path id="Trazado_678369" data-name="Trazado 678369" d="M306.751,232.356h-9.181l6.473-6.419Z" transform="translate(-205.704 -194.242)" fill="#fff"/>
            <path id="Trazado_678370" data-name="Trazado 678370" d="M295.29,249.1H281.4l9.8-9.716Z" transform="translate(-209.87 -190.778)" fill="#fff"/>
            <path id="Trazado_678371" data-name="Trazado 678371" d="M310,234.192l-14.977,14.461-4.09-9.791,6.04-5.994h12.458Z" transform="translate(-207.413 -192.457)" fill="#fff"/>
            <path id="Trazado_678372" data-name="Trazado 678372" d="M323.706,221.692,310.245,234.7h-2.113l-3.629-8.667,9.289-9.216h7.881Z" transform="translate(-203.917 -196.591)" fill="#fff"/>
            <path id="Trazado_678373" data-name="Trazado 678373" d="M318.325,215.66h-4.6l3.25-3.247Z" transform="translate(-201.543 -197.727)" fill="#fff"/>
            <path id="Trazado_678374" data-name="Trazado 678374" d="M329.808,237.576l-12.783,12.838h-2.817l-.487-1.174,14.706-14.961Z" transform="translate(-201.543 -192.093)" fill="#fff"/>
          </g>
        </g>
      </g>
      <g id="Grupo_936779" data-name="Grupo 936779" transform="translate(188.086 258.316)">
        <path id="Trazado_678375" data-name="Trazado 678375" d="M288.04,271.37v18.368H175.474v-34h-4.458v38.724H293.39V271.37Z" transform="translate(-160.368 -223.623)" fill="#dee4f0"/>
        <path id="Trazado_678376" data-name="Trazado 678376" d="M323.6,288.629H186.753l-24.2-58.428H298.325Z" transform="translate(-162.549 -230.201)" fill="#fff"/>
        <path id="Trazado_678377" data-name="Trazado 678377" d="M188.742,293.4H186.1l-.026-.049L162.553,236.9v-6.684l24.258,58.477Z" transform="translate(-162.548 -230.197)" fill="#64819b"/>
        <path id="Trazado_678378" data-name="Trazado 678378" d="M318.783,276.656v4.781H181.253v-.049l.741-4.66v-.073Z" transform="translate(-157.73 -218.233)" fill="#7da9c9"/>
        <g id="Grupo_936775" data-name="Grupo 936775" transform="translate(4.361 2.301)">
          <path id="Trazado_678379" data-name="Trazado 678379" d="M223.8,246.91l6.871,16.421h19.241l-6.936-16.421Z" transform="translate(-151.129 -228.198)" fill="#40b4e2"/>
          <path id="Trazado_678380" data-name="Trazado 678380" d="M206.885,248.58h19.167l-6.829-16.168-19.16-.137Z" transform="translate(-157.245 -231.968)" fill="#40b4e2"/>
          <path id="Trazado_678381" data-name="Trazado 678381" d="M217.731,232.4l6.756,16.146h19.167l-6.762-16.009Z" transform="translate(-152.693 -231.935)" fill="#40b4e2"/>
          <path id="Trazado_678382" data-name="Trazado 678382" d="M190.358,248.611h17.814l-6.9-16.327-17.8-.128Z" transform="translate(-161.519 -231.999)" fill="#40b4e2"/>
          <path id="Trazado_678383" data-name="Trazado 678383" d="M232.3,263.331l-6.936-16.421H206.186l6.871,16.421Z" transform="translate(-155.667 -228.198)" fill="#40b4e2"/>
          <path id="Trazado_678384" data-name="Trazado 678384" d="M178.915,263.331h19.2l-6.936-16.421H172.148Z" transform="translate(-164.437 -228.198)" fill="#40b4e2"/>
          <path id="Trazado_678385" data-name="Trazado 678385" d="M242.089,248.515h19.283l-6.6-15.848-19.369-.139Z" transform="translate(-148.141 -231.903)" fill="#40b4e2"/>
          <path id="Trazado_678386" data-name="Trazado 678386" d="M238.533,278.058,231.6,261.637H212.348l6.871,16.421Z" transform="translate(-154.08 -224.404)" fill="#40b4e2"/>
          <path id="Trazado_678387" data-name="Trazado 678387" d="M189.646,246.91l6.871,16.421H214.4l-6.936-16.421Z" transform="translate(-159.929 -228.198)" fill="#40b4e2"/>
          <path id="Trazado_678388" data-name="Trazado 678388" d="M256.148,278.058l-6.936-16.421H229.964l6.87,16.421Z" transform="translate(-149.542 -224.404)" fill="#40b4e2"/>
          <path id="Trazado_678389" data-name="Trazado 678389" d="M220.64,278.058,213.7,261.637h-17.9l6.871,16.421Z" transform="translate(-158.341 -224.404)" fill="#40b4e2"/>
          <path id="Trazado_678390" data-name="Trazado 678390" d="M191.868,248.643l-6.959-16.476-18.892-.135,6.846,16.612Z" transform="translate(-166.016 -232.031)" fill="#40b4e2"/>
          <path id="Trazado_678391" data-name="Trazado 678391" d="M241.417,246.91l6.871,16.421h19.249L260.7,246.91Z" transform="translate(-146.591 -228.198)" fill="#40b4e2"/>
          <path id="Trazado_678392" data-name="Trazado 678392" d="M204.371,278.058l-6.936-16.421H178.217l6.767,16.421Z" transform="translate(-162.873 -224.404)" fill="#40b4e2"/>
          <path id="Trazado_678393" data-name="Trazado 678393" d="M266.824,261.637H247.579l6.871,16.421h19.216Z" transform="translate(-145.004 -224.404)" fill="#40b4e2"/>
        </g>
        <g id="Grupo_936778" data-name="Grupo 936778" transform="translate(4.361 2.301)">
          <g id="Grupo_936776" data-name="Grupo 936776">
            <path id="Trazado_678394" data-name="Trazado 678394" d="M249.914,263.322h-19.23L223.8,246.916h19.18l4.447,10.517Z" transform="translate(-151.129 -228.196)" fill="#40b4e2"/>
            <path id="Trazado_678395" data-name="Trazado 678395" d="M226.043,248.582H206.888l-.05-.138-1.416-3.368-5.367-12.808,19.181.137.373.871,1.218,2.91,4.124,9.807.994,2.383Z" transform="translate(-157.247 -231.97)" fill="#40b4e2"/>
            <path id="Trazado_678396" data-name="Trazado 678396" d="M243.65,248.549H224.495l-.919-2.223-.994-2.36-4.075-9.738-.77-1.833,2.808.023,14.534.092,1.814.023.472,1.123Z" transform="translate(-152.692 -231.937)" fill="#40b4e2"/>
            <path id="Trazado_678397" data-name="Trazado 678397" d="M208.177,248.61H190.362l-3.553-8.524-3.329-7.928,11.479.069,6.311.046,6.211,14.687Z" transform="translate(-161.517 -231.998)" fill="#40b4e2"/>
            <path id="Trazado_678398" data-name="Trazado 678398" d="M232.292,263.322h-19.23l-2.509-6-1.044-2.429-3.329-7.974h19.18Z" transform="translate(-155.669 -228.196)" fill="#40b4e2"/>
            <path id="Trazado_678399" data-name="Trazado 678399" d="M198.1,263.322h-19.18L174,251.453l-1.863-4.537h19.032L195,255.99l1.665,3.918Z" transform="translate(-164.439 -228.196)" fill="#40b4e2"/>
            <path id="Trazado_678400" data-name="Trazado 678400" d="M261.362,248.516h-19.28L235.4,232.523l19.379.137,5.342,12.877Z" transform="translate(-148.142 -231.904)" fill="#40b4e2"/>
            <path id="Trazado_678401" data-name="Trazado 678401" d="M238.53,278.065h-19.3l-6.882-16.429H231.6l3.18,7.516Z" transform="translate(-154.081 -224.404)" fill="#40b4e2"/>
            <path id="Trazado_678402" data-name="Trazado 678402" d="M214.415,263.322H196.526l-2.236-5.316-1.615-3.85-3.031-7.24h17.814l4.2,9.9,1.043,2.429Z" transform="translate(-159.929 -228.196)" fill="#40b4e2"/>
            <path id="Trazado_678403" data-name="Trazado 678403" d="M256.152,278.065H236.823l-.82-1.948-3.752-8.982-2.286-5.5H249.22l.522,1.214Z" transform="translate(-149.541 -224.404)" fill="#40b4e2"/>
            <path id="Trazado_678404" data-name="Trazado 678404" d="M220.628,278.065H202.69l-4.5-10.746-1.043-2.475-1.341-3.208H213.7Z" transform="translate(-158.341 -224.404)" fill="#40b4e2"/>
            <path id="Trazado_678405" data-name="Trazado 678405" d="M191.88,248.643H172.874l-.77-1.9-6.087-14.71,18.882.137.746,1.787,3.5,8.249Z" transform="translate(-166.016 -232.031)" fill="#40b4e2"/>
            <path id="Trazado_678406" data-name="Trazado 678406" d="M267.536,263.322H248.281l-3.329-7.951-3.528-8.455H260.7l1.863,4.468Z" transform="translate(-146.589 -228.196)" fill="#40b4e2"/>
            <path id="Trazado_678407" data-name="Trazado 678407" d="M204.363,278.065H184.983l-3.926-9.555-1.839-4.468-.994-2.406h19.205l2.162,5.11,1.043,2.5Z" transform="translate(-162.871 -224.404)" fill="#40b4e2"/>
            <path id="Trazado_678408" data-name="Trazado 678408" d="M273.675,278.065h-19.23L254,276.989l-6.41-15.352h19.23l.671,1.627,1.267,3.025Z" transform="translate(-145.001 -224.404)" fill="#40b4e2"/>
            <path id="Trazado_678409" data-name="Trazado 678409" d="M279.178,248.516H259.9l-6.683-15.993,19.379.137,5.342,12.877Z" transform="translate(-143.552 -231.904)" fill="#40b4e2"/>
            <path id="Trazado_678410" data-name="Trazado 678410" d="M285.353,263.322H266.1l-3.329-7.951-3.528-8.455h19.28l1.863,4.468Z" transform="translate(-141.999 -228.196)" fill="#40b4e2"/>
            <path id="Trazado_678411" data-name="Trazado 678411" d="M291.492,278.065h-19.23l-.447-1.077-6.41-15.352h19.23l.671,1.627,1.267,3.025Z" transform="translate(-140.411 -224.404)" fill="#40b4e2"/>
          </g>
          <g id="Grupo_936777" data-name="Grupo 936777" transform="translate(6.087 0.16)" opacity="0.37">
            <path id="Trazado_678412" data-name="Trazado 678412" d="M172.14,246.916H178.7l-4.7,4.537Z" transform="translate(-170.526 -228.357)" fill="#fff"/>
            <path id="Trazado_678413" data-name="Trazado 678413" d="M181.217,248.249h-9.59l-.77-1.9L184.4,233.561l3.5,8.249Z" transform="translate(-170.856 -231.797)" fill="#fff"/>
            <path id="Trazado_678414" data-name="Trazado 678414" d="M181.9,261.637h6.733c-2.708,2.383-5.317,4.7-7.777,6.874l-1.839-4.468Z" transform="translate(-168.755 -224.564)" fill="#fff"/>
            <path id="Trazado_678415" data-name="Trazado 678415" d="M193.782,258.048c-1.317,1.146-2.608,2.291-3.876,3.414h-6.584l8.8-7.332Z" transform="translate(-167.645 -226.498)" fill="#fff"/>
            <path id="Trazado_678416" data-name="Trazado 678416" d="M203.667,245.578h-2.683l1.988-1.65Z" transform="translate(-163.095 -229.126)" fill="#fff"/>
            <path id="Trazado_678417" data-name="Trazado 678417" d="M200.75,246.916h5.59c-4.224,3.689-8.5,7.424-12.672,11.09l-1.615-3.85Z" transform="translate(-165.395 -228.357)" fill="#fff"/>
            <path id="Trazado_678418" data-name="Trazado 678418" d="M219.726,235.979c-4.423,3.872-9.168,8.02-13.987,12.258l-1.416-3.368,14.186-11.8Z" transform="translate(-162.235 -231.924)" fill="#fff"/>
            <path id="Trazado_678419" data-name="Trazado 678419" d="M186.809,240.086l-3.329-7.928,11.479.069Z" transform="translate(-167.604 -232.159)" fill="#fff"/>
            <path id="Trazado_678420" data-name="Trazado 678420" d="M197.75,265.7l1.043,2.5-9.59,8.821h-3.826Z" transform="translate(-167.116 -223.517)" fill="#fff"/>
            <path id="Trazado_678421" data-name="Trazado 678421" d="M200.378,261.637H204.1l-6.187,5.682-1.043-2.475Z" transform="translate(-164.153 -224.564)" fill="#fff"/>
            <path id="Trazado_678422" data-name="Trazado 678422" d="M209.647,257.215l-4.447,4.078h-3.7l7.106-6.507Z" transform="translate(-162.962 -226.329)" fill="#fff"/>
            <path id="Trazado_678423" data-name="Trazado 678423" d="M217.547,246.916h3.628l-11.3,10.4-1.044-2.429Z" transform="translate(-161.074 -228.357)" fill="#fff"/>
            <path id="Trazado_678424" data-name="Trazado 678424" d="M220.431,243.181l.994,2.383-.224.206h-3.6Z" transform="translate(-158.814 -229.319)" fill="#fff"/>
            <path id="Trazado_678425" data-name="Trazado 678425" d="M236.372,233.632,222.583,246.3l-.994-2.36,12.5-11.456,1.814.023Z" transform="translate(-157.786 -232.074)" fill="#fff"/>
            <path id="Trazado_678426" data-name="Trazado 678426" d="M218.507,234.229l-.77-1.834,2.807.024C219.874,233.014,219.2,233.61,218.507,234.229Z" transform="translate(-158.779 -232.098)" fill="#fff"/>
            <path id="Trazado_678427" data-name="Trazado 678427" d="M246.29,261.167h-8.423l5.938-5.888Z" transform="translate(-153.592 -226.202)" fill="#fff"/>
            <path id="Trazado_678428" data-name="Trazado 678428" d="M235.777,276.526H223.031l8.994-8.913Z" transform="translate(-157.415 -223.024)" fill="#fff"/>
            <path id="Trazado_678429" data-name="Trazado 678429" d="M249.274,262.851l-13.739,13.267-3.752-8.982,5.541-5.5h11.429Z" transform="translate(-155.16 -224.564)" fill="#fff"/>
            <path id="Trazado_678430" data-name="Trazado 678430" d="M261.844,251.384,249.5,263.322h-1.938l-3.329-7.951,8.522-8.455h7.23Z" transform="translate(-151.954 -228.357)" fill="#fff"/>
            <path id="Trazado_678431" data-name="Trazado 678431" d="M256.908,245.85h-4.224l2.981-2.979Z" transform="translate(-149.775 -229.399)" fill="#fff"/>
            <path id="Trazado_678432" data-name="Trazado 678432" d="M267.443,265.955l-11.727,11.777h-2.584l-.447-1.077,13.491-13.725Z" transform="translate(-149.775 -224.231)" fill="#fff"/>
          </g>
        </g>
      </g>
      <g id="Grupo_936785" data-name="Grupo 936785" transform="translate(299.455 121.07)">
        <path id="Trazado_678433" data-name="Trazado 678433" d="M273.214,131.943l3.853-1.549a1.371,1.371,0,0,1,1.775.742l4.348,10.384a1.37,1.37,0,0,1-.625,1.742l-3.643,1.915a1.37,1.37,0,0,1-1.9-.678l-4.558-10.75A1.37,1.37,0,0,1,273.214,131.943Z" transform="translate(-245.629 -118.693)" fill="#232538"/>
        <path id="Trazado_678434" data-name="Trazado 678434" d="M302.429,135.776s.787,3.167-.84,5.051-3.256,2.128-1.072,3.719,3.218,1.248,2.1,3.217.455.893,1.8,2.911-.685,4.9-.685,4.9-7.107-.194-8.991-8.928-4.966-15.412,0-17.04S302.429,135.776,302.429,135.776Z" transform="translate(-240.555 -118.927)" fill="#242754"/>
        <path id="Trazado_678435" data-name="Trazado 678435" d="M268.984,207.682s-7.763,1.256-10.846,1.142-6.033,2.169-4.1,5.481,7.982,3.767,11.408,1.255a62.973,62.973,0,0,0,6.393-5.481Z" transform="translate(-250.507 -98.756)" fill="#232538"/>
        <path id="Trazado_678436" data-name="Trazado 678436" d="M289.094,206.593a36.011,36.011,0,0,0,10.047,2.055c3.539,0,9.587.939,9.7,4.009s-2.625,5.589-6.506,4.785-15.413-4.343-15.3-6.4S289.094,206.593,289.094,206.593Z" transform="translate(-241.846 -99.037)" fill="#232538"/>
        <path id="Trazado_678437" data-name="Trazado 678437" d="M253.911,185.748a74.763,74.763,0,0,1,16.887-.526c8.673.821,20.094.751,25.8,1.232s9.247,1,12.1,0a12.682,12.682,0,0,1,8.6.367c1.748.944-28.7,23.29-35.663,21.692S253.911,185.748,253.911,185.748Z" transform="translate(-250.38 -104.611)" fill="#242754"/>
        <g id="Grupo_936780" data-name="Grupo 936780" transform="translate(12.232 22.88)">
          <path id="Trazado_678438" data-name="Trazado 678438" d="M295.761,145.647s-7.192-2.14-9.505-.429-8.649,5.4-8.649,5.4,3.853-6.85,2.826-8.134-4.281-4.282-5.651-2.826-13.358,18.838-13.872,24.061,1.541,9.249,3.51,8.049,16.869-11.882,16.869-11.882-.942,1.864-.856,7.087.006,15.842-2.138,20.807-3.941,9.249-1.458,9.847,6.25,1.2,14.3,1.627,13.1.514,13.786-1.027,1.542-15.756,1.542-18.5.342-23.2,1.113-26.63,4.881-4.012,4.881-4.012l-7.107-1.9s.6,1.371-3,4.026-6.337,5.137-6.594,3.253a35.06,35.06,0,0,1-.257-5.31,5.389,5.389,0,0,1,1.027-3.339Z" transform="translate(-260.83 -139.263)" fill="#f4bd5b"/>
        </g>
        <g id="Grupo_936781" data-name="Grupo 936781" transform="translate(26.29 37.341)">
          <path id="Trazado_678439" data-name="Trazado 678439" d="M278.41,156.919l2.34-6.157-8.742,10.728Z" transform="translate(-272.008 -150.762)" fill="#f2aa5c"/>
        </g>
        <g id="Grupo_936782" data-name="Grupo 936782" transform="translate(24.976 30.591)">
          <path id="Trazado_678440" data-name="Trazado 678440" d="M275,149.034s-4.252,8.7-4.024,8.475,10.047-12.115,10.047-12.115Z" transform="translate(-270.963 -145.394)" fill="#f2aa5c"/>
        </g>
        <path id="Trazado_678441" data-name="Trazado 678441" d="M282.887,175.9s-5.824,3.37-7.879,2-3.482-2.568-.513-3.139,4.355-1,3.349-1.769.246-1.656,1.559-1.485a24.572,24.572,0,0,0,3.768-.021Z" transform="translate(-245.514 -108.081)" fill="#ed8772"/>
        <g id="Grupo_936783" data-name="Grupo 936783" transform="translate(36.183 32.693)">
          <path id="Trazado_678442" data-name="Trazado 678442" d="M305.663,147.079a6.393,6.393,0,0,1,.965.013c2.234.194,3.226,1.927,3.407,3.994.429,4.881,1.285,23.377-.513,25.09s-27.487,7.878-28.172,6.592-2.311-5.137-.942-5.822,19.009-4.624,19.78-6.252-1.066-16.793,1.2-20.551C302.475,148.339,303.72,147.209,305.663,147.079Z" transform="translate(-279.875 -147.066)" fill="#f4d65b"/>
        </g>
        <path id="Trazado_678443" data-name="Trazado 678443" d="M299.256,213.63a25.56,25.56,0,0,1-3.069,4.316c-.37.411-2.959-.219-6.659-1.425-7.425-2.411-19.372-7.124-26.948-10.44-2.439-1.069-4.439-2-5.672-2.645-6.96-3.643-6.618-12.206-4.343-16.44a3.563,3.563,0,0,1,2.069-1.411c8.4,1.274,21.688,11.275,24.538,12.837.177.1.4.219.644.357,4.521,2.6,19.152,11.781,19.906,12.658C300.037,211.795,299.763,212.644,299.256,213.63Z" transform="translate(-251.104 -104.449)" fill="#333970"/>
        <path id="Trazado_678444" data-name="Trazado 678444" d="M288.763,128.951s-3.082,7.45-2.739,11.731,4.452,2.826,4.452,2.826l-.428,4.966s-7.108,6.679-2.484,10.447,10.447-.685,11.475-3.768a7.111,7.111,0,0,0-.171-5.31l-.6-9.589s3-.771,3.682-2.484-1.542-3-3.169-1.969-2.739,1.969-2.654.514.342-3.6.342-3.6Z" transform="translate(-242.114 -119.04)" fill="#ed8772"/>
        <path id="Trazado_678445" data-name="Trazado 678445" d="M289.646,140.851l5.823-1.589-6.251,6.555Z" transform="translate(-241.285 -116.383)" fill="#b76255"/>
        <g id="Grupo_936784" data-name="Grupo 936784" transform="translate(42.962)">
          <path id="Trazado_678446" data-name="Trazado 678446" d="M288.951,130.981s-3.853-1.284-3.681-2.312,3.681-.856,3.681-.856,4.453-9.418,12.5-5.994,5.994,12.417,4.71,14.471-1.459,1.969-3.9.942-5.608-2.484-5.608-2.484Z" transform="translate(-285.265 -121.07)" fill="#f4d65b"/>
        </g>
        <path id="Trazado_678447" data-name="Trazado 678447" d="M272.968,141.63a3.786,3.786,0,0,0,.684-2.8c-.228-1.713-.913-6.336.286-4.852s1.085,4.452,3.6,4.681,2.34,1.313,1.6,2.455a15.862,15.862,0,0,1-3.426,2.859Z" transform="translate(-245.471 -117.818)" fill="#ed8772"/>
        <path id="Trazado_678448" data-name="Trazado 678448" d="M296.905,210.927a48.69,48.69,0,0,0-9.728,2.891c-7.425-2.411-19.373-7.124-26.948-10.44a28.236,28.236,0,0,1,4.165.479c8.973,1.7,12.029-3.891,13.07-7.781,4.521,2.6,19.152,11.781,19.906,12.658C297.686,209.092,297.412,209.941,296.905,210.927Z" transform="translate(-248.753 -101.746)" fill="#242754" opacity="0.48"/>
        <path id="Trazado_678449" data-name="Trazado 678449" d="M317.747,189.041A13.2,13.2,0,0,0,316,187.46a5.851,5.851,0,0,0-6.242-.717c-4.681,2.283-26.445,15.079-33.224,19.409s-11.3,4.681-10.731,7.078,2.511,5.164,4.452,4.695,31.74-9.947,39.618-13.714,10.96-5.479,10.617-9.7A9.686,9.686,0,0,0,317.747,189.041Z" transform="translate(-247.328 -104.304)" fill="#333970"/>
      </g>
      <g id="Grupo_936796" data-name="Grupo 936796" transform="translate(387.229 125.084)">
        <path id="Trazado_678450" data-name="Trazado 678450" d="M335.886,140.034v24.1H330.2v-24.1a2.848,2.848,0,0,1,2.85-2.85,2.853,2.853,0,0,1,2.836,2.85Z" transform="translate(-318.5 -120.933)" fill="#f6f6f6"/>
        <path id="Trazado_678451" data-name="Trazado 678451" d="M357.257,140.034v24.1h-5.672v-24.1a2.845,2.845,0,0,1,2.836-2.85,2.856,2.856,0,0,1,2.836,2.85Z" transform="translate(-312.991 -120.933)" fill="#f6f6f6"/>
        <rect id="Rectngulo_329747" data-name="Rectngulo 329747" width="5.686" height="7.85" transform="translate(11.7 35.35)" fill="#515151" opacity="0.4" style="mix-blend-mode: multiply;isolation: isolate"/>
        <rect id="Rectngulo_329748" data-name="Rectngulo 329748" width="5.672" height="7.85" transform="translate(38.594 35.35)" fill="#515151" opacity="0.4" style="mix-blend-mode: multiply;isolation: isolate"/>
        <path id="Trazado_678452" data-name="Trazado 678452" d="M511.639,282.57q-.906,3.577-2.029,7.055c-7.768-2.862-18.317-4.6-22.044-4.643-8.905-.069-28.059,1.684-43.4,8.781-11.371,5.276-36.47,14.044-58.952,14.044-12.453,0-24.085-2.686-32.155-10.153-17.043-15.782-16.4-63.337-12.85-100.45.109-1,.163-1.645.177-1.905l6.85.206c-.014.246-.082,1.055-.205,2.357-4.74,49.553-.85,84.092,10.686,94.765,18.29,16.934,64.2,3.891,83.573-5.069,16.454-7.616,36.826-9.466,46.335-9.425C492.088,278.172,503.678,280.063,511.639,282.57Z" transform="translate(-316.446 -105.961)" fill="#b0c0d2"/>
        <rect id="Rectngulo_329749" data-name="Rectngulo 329749" width="19.959" height="10.047" rx="3.667" transform="translate(17.379 82.077)" fill="#d2e1f1"/>
        <path id="Trazado_678453" data-name="Trazado 678453" d="M375.247,160.223a4.5,4.5,0,0,1-1.343,3.233,4.337,4.337,0,0,1-2.425,1.26,3.911,3.911,0,0,1-.809.082h-45.2a4.566,4.566,0,0,1-4.575-4.575A4.489,4.489,0,0,1,322.24,157a4.612,4.612,0,0,1,3.353-1.347h45.2a4.187,4.187,0,0,1,.688.087A4.536,4.536,0,0,1,375.247,160.223Z" transform="translate(-320.897 -116.174)" fill="#d2e1f1"/>
        <path id="Trazado_678454" data-name="Trazado 678454" d="M370.542,162.861v19.208a19.126,19.126,0,0,1-19.126,19.126h-7.768a19.123,19.123,0,0,1-19.112-19.126V162.943h45.2A3.911,3.911,0,0,0,370.542,162.861Z" transform="translate(-319.96 -114.318)" fill="#b0c0d2"/>
        <g id="Grupo_936786" data-name="Grupo 936786" transform="translate(4.575 48.543)" opacity="0.61">
          <path id="Trazado_678455" data-name="Trazado 678455" d="M361.283,162.861a3.911,3.911,0,0,1-.809.082h.809Z" transform="translate(-315.276 -162.861)" fill="#666"/>
          <path id="Trazado_678456" data-name="Trazado 678456" d="M333.806,182.052V162.926h-9.271v19.126a19.123,19.123,0,0,0,19.112,19.126h7.768c.254,0,.5-.028.752-.038A19.108,19.108,0,0,1,333.806,182.052Z" transform="translate(-324.535 -162.844)" fill="#666"/>
        </g>
        <rect id="Rectngulo_329750" data-name="Rectngulo 329750" width="46.006" height="3.895" transform="translate(4.576 48.625)" fill="#666" opacity="0.61"/>
        <g id="Grupo_936795" data-name="Grupo 936795" transform="translate(17.379)">
          <path id="Trazado_678457" data-name="Trazado 678457" d="M389.662,280.791s1.969,5.224-1.969,7.707-8.905,4.624-7.963,6.252,19.351.257,20.464-1.627-2.739-5.566-3.082-8.563-.856-7.792-.856-7.792Z" transform="translate(-323.149 -84.973)" fill="#232538"/>
          <path id="Trazado_678458" data-name="Trazado 678458" d="M367.164,277.538s1.541,5.689-1.969,8.582-11.56,4.947-9.163,7.173,18.178,1.2,18.979-.942-2.281-5.6-1.254-9.61a36.051,36.051,0,0,1,1.969-5.975Z" transform="translate(-329.337 -84.973)" fill="#232538"/>
          <path id="Trazado_678459" data-name="Trazado 678459" d="M373.591,191.238s-10.435,37.574-9.978,53.5-5.024,54.786,2.283,57.165,10.281-.778,10.735-7.307,4.564-56.152,4.564-56.152l3.426-48.561Z" transform="translate(-327.67 -107.355)" fill="#242754"/>
          <path id="Trazado_678460" data-name="Trazado 678460" d="M388.886,189.889s7.021,17.828,5.823,32.375-1.884,26.194,1.371,41.435,5.65,33.738,3.082,36.649-7.021,6.886-10.276,3.443-8.733-32.083-10.446-41.139-5.652-33.922-4.624-48.8,1.713-23.959,1.713-23.959Z" transform="translate(-324.686 -107.355)" fill="#333970"/>
          <g id="Grupo_936787" data-name="Grupo 936787" transform="translate(0 69.499)">
            <path id="Trazado_678461" data-name="Trazado 678461" d="M348.6,180.9s-3.46.272-5.429-.841-4.11-.243-3.682.435,0,1.62-1.884,1.449-4.281.342-1.884,2.312,7.108,2.4,10.276,1.371a12.47,12.47,0,0,1,5.308-.685Z" transform="translate(-334.716 -179.524)" fill="#ffc8b0"/>
          </g>
          <g id="Grupo_936788" data-name="Grupo 936788" transform="translate(33.203 43.199)">
            <path id="Trazado_678462" data-name="Trazado 678462" d="M375.444,158.612s-9.874,17.3-11.359,17.528-2.968.571-2.968.571v8.334s9.818-1.712,11.873-8.334S375.444,158.612,375.444,158.612Z" transform="translate(-361.117 -158.612)" fill="#f2aa5c"/>
          </g>
          <g id="Grupo_936789" data-name="Grupo 936789" transform="translate(52.779 10.702)">
            <path id="Trazado_678463" data-name="Trazado 678463" d="M389.3,136.615s.257,4.71-1.285,8.049-4.281,3.168-4.281,3.168-8.734-2.568-6.765-11.217S389.3,136.615,389.3,136.615Z" transform="translate(-376.683 -132.772)" fill="#cc684e"/>
          </g>
          <g id="Grupo_936790" data-name="Grupo 936790" transform="translate(43.591 11.805)">
            <path id="Trazado_678464" data-name="Trazado 678464" d="M370.635,133.649s-2.4,12.273-.571,16.155,7.763,1.827,7.763,1.827,1.027,3.6,0,5.565-1.37,2.569-1.37,2.569a29.478,29.478,0,0,0,6.079-2.4c3.253-1.712,4.11-2.312,4.11-2.312a11.283,11.283,0,0,1-1.2-5.052l.171-2.4s-3.511-1.284-1.455-3.767,1.027-5.481-.856-4.2-2.826.258-2.484-1.541.6-3.34.6-3.34Z" transform="translate(-369.377 -133.649)" fill="#ffc8b0"/>
          </g>
          <g id="Grupo_936791" data-name="Grupo 936791" transform="translate(41.319)">
            <path id="Trazado_678465" data-name="Trazado 678465" d="M391.993,136.842c-.26,1.534-.342,1.972-.342,1.972L371.1,136.075s-4.877-.356-3.165-1.727c1.48-1.192,2.576-.507,3.577-1.479a3.061,3.061,0,0,0,.438-.576,7.969,7.969,0,0,0,.4-.781c1.123-2.534,3.069-8.3,10.92-7.083C392.075,125.8,392.253,135.294,391.993,136.842Z" transform="translate(-367.57 -124.262)" fill="#f4d65b"/>
          </g>
          <path id="Trazado_678466" data-name="Trazado 678466" d="M376.1,148.281l4.367-1.627-3.917,5.135Z" transform="translate(-324.055 -118.493)" fill="#ed8772"/>
          <g id="Grupo_936792" data-name="Grupo 936792" transform="translate(43.213 33.209)">
            <path id="Trazado_678467" data-name="Trazado 678467" d="M386.724,150.672s2.947-.514,4.941,11.473.8,35.45-1.6,37.848-10.446,2.4-14.556,1.884-5.427,0-6.053-4.8-.8-17.811,2.114-29.969,4.966-11.731,4.966-11.731a36.325,36.325,0,0,0,5.932-2.322C384.9,151.748,386.724,150.672,386.724,150.672Z" transform="translate(-369.077 -150.668)" fill="#f4bd5b"/>
          </g>
          <g id="Grupo_936793" data-name="Grupo 936793" transform="translate(13.825 39.483)">
            <path id="Trazado_678468" data-name="Trazado 678468" d="M390.981,155.722s-4.911-1.3-9.8,7.707-7.363,18.667-10.275,19.18-24.775,1.827-25,3.2-.685,7.307,1.6,7.079,29.913,1.142,33.337-2.511,12.788-21.122,13.815-27.059S390.981,155.722,390.981,155.722Z" transform="translate(-345.709 -155.657)" fill="#f4d65b"/>
          </g>
          <g id="Grupo_936794" data-name="Grupo 936794" transform="translate(45.26 7.25)">
            <path id="Trazado_678469" data-name="Trazado 678469" d="M382.622,133.479a61.456,61.456,0,0,1-11.919-2.1,3.061,3.061,0,0,0,.438-.576,7.968,7.968,0,0,0,.4-.781C375.321,132.205,387.624,133.7,382.622,133.479Z" transform="translate(-370.704 -130.027)" fill="#f4bd5b"/>
          </g>
        </g>
      </g>
    </g>
  </g>
</svg>
