<svg xmlns="http://www.w3.org/2000/svg" width="149.829" height="128.409" viewBox="0 0 149.829 128.409">
  <g id="Grupo_929788" data-name="Grupo 929788" transform="translate(-1142.655 -1698.435)">
    <g id="Grupo_929787" data-name="Grupo 929787" transform="translate(1143 1698.435)">
      <g id="Grupo_929782" data-name="Grupo 929782" transform="translate(6.391 6.391)">
        <path id="Trazado_666782" data-name="Trazado 666782" d="M422.638,222.276a37.638,37.638,0,1,1,37.638-37.638A37.681,37.681,0,0,1,422.638,222.276Zm0-72.436a34.8,34.8,0,1,0,34.8,34.8A34.837,34.837,0,0,0,422.638,149.841Z" transform="translate(-385 -147)"/>
      </g>
      <g id="Grupo_929783" data-name="Grupo 929783" transform="translate(0)">
        <path id="Trazado_666783" data-name="Trazado 666783" d="M424.53,230.559a44.029,44.029,0,1,1,44.029-44.029A44.08,44.08,0,0,1,424.53,230.559Zm0-85.218a41.189,41.189,0,1,0,41.189,41.189A41.235,41.235,0,0,0,424.53,145.341Z" transform="translate(-380.5 -142.5)"/>
      </g>
      <g id="Grupo_929784" data-name="Grupo 929784" transform="translate(44.358 45.39)">
        <rect id="Rectángulo_327581" data-name="Rectángulo 327581" width="53.643" height="44.358" transform="translate(0 0)" fill="#f7f7f7"/>
      </g>
      <g id="Grupo_929785" data-name="Grupo 929785" transform="translate(41.544 72.436)">
        <path id="Trazado_666784" data-name="Trazado 666784" d="M423.243,223.326H413.3v-5.681H409.75V193.5h17.044v24.145h-3.551Zm-7.1-2.841H420.4V214.8h3.551V196.341H412.591V214.8h3.551Z" transform="translate(-409.75 -193.5)"/>
      </g>
      <g id="Grupo_929786" data-name="Grupo 929786" transform="translate(83.778 45.296)">
        <path id="Trazado_666785" data-name="Trazado 666785" d="M439.486,174.392" transform="translate(-439.486 -174.392)" fill="none" stroke="#000" stroke-miterlimit="10" stroke-width="2"/>
      </g>
      <path id="Trazado_666786" data-name="Trazado 666786" d="M412.946,200.024v3.551l-3.2-.075v-3.557Z" transform="translate(-368.206 -118.357)" fill="#fff"/>
    </g>
    <path id="Trazado_666787" data-name="Trazado 666787" d="M-10078.8-9956.4s3.135,4.823,6.993,0" transform="translate(11302.216 11698.567)" fill="none" stroke="#000" stroke-width="3"/>
    <path id="Trazado_704874" data-name="Trazado 704874" d="M-9.331-8.88h-3.2V0h-1.306V-8.88h-3.192V-9.953h7.7Zm5.2,8.148A2.686,2.686,0,0,1-6.3.137,2.3,2.3,0,0,1-8.1-.55a2.974,2.974,0,0,1-.625-2.034V-7.4h1.265v4.778q0,1.682,1.367,1.682A1.893,1.893,0,0,0-4.17-2.017V-7.4h1.265V0h-1.2ZM5.277-3.616A4.4,4.4,0,0,1,4.5-.892,2.49,2.49,0,0,1,2.406.137,2.578,2.578,0,0,1,.239-.854L.178,0H-.984V-10.5H.28v3.917a2.564,2.564,0,0,1,2.112-.95A2.505,2.505,0,0,1,4.508-6.515a4.53,4.53,0,0,1,.769,2.789ZM4.013-3.76a3.417,3.417,0,0,0-.5-2,1.652,1.652,0,0,0-1.436-.7A1.857,1.857,0,0,0,.28-5.3v3.2A1.909,1.909,0,0,0,2.092-.937a1.643,1.643,0,0,0,1.415-.7A3.634,3.634,0,0,0,4.013-3.76Zm2.522-.007a4.369,4.369,0,0,1,.427-1.955,3.187,3.187,0,0,1,1.189-1.34,3.238,3.238,0,0,1,1.74-.472,3.119,3.119,0,0,1,2.444,1.046,4.024,4.024,0,0,1,.933,2.782v.089a4.407,4.407,0,0,1-.414,1.938A3.14,3.14,0,0,1,11.672-.342,3.275,3.275,0,0,1,9.905.137,3.111,3.111,0,0,1,7.468-.909a4,4,0,0,1-.933-2.769Zm1.271.15a3.164,3.164,0,0,0,.571,1.976A1.827,1.827,0,0,0,9.905-.9a1.816,1.816,0,0,0,1.531-.755A3.46,3.46,0,0,0,12-3.767a3.159,3.159,0,0,0-.578-1.972,1.836,1.836,0,0,0-1.535-.755,1.816,1.816,0,0,0-1.511.745A3.434,3.434,0,0,0,7.807-3.616ZM-25.16,18V8.047h3.254a3.777,3.777,0,0,1,2.437.67,2.414,2.414,0,0,1,.817,1.982,2.022,2.022,0,0,1-.4,1.234,2.57,2.57,0,0,1-1.08.831,2.308,2.308,0,0,1,1.275.858,2.462,2.462,0,0,1,.468,1.507,2.662,2.662,0,0,1-.868,2.105A3.59,3.59,0,0,1-21.708,18Zm1.313-4.655v3.582h2.167a2.087,2.087,0,0,0,1.446-.475,1.669,1.669,0,0,0,.53-1.309q0-1.8-1.955-1.8Zm0-1.053h1.982a2.078,2.078,0,0,0,1.377-.432,1.447,1.447,0,0,0,.516-1.171,1.423,1.423,0,0,0-.479-1.2,2.35,2.35,0,0,0-1.456-.373h-1.941Zm6.87,1.941a4.369,4.369,0,0,1,.427-1.955,3.187,3.187,0,0,1,1.189-1.34,3.238,3.238,0,0,1,1.74-.472,3.119,3.119,0,0,1,2.444,1.046,4.024,4.024,0,0,1,.933,2.782v.089a4.407,4.407,0,0,1-.414,1.938,3.14,3.14,0,0,1-1.183,1.336,3.275,3.275,0,0,1-1.767.479,3.111,3.111,0,0,1-2.437-1.046,4,4,0,0,1-.933-2.769Zm1.271.15a3.164,3.164,0,0,0,.571,1.976,1.827,1.827,0,0,0,1.528.745,1.816,1.816,0,0,0,1.531-.755,3.46,3.46,0,0,0,.567-2.116,3.159,3.159,0,0,0-.578-1.972,1.836,1.836,0,0,0-1.535-.755,1.816,1.816,0,0,0-1.511.745A3.435,3.435,0,0,0-15.706,14.384Zm11.614,2.885a2.686,2.686,0,0,1-2.167.868,2.3,2.3,0,0,1-1.8-.687,2.974,2.974,0,0,1-.625-2.034V10.6H-7.42v4.778q0,1.682,1.367,1.682a1.893,1.893,0,0,0,1.928-1.08V10.6h1.265V18h-1.2Zm6.727-5.53a3.79,3.79,0,0,0-.622-.048A1.667,1.667,0,0,0,.325,12.75V18H-.94V10.6H.291l.021.854a1.969,1.969,0,0,1,1.764-.991,1.292,1.292,0,0,1,.561.1Zm.725,2.5A4.333,4.333,0,0,1,4.167,11.5a2.551,2.551,0,0,1,2.112-1.036,2.565,2.565,0,0,1,2.058.889V7.5H9.6V18H8.439l-.062-.793a2.575,2.575,0,0,1-2.112.93,2.526,2.526,0,0,1-2.1-1.053,4.382,4.382,0,0,1-.81-2.748Zm1.265.144a3.281,3.281,0,0,0,.52,1.969,1.68,1.68,0,0,0,1.436.711,1.845,1.845,0,0,0,1.757-1.08v-3.4A1.859,1.859,0,0,0,6.593,11.54a1.687,1.687,0,0,0-1.449.718A3.612,3.612,0,0,0,4.625,14.384Zm6.6-.15a4.369,4.369,0,0,1,.427-1.955,3.187,3.187,0,0,1,1.189-1.34,3.238,3.238,0,0,1,1.74-.472,3.119,3.119,0,0,1,2.444,1.046,4.024,4.024,0,0,1,.933,2.782v.089a4.407,4.407,0,0,1-.414,1.938,3.14,3.14,0,0,1-1.183,1.336,3.275,3.275,0,0,1-1.767.479,3.111,3.111,0,0,1-2.437-1.046,4,4,0,0,1-.933-2.769Zm1.271.15a3.164,3.164,0,0,0,.571,1.976,1.934,1.934,0,0,0,3.059-.01,3.46,3.46,0,0,0,.567-2.116,3.159,3.159,0,0,0-.578-1.972,1.836,1.836,0,0,0-1.535-.755,1.816,1.816,0,0,0-1.511.745A3.435,3.435,0,0,0,12.5,14.384Zm8.244-3.78.041.93A2.7,2.7,0,0,1,23,10.467q2.345,0,2.365,2.646V18H24.1V13.105a1.7,1.7,0,0,0-.366-1.183,1.466,1.466,0,0,0-1.118-.383,1.825,1.825,0,0,0-1.08.328,2.228,2.228,0,0,0-.725.861V18H19.547V10.6Z" transform="translate(1192 1734)" fill="#12263f"/>
    <path id="Trazado_704875" data-name="Trazado 704875" d="M0,0H20V6H0Z" transform="translate(1184 1797)" fill="#f7f7f7"/>
    <path id="Trazado_704876" data-name="Trazado 704876" d="M2.468-3.9V0H1.155V-9.953H4.826a3.688,3.688,0,0,1,2.56.834,2.827,2.827,0,0,1,.926,2.208,2.79,2.79,0,0,1-.906,2.232A3.853,3.853,0,0,1,4.813-3.9Zm0-1.073H4.826a2.358,2.358,0,0,0,1.613-.5A1.815,1.815,0,0,0,7-6.9a1.876,1.876,0,0,0-.561-1.424A2.209,2.209,0,0,0,4.9-8.88H2.468Zm10.9-1.292a3.79,3.79,0,0,0-.622-.048,1.667,1.667,0,0,0-1.688,1.06V0H9.789V-7.4h1.23l.021.854A1.969,1.969,0,0,1,12.8-7.533a1.292,1.292,0,0,1,.561.1Zm4.1,6.4a3.232,3.232,0,0,1-2.447-.988,3.666,3.666,0,0,1-.943-2.642v-.232a4.438,4.438,0,0,1,.42-1.965,3.28,3.28,0,0,1,1.176-1.354,2.956,2.956,0,0,1,1.637-.489,2.77,2.77,0,0,1,2.242.95,4.114,4.114,0,0,1,.8,2.721v.526H15.34a2.629,2.629,0,0,0,.639,1.767A2.009,2.009,0,0,0,17.534-.9a2.2,2.2,0,0,0,1.135-.273,2.851,2.851,0,0,0,.813-.725l.772.6A3.106,3.106,0,0,1,17.466.137Zm-.157-6.631a1.687,1.687,0,0,0-1.285.557,2.708,2.708,0,0,0-.643,1.562h3.705v-.1a2.409,2.409,0,0,0-.52-1.494A1.588,1.588,0,0,0,17.309-6.494ZM26.12-1.962a.931.931,0,0,0-.386-.8,3.718,3.718,0,0,0-1.347-.489,6.367,6.367,0,0,1-1.524-.492,2.169,2.169,0,0,1-.834-.684,1.635,1.635,0,0,1-.27-.943A1.919,1.919,0,0,1,22.528-6.9a3,3,0,0,1,1.965-.629,3.091,3.091,0,0,1,2.041.649,2.063,2.063,0,0,1,.783,1.661H26.045a1.142,1.142,0,0,0-.441-.9,1.652,1.652,0,0,0-1.111-.376,1.729,1.729,0,0,0-1.08.3.947.947,0,0,0-.39.786.767.767,0,0,0,.362.69,4.458,4.458,0,0,0,1.309.444,6.821,6.821,0,0,1,1.535.506,2.239,2.239,0,0,1,.872.708,1.74,1.74,0,0,1,.284,1.008,1.893,1.893,0,0,1-.793,1.589,3.326,3.326,0,0,1-2.058.6,3.725,3.725,0,0,1-1.572-.314,2.557,2.557,0,0,1-1.07-.878,2.117,2.117,0,0,1-.386-1.22h1.265a1.309,1.309,0,0,0,.509,1.008A1.976,1.976,0,0,0,24.534-.9a2.039,2.039,0,0,0,1.152-.291A.893.893,0,0,0,26.12-1.962ZM30.406,0H29.142V-7.4h1.265ZM29.039-9.358a.755.755,0,0,1,.188-.52.706.706,0,0,1,.557-.212.717.717,0,0,1,.561.212.747.747,0,0,1,.191.52.722.722,0,0,1-.191.513.73.73,0,0,1-.561.205.718.718,0,0,1-.557-.205A.73.73,0,0,1,29.039-9.358Zm3.056,5.592a4.369,4.369,0,0,1,.427-1.955,3.187,3.187,0,0,1,1.189-1.34,3.238,3.238,0,0,1,1.74-.472A3.119,3.119,0,0,1,37.9-6.487a4.024,4.024,0,0,1,.933,2.782v.089a4.407,4.407,0,0,1-.414,1.938A3.14,3.14,0,0,1,37.232-.342a3.275,3.275,0,0,1-1.767.479A3.111,3.111,0,0,1,33.028-.909a4,4,0,0,1-.933-2.769Zm1.271.15a3.164,3.164,0,0,0,.571,1.976A1.827,1.827,0,0,0,35.465-.9,1.816,1.816,0,0,0,37-1.651a3.46,3.46,0,0,0,.567-2.116,3.159,3.159,0,0,0-.578-1.972,1.836,1.836,0,0,0-1.535-.755,1.816,1.816,0,0,0-1.511.745A3.434,3.434,0,0,0,33.366-3.616ZM36.025-10.5h1.531L35.725-8.49l-1.019,0ZM41.61-7.4l.041.93a2.7,2.7,0,0,1,2.215-1.066q2.345,0,2.365,2.646V0H44.967V-4.895A1.7,1.7,0,0,0,44.6-6.077a1.466,1.466,0,0,0-1.118-.383,1.825,1.825,0,0,0-1.08.328,2.228,2.228,0,0,0-.725.861V0H40.414V-7.4ZM56.171,0a2.657,2.657,0,0,1-.178-.779,2.822,2.822,0,0,1-2.105.916,2.611,2.611,0,0,1-1.794-.619,2,2,0,0,1-.7-1.569,2.091,2.091,0,0,1,.878-1.794,4.142,4.142,0,0,1,2.471-.639h1.23v-.581a1.42,1.42,0,0,0-.4-1.056,1.593,1.593,0,0,0-1.169-.393,1.844,1.844,0,0,0-1.135.342,1.007,1.007,0,0,0-.458.827H51.543a1.745,1.745,0,0,1,.393-1.07A2.683,2.683,0,0,1,53-7.232a3.588,3.588,0,0,1,1.48-.3,2.924,2.924,0,0,1,2,.639,2.306,2.306,0,0,1,.752,1.76v3.4a4.162,4.162,0,0,0,.26,1.62V0Zm-2.1-.964A2.223,2.223,0,0,0,55.2-1.271a1.861,1.861,0,0,0,.772-.8V-3.589h-.991q-2.324,0-2.324,1.36a1.151,1.151,0,0,0,.4.93A1.524,1.524,0,0,0,54.072-.964Zm11.4-2.652A4.429,4.429,0,0,1,64.7-.9,2.476,2.476,0,0,1,62.6.137a2.713,2.713,0,0,1-2.119-.854V2.844H59.22V-7.4h1.155l.062.82a2.605,2.605,0,0,1,2.146-.957,2.522,2.522,0,0,1,2.109,1,4.477,4.477,0,0,1,.776,2.8ZM64.2-3.76a3.268,3.268,0,0,0-.533-1.976,1.718,1.718,0,0,0-1.463-.725,1.859,1.859,0,0,0-1.723,1.019v3.534A1.863,1.863,0,0,0,62.221-.9a1.71,1.71,0,0,0,1.446-.721A3.567,3.567,0,0,0,64.2-3.76ZM68.448,0H67.184V-10.5h1.265Zm3.4,0H70.581V-7.4h1.265ZM70.479-9.358a.755.755,0,0,1,.188-.52.706.706,0,0,1,.557-.212.717.717,0,0,1,.561.212.747.747,0,0,1,.191.52.722.722,0,0,1-.191.513.73.73,0,0,1-.561.205.718.718,0,0,1-.557-.205A.73.73,0,0,1,70.479-9.358ZM76.836-.9a1.822,1.822,0,0,0,1.183-.41,1.443,1.443,0,0,0,.561-1.025h1.2a2.293,2.293,0,0,1-.437,1.21,2.882,2.882,0,0,1-1.077.916,3.107,3.107,0,0,1-1.425.342,3.047,3.047,0,0,1-2.4-1.008,4.016,4.016,0,0,1-.892-2.758v-.212a4.453,4.453,0,0,1,.4-1.921,3.02,3.02,0,0,1,1.138-1.306,3.233,3.233,0,0,1,1.753-.465,2.966,2.966,0,0,1,2.068.745,2.663,2.663,0,0,1,.878,1.935h-1.2a1.743,1.743,0,0,0-.543-1.179,1.691,1.691,0,0,0-1.207-.461,1.77,1.77,0,0,0-1.494.694,3.259,3.259,0,0,0-.53,2.006v.239a3.194,3.194,0,0,0,.526,1.969A1.779,1.779,0,0,0,76.836-.9Zm8.928.9a2.657,2.657,0,0,1-.178-.779A2.822,2.822,0,0,1,83.48.137a2.611,2.611,0,0,1-1.794-.619,2,2,0,0,1-.7-1.569,2.091,2.091,0,0,1,.878-1.794,4.141,4.141,0,0,1,2.471-.639h1.23v-.581a1.42,1.42,0,0,0-.4-1.056A1.593,1.593,0,0,0,84-6.515a1.844,1.844,0,0,0-1.135.342,1.007,1.007,0,0,0-.458.827H81.136a1.745,1.745,0,0,1,.393-1.07A2.683,2.683,0,0,1,82.6-7.232a3.588,3.588,0,0,1,1.48-.3,2.924,2.924,0,0,1,2,.639,2.306,2.306,0,0,1,.752,1.76v3.4a4.162,4.162,0,0,0,.26,1.62V0Zm-2.1-.964a2.223,2.223,0,0,0,1.128-.308,1.861,1.861,0,0,0,.772-.8V-3.589h-.991q-2.324,0-2.324,1.36a1.151,1.151,0,0,0,.4.93A1.524,1.524,0,0,0,83.665-.964Zm4.84-2.8A4.333,4.333,0,0,1,89.312-6.5a2.551,2.551,0,0,1,2.112-1.036,2.565,2.565,0,0,1,2.058.889V-10.5h1.265V0H93.584l-.062-.793a2.575,2.575,0,0,1-2.112.93,2.526,2.526,0,0,1-2.1-1.053,4.382,4.382,0,0,1-.81-2.748Zm1.265.144a3.281,3.281,0,0,0,.52,1.969,1.68,1.68,0,0,0,1.436.711,1.845,1.845,0,0,0,1.757-1.08v-3.4A1.859,1.859,0,0,0,91.738-6.46a1.687,1.687,0,0,0-1.449.718A3.612,3.612,0,0,0,89.77-3.616ZM101.274,0a2.657,2.657,0,0,1-.178-.779,2.822,2.822,0,0,1-2.105.916A2.611,2.611,0,0,1,97.2-.482a2,2,0,0,1-.7-1.569,2.091,2.091,0,0,1,.878-1.794,4.141,4.141,0,0,1,2.471-.639h1.23v-.581a1.42,1.42,0,0,0-.4-1.056,1.593,1.593,0,0,0-1.169-.393,1.844,1.844,0,0,0-1.135.342,1.007,1.007,0,0,0-.458.827H96.646a1.745,1.745,0,0,1,.393-1.07,2.683,2.683,0,0,1,1.066-.817,3.588,3.588,0,0,1,1.48-.3,2.924,2.924,0,0,1,2,.639,2.306,2.306,0,0,1,.752,1.76v3.4a4.162,4.162,0,0,0,.26,1.62V0Zm-2.1-.964a2.223,2.223,0,0,0,1.128-.308,1.861,1.861,0,0,0,.772-.8V-3.589h-.991q-2.324,0-2.324,1.36a1.151,1.151,0,0,0,.4.93A1.524,1.524,0,0,0,99.176-.964Z" transform="translate(1141.5 1824)" fill="#12263f"/>
    <path id="Icon_awesome-long-arrow-alt-up" data-name="Icon awesome-long-arrow-alt-up" d="M2.977,5.537v7.4a.294.294,0,0,0,.294.294H4.645a.294.294,0,0,0,.294-.294v-7.4H6.069a.589.589,0,0,0,.416-1l-2.11-2.11a.589.589,0,0,0-.832,0l-2.11,2.11a.589.589,0,0,0,.416,1Z" transform="translate(1189.242 1795.757)"/>
    <path id="Trazado_704877" data-name="Trazado 704877" d="M6.645-4.4H2.468V0H1.155V-9.953H7.321V-8.88H2.468v3.411H6.645ZM13.111-.731a2.686,2.686,0,0,1-2.167.868,2.3,2.3,0,0,1-1.8-.687,2.974,2.974,0,0,1-.625-2.034V-7.4H9.782v4.778q0,1.682,1.367,1.682a1.893,1.893,0,0,0,1.928-1.08V-7.4h1.265V0h-1.2Zm6.221.868a3.232,3.232,0,0,1-2.447-.988,3.666,3.666,0,0,1-.943-2.642v-.232a4.438,4.438,0,0,1,.42-1.965,3.28,3.28,0,0,1,1.176-1.354,2.956,2.956,0,0,1,1.637-.489,2.77,2.77,0,0,1,2.242.95,4.114,4.114,0,0,1,.8,2.721v.526H17.206a2.629,2.629,0,0,0,.639,1.767A2.009,2.009,0,0,0,19.4-.9a2.2,2.2,0,0,0,1.135-.273,2.851,2.851,0,0,0,.813-.725l.772.6A3.106,3.106,0,0,1,19.332.137Zm-.157-6.631a1.687,1.687,0,0,0-1.285.557,2.708,2.708,0,0,0-.643,1.562h3.705v-.1a2.409,2.409,0,0,0-.52-1.494A1.588,1.588,0,0,0,19.175-6.494Zm8.08.232a3.79,3.79,0,0,0-.622-.048,1.667,1.667,0,0,0-1.688,1.06V0H23.68V-7.4h1.23l.021.854a1.969,1.969,0,0,1,1.764-.991,1.292,1.292,0,0,1,.561.1Zm2.352,5.229h4.327V0H28.062V-.93l4.081-5.421h-4.02V-7.4h5.605v.9ZM39.922,0a2.657,2.657,0,0,1-.178-.779,2.822,2.822,0,0,1-2.105.916,2.611,2.611,0,0,1-1.794-.619,2,2,0,0,1-.7-1.569,2.091,2.091,0,0,1,.878-1.794,4.142,4.142,0,0,1,2.471-.639h1.23v-.581a1.42,1.42,0,0,0-.4-1.056,1.593,1.593,0,0,0-1.169-.393,1.844,1.844,0,0,0-1.135.342,1.007,1.007,0,0,0-.458.827H35.294a1.745,1.745,0,0,1,.393-1.07,2.683,2.683,0,0,1,1.066-.817,3.588,3.588,0,0,1,1.48-.3,2.924,2.924,0,0,1,2,.639,2.306,2.306,0,0,1,.752,1.76v3.4a4.162,4.162,0,0,0,.26,1.62V0Zm-2.1-.964a2.223,2.223,0,0,0,1.128-.308,1.861,1.861,0,0,0,.772-.8V-3.589h-.991q-2.324,0-2.324,1.36a1.151,1.151,0,0,0,.4.93A1.524,1.524,0,0,0,37.823-.964Z" transform="translate(1251.236 1719)" fill="#12263f"/>
    <path id="Icon_open-arrow-thick-top" data-name="Icon open-arrow-thick-top" d="M6.5,0,0,6.563H4.375V17.5H8.75V6.563h4.375Z" transform="matrix(0.391, 0.921, -0.921, 0.391, 1246.108, 1709.581)"/>
  </g>
</svg>
