<svg xmlns="http://www.w3.org/2000/svg" width="520.33" height="254.654" viewBox="0 0 520.33 254.654">
  <g id="Grupo_929828" data-name="Grupo 929828" transform="translate(-2336.999 -83.103)">
    <path id="Trazado_666910" data-name="Trazado 666910" d="M2451.422,153.025c38.207,1.208,75.423-12.049,102.712-34.83,53.182-44.4,146.475-45.194,219.731-10.7,15.187,7.151,49.853,32.1,69.346,69.307,2.909,5.553,30.453,68.357-.314,117.877-2.391,3.849-25.258,28.546-47.476,35.713-5.562,1.794-389.7.994-392.4,0C2286.443,287.284,2337.9,149.434,2451.422,153.025Z" fill="#d1e5f3"/>
    <ellipse id="Elipse_4907" data-name="Elipse 4907" cx="224.197" cy="12.683" rx="224.197" ry="12.683" transform="translate(2382.787 312.389)" fill="#bcd7e6"/>
    <path id="Trazado_666911" data-name="Trazado 666911" d="M3795.695,361.338l-42.3,78.981a99.012,99.012,0,0,1,38.573,41.23l77.531-45.018A189.041,189.041,0,0,0,3795.695,361.338Z" transform="translate(-1092.628 -214.636)" fill="#9cc43b"/>
    <path id="Trazado_666912" data-name="Trazado 666912" d="M2796.778,454.24l79.04,42.336a99.037,99.037,0,0,1,36.875-42.519l-44.987-77.484A188.955,188.955,0,0,0,2796.778,454.24Z" transform="translate(-354.682 -226.389)" fill="#ed631d"/>
    <path id="Trazado_666913" data-name="Trazado 666913" d="M3335.9,771.781a81.147,81.147,0,0,0-31.542-34.482l-.268-.161a80.437,80.437,0,0,0-40.905-11.195h-.315a80.421,80.421,0,0,0-43.622,12.878c-.088.053-.177.113-.265.17a81.128,81.128,0,0,0-30.08,35.529c-.044.095-.084.193-.126.29a80.536,80.536,0,0,0-6.562,31.948q0,3.749.337,7.409c0,.057.01.117.016.173h160.921c.007-.057.013-.117.016-.173q.336-3.659.337-7.409a80.476,80.476,0,0,0-7.806-34.69C3335.991,771.97,3335.947,771.875,3335.9,771.781Z" transform="translate(-652.014 -495.898)" fill="#d8d8d8"/>
    <path id="Trazado_666914" data-name="Trazado 666914" d="M2810.831,758.683l-79.041-42.336c-.051.094-.1.189-.139.284a187.347,187.347,0,0,0-19.118,82.725q0,3.721.145,7.409c0,.057,0,.117.006.173h89.681c0-.057-.01-.117-.013-.173q-.274-3.668-.274-7.409a98.249,98.249,0,0,1,8.623-40.385C2810.743,758.875,2810.787,758.778,2810.831,758.683Z" transform="translate(-289.694 -488.496)" fill="#ed1423"/>
    <path id="Trazado_666915" data-name="Trazado 666915" d="M3204.9,256.275a187.263,187.263,0,0,0-97.562,27.334c-.088.05-.18.107-.268.164l44.987,77.484c.088-.057.177-.113.268-.167a98.156,98.156,0,0,1,52.575-15.27h.315V256.275Z" transform="translate(-594.048 -133.588)" fill="#ffd400"/>
    <path id="Trazado_666916" data-name="Trazado 666916" d="M3628.057,280.133a187.336,187.336,0,0,0-91.619-23.858V345.82a98.152,98.152,0,0,1,49.32,13.29c.091.051.18.1.271.161l42.3-78.981C3628.243,280.237,3628.148,280.187,3628.057,280.133Z" transform="translate(-925.268 -133.588)" fill="#d0dd28"/>
    <path id="Trazado_666917" data-name="Trazado 666917" d="M3999.817,690.565c-.047-.091-.094-.186-.148-.277l-77.531,45.018c.047.094.095.189.139.283a98.189,98.189,0,0,1,10.17,43.663q0,3.739-.274,7.409c0,.057-.009.117-.012.173h89.677c0-.057,0-.117.006-.173q.146-3.688.145-7.409A187.291,187.291,0,0,0,3999.817,690.565Z" transform="translate(-1222.803 -468.393)" fill="#35bc42"/>
    <path id="Trazado_666918" data-name="Trazado 666918" d="M3254.6,583.252s-18.909-23.306-25.743-16.5c-6.286,6.257,3,14.495,8,17.7,11.187,7.17,17.495,11.873,26.551,2.732s11.721-14.59,11.721-14.59,6.752-3.108,8.577-5.816c2.432-3.609.938-5.863-.146-5.029-.921.709-3.814,4.07-4.971,3.954-.612-.061,1.849-3.648.564-3.159-3.085,1.175-5.375,6.758-5.375,6.758Z" transform="translate(-686.364 -369.103)" fill="#f69c79"/>
    <path id="Trazado_666919" data-name="Trazado 666919" d="M3138.778,669.954c3.418-12.115,13.894-20.3,19.249-31.412a29.9,29.9,0,0,0,2.853-9.425c.042-.351-.509-.348-.55,0-1.5,12.551-11.8,21.3-18.016,31.586a37.238,37.238,0,0,0-4.066,9.1.275.275,0,0,0,.53.146Z" transform="translate(-618.088 -421.003)" fill="#fff"/>
    <path id="Trazado_666920" data-name="Trazado 666920" d="M3330.545,1089.273l-2.26,8.756-4.865-1.256,2.511-9.729Z" transform="translate(-760.942 -774.457)" fill="#fbb390"/>
    <path id="Trazado_666921" data-name="Trazado 666921" d="M3336.145,1125.162l-17.584.039s-.113-.874-.2-2.009a13.555,13.555,0,0,1,.181-4.522,7.292,7.292,0,0,1,1.5-1.51l5.023-.514s.679.234,1.7.634c.518.2,1.116.445,1.765.719.342.14.694.3,1.051.45h.005c.558.25,1.121.515,1.684.785.337.165.669.335.991.505.548.29,1.076.59,1.56.9a7.137,7.137,0,0,1,2.306,2.015,1.329,1.329,0,0,1,.127.5A10.011,10.011,0,0,1,3336.145,1125.162Z" transform="translate(-756.973 -797.293)" fill="#212c54"/>
    <path id="Trazado_666922" data-name="Trazado 666922" d="M3336.449,1147.12l-17.584.039s-.113-.874-.2-2.009l17.9-.04A10.007,10.007,0,0,1,3336.449,1147.12Z" transform="translate(-757.277 -819.251)" fill="#1d8787"/>
    <path id="Trazado_666923" data-name="Trazado 666923" d="M3350.585,1120.14l-2.627,2.262-.836-.968-.272-.316.271-.232,1.7-1.466C3349.338,1119.626,3349.936,1119.866,3350.585,1120.14Z" transform="translate(-779.016 -799.434)" fill="#d9e7e8"/>
    <path id="Trazado_666924" data-name="Trazado 666924" d="M3363.506,1125.321l-2.352,2.025-1.108-1.284,1.77-1.526h0C3362.379,1124.786,3362.943,1125.051,3363.506,1125.321Z" transform="translate(-789.196 -803.379)" fill="#d9e7e8"/>
    <path id="Trazado_666925" data-name="Trazado 666925" d="M3376.236,1131.077l-1.885,1.622-1.108-1.284,1.435-1.234C3375.225,1130.471,3375.753,1130.771,3376.236,1131.077Z" transform="translate(-799.376 -807.734)" fill="#d9e7e8"/>
    <path id="Trazado_666926" data-name="Trazado 666926" d="M2994.475,1065.144l-6.353,6.436-3.575-3.529,7.059-7.151Z" transform="translate(-499.53 -754.289)" fill="#fbb390"/>
    <path id="Trazado_666927" data-name="Trazado 666927" d="M2980.016,1096.41l-12.514-12.353s.535-.7,1.276-1.564a13.551,13.551,0,0,1,3.313-3.084,7.3,7.3,0,0,1,2.131-.014l3.928,3.172s.317.645.764,1.651c.223.51.479,1.1.746,1.754.145.34.286.7.43,1.059l0,0c.22.57.433,1.155.643,1.744.123.354.239.709.348,1.057.185.592.349,1.177.477,1.734a7.135,7.135,0,0,1,.219,3.054,1.327,1.327,0,0,1-.264.446A10,10,0,0,1,2980.016,1096.41Z" transform="translate(-486.381 -768.494)" fill="#212c54"/>
    <path id="Trazado_666928" data-name="Trazado 666928" d="M2980.016,1107.137l-12.514-12.353s.535-.7,1.276-1.564l12.739,12.576A10,10,0,0,1,2980.016,1107.137Z" transform="translate(-486.381 -779.222)" fill="#1d8787"/>
    <path id="Trazado_666929" data-name="Trazado 666929" d="M3009.022,1101.906l-3.458-.244.088-1.276.029-.416.355.026,2.239.156C3008.5,1100.662,3008.755,1101.254,3009.022,1101.906Z" transform="translate(-515.743 -784.429)" fill="#d9e7e8"/>
    <path id="Trazado_666930" data-name="Trazado 666930" d="M3014.957,1114.273l-3.1-.218.117-1.692,2.332.162,0,0C3014.533,1113.1,3014.747,1113.685,3014.957,1114.273Z" transform="translate(-520.6 -793.989)" fill="#d9e7e8"/>
    <path id="Trazado_666931" data-name="Trazado 666931" d="M3020.639,1126.624l-2.481-.176.117-1.691,1.887.133C3020.347,1125.481,3020.511,1126.066,3020.639,1126.624Z" transform="translate(-525.458 -803.549)" fill="#d9e7e8"/>
    <path id="Trazado_666932" data-name="Trazado 666932" d="M3183.116,809.5s40.163,23.748,39.016,34.059c-.845,7.6-12.182,34.059-12.182,34.059l-7.264-.58,1.123-30.454-36.751-14.458Z" transform="translate(-640.322 -560.357)" fill="#167070"/>
    <path id="Trazado_666933" data-name="Trazado 666933" d="M3025.839,807.663l-11.214,33.6-18.6,21.147,6.956,2.65s16.648-8.375,25.259-18.095c8.357-9.435,16.394-17.67,22.356-32.575,1.829-4.572,6.026-14.147,6.026-14.147Z" transform="translate(-508.387 -553.216)" fill="#1d8787"/>
    <path id="Trazado_666934" data-name="Trazado 666934" d="M3241.334,517.8l4.176-11.129-5.24-3.152-.092-3.935-6.69,16.775Z" transform="translate(-691.568 -321.279)" fill="#f69c79"/>
    <path id="Trazado_666935" data-name="Trazado 666935" d="M3253.063,460.036c.113,6.745,3.16,12.3,7.462,12.42s6.829-5.38,8.117-12c1.955-10.052-3.16-12.3-7.462-12.42S3252.948,453.208,3253.063,460.036Z" transform="translate(-706.665 -281.513)" fill="#f69c79"/>
    <path id="Trazado_666936" data-name="Trazado 666936" d="M3251.091,450.382c2.507-1.3,1.014-5.355,5.349-8.088,1.919-1.21,7.607,4.219,11.986,1.412,2.582-1.655,4.527-9.466.9-9.493s-5.4,2.065-7.6,1.51-5.748-2.033-8.176-.208C3248.973,438.957,3251.091,450.382,3251.091,450.382Z" transform="translate(-704.769 -270.852)" fill="#212c54"/>
    <path id="Trazado_666937" data-name="Trazado 666937" d="M3102.476,632.585s12.5-43.782,18.395-51.657c5.835-7.8,9.781-11.252,17.618-9.922,12.121,2.058,9.7,22.457,7.03,40.145-1.962,13.015-1.422,20.252-1.422,20.252Z" transform="translate(-590.503 -376.163)" fill="#212c54"/>
    <path id="Trazado_666938" data-name="Trazado 666938" d="M3424.325,459.429a2.84,2.84,0,0,0-5.594.81c2.145,47.763,6.262,138.9,6.535,141.144a16.545,16.545,0,0,0,32.85-3.983C3457.807,594.856,3435.839,505.942,3424.325,459.429Z" transform="translate(-834.464 -288.638)" fill="#606060"/>
    <circle id="Elipse_4908" data-name="Elipse 4908" cx="13.237" cy="13.237" r="13.237" transform="translate(2588.513 311.061) rotate(-45)"/>
    <path id="Trazado_666939" data-name="Trazado 666939" d="M3228.257,619.111s-11.287-34.323-21.89-29.6c-9.753,4.346-2.839,17.591,1.418,23.346,9.513,12.86,14.594,20.853,28.7,14.451s19.438-11.392,19.438-11.392,8.928-.6,12.142-2.868c4.283-3.018,3.568-6.195,1.991-5.721-1.34.4-6.035,2.944-7.287,2.319-.663-.331,3.643-3.312,1.987-3.312-3.974,0-8.943,5.3-8.943,5.3Z" transform="translate(-666.819 -390.31)" fill="#f69c79"/>
    <path id="Trazado_666940" data-name="Trazado 666940" d="M3191.937,608.737s11.125-14.072,13.306-14.51-2.213-5.453-2.213-5.453l-7.618-5.3-10.93,4.306-2.981,14.573Z" transform="translate(-651.464 -385.996)" fill="#212c54"/>
  </g>
</svg>
