<svg xmlns="http://www.w3.org/2000/svg" xmlns:xlink="http://www.w3.org/1999/xlink" width="145" height="145" viewBox="0 0 145 145">
  <defs>
    <filter id="Elipse_5265" x="0" y="0" width="145" height="145" filterUnits="userSpaceOnUse">
      <feOffset dy="3" input="SourceAlpha"/>
      <feGaussianBlur stdDeviation="3" result="blur"/>
      <feFlood flood-opacity="0.161"/>
      <feComposite operator="in" in2="blur"/>
      <feComposite in="SourceGraphic"/>
    </filter>
    <clipPath id="clip-path">
      <rect id="Rectángulo_344906" data-name="Rectángulo 344906" width="70.375" height="93.18" fill="none"/>
    </clipPath>
  </defs>
  <g id="Grupo_999436" data-name="Grupo 999436" transform="translate(1659 9822)">
    <g transform="matrix(1, 0, 0, 1, -1659, -9822)" filter="url(#Elipse_5265)">
      <circle id="Elipse_5265-2" data-name="Elipse 5265" cx="63.5" cy="63.5" r="63.5" transform="translate(9 6)" fill="#ad84ff"/>
    </g>
    <g id="Grupo_999398" data-name="Grupo 999398" transform="translate(-1622.375 -9797.5)">
      <g id="Grupo_999397" data-name="Grupo 999397" clip-path="url(#clip-path)">
        <path id="Trazado_678555" data-name="Trazado 678555" d="M36.134,5.969c11.107,0,22.213.011,33.32-.043.41,0,.54.419.537,2.405Q69.95,32.412,69.951,56.5c0,3.954.04,7.923-.022,11.857-.092,5.776-.958,9.452-2.212,9.743a6.184,6.184,0,0,1-1.424.1q-30.353.01-60.706-.007A2.126,2.126,0,0,1,4.125,77.7c-.984-.826-1.707-4.646-1.8-9.26-.037-1.748-.061-3.509-.061-5.265q0-27.6-.007-55.209c0-2.023.2-2.025.515-2.025q13.551.011,27.1-.024,3.133,0,6.265,0Z" transform="translate(-1.43 -3.756)" fill="#0b428a"/>
        <path id="Trazado_678556" data-name="Trazado 678556" d="M2.744,107.727H67.617c.01-.16.03-.32.03-.48-.019-5.2-.052-10.4-.057-15.6q-.014-16.172,0-32.343c0-.955.012-1.91.056-2.864a1.321,1.321,0,0,1,1.378-1.376,1.352,1.352,0,0,1,1.343,1.375c.01.121.007.242.007.364q0,32.935,0,65.871a5.13,5.13,0,0,1-2.689,4.852,5.287,5.287,0,0,1-2.63.6q-29.908.009-59.817,0a5.059,5.059,0,0,1-5.209-5.2c-.02-5.9-.008-11.8-.006-17.7A2.6,2.6,0,0,1,.1,104.65a1.352,1.352,0,0,1,1.394-1.064,1.33,1.33,0,0,1,1.257,1.272c.028.787,0,1.577,0,2.365,0,.15,0,.3,0,.5m32.464,2.753v-.011h-6q-12.975,0-25.951.005c-.3,0-.495,0-.493.419.016,3.806.005,7.612.007,11.417,0,.363.023.727.058,1.089a2.135,2.135,0,0,0,1.727,1.915,7.865,7.865,0,0,0,1.4.1q29.065.006,58.13,0c.454,0,.91,0,1.363-.02a2.091,2.091,0,0,0,2.118-2.015c.06-.814.019-1.634.021-2.452.01-3.32.013-6.64.039-9.96,0-.411-.122-.5-.515-.5q-15.953.016-31.906.009" transform="translate(-0.014 -34.954)" fill="#161615"/>
        <path id="Trazado_678557" data-name="Trazado 678557" d="M35.237,2.727q-14.727,0-29.453,0a6.482,6.482,0,0,0-1.263.1,2.159,2.159,0,0,0-1.7,1.9c-.044.467-.061.938-.061,1.407q0,28.546,0,57.091c0,.965-.245,1.432-.884,1.665a1.32,1.32,0,0,1-1.795-.951,3.194,3.194,0,0,1-.068-.721Q.01,34.285,0,5.353A5.231,5.231,0,0,1,3.452.314a7.455,7.455,0,0,1,2.056-.3Q35.28-.01,65.052.005a5.013,5.013,0,0,1,5.285,5.213c.066,3.259.027,6.52.018,9.78a1.368,1.368,0,0,1-1.363,1.457,1.343,1.343,0,0,1-1.366-1.444C67.6,12.1,67.609,9.19,67.6,6.279a13.253,13.253,0,0,0-.038-1.452,2.263,2.263,0,0,0-2.281-2.1c-3.288-.024-6.575-.007-9.863-.007H35.237Z" transform="translate(0 0)" fill="#161615"/>
        <path id="Trazado_678558" data-name="Trazado 678558" d="M62.109,31.171q7.751,0,15.5,0a3.858,3.858,0,0,1,4.054,3.075,7.585,7.585,0,0,1,.114,1.672q.009,11.124,0,22.247c0,.576.021,1.154-.028,1.727a3.823,3.823,0,0,1-3.372,3.4c-.271.027-.544.052-.816.052q-3.182.007-6.364,0a1.513,1.513,0,0,1-1.567-.774,1.315,1.315,0,0,1,.937-1.927,5.094,5.094,0,0,1,.992-.085c2.031,0,4.061,0,6.092,0,.988,0,1.432-.382,1.457-1.38.041-1.637.033-3.275.035-4.912q.01-8.986.011-17.971a11.737,11.737,0,0,0-.074-1.316,1.039,1.039,0,0,0-.951-1,5.693,5.693,0,0,0-.949-.074q-15.138-.007-30.275,0c-.167,0-.334,0-.5.018a1.286,1.286,0,0,0-1.361,1.384c-.039.589-.015,1.182-.015,1.773q0,10.51,0,21.019c0,.349,0,.7.027,1.046.073,1.047.473,1.419,1.529,1.419q8.364,0,16.729-.007a7.519,7.519,0,0,1,1.447.092,1.3,1.3,0,0,1,.741,2.128,2,2,0,0,1-.834.5,2.457,2.457,0,0,1-.81.07q-8.546,0-17.093,0a4.334,4.334,0,0,1-3.026-1,4.077,4.077,0,0,1-1.362-3.286q.02-2.889.02-5.778,0-8.94-.007-17.88a3.983,3.983,0,0,1,4.21-4.229q7.751-.008,15.5,0" transform="translate(-26.905 -19.786)" fill="#161615"/>
        <path id="Trazado_678559" data-name="Trazado 678559" d="M71.675,46.3c3.682,0,7.364.044,11.044-.017a2.973,2.973,0,0,1,3.132,3.154c-.061,2.455-.075,4.915.01,7.368a3.048,3.048,0,0,1-3.255,3.235c-6.817-.061-13.635-.045-20.453-.056-.576,0-1.151.025-1.727.031a2.814,2.814,0,0,1-2.966-2.836c-.03-2.638.033-5.278-.03-7.914a2.934,2.934,0,0,1,3.018-2.978c3.742.048,7.484.015,11.226.015v0m-11.508,11c.141.01.243.024.345.024q11.112,0,22.223.009c.338,0,.4-.118.4-.422-.009-2.517,0-5.033,0-7.55a1.575,1.575,0,0,0-.05-.283H60.167Z" transform="translate(-36.456 -29.379)" fill="#161615"/>
        <path id="Trazado_678560" data-name="Trazado 678560" d="M68.447,130.578q-7.158,0-14.315,0a2.891,2.891,0,0,1-.762-.084,1.263,1.263,0,0,1-.908-1.354,1.244,1.244,0,0,1,.984-1.2,3.867,3.867,0,0,1,.811-.076q14.27-.01,28.541-.011a4.13,4.13,0,0,1,.5.022,1.346,1.346,0,0,1,1.243,1.375,1.417,1.417,0,0,1-1.279,1.319,5.575,5.575,0,0,1-.59.019H68.447Z" transform="translate(-33.302 -81.156)" fill="#161615"/>
        <path id="Trazado_678561" data-name="Trazado 678561" d="M121.643,96.73a1.4,1.4,0,0,1,1.328,1.349,1.433,1.433,0,0,1-1.385,1.349,1.39,1.39,0,0,1-1.33-1.29,1.486,1.486,0,0,1,1.387-1.409" transform="translate(-76.338 -61.404)" fill="#161615"/>
        <path id="Trazado_678562" data-name="Trazado 678562" d="M84.792,99.4a1.378,1.378,0,0,1-1.314-1.317,1.337,1.337,0,1,1,2.673,0,1.38,1.38,0,0,1-1.36,1.32" transform="translate(-52.991 -61.408)" fill="#161615"/>
        <path id="Trazado_678563" data-name="Trazado 678563" d="M66.374,99.386a1.329,1.329,0,0,1,.012-2.657,1.414,1.414,0,0,1,1.337,1.345,1.342,1.342,0,0,1-1.349,1.313" transform="translate(-41.304 -61.403)" fill="#161615"/>
        <path id="Trazado_678564" data-name="Trazado 678564" d="M103.26,99.384a1.33,1.33,0,0,1,.041-2.659,1.447,1.447,0,0,1,1.332,1.313,1.364,1.364,0,0,1-1.373,1.345" transform="translate(-64.732 -61.401)" fill="#161615"/>
        <path id="Trazado_678565" data-name="Trazado 678565" d="M39.973,206.788q15.953,0,31.906-.009c.393,0,.518.087.515.5-.026,3.32-.028,6.64-.039,9.96,0,.818.038,1.638-.021,2.452a2.091,2.091,0,0,1-2.118,2.015c-.454.023-.909.02-1.363.02q-29.065,0-58.13,0a7.866,7.866,0,0,1-1.4-.1,2.135,2.135,0,0,1-1.727-1.915c-.035-.362-.058-.726-.058-1.089,0-3.806.009-7.612-.007-11.417,0-.418.19-.419.493-.419q12.976,0,25.951-.005h6Z" transform="translate(-4.779 -131.261)" fill="#dbfdfd"/>
        <path id="Trazado_678566" data-name="Trazado 678566" d="M64.924,62.143V53.921H87.838a1.576,1.576,0,0,1,.05.283c0,2.517,0,5.034,0,7.55,0,.3-.062.423-.4.422q-11.111-.015-22.223-.009c-.1,0-.2-.014-.345-.024" transform="translate(-41.214 -34.229)" fill="#ffc321"/>
      </g>
    </g>
  </g>
</svg>
