<svg xmlns="http://www.w3.org/2000/svg" width="517.664" height="253.349" viewBox="0 0 517.664 253.349">
  <g id="Grupo_930304" data-name="Grupo 930304" transform="translate(-2821.999 -2900.103)">
    <path id="Trazado_667151" data-name="Trazado 667151" d="M2935.835,2969.667c38.011,1.2,75.037-11.987,102.186-34.652,52.91-44.171,145.725-44.962,218.6-10.645,15.109,7.114,49.6,31.931,68.991,68.952,2.894,5.525,30.3,68.007-.312,117.273-2.379,3.829-25.128,28.4-47.232,35.53-5.534,1.785-387.705.989-390.386,0C2771.7,3103.237,2822.9,2966.094,2935.835,2969.667Z" fill="#d1e5f3"/>
    <ellipse id="Elipse_4928" data-name="Elipse 4928" cx="223.048" cy="12.618" rx="223.048" ry="12.618" transform="translate(2867.552 3128.215)" fill="#bcd7e6"/>
    <g id="Grupo_930303" data-name="Grupo 930303" transform="translate(2872.864 2908.485)">
      <g id="Grupo_930302" data-name="Grupo 930302" transform="translate(0 0)">
        <g id="Grupo_930293" data-name="Grupo 930293">
          <g id="Grupo_930278" data-name="Grupo 930278" transform="translate(45.209 93.179)">
            <path id="Trazado_667152" data-name="Trazado 667152" d="M3565.423,3926.378c0,1.9-40.048,3.447-139.993,3.447s-180.966-1.543-180.966-3.447,81.021-3.447,180.966-3.447S3565.423,3924.475,3565.423,3926.378Z" transform="translate(-3244.464 -3791.889)" fill="#c1ced9"/>
            <g id="Grupo_930274" data-name="Grupo 930274" transform="translate(238.315 23.77)">
              <path id="Trazado_667153" data-name="Trazado 667153" d="M4416.371,3718.7c-7.207,10.681-14.927,20.756-24.5,29.373s-20.942,15.5-33.469,18.5c-13.042,3.118-26.443,2-39.8.729-.2-.021-.4-.037-.6-.058.17-.578.355-1.156.54-1.734a66.809,66.809,0,0,1,18-28.318,66.051,66.051,0,0,1,31.242-15.927C4383.7,3718.029,4400.262,3720.768,4416.371,3718.7Z" transform="translate(-4312.182 -3657.874)" fill="#b9d99b"/>
              <path id="Trazado_667154" data-name="Trazado 667154" d="M4404.938,3732.258a70.821,70.821,0,0,0-21.687,2.147,18.382,18.382,0,0,1,9.145,8.059.671.671,0,0,1-1.182.633,16.818,16.818,0,0,0-10.352-8.052c-2.134.6-4.254,1.288-6.345,2.058-1.69.623-3.354,1.294-5.015,2,6.006,1.569,10.655,7.752,13.352,12.775a.671.671,0,0,1-1.183.633c-2.766-5.152-7.842-12-14.391-12.431a122.84,122.84,0,0,0-12.21,6.407,5.261,5.261,0,0,1,.642.189c6.5,2.486,11.015,8,13.423,14.387.3.8-.881,1.438-1.183.633-2.391-6.342-7.412-12.736-14.38-14.3a157.625,157.625,0,0,0-13.913,9.663c6.66,1.044,11.6,7.429,14.056,13.211.331.789-.848,1.427-1.183.633-2.447-5.765-7.475-12.4-14.4-12.653q-3.423,2.71-6.708,5.546c-4.412,3.822-8.771,7.815-12.816,12.065-.2-.021-.4-.037-.6-.058.17-.578.355-1.156.54-1.734l1.156-1.166a206.59,206.59,0,0,1,17.581-15.855q.14-4.662.29-9.321a.667.667,0,0,1,1.333.047q-.125,4.095-.249,8.189a155.34,155.34,0,0,1,14.1-9.884q-.555-3.891-1.106-7.791c-.125-.845,1.186-1.152,1.3-.294q.5,3.474,1,6.96c.018.12.028.251.043.38a119.9,119.9,0,0,1,12.738-6.713q.942-3.015,1.888-6.023a.669.669,0,0,1,1.28.387q-.769,2.465-1.543,4.934a95.038,95.038,0,0,1,12.161-4.3c.777-1.177,1.557-2.363,2.332-3.546.475-.718,1.616-.021,1.144.7-.518.779-1.027,1.562-1.543,2.347a73.8,73.8,0,0,1,22.543-2.21A.672.672,0,0,1,4404.938,3732.258Z" transform="translate(-4312.182 -3666.427)" fill="#82a179"/>
              <path id="Trazado_667155" data-name="Trazado 667155" d="M4372.587,3451.222c-7.669,16.353-12.537,33.078-16.836,50.624-2.906,11.864-5.135,24.224-11.664,34.551-10.678,16.9-29.464,22.887-48.656,17.56-.2-.052-.4-.111-.608-.169-.106-.369-.207-.741-.3-1.111a67.573,67.573,0,0,1,4.738-46.422c6.909-14.006,18.586-25.218,31.6-33.865S4358.272,3457.463,4372.587,3451.222Z" transform="translate(-4292.409 -3451.222)" fill="#82a179"/>
              <path id="Trazado_667156" data-name="Trazado 667156" d="M4371.8,3487.78a239.073,239.073,0,0,0-22.219,20.833c4.248-1.316,8.893-2.274,13.2-1.629.85.123.807,1.463-.043,1.339-4.95-.735-10.347.694-15.039,2.316q-6.626,7.21-12.644,14.947c6.745-3.132,14.811-5.472,21.961-3.739.839.2.446,1.488-.394,1.283-7.649-1.854-16.579,1.344-23.409,4.842q-5.917,7.811-11.184,16.067c9.318-4.022,20.187-7.08,30.209-5.751.849.108.808,1.454-.047,1.333-10.467-1.379-21.936,2.121-31.44,6.449q-5.177,8.317-9.678,17.033a56.726,56.726,0,0,1,31.512-2.607c.845.186.452,1.469-.384,1.286-10.4-2.305-22.172-.933-32.047,3.114q-4.069,8.066-7.538,16.427c-.2-.051-.4-.112-.608-.169-.106-.369-.207-.741-.3-1.111q3.311-7.946,7.19-15.625a49.544,49.544,0,0,1-3.672-19.136c0-.867,1.342-.817,1.333.047a48.3,48.3,0,0,0,3.15,17.506q4.523-8.835,9.776-17.261-2.845-8.062-5.691-16.115c-.29-.811,1.025-1.1,1.305-.288q2.645,7.474,5.287,14.947,5.422-8.585,11.557-16.692-1.77-6.5-3.549-13.01c-.23-.828,1.079-1.125,1.305-.289q1.639,5.981,3.269,11.958,6.405-8.347,13.52-16.123-1.077-4.889-2.157-9.784a.669.669,0,0,1,1.307-.289q.978,4.429,1.96,8.862a240.577,240.577,0,0,1,23.274-21.946C4371.545,3486.26,4372.476,3487.23,4371.8,3487.78Z" transform="translate(-4299.599 -3478.589)" fill="#b9d99b"/>
            </g>
            <g id="Grupo_930277" data-name="Grupo 930277" transform="translate(15.921)">
              <path id="Trazado_667157" data-name="Trazado 667157" d="M3314.533,3577.869l15.129-95.238a4.612,4.612,0,0,1,4.554-3.888h32.941a4.611,4.611,0,0,1,4.554,5.335l-15.129,95.238a4.611,4.611,0,0,1-4.554,3.887h-32.941A4.611,4.611,0,0,1,3314.533,3577.869Z" transform="translate(-3314.475 -3448.715)" fill="#819294"/>
              <path id="Trazado_667158" data-name="Trazado 667158" d="M3373.393,3346.7h195.621a14.721,14.721,0,0,1,14.721,14.72s8.713,105.048,8.713,105.048a14.721,14.721,0,0,1-14.721,14.721H3381.369a14.721,14.721,0,0,1-14.721-14.721l-7.976-105.045A14.721,14.721,0,0,1,3373.393,3346.7Z" transform="translate(-3348.622 -3346.698)" fill="#96a8ac"/>
              <path id="Trazado_667159" data-name="Trazado 667159" d="M3424.025,3346.7h195.621a14.721,14.721,0,0,1,14.721,14.72s8.712,105.048,8.712,105.048a14.721,14.721,0,0,1-14.721,14.721H3432a14.721,14.721,0,0,1-14.721-14.721l-7.976-105.045A14.722,14.722,0,0,1,3424.025,3346.7Z" transform="translate(-3387.738 -3346.698)" fill="#bdd0d6"/>
              <path id="Trazado_667160" data-name="Trazado 667160" d="M3477.435,3414.369h194.18l8.6,103.71H3485.3Z" transform="translate(-3440.375 -3398.979)" fill="#42454d"/>
              <path id="Trazado_667161" data-name="Trazado 667161" d="M4312.02,3518.08h-8.208l-8.6-103.708h8.207Z" transform="translate(-4072.184 -3398.982)" fill="#96a8ac"/>
              <g id="Grupo_930275" data-name="Grupo 930275" transform="translate(237.636 18.81)">
                <path id="Trazado_667162" data-name="Trazado 667162" d="M4359.443,3431.867c2,21.793,1.188,15.666,3.185,37.458q.42,4.588.84,9.175c.3,3.26,5.432,3.292,5.129,0-2-21.793-1.189-15.666-3.184-37.458q-.419-4.588-.84-9.175c-.3-3.261-5.431-3.292-5.129,0Z" transform="translate(-4359.431 -3429.41)" fill="#d3e2e6"/>
              </g>
              <g id="Grupo_930276" data-name="Grupo 930276" transform="translate(49.542 36.976)">
                <path id="Trazado_667163" data-name="Trazado 667163" d="M3666.1,3671.562a4.619,4.619,0,0,0-4.749,5.1l.994,10.175a5.811,5.811,0,0,0,5.744,5.075,1.98,1.98,0,0,0,2.035-2.186l-1.562-15.99A2.49,2.49,0,0,0,3666.1,3671.562Z" transform="translate(-3631.99 -3634.66)" fill="#e9f4f6"/>
                <path id="Trazado_667164" data-name="Trazado 667164" d="M3541.11,3559.551l-.995-10.175a5.809,5.809,0,0,0-5.743-5.075,1.979,1.979,0,0,0-2.035,2.186l1.562,15.99a2.491,2.491,0,0,0,2.462,2.175A4.619,4.619,0,0,0,3541.11,3559.551Z" transform="translate(-3532.327 -3536.339)" fill="#e9f4f6"/>
                <path id="Trazado_667165" data-name="Trazado 667165" d="M3558.775,3635.71a4.619,4.619,0,0,0-4.749,5.1,2.49,2.49,0,0,0,2.461,2.175l23.983-.058a1.979,1.979,0,0,0,2.035-2.186,5.81,5.81,0,0,0-5.743-5.075Z" transform="translate(-3549.073 -3606.927)" fill="#e9f4f6"/>
                <path id="Trazado_667166" data-name="Trazado 667166" d="M3546.363,3518.046l17.987-.043a4.619,4.619,0,0,0,4.749-5.1,2.489,2.489,0,0,0-2.461-2.175l-23.983.057a1.98,1.98,0,0,0-2.035,2.186A5.811,5.811,0,0,0,3546.363,3518.046Z" transform="translate(-3538.725 -3510.401)" fill="#e9f4f6"/>
                <path id="Trazado_667167" data-name="Trazado 667167" d="M3589.174,3762.706l-17.987.043a4.619,4.619,0,0,0-4.749,5.1,2.49,2.49,0,0,0,2.461,2.175l23.983-.058a1.979,1.979,0,0,0,2.035-2.186A5.81,5.81,0,0,0,3589.174,3762.706Z" transform="translate(-3558.662 -3705.076)" fill="#e9f4f6"/>
                <path id="Trazado_667168" data-name="Trazado 667168" d="M3853.126,3671.111a4.619,4.619,0,0,0-4.749,5.1l.994,10.175a5.81,5.81,0,0,0,5.743,5.075,1.979,1.979,0,0,0,2.035-2.186l-1.562-15.99A2.49,2.49,0,0,0,3853.126,3671.111Z" transform="translate(-3776.485 -3634.311)" fill="#e9f4f6"/>
                <path id="Trazado_667169" data-name="Trazado 667169" d="M3728.136,3559.1l-.994-10.175a5.81,5.81,0,0,0-5.743-5.075,1.98,1.98,0,0,0-2.036,2.186l1.563,15.99a2.49,2.49,0,0,0,2.461,2.175A4.619,4.619,0,0,0,3728.136,3559.1Z" transform="translate(-3676.82 -3535.99)" fill="#e9f4f6"/>
                <path id="Trazado_667170" data-name="Trazado 667170" d="M3745.8,3635.259a4.619,4.619,0,0,0-4.749,5.1,2.49,2.49,0,0,0,2.461,2.175l23.983-.058a1.979,1.979,0,0,0,2.035-2.186,5.81,5.81,0,0,0-5.743-5.075Z" transform="translate(-3693.567 -3606.579)" fill="#e9f4f6"/>
                <path id="Trazado_667171" data-name="Trazado 667171" d="M3733.388,3517.594l17.987-.043a4.618,4.618,0,0,0,4.749-5.1,2.489,2.489,0,0,0-2.461-2.175l-23.983.058a1.98,1.98,0,0,0-2.035,2.186A5.81,5.81,0,0,0,3733.388,3517.594Z" transform="translate(-3683.219 -3510.052)" fill="#e9f4f6"/>
                <path id="Trazado_667172" data-name="Trazado 667172" d="M3776.2,3762.255l-17.987.043a4.619,4.619,0,0,0-4.75,5.1,2.49,2.49,0,0,0,2.462,2.175l23.983-.058a1.98,1.98,0,0,0,2.035-2.186A5.81,5.81,0,0,0,3776.2,3762.255Z" transform="translate(-3703.156 -3704.728)" fill="#e9f4f6"/>
                <path id="Trazado_667173" data-name="Trazado 667173" d="M3981.344,3723.528l-10.522,11.268a2.653,2.653,0,0,0,.371,3.794,1.21,1.21,0,0,0,1.677,0l12.546-13.442a1.136,1.136,0,0,0-.159-1.626A2.824,2.824,0,0,0,3981.344,3723.528Z" transform="translate(-3870.611 -3674.197)" fill="#e9f4f6"/>
                <path id="Trazado_667174" data-name="Trazado 667174" d="M4048.656,3651.377l-10.522,11.269a2.652,2.652,0,0,0,.371,3.794,1.211,1.211,0,0,0,1.677,0l12.546-13.442a1.138,1.138,0,0,0-.159-1.626A2.825,2.825,0,0,0,4048.656,3651.377Z" transform="translate(-3922.615 -3618.455)" fill="#e9f4f6"/>
                <path id="Trazado_667175" data-name="Trazado 667175" d="M4009.573,3671.587l-.632-6.464a1.007,1.007,0,0,0-.995-.879,1.867,1.867,0,0,0-1.92,2.062l.4,4.113a2.349,2.349,0,0,0,2.322,2.052A.8.8,0,0,0,4009.573,3671.587Z" transform="translate(-3898.293 -3629.005)" fill="#e9f4f6"/>
                <path id="Trazado_667176" data-name="Trazado 667176" d="M3960.532,3672.6a1.867,1.867,0,0,0,1.92-2.062l-.4-4.114a2.35,2.35,0,0,0-2.322-2.052.8.8,0,0,0-.823.884l.632,6.464A1.007,1.007,0,0,0,3960.532,3672.6Z" transform="translate(-3861.893 -3629.102)" fill="#e9f4f6"/>
                <path id="Trazado_667177" data-name="Trazado 667177" d="M3967.674,3703.387a1.007,1.007,0,0,0,1,.88l9.7-.024a.8.8,0,0,0,.823-.884,2.348,2.348,0,0,0-2.322-2.052l-7.272.018A1.867,1.867,0,0,0,3967.674,3703.387Z" transform="translate(-3868.663 -3657.641)" fill="#e9f4f6"/>
                <path id="Trazado_667178" data-name="Trazado 667178" d="M3962.254,3651.7a2.349,2.349,0,0,0,2.322,2.052l7.272-.018a1.868,1.868,0,0,0,1.92-2.062,1.007,1.007,0,0,0-1-.879l-9.7.023a.8.8,0,0,0-.823.884Z" transform="translate(-3864.48 -3618.616)" fill="#e9f4f6"/>
                <path id="Trazado_667179" data-name="Trazado 667179" d="M4103.5,3743.63a1.867,1.867,0,0,0-1.92,2.062l.4,4.114a2.35,2.35,0,0,0,2.322,2.052.8.8,0,0,0,.823-.884l-.632-6.465A1.007,1.007,0,0,0,4103.5,3743.63Z" transform="translate(-3972.118 -3690.338)" fill="#e9f4f6"/>
                <path id="Trazado_667180" data-name="Trazado 667180" d="M4058.009,3749.921l-.4-4.114a2.349,2.349,0,0,0-2.322-2.052.8.8,0,0,0-.823.884l.632,6.464a1.007,1.007,0,0,0,1,.88A1.868,1.868,0,0,0,4058.009,3749.921Z" transform="translate(-3935.719 -3690.436)" fill="#e9f4f6"/>
                <path id="Trazado_667181" data-name="Trazado 667181" d="M4072.422,3780.694l-7.272.018a1.868,1.868,0,0,0-1.92,2.062,1.007,1.007,0,0,0,1,.879l9.7-.023a.8.8,0,0,0,.823-.884A2.349,2.349,0,0,0,4072.422,3780.694Z" transform="translate(-3942.489 -3718.973)" fill="#e9f4f6"/>
                <path id="Trazado_667182" data-name="Trazado 667182" d="M4067.4,3733.123a1.868,1.868,0,0,0,1.92-2.062,1.007,1.007,0,0,0-1-.879l-9.7.023a.8.8,0,0,0-.823.884,2.349,2.349,0,0,0,2.322,2.052Z" transform="translate(-3938.305 -3679.948)" fill="#e9f4f6"/>
                <path id="Trazado_667183" data-name="Trazado 667183" d="M3989.917,3524.548l.38,3.892a2.223,2.223,0,0,0,2.2,1.941.757.757,0,0,0,.778-.836l-.6-6.116a.952.952,0,0,0-.941-.832A1.767,1.767,0,0,0,3989.917,3524.548Z" transform="translate(-3885.848 -3519.571)" fill="#e9f4f6"/>
                <path id="Trazado_667184" data-name="Trazado 667184" d="M3951.641,3579.3a1.767,1.767,0,0,0,1.817-1.951l-.38-3.892a2.222,2.222,0,0,0-2.2-1.942.758.758,0,0,0-.779.836l.6,6.116A.953.953,0,0,0,3951.641,3579.3Z" transform="translate(-3855.091 -3557.364)" fill="#e9f4f6"/>
                <path id="Trazado_667185" data-name="Trazado 667185" d="M3954.572,3560.465l9.174-.022a.757.757,0,0,0,.779-.836,2.223,2.223,0,0,0-2.2-1.941l-6.88.017a1.767,1.767,0,0,0-1.817,1.951A.953.953,0,0,0,3954.572,3560.465Z" transform="translate(-3857.813 -3546.664)" fill="#e9f4f6"/>
                <path id="Trazado_667186" data-name="Trazado 667186" d="M3950.7,3512.672l6.88-.017a1.767,1.767,0,0,0,1.817-1.951.952.952,0,0,0-.941-.832l-9.174.022a.757.757,0,0,0-.778.836A2.223,2.223,0,0,0,3950.7,3512.672Z" transform="translate(-3853.855 -3509.741)" fill="#e9f4f6"/>
                <path id="Trazado_667187" data-name="Trazado 667187" d="M3959.319,3609.061l9.174-.022a.757.757,0,0,0,.779-.836,2.223,2.223,0,0,0-2.2-1.941l-6.881.017a1.767,1.767,0,0,0-1.817,1.951A.953.953,0,0,0,3959.319,3609.061Z" transform="translate(-3861.481 -3584.208)" fill="#e9f4f6"/>
                <path id="Trazado_667188" data-name="Trazado 667188" d="M4045.363,3521.385a.757.757,0,0,0,.779-.836l-.976-9.985a.953.953,0,0,0-.942-.832,1.767,1.767,0,0,0-1.817,1.951l.758,7.761A2.223,2.223,0,0,0,4045.363,3521.385Z" transform="translate(-3926.402 -3509.632)" fill="#e9f4f6"/>
                <path id="Trazado_667189" data-name="Trazado 667189" d="M4050.959,3578.665a.757.757,0,0,0,.778-.836l-.978-10.009a.951.951,0,0,0-.941-.832,1.766,1.766,0,0,0-1.816,1.951l.76,7.784A2.223,2.223,0,0,0,4050.959,3578.665Z" transform="translate(-3930.724 -3553.867)" fill="#e9f4f6"/>
                <path id="Trazado_667190" data-name="Trazado 667190" d="M4142.5,3522.233a1.766,1.766,0,0,0-1.816,1.951l.38,3.892a2.221,2.221,0,0,0,2.2,1.941.757.757,0,0,0,.779-.836l-.6-6.116A.952.952,0,0,0,4142.5,3522.233Z" transform="translate(-4002.333 -3519.29)" fill="#e9f4f6"/>
                <path id="Trazado_667191" data-name="Trazado 667191" d="M4099.46,3528.185l-.38-3.892a2.222,2.222,0,0,0-2.2-1.941.756.756,0,0,0-.778.836l.6,6.116a.952.952,0,0,0,.941.832A1.766,1.766,0,0,0,4099.46,3528.185Z" transform="translate(-3967.892 -3519.382)" fill="#e9f4f6"/>
                <path id="Trazado_667192" data-name="Trazado 667192" d="M4113.1,3557.3l-6.88.017a1.767,1.767,0,0,0-1.816,1.951.952.952,0,0,0,.941.833l9.174-.022a.757.757,0,0,0,.778-.836A2.223,2.223,0,0,0,4113.1,3557.3Z" transform="translate(-3974.298 -3546.384)" fill="#e9f4f6"/>
                <path id="Trazado_667193" data-name="Trazado 667193" d="M4101.469,3512.308l6.881-.016a1.767,1.767,0,0,0,1.816-1.951.953.953,0,0,0-.942-.832l-9.174.022a.757.757,0,0,0-.778.836A2.221,2.221,0,0,0,4101.469,3512.308Z" transform="translate(-3970.34 -3509.459)" fill="#e9f4f6"/>
                <path id="Trazado_667194" data-name="Trazado 667194" d="M4184.015,3571.832l-.523-5.352a2.222,2.222,0,0,0-2.2-1.941.757.757,0,0,0-.779.836l.74,7.576a.952.952,0,0,0,.941.832A1.767,1.767,0,0,0,4184.015,3571.832Z" transform="translate(-4033.107 -3551.975)" fill="#e9f4f6"/>
                <path id="Trazado_667195" data-name="Trazado 667195" d="M4178.058,3531.4a1.767,1.767,0,0,0,1.816-1.951l-.523-5.352a2.222,2.222,0,0,0-2.2-1.941.757.757,0,0,0-.779.836l.74,7.576A.952.952,0,0,0,4178.058,3531.4Z" transform="translate(-4029.908 -3519.232)" fill="#e9f4f6"/>
                <path id="Trazado_667196" data-name="Trazado 667196" d="M4181.741,3512.1l9.13-.022a1.767,1.767,0,0,0,1.816-1.951.952.952,0,0,0-.941-.832l-11.424.028a.758.758,0,0,0-.779.836A2.223,2.223,0,0,0,4181.741,3512.1Z" transform="translate(-4032.355 -3509.291)" fill="#e9f4f6"/>
                <path id="Trazado_667197" data-name="Trazado 667197" d="M4200.367,3605.68l-9.13.022a1.767,1.767,0,0,0-1.816,1.951.953.953,0,0,0,.942.832l11.423-.028a.758.758,0,0,0,.779-.836A2.222,2.222,0,0,0,4200.367,3605.68Z" transform="translate(-4039.982 -3583.76)" fill="#e9f4f6"/>
              </g>
            </g>
          </g>
          <g id="Grupo_930288" data-name="Grupo 930288" transform="translate(75.929)">
            <g id="Grupo_930281" data-name="Grupo 930281" transform="translate(0 9.818)">
              <circle id="Elipse_4929" data-name="Elipse 4929" cx="27.681" cy="27.681" r="27.681" transform="translate(0 39.146) rotate(-45)" fill="#fff"/>
              <g id="Grupo_930279" data-name="Grupo 930279" transform="translate(9.484 9.482)">
                <path id="Trazado_667198" data-name="Trazado 667198" d="M3426.667,3059.133a25.41,25.41,0,1,1,6.264,10.315c-1.985-1.941-5.037,1.1-3.049,3.049a29.705,29.705,0,1,0-7.373-12.219c.792,2.653,4.955,1.523,4.157-1.146Z" transform="translate(-3421.255 -3021.829)" fill="#cee2fa"/>
              </g>
              <g id="Grupo_930280" data-name="Grupo 930280" transform="translate(22.979 23.041)">
                <path id="Trazado_667199" data-name="Trazado 667199" d="M3506.374,3088.917h-1.407a8.238,8.238,0,0,0-16.4,0h-1.407a6.559,6.559,0,1,0,0,13.117h19.217a6.559,6.559,0,0,0,0-13.117Z" transform="translate(-3480.598 -3081.455)" fill="#cee2fa"/>
                <path id="Trazado_667200" data-name="Trazado 667200" d="M3512.041,3180.1c-.192-.071-.532.26-1.01.82a16.156,16.156,0,0,0-1.61,2.285,5.534,5.534,0,0,0-.851,2.566,1.3,1.3,0,0,0,2.424.895,5.527,5.527,0,0,0,1.021-2.5,16.164,16.164,0,0,0,.261-2.784C3512.277,3180.639,3512.233,3180.167,3512.041,3180.1Z" transform="translate(-3502.208 -3157.657)" fill="#cee2fa"/>
                <path id="Trazado_667201" data-name="Trazado 667201" d="M3547.014,3180.1c-.192-.071-.532.26-1.01.82a16.175,16.175,0,0,0-1.611,2.285,5.533,5.533,0,0,0-.851,2.566,1.3,1.3,0,0,0,2.423.895,5.53,5.53,0,0,0,1.021-2.5,16.21,16.21,0,0,0,.261-2.784C3547.25,3180.639,3547.206,3180.167,3547.014,3180.1Z" transform="translate(-3529.229 -3157.657)" fill="#cee2fa"/>
                <path id="Trazado_667202" data-name="Trazado 667202" d="M3581.988,3180.1c-.192-.071-.532.26-1.009.82a16.154,16.154,0,0,0-1.611,2.285,5.533,5.533,0,0,0-.851,2.566,1.3,1.3,0,0,0,2.423.895,5.53,5.53,0,0,0,1.021-2.5,16.164,16.164,0,0,0,.261-2.784C3582.223,3180.639,3582.179,3180.167,3581.988,3180.1Z" transform="translate(-3556.249 -3157.657)" fill="#cee2fa"/>
              </g>
            </g>
            <g id="Grupo_930284" data-name="Grupo 930284" transform="translate(157.476)">
              <circle id="Elipse_4930" data-name="Elipse 4930" cx="31.245" cy="31.245" r="31.245" transform="translate(0 44.187) rotate(-45)" fill="#fff"/>
              <g id="Grupo_930282" data-name="Grupo 930282" transform="translate(11.274 11.248)">
                <path id="Trazado_667203" data-name="Trazado 667203" d="M4167.7,2993.956a28.663,28.663,0,1,1-13.209-3.222c2.773-.027,2.78-4.339,0-4.312a32.961,32.961,0,1,0,15.385,3.812c-2.443-1.314-4.624,2.407-2.176,3.723Z" transform="translate(-4121.596 -2986.421)" fill="#cee2fa"/>
              </g>
              <g id="Grupo_930283" data-name="Grupo 930283" transform="translate(26.49 30.175)">
                <path id="Trazado_667204" data-name="Trazado 667204" d="M4284.466,3079.634a9.937,9.937,0,0,1-1.757,5.656,8.832,8.832,0,0,0-7.407-4.807,10.515,10.515,0,0,0-8.4-7.344,9.983,9.983,0,0,1,17.565,6.495Z" transform="translate(-4249.073 -3069.649)" fill="#cee2fa"/>
                <path id="Trazado_667205" data-name="Trazado 667205" d="M4214.283,3101.867h-1.407a8.239,8.239,0,0,0-16.4,0h-1.407a6.558,6.558,0,0,0,0,13.117h19.218a6.558,6.558,0,0,0,0-13.117Z" transform="translate(-4188.507 -3088.775)" fill="#cee2fa"/>
              </g>
            </g>
            <g id="Grupo_930287" data-name="Grupo 930287" transform="translate(226.713 55.572)">
              <circle id="Elipse_4931" data-name="Elipse 4931" cx="23.098" cy="23.098" r="23.098" transform="translate(0 32.665) rotate(-45)" fill="#fff"/>
              <g id="Grupo_930285" data-name="Grupo 930285" transform="translate(9.567 9.591)">
                <path id="Trazado_667206" data-name="Trazado 667206" d="M4458.333,3255.2a18.814,18.814,0,1,1,2.1-8.638c.039,2.772,4.351,2.78,4.312,0a23.114,23.114,0,1,0-2.687,10.815c1.326-2.438-2.4-4.617-3.723-2.176Z" transform="translate(-4418.548 -3223.504)" fill="#cee2fa"/>
              </g>
              <g id="Grupo_930286" data-name="Grupo 930286" transform="translate(19.107 19.105)">
                <circle id="Elipse_4932" data-name="Elipse 4932" cx="7.6" cy="7.6" r="7.6" transform="translate(3.195 16.411) rotate(-60.379)" fill="#cee2fa"/>
                <path id="Trazado_667207" data-name="Trazado 667207" d="M4482.586,3285.109l-4.633-2.294,2.294,4.633A8.886,8.886,0,0,1,4482.586,3285.109Z" transform="translate(-4473.983 -3278.841)" fill="#cee2fa"/>
                <path id="Trazado_667208" data-name="Trazado 667208" d="M4516.153,3270.237l-1.652-4.9-1.651,4.9a8.672,8.672,0,0,1,3.3,0Z" transform="translate(-4500.944 -3265.339)" fill="#cee2fa"/>
                <path id="Trazado_667209" data-name="Trazado 667209" d="M4563.109,3319.363l-4.9-1.651a8.7,8.7,0,0,1,0,3.3Z" transform="translate(-4535.99 -3305.802)" fill="#cee2fa"/>
                <path id="Trazado_667210" data-name="Trazado 667210" d="M4544.252,3287.444l2.294-4.629-4.629,2.294A8.879,8.879,0,0,1,4544.252,3287.444Z" transform="translate(-4523.4 -3278.841)" fill="#cee2fa"/>
                <path id="Trazado_667211" data-name="Trazado 667211" d="M4512.85,3363.056l1.651,4.9,1.652-4.9a8.685,8.685,0,0,1-3.3,0Z" transform="translate(-4500.944 -3340.834)" fill="#cee2fa"/>
                <path id="Trazado_667212" data-name="Trazado 667212" d="M4541.9,3349.1l4.633,2.294-2.294-4.633A8.892,8.892,0,0,1,4541.9,3349.1Z" transform="translate(-4523.387 -3328.244)" fill="#cee2fa"/>
                <path id="Trazado_667213" data-name="Trazado 667213" d="M4480.247,3346.742l-2.294,4.637,4.637-2.294A8.9,8.9,0,0,1,4480.247,3346.742Z" transform="translate(-4473.983 -3328.23)" fill="#cee2fa"/>
                <path id="Trazado_667214" data-name="Trazado 667214" d="M4465.234,3319.363a8.542,8.542,0,0,1,.158-1.651l-4.9,1.651,4.9,1.652A8.51,8.51,0,0,1,4465.234,3319.363Z" transform="translate(-4460.495 -3305.802)" fill="#cee2fa"/>
              </g>
            </g>
          </g>
          <g id="Grupo_930292" data-name="Grupo 930292" transform="translate(0 23.878)">
            <path id="Trazado_667215" data-name="Trazado 667215" d="M3120.658,3099.31c-.153,0-.307,0-.46,0-1.7-2.893-3.546-5.909-5.473-9.054-8.077-13.18-17.232-28.118-18.621-39.755a9.323,9.323,0,0,0-18.58-.005c-1.189,9.951-7.717,20.8-14.628,32.29-6.348,10.552-12.912,21.464-15.755,32.648-3.434,13.51-.881,25.176,7.805,35.669,9.815,11.851,29.824,12.771,35.723,12.771a65.887,65.887,0,0,0,8.348-.511,35.683,35.683,0,1,0,21.64-64.055Z" transform="translate(-3045.667 -3041.959)" fill="#fff"/>
            <g id="Grupo_930291" data-name="Grupo 930291" transform="translate(5.401 5.395)">
              <path id="Trazado_667216" data-name="Trazado 667216" d="M3115.255,3112.143l6.273,10.75a35.067,35.067,0,0,0-8.079,54.463c-12.9,2.735-27.411-.988-36-11.36-26.311-31.778,20.118-65.944,23.777-96.526a3.936,3.936,0,0,1,7.867,0c2.136,17.87,15.147,33.229,23.636,49.312a34.3,34.3,0,0,0-4.91,1.27l-6.635-11.373a3.435,3.435,0,1,0-5.933,3.464Z" transform="translate(-3069.419 -3065.684)" fill="#a7d6eb"/>
              <g id="Grupo_930290" data-name="Grupo 930290" transform="translate(26.752 44.802)">
                <circle id="Elipse_4933" data-name="Elipse 4933" cx="30.29" cy="30.29" r="30.29" transform="translate(0 42.837) rotate(-45)" fill="#5d79bb"/>
                <g id="Grupo_930289" data-name="Grupo 930289" transform="translate(25.79 25.393)">
                  <path id="Trazado_667217" data-name="Trazado 667217" d="M3307.034,3387.732a6.572,6.572,0,1,0,6.573,6.573A6.574,6.574,0,0,0,3307.034,3387.732Zm0,9.021a2.448,2.448,0,1,1,2.448-2.448A2.447,2.447,0,0,1,3307.034,3396.753Z" transform="translate(-3300.462 -3384.689)" fill="#fff"/>
                  <path id="Trazado_667218" data-name="Trazado 667218" d="M3399.146,3456.583a6.572,6.572,0,1,0,6.573,6.572A6.573,6.573,0,0,0,3399.146,3456.583Zm0,9.021a2.449,2.449,0,1,1,2.449-2.448A2.447,2.447,0,0,1,3399.146,3465.6Z" transform="translate(-3371.626 -3437.883)" fill="#fff"/>
                  <path id="Trazado_667219" data-name="Trazado 667219" d="M3349.894,3374.635a2.756,2.756,0,0,0-3.689,1.255l-14.5,29.453a2.755,2.755,0,0,0,4.944,2.434l14.5-29.454A2.756,2.756,0,0,0,3349.894,3374.635Z" transform="translate(-3324.381 -3374.352)" fill="#fff"/>
                </g>
              </g>
            </g>
          </g>
        </g>
        <g id="Grupo_930301" data-name="Grupo 930301" transform="translate(363.469 44.446)">
          <ellipse id="Elipse_4934" data-name="Elipse 4934" cx="6.965" cy="12.053" rx="6.965" ry="12.053" transform="translate(60.543 36.344)" fill="#fff"/>
          <path id="Trazado_667220" data-name="Trazado 667220" d="M4643.949,3930.065c0,1.286,16.425,2.329,36.686,2.329s36.686-1.043,36.686-2.329-16.424-2.33-36.686-2.33S4643.949,3928.779,4643.949,3930.065Z" transform="translate(-4643.949 -3746.868)" fill="#c1ced9"/>
          <path id="Trazado_667221" data-name="Trazado 667221" d="M4709.47,3368.447a3.859,3.859,0,0,0-3.539-2.563,5.694,5.694,0,0,0-4.162,2.2,8.951,8.951,0,0,0-1.771,4.46c-.267,2.012-.051,4.1-.671,6.038-.748,2.332-2.617,4.135-3.623,6.367a10.608,10.608,0,0,0,2.242,11.384,13.5,13.5,0,0,0,11.288,3.707,14.652,14.652,0,0,0,11.449-8.261,12.879,12.879,0,0,0-2.146-13.759c-1.152-1.225-2.582-2.227-3.416-3.687-.757-1.325-.948-2.906-1.646-4.263A3.393,3.393,0,0,0,4709.47,3368.447Z" transform="translate(-4683.315 -3312.787)" fill="#7a4836"/>
          <path id="Trazado_667222" data-name="Trazado 667222" d="M4817.079,3893.22a35.145,35.145,0,0,1,1.946-9.165,5.1,5.1,0,0,0,2.973.405,15.1,15.1,0,0,0,.095,4.835c.35,1.584.805,3.121,2.178,4.054a8.371,8.371,0,0,0,2.481,1.268.508.508,0,0,1,.088.036c1.5.633,3.469.822,5.117,2.255.434.377.094,1.145-.464,1.219-.779.1-1.583.18-2.4.231a32.08,32.08,0,0,1-12.1-1.239A30.949,30.949,0,0,1,4817.079,3893.22Z" transform="translate(-4777.62 -3713.121)" fill="#3b3a3d"/>
          <g id="Grupo_930294" data-name="Grupo 930294" transform="translate(8.971 171.305)">
            <path id="Trazado_667223" data-name="Trazado 667223" d="M4688.176,3891.618c-.014-.1,1.028-5.3,1.023-5.453-.024-.642-.989-.8-1.787.515-1.573,2.593-3.2-.626-3.254.482-.21,4.3-1.413,9.271-.283,10.8.787,1.068,3.455,1.828,5.406,1.775s2.409-.61.483-4.2A13.935,13.935,0,0,1,4688.176,3891.618Z" transform="translate(-4683.398 -3885.683)" fill="#3b3a3d"/>
          </g>
          <path id="Trazado_667224" data-name="Trazado 667224" d="M4697.162,3543.264a32.141,32.141,0,0,1,1.951-8.04,12.012,12.012,0,0,1,4.112-5.465l1.548.037,2.445.055,5.181.118c.107.181.395-.587,1.8,2.887l1.048,2.089c5.676,19.323,5.423,80.5,5.423,80.5-3.454,2.289-6.2.909-6.2.909l-2.9-29.243-4.161-31.384.418-2.017c-.055-.218-.11-.431-.166-.645-2.08,13.844-7.771,38.589-17.775,60.853a8.375,8.375,0,0,1-5.5-2.264C4685.974,3608.752,4696.06,3561.367,4697.162,3543.264Z" transform="translate(-4675.192 -3439.396)" fill="#9a7242"/>
          <path id="Trazado_667225" data-name="Trazado 667225" d="M4690.953,3625.536c6.326-19.361,9.995-39.7,13.114-59.839.053-.338.1-.677.154-1.015.2-1.293.4-2.586.594-3.875.3-1.947.587-3.894.854-5.845.049-.357.59-.207.541.15q-.586,4.319-1.24,8.638a16.273,16.273,0,0,0,3.026-7.337c.056-.357.6-.2.545.15a16.715,16.715,0,0,1-3.74,8.314c-2.116,13.821-4.736,27.6-7.927,41.188-1.553,6.6-3.271,13.171-5.375,19.621C4691.385,3626.029,4690.84,3625.882,4690.953,3625.536Z" transform="translate(-4680.252 -3458.709)" fill="#6d4927"/>
          <path id="Trazado_667226" data-name="Trazado 667226" d="M4764.087,3332.177l-4.117,18.649a3.793,3.793,0,0,1-1.378,2.34,51.842,51.842,0,0,1-10.292,6.48c-.622.282-1.249.546-1.883.78l-1.583.5a19.453,19.453,0,0,1,.991,3.419c-.023.088-.041.182-.064.276a24.8,24.8,0,0,0-.575,3.178c-.393,4.381,3.22,9.583,3.876,14.743-.492,1.231-3.4,1.994-6.568,2.457s-8.973-.018-11.454-1.067c1.361-7.858,3.782-6.592.756-14.186a26.888,26.888,0,0,0-1.883-2.9c-2.722-4-2.836-6.927-2.376-8.758a3.731,3.731,0,0,1,3.058-2.751,31.436,31.436,0,0,0,3.389-.12l4.714-.475a37.676,37.676,0,0,0,5.4-1.513,43.957,43.957,0,0,0,10.686-5.424l6.187-17.881Z" transform="translate(-4708.37 -3285.006)" fill="#efc351"/>
          <path id="Trazado_667227" data-name="Trazado 667227" d="M4747.186,3438s8.928,8.232,6.471-1.029C4753.657,3436.971,4748.934,3434.856,4747.186,3438Z" transform="translate(-4723.708 -3367.171)" fill="#e8a29a"/>
          <g id="Grupo_930295" data-name="Grupo 930295" transform="translate(30.839 105.641)">
            <path id="Trazado_667228" data-name="Trazado 667228" d="M4782.164,3597.211c.038-.357.6-.361.563,0q-.216,2.067-.493,4.131a6,6,0,0,0,1.127-2.7c.056-.357.6-.206.544.15a6.486,6.486,0,0,1-1.814,3.58c-.523,3.689-1.182,7.361-1.984,10.991-.079.354-.622.2-.544-.15A143.641,143.641,0,0,0,4782.164,3597.211Z" transform="translate(-4779.556 -3596.941)" fill="#6d4927"/>
          </g>
          <g id="Grupo_930296" data-name="Grupo 930296" transform="translate(44.048 61.92)">
            <path id="Trazado_667229" data-name="Trazado 667229" d="M4837.733,3406.825a20.244,20.244,0,0,0,3.189-2.092c.182-.158.449.107.266.266a20.811,20.811,0,0,1-3.265,2.15.188.188,0,0,1-.19-.325Z" transform="translate(-4837.643 -3404.685)" fill="#d6a54c"/>
          </g>
          <g id="Grupo_930297" data-name="Grupo 930297" transform="translate(32.778 70.863)">
            <path id="Trazado_667230" data-name="Trazado 667230" d="M4791.866,3456.314c.473-2.444.754-5.08-.477-7.36-.885-1.64-2.33-2.905-3.266-4.522a.282.282,0,0,1,.487-.284c1.149,1.983,3.033,3.487,3.784,5.7a12.928,12.928,0,0,1,.016,6.614c-.069.356-.613.205-.544-.15Z" transform="translate(-4788.083 -3444.011)" fill="#c59832"/>
          </g>
          <path id="Trazado_667231" data-name="Trazado 667231" d="M4748.812,3413.185a5.033,5.033,0,0,1-2.979,1.318,4.673,4.673,0,0,1-3.025-.864,23.135,23.135,0,0,0-.086-2.357c-.016-.181-.031-.363-.051-.541-.026-.226-.053-.433-.081-.64a16.543,16.543,0,0,0-.494-2.308c-.015-.053-.027-.11-.043-.163-.067-.258-.143-.514-.224-.77a22.678,22.678,0,0,0-.947-2.534,12.619,12.619,0,0,1,4.482,1.678c.064.266.136.533.212.795s.152.523.237.783c.029.084.055.171.085.25.1.306.21.6.326.9.008.024.019.048.026.072.089.225.178.45.273.671.072.167.143.331.218.492A17.577,17.577,0,0,0,4748.812,3413.185Z" transform="translate(-4718.837 -3342.487)" fill="#e8a29b"/>
          <path id="Trazado_667232" data-name="Trazado 667232" d="M4751.658,3418.391a4.969,4.969,0,0,1-4.427-2.622l3.25-.571c.073.262.152.523.238.783.028.084.055.171.084.25.1.306.21.6.325.9.008.024.019.048.026.072.089.225.178.449.274.671.071.167.143.331.219.492C4751.651,3418.377,4751.654,3418.381,4751.658,3418.391Z" transform="translate(-4723.743 -3350.887)" fill="#d57682"/>
          <path id="Trazado_667233" data-name="Trazado 667233" d="M4745.315,3388.438c-.546,1.146-2.389,1.676-3.651,1.543a4.871,4.871,0,0,1-3.051-1.532c-.052-.053-.106-.105-.159-.161-.041-.145-.088-.288-.143-.431-.145-.38-.333-.749-.509-1.117a4.566,4.566,0,0,1-.574-1.937,3.384,3.384,0,0,1,.985-2.231,28.124,28.124,0,0,1,3.4-2.437l.838,1.57a5.977,5.977,0,0,0,.324.609c.605,1.005,1.417,1.88,1.986,2.907S4745.816,3387.377,4745.315,3388.438Z" transform="translate(-4716.016 -3323.799)" fill="#e8a29b"/>
          <path id="Trazado_667234" data-name="Trazado 667234" d="M4735.46,3406.082c-.111-.222-.286-.459-.533-.466a.631.631,0,0,0-.531.443,1.546,1.546,0,0,0,2.136,1.97C4736.215,3407.38,4735.785,3406.728,4735.46,3406.082Z" transform="translate(-4713.739 -3343.484)" fill="#e8a29b"/>
          <g id="Grupo_930298" data-name="Grupo 930298" transform="translate(26.289 60.45)">
            <path id="Trazado_667235" data-name="Trazado 667235" d="M4759.553,3399.38c0,.036.1.042.225-.015a.8.8,0,0,0,.392-.385.823.823,0,0,0,.081-.383.565.565,0,0,0-.105-.34c-.027-.032-.047-.041-.066-.03a.043.043,0,0,0-.022.021,1.989,1.989,0,0,0-.04.267,1.239,1.239,0,0,1-.083.3.171.171,0,0,1-.015.037,1.292,1.292,0,0,1-.258.367C4759.589,3399.294,4759.539,3399.345,4759.553,3399.38Z" transform="translate(-4759.551 -3398.222)" fill="#c26476"/>
          </g>
          <g id="Grupo_930300" data-name="Grupo 930300" transform="translate(25.111 61.501)">
            <g id="Grupo_930299" data-name="Grupo 930299">
              <path id="Trazado_667236" data-name="Trazado 667236" d="M4754.533,3403.97a6.239,6.239,0,0,0,2.507-1.067.243.243,0,0,1,.388.1c.913,2.912-2.072,2.383-2.97,1.347C4754.329,3404.2,4754.332,3404.006,4754.533,3403.97Z" transform="translate(-4754.37 -3402.843)" fill="#fff"/>
            </g>
          </g>
          <path id="Trazado_667237" data-name="Trazado 667237" d="M4756.964,3456.2s10.377-3.031,11.69,2.262a7.6,7.6,0,0,0-4.268-7.071Z" transform="translate(-4731.263 -3378.852)" fill="#c59832"/>
          <path id="Trazado_667238" data-name="Trazado 667238" d="M4813.984,3134.777a2.466,2.466,0,0,0-4.929,0c-2.293,19.159-31.377,40.561-14.9,60.47,9.362,11.306,29.963,10,36.929-3.291C4841.015,3170.068,4816.4,3154.985,4813.984,3134.777Zm9.6,56.447c-2.942,0-5.329-4.769-5.329-10.651s2.387-10.651,5.329-10.651,5.33,4.768,5.33,10.651S4826.529,3191.224,4823.585,3191.224Z" transform="translate(-4756.112 -3132.404)" fill="#a7d6eb"/>
          <path id="Trazado_667239" data-name="Trazado 667239" d="M4832.031,3330.544a10.361,10.361,0,0,1,.544,2.668,2.262,2.262,0,0,1-.238,1.43,2.517,2.517,0,0,1-.833.71c-.487.3-1.677,1.225-2.168,1.53l-1.617-1.522a16.467,16.467,0,0,1,.055-4.189.145.145,0,0,1,.214-.113c.483.271.568.592.708,1.851q1.182-1.367,2.356-2.73a.671.671,0,0,1,.294-.237C4831.668,3329.841,4831.921,3330.226,4832.031,3330.544Z" transform="translate(-4785.835 -3285.007)" fill="#e8a29b"/>
          <path id="Trazado_667240" data-name="Trazado 667240" d="M4762.391,3354.309l-6.648,17.9a3.8,3.8,0,0,1-1.687,2.128,51.868,51.868,0,0,1-11.087,5,67.816,67.816,0,0,1-3.281-6.934,43.987,43.987,0,0,0,11.331-3.9l8.592-16.857Z" transform="translate(-4717.915 -3301.79)" fill="#efc351"/>
        </g>
      </g>
    </g>
  </g>
</svg>
