<svg xmlns="http://www.w3.org/2000/svg" width="108.333" height="109.161" viewBox="0 0 108.333 109.161">
  <g id="layer1" transform="translate(-0.526 -280.592)">
    <path id="path23540" d="M4.4,287.74H44.089L47.7,313H.794Z" transform="translate(1.557 41.588)" fill="#33b9ef"/>
    <path id="path23560" d="M36.031,304.475s-4.2.1-5.876,2.507-.677,6.512-.677,6.512-4.184-1.966-6.97-.466a7.931,7.931,0,0,0-3.633,3.911,7.93,7.93,0,0,0-3.633-3.911c-2.786-1.5-6.971.466-6.971.466s1-4.109-.677-6.512-5.876-2.507-5.876-2.507,3.157-2.884,3.126-5.575c.027-2.69-3.126-5.574-3.126-5.574s4.2-.1,5.876-2.507.677-6.512.677-6.512,4.184,1.966,6.971.466a7.93,7.93,0,0,0,3.633-3.911,7.93,7.93,0,0,0,3.633,3.911c2.786,1.5,6.97-.466,6.97-.466s-1,4.109.677,6.512,5.876,2.507,5.876,2.507S32.874,296.21,32.9,298.9c-.027,2.691,3.126,5.575,3.126,5.575Z" transform="translate(6.929 1.562)" fill="#ffbc42"/>
    <path id="path23590" d="M14.023,285.623v10.052l9.02,8.375V285.623Z" transform="translate(78.527 29.27)" fill="#ff6b6b"/>
    <path id="path27916" d="M29.369,285.623,9.525,304.05v32.084H49.213V304.05Z" transform="translate(52.357 29.27)" fill="#dbe9ee"/>
    <path id="ellipse23558" d="M17.607,289.664a7.216,7.216,0,1,1-7.216-7.216A7.216,7.216,0,0,1,17.607,289.664Z" transform="translate(15.412 10.796)" fill="#fde74c"/>
    <path id="path24278-6" d="M24.1,283.019a10.046,10.046,0,0,0,4.478,4.9,8.235,8.235,0,0,0,5.754.507,8.2,8.2,0,0,0,1.272,4.982,7.155,7.155,0,0,0,4.038,2.66,6.784,6.784,0,0,0,0,8.78,7.157,7.157,0,0,0-4.041,2.66,8.213,8.213,0,0,0-1.272,4.982,8.233,8.233,0,0,0-5.754.507,8.915,8.915,0,0,0-2.776,2.484A8.915,8.915,0,0,0,23.026,313a8.23,8.23,0,0,0-5.75-.507A8.192,8.192,0,0,0,16,307.51a7.164,7.164,0,0,0-4.041-2.66,6.79,6.79,0,0,0,0-8.78A7.163,7.163,0,0,0,16,293.409a8.331,8.331,0,0,0,1.279-5.095,9.5,9.5,0,0,0,3.633.293,1.8,1.8,0,1,0-.543-3.566,10.7,10.7,0,0,1-4.408-.81,1.8,1.8,0,0,0-2.519,2.061,10.8,10.8,0,0,1,.239,1.984,5.7,5.7,0,0,1-.645,3.072,4.706,4.706,0,0,1-2.537,1.438,9.521,9.521,0,0,1-1.9.3,1.8,1.8,0,0,0-1.173,3.136,11.941,11.941,0,0,1,1.342,1.522,5.7,5.7,0,0,1,1.2,2.7c0,.014,0,.027,0,.041a5.678,5.678,0,0,1-1.194,2.7A11.84,11.84,0,0,1,7.427,304.7,1.8,1.8,0,0,0,8.6,307.84a9.763,9.763,0,0,1,1.9.3,4.707,4.707,0,0,1,2.537,1.438,5.7,5.7,0,0,1,.645,3.073,10.8,10.8,0,0,1-.239,1.984,1.8,1.8,0,0,0,2.519,2.061,10.841,10.841,0,0,1,2.058-.666,5.324,5.324,0,0,1,3.291.155A5.828,5.828,0,0,1,24.1,319.1a1.8,1.8,0,0,0,3.4,0,5.829,5.829,0,0,1,2.787-2.921,5.325,5.325,0,0,1,3.291-.155,10.862,10.862,0,0,1,2.058.666,1.8,1.8,0,0,0,2.519-2.061,10.8,10.8,0,0,1-.239-1.984,5.7,5.7,0,0,1,.645-3.073,4.707,4.707,0,0,1,2.537-1.437,9.522,9.522,0,0,1,1.9-.3,1.8,1.8,0,0,0,1.173-3.136,11.941,11.941,0,0,1-1.342-1.522,5.7,5.7,0,0,1-1.2-2.7c0-.014,0-.027,0-.041a5.685,5.685,0,0,1,1.2-2.7,11.979,11.979,0,0,1,1.342-1.522A1.8,1.8,0,0,0,43,293.081a9.763,9.763,0,0,1-1.9-.3,4.706,4.706,0,0,1-2.537-1.438,5.7,5.7,0,0,1-.645-3.072,10.8,10.8,0,0,1,.239-1.984,1.8,1.8,0,0,0-2.519-2.061,10.843,10.843,0,0,1-2.058.666,5.324,5.324,0,0,1-3.291-.155,5.828,5.828,0,0,1-2.787-2.921,1.8,1.8,0,1,0-3.4,1.2Zm1.705,8.417a9.022,9.022,0,1,0,9.016,9.027A9.062,9.062,0,0,0,25.806,291.436Zm0,3.608a5.414,5.414,0,1,1-5.422,5.419A5.385,5.385,0,0,1,25.806,295.044Zm55.825,18.043a1.8,1.8,0,0,0-1.135.479L55.247,337.018a1.805,1.805,0,0,0,2.452,2.65l24.022-22.317L99.765,334.1V363.6c-12.058-.034-24.021,0-36.073,0V341.944a1.806,1.806,0,0,0-3.611,0V365.4a1.8,1.8,0,0,0,1.8,1.811H79.925v13.53a5.367,5.367,0,0,1-5.423,5.408H33.022a5.364,5.364,0,0,1-5.419-5.408v-8.121a1.8,1.8,0,1,0-3.608,0v8.121a9.043,9.043,0,0,0,9.027,9.016H74.5a9.046,9.046,0,0,0,9.03-9.016v-13.53h18.029a1.8,1.8,0,0,0,1.811-1.811V337.452l2.385,2.216a1.8,1.8,0,1,0,2.449-2.65l-4.834-4.489V314.892a1.8,1.8,0,0,0-1.8-1.8H92.55a1.8,1.8,0,0,0-1.8,1.8v1.8a1.8,1.8,0,1,0,3.608,0h5.412v12.483L82.948,313.567A1.8,1.8,0,0,0,81.631,313.087ZM18.587,367.207H33.022a1.8,1.8,0,1,0,0-3.608H27.6v-7.219H49.229a1.8,1.8,0,1,0,0-3.608H40.107l-.642-9.013h6.391l.55,3.862a1.809,1.809,0,1,0,3.58-.507L47.4,329.07a1.8,1.8,0,0,0-1.783-1.547l-39.663,0a1.808,1.808,0,1,0-.02,3.615h7.1l-.645,9.013H6.2l.479-3.354a1.8,1.8,0,1,0-3.569-.507L.543,354.328a1.8,1.8,0,0,0,1.783,2.051H24V363.6H18.587a1.8,1.8,0,0,0,0,3.608Zm65.038-36.9a1.809,1.809,0,0,0-1.462.828L74.679,342.36a1.8,1.8,0,0,0,1.5,2.794h7.857l-5.62,8.432a1.806,1.806,0,0,0,3.009,2l7.47-11.226a1.8,1.8,0,0,0-1.49-2.812H79.552l5.606-8.417a1.8,1.8,0,0,0-1.533-2.822Zm-66.969.828h7.339v9.013h-7.98Zm10.947,0h7.339l.648,9.013H27.6Zm10.965,0h5.493l1.282,9.013H39.209ZM5.687,343.758h6.448l-.645,9.013H4.4Zm10.07,0h8.238v9.013H15.116Zm11.846,0h8.245l.648,9.013H27.6Z" transform="translate(0)"/>
  </g>
</svg>
