<svg xmlns="http://www.w3.org/2000/svg" xmlns:xlink="http://www.w3.org/1999/xlink" width="527.33" height="268.004" viewBox="0 0 527.33 268.004">
  <defs>
    <linearGradient id="linear-gradient" x1="-0.013" y1="-0.21" x2="-0.517" y2="1.249" gradientUnits="objectBoundingBox">
      <stop offset="0.005" stop-color="#535279"/>
      <stop offset="0.995" stop-color="#383858"/>
    </linearGradient>
  </defs>
  <g id="Grupo_930152" data-name="Grupo 930152" transform="translate(-2821.998 -1311.103)">
    <path id="Trazado_667035" data-name="Trazado 667035" d="M2937.961,1381.965c38.721,1.224,76.438-12.211,104.094-35.3,53.9-45,148.445-45.8,222.686-10.844,15.391,7.247,50.524,32.527,70.279,70.24,2.948,5.628,30.863,69.277-.319,119.463-2.424,3.9-25.6,28.93-48.114,36.194-5.637,1.818-394.943,1.008-397.675,0C2770.763,1518.03,2822.914,1378.327,2937.961,1381.965Z" transform="translate(0 0)" fill="#d1e5f3"/>
    <ellipse id="Elipse_4918" data-name="Elipse 4918" cx="227.212" cy="27.915" rx="227.212" ry="27.915" transform="translate(2868.403 1523.277)" fill="#bcd7e6"/>
    <g id="Grupo_930144" data-name="Grupo 930144" transform="translate(2871.175 1341.088)">
      <g id="Grupo_930134" data-name="Grupo 930134" transform="translate(0 0)">
        <g id="Grupo_930133" data-name="Grupo 930133">
          <g id="Grupo_930132" data-name="Grupo 930132">
            <g id="Grupo_930131" data-name="Grupo 930131">
              <g id="Grupo_930130" data-name="Grupo 930130">
                <path id="Trazado_667036" data-name="Trazado 667036" d="M3355.6,1445.892l23.036,179.873a6.108,6.108,0,0,1-5.175,6.8l-308.6,34.642a6.108,6.108,0,0,1-6.943-5.262l-23.586-182.1a6.108,6.108,0,0,1,5.464-6.861l309.148-32.413A6.108,6.108,0,0,1,3355.6,1445.892Z" transform="translate(-3034.281 -1440.54)" fill="url(#linear-gradient)"/>
                <g id="Grupo_930126" data-name="Grupo 930126" transform="translate(20.57 13.151)">
                  <path id="Trazado_667037" data-name="Trazado 667037" d="M3433.152,1663.965l-291.759,29.653-18.316-165.673,291.674-30.636Z" transform="translate(-3123.077 -1497.309)" fill="#383858"/>
                </g>
                <g id="Grupo_930129" data-name="Grupo 930129" transform="translate(23.153 15.283)">
                  <g id="Grupo_930128" data-name="Grupo 930128">
                    <path id="Trazado_667038" data-name="Trazado 667038" d="M3441.47,1668.9l-289.955,29.828-17.29-161.572,289.342-30.648Z" transform="translate(-3134.225 -1506.513)" fill="#fff"/>
                    <g id="Grupo_930127" data-name="Grupo 930127" transform="translate(16.195 11.441)">
                      <path id="Trazado_667039" data-name="Trazado 667039" d="M3204.135,1595.7l1.93,15.026,258.765-30.788-3.088-24.042Z" transform="translate(-3204.135 -1555.9)" fill="#adc2e1"/>
                      <rect id="Rectángulo_327601" data-name="Rectángulo 327601" width="3.636" height="104.837" transform="matrix(0.992, -0.127, 0.127, 0.992, 2.702, 60.841)" fill="#adc2e1"/>
                      <rect id="Rectángulo_327602" data-name="Rectángulo 327602" width="3.636" height="109.079" transform="matrix(0.992, -0.127, 0.127, 0.992, 54.994, 54.125)" fill="#adc2e1"/>
                      <path id="Trazado_667040" data-name="Trazado 667040" d="M3773.636,1745.1l18.856,113.525,4.208-.54-18.856-113.525Z" transform="translate(-3641.707 -1700.855)" fill="#adc2e1"/>
                      <path id="Trazado_667041" data-name="Trazado 667041" d="M4175.871,1714.542l9.824,109.8,4.207-.54-9.824-109.8Z" transform="translate(-3950.761 -1677.377)" fill="#adc2e1"/>
                      <path id="Trazado_667042" data-name="Trazado 667042" d="M3238.7,1765.062l254.849-32.729.617,4.809L3239,1767.466Z" transform="translate(-3230.689 -1691.461)" fill="#adc2e1"/>
                      <path id="Trazado_667043" data-name="Trazado 667043" d="M3542.466,2151.906l-255.042,31.226.5,3.907,255.339-28.913Z" transform="translate(-3268.129 -2013.837)" fill="#adc2e1"/>
                      <path id="Trazado_667044" data-name="Trazado 667044" d="M3264.315,1972.527l255.158-30.325.309,2.4-254.85,32.729Z" transform="translate(-3250.374 -1852.712)" fill="#adc2e1"/>
                    </g>
                    <path id="Trazado_667045" data-name="Trazado 667045" d="M3251.8,1730.264l.463,3.606,35.532-3.418-.608-4.733Z" transform="translate(-3224.56 -1674.939)" fill="#383858"/>
                    <path id="Trazado_667046" data-name="Trazado 667046" d="M3895.272,1658.01l.463,3.606,35.228-5.784-.3-2.366Z" transform="translate(-3718.969 -1619.423)" fill="#383858"/>
                    <path id="Trazado_667047" data-name="Trazado 667047" d="M3833.287,1821.078l.463,3.606,35.228-5.784-.3-2.367Z" transform="translate(-3671.344 -1744.715)" fill="#383858"/>
                    <path id="Trazado_667048" data-name="Trazado 667048" d="M3905.282,1833.944l.459,3.607-35.55,3.269-.3-2.367Z" transform="translate(-3699.468 -1758.092)" fill="#383858"/>
                    <path id="Trazado_667049" data-name="Trazado 667049" d="M3629.338,2166.919l.463,3.606,35.228-5.784-.3-2.366Z" transform="translate(-3514.641 -2010.439)" fill="#383858"/>
                    <path id="Trazado_667050" data-name="Trazado 667050" d="M3701.332,2179.785l.459,3.607-35.55,3.269-.3-2.367Z" transform="translate(-3542.764 -2023.816)" fill="#383858"/>
                    <path id="Trazado_667051" data-name="Trazado 667051" d="M4216.354,1618.265l.231,1.8,22.152-3.532-.3-2.367Z" transform="translate(-3965.67 -1589.229)" fill="#383858"/>
                    <path id="Trazado_667052" data-name="Trazado 667052" d="M3509.287,1693.6l1.59,3.462,45.53-5.847-.608-4.733Z" transform="translate(-3422.401 -1644.792)" fill="#383858"/>
                  </g>
                </g>
              </g>
            </g>
          </g>
        </g>
      </g>
      <path id="Trazado_667053" data-name="Trazado 667053" d="M3573.908,1793.345a30.491,30.491,0,0,0-13.694-12.288,13.725,13.725,0,0,0-5.323-1.821,29.149,29.149,0,0,0-25.836,6.141c-.54.455.177,1.4.762.987a31.515,31.515,0,0,1,11.663-5.042,34.914,34.914,0,0,0-3.874,1.807c-7.266,3.966-11.379,11.771-12.776,19.763-3.253,18.614,10.307,37.214,30.324,33.617C3574.93,1832.955,3583.781,1809.978,3573.908,1793.345Zm-19.087,38.457c-17.7,3.83-27.555-12.725-26.347-28.124,1.236-15.761,18.366-27.461,33.272-20.528,8.333,3.876,12.218,13.977,12.195,22.714-.021,8.179-3.379,16.57-9.936,21.671A22.836,22.836,0,0,1,3554.821,1831.8Z" transform="translate(-3410.82 -1700.14)" fill="#383858"/>
      <g id="Grupo_930135" data-name="Grupo 930135" transform="translate(89.434 110.538)">
        <path id="Trazado_667054" data-name="Trazado 667054" d="M3452.618,1918.095l-30.448,6.092,6.092,30.448,23.815-4.765,5.195-8.512Z" transform="translate(-3421.747 -1918.003)" fill="#383858" opacity="0.21" style="mix-blend-mode: multiply;isolation: isolate"/>
        <path id="Trazado_667055" data-name="Trazado 667055" d="M3451.055,1917.7l-30.712,4.574,4.574,30.712,24.022-3.578,5.611-8.244Z" transform="translate(-3420.342 -1917.7)" fill="#e27eab"/>
        <path id="Trazado_667056" data-name="Trazado 667056" d="M3548.554,2018.99l-5.611,8.244-.254-7.948Z" transform="translate(-3514.347 -1995.525)" fill="#c96596"/>
      </g>
      <g id="Grupo_930136" data-name="Grupo 930136" transform="translate(258.833 89.901)">
        <path id="Trazado_667057" data-name="Trazado 667057" d="M4183.863,1829.012l-30.448,6.092,6.092,30.448,23.815-4.765,5.195-8.512Z" transform="translate(-4152.991 -1828.92)" fill="#383858" opacity="0.21" style="mix-blend-mode: multiply;isolation: isolate"/>
        <path id="Trazado_667058" data-name="Trazado 667058" d="M4182.3,1828.616l-30.712,4.574,4.575,30.712,24.022-3.578,5.611-8.244Z" transform="translate(-4151.588 -1828.616)" fill="#f2d043"/>
        <path id="Trazado_667059" data-name="Trazado 667059" d="M4279.8,1929.907l-5.61,8.244-.254-7.948Z" transform="translate(-4245.592 -1906.442)" fill="#d7a238"/>
      </g>
      <g id="Grupo_930137" data-name="Grupo 930137" transform="translate(218.753 26.946)">
        <path id="Trazado_667060" data-name="Trazado 667060" d="M4018.673,1566.819l-30.926-2.782-2.782,30.926,24.189,2.176,7.394-6.692Z" transform="translate(-3983.485 -1562.374)" fill="#383858" opacity="0.21" style="mix-blend-mode: multiply;isolation: isolate"/>
        <path id="Trazado_667061" data-name="Trazado 667061" d="M4013.637,1561.171l-30.75-4.312-4.312,30.75,24.052,3.373,7.716-6.317Z" transform="translate(-3978.574 -1556.859)" fill="#f2d043"/>
        <path id="Trazado_667062" data-name="Trazado 667062" d="M4090.115,1672.322l-7.716,6.317,2.007-7.694Z" transform="translate(-4058.348 -1644.516)" fill="#d7a238"/>
      </g>
      <g id="Grupo_930138" data-name="Grupo 930138" transform="translate(120.965 90.822)">
        <path id="Trazado_667063" data-name="Trazado 667063" d="M3599.408,1865.166l-30.428,6.187-4.685-30.734,28.926-5.882Z" transform="translate(-3562.478 -1834.24)" fill="#383858" opacity="0.21" style="mix-blend-mode: multiply;isolation: isolate"/>
        <rect id="Rectángulo_327603" data-name="Rectángulo 327603" width="31.051" height="31.051" transform="translate(0 4.575) rotate(-8.472)" fill="#82bdfc"/>
      </g>
      <g id="Grupo_930139" data-name="Grupo 930139" transform="translate(215.181 110.263)">
        <path id="Trazado_667064" data-name="Trazado 667064" d="M3999.839,1959.685l-30.936-2.677,4.2-30.8,29.408,2.544Z" transform="translate(-3967.572 -1923.961)" fill="#383858" opacity="0.21" style="mix-blend-mode: multiply;isolation: isolate"/>
        <rect id="Rectángulo_327604" data-name="Rectángulo 327604" width="31.051" height="31.051" transform="matrix(0.99, 0.139, -0.139, 0.99, 4.303, 0)" fill="#82bdfc"/>
      </g>
      <g id="Grupo_930140" data-name="Grupo 930140" transform="translate(41.722 165.036)">
        <path id="Trazado_667065" data-name="Trazado 667065" d="M3257.338,2185.529l-30.428,6.187-4.685-30.734,28.926-5.882Z" transform="translate(-3220.408 -2154.603)" fill="#383858" opacity="0.21" style="mix-blend-mode: multiply;isolation: isolate"/>
        <rect id="Rectángulo_327605" data-name="Rectángulo 327605" width="31.051" height="31.051" transform="translate(0 4.575) rotate(-8.472)" fill="#82bdfc"/>
      </g>
      <g id="Grupo_930141" data-name="Grupo 930141" transform="translate(142.372 34.819)">
        <path id="Trazado_667066" data-name="Trazado 667066" d="M3691.813,1623.416l-30.428,6.187-4.685-30.734,28.927-5.882Z" transform="translate(-3654.883 -1592.491)" fill="#383858" opacity="0.21" style="mix-blend-mode: multiply;isolation: isolate"/>
        <rect id="Rectángulo_327606" data-name="Rectángulo 327606" width="31.051" height="31.051" transform="translate(0 4.575) rotate(-8.472)" fill="#82bdfc"/>
      </g>
      <g id="Grupo_930142" data-name="Grupo 930142" transform="translate(43.374 108.216)">
        <path id="Trazado_667067" data-name="Trazado 667067" d="M3258.8,1949.116l-31.033-1.058,2.59-30.981,29.5,1.006Z" transform="translate(-3226.321 -1914.901)" fill="#383858" opacity="0.21" style="mix-blend-mode: multiply;isolation: isolate"/>
        <rect id="Rectángulo_327607" data-name="Rectángulo 327607" width="31.051" height="31.051" transform="translate(2.692 0) rotate(4.974)" fill="#f2d043"/>
      </g>
      <g id="Grupo_930143" data-name="Grupo 930143" transform="translate(123.525 19.924)">
        <path id="Trazado_667068" data-name="Trazado 667068" d="M3604.794,1567.981l-31.033-1.058,2.59-30.981,29.5,1.005Z" transform="translate(-3572.312 -1533.765)" fill="#383858" opacity="0.21" style="mix-blend-mode: multiply;isolation: isolate"/>
        <rect id="Rectángulo_327608" data-name="Rectángulo 327608" width="31.051" height="31.051" transform="translate(2.692 0) rotate(4.974)" fill="#f2d043"/>
      </g>
    </g>
    <g id="Grupo_930151" data-name="Grupo 930151" transform="translate(3169.821 1338.169)">
      <path id="Trazado_667069" data-name="Trazado 667069" d="M4574.874,2172.581v4.488l.193,6.058-17.566.257s5.93-5.642,5.93-7.373c0-3.077-.225-9.136-.225-9.136Z" transform="translate(-4503.28 -1995.696)" fill="#f1ceca"/>
      <path id="Trazado_667070" data-name="Trazado 667070" d="M4688.98,2241.566l-.511-8.4,11.958,2.52.166,4.386v6.408l-11.874,7.186-1.6-6.128Z" transform="translate(-4602.875 -2046.63)" fill="#f1ceca"/>
      <path id="Trazado_667071" data-name="Trazado 667071" d="M4572.594,1684.358a414.878,414.878,0,0,0-5.508,53.664c0,5.957,1.852,61.6,1.852,61.6s.2,3.452,7.244,3.656,10.545-2.978,9.335-5.889,1.293-4.4,1.226-5.957-1.437-3.046-1.226-5.483,2.647-3.182,1.632-7.04-1.775-7.04-1.632-9.748,12.514-59.775,10.931-74.938S4572.594,1684.358,4572.594,1684.358Z" transform="translate(-4510.645 -1624.268)" fill="#1f2c5a"/>
      <path id="Trazado_667072" data-name="Trazado 667072" d="M4653.595,1673.707s6.18,4.046,6.644,15.929-3.013,37.068-3.322,48.27c.464,12.592.618,19.468.618,19.468s3.631,8.034,3.631,11.2-2.163,5.485-2.24,7.339,2.086,5.176,1.7,7.031-2.164,5.639-2.164,7.8,1.777,6.644.619,8.885-4.868,4.635-10.894,3.631-4.326-4.326-4.558-6.567-10.712-54.594-10.712-54.594-4.024-53.383-1.32-68.293S4653.595,1673.707,4653.595,1673.707Z" transform="translate(-4559.493 -1611.74)" fill="#283772"/>
      <g id="Grupo_930145" data-name="Grupo 930145" transform="translate(0 16.263)">
        <path id="Trazado_667073" data-name="Trazado 667073" d="M4387.818,1585.691c-.95,2.393-.644,4.76.683,5.287s3.172-.986,4.122-3.379.645-4.76-.683-5.287S4388.768,1583.3,4387.818,1585.691Z" transform="translate(-4372.481 -1562.734)" fill="#283772"/>
        <path id="Trazado_667074" data-name="Trazado 667074" d="M4361.946,1571.066l-2.921-3.372-2.839-1.236-4.406.739s.5,1.277,3.453,1.114c1.17.41-.006.546,1.548,1.9S4361.946,1571.066,4361.946,1571.066Z" transform="translate(-4345.216 -1550.633)" fill="#ecb7b1"/>
        <path id="Trazado_667075" data-name="Trazado 667075" d="M4348.147,1581.674l-8.856-3.293a53.34,53.34,0,0,0-5.962-.787c-3.667-.222-9.206-.706-9.775.009-1,1.262,5.267,7.841,7.738,7.507s8.485-.863,8.485-.863l10.687,6.824Z" transform="translate(-4323.446 -1558.908)" fill="#ecb7b1"/>
        <path id="Trazado_667076" data-name="Trazado 667076" d="M4445.713,1499.9a7.718,7.718,0,0,0-9.71-.069,17.043,17.043,0,0,0-4.076,5.088c-4.532,8.189-13.36,21.676-13.36,21.676l-21.073-6.963a2.721,2.721,0,0,1-1.13-.726,3.846,3.846,0,0,0-1.646-1.151c1.606,1.111-.877,9.813-3.925,8.381a4.218,4.218,0,0,0,2.823,1.022,2.458,2.458,0,0,1,1.683.529c3.576,2.818,17.691,13.585,25.43,14.256,8.91.773,19.554-14,27.035-26.466C4452.5,1507.581,4448.952,1502.536,4445.713,1499.9Z" transform="translate(-4375.191 -1498.147)" fill="#e5f4f9"/>
      </g>
      <path id="Trazado_667077" data-name="Trazado 667077" d="M4626.954,1513.955s-17.983-14.306-36.855-15.825c-4.611-.242-6.6,8.12-5.817,23.911.433,8.838.433,18.376.433,18.376s-.117,3.021,9.249,5.71,18.309,3.257,25.153-1.627C4618.051,1536.271,4631.6,1521.082,4626.954,1513.955Z" transform="translate(-4523.729 -1481.867)" fill="#ceeaf3"/>
      <g id="Grupo_930146" data-name="Grupo 930146" transform="translate(36.134 34.505)">
        <path id="Trazado_667078" data-name="Trazado 667078" d="M4480.219,1577.416l.727-.461.018-.011.015-.009v0a.371.371,0,0,1,.356,0l18.01,9.75a.376.376,0,0,1,.2.312l1.544,30.352a.368.368,0,0,1-.137.306v0l-.019.011a.322.322,0,0,1-.044.028l-.751.479-.175-.782-17.184-9.192a.377.377,0,0,1-.2-.31l-1.752-29.815-.429.014A5.393,5.393,0,0,1,4480.219,1577.416Z" transform="translate(-4480.035 -1576.889)" fill="#b0b9cf"/>
        <path id="Trazado_667079" data-name="Trazado 667079" d="M4498.189,1589.035l1.544,30.352a.377.377,0,0,1-.554.351l-17.755-9.5a.378.378,0,0,1-.2-.31l-1.8-30.6a.377.377,0,0,1,.555-.353l18.01,9.75A.376.376,0,0,1,4498.189,1589.035Z" transform="translate(-4479.427 -1578.455)" fill="#dae2ed"/>
        <path id="Trazado_667080" data-name="Trazado 667080" d="M4509.722,1645.739c.154,2.9,1.31,5.822,2.58,6.534s2.175-1.057,2.02-3.953-1.31-5.822-2.58-6.534S4509.567,1642.842,4509.722,1645.739Z" transform="translate(-4502.69 -1626.63)" fill="#b0b9cf"/>
        <path id="Trazado_667081" data-name="Trazado 667081" d="M4552.522,1623.678a1.843,1.843,0,0,0,.525,1.332c.259.145.444-.215.412-.806a1.842,1.842,0,0,0-.526-1.333C4552.674,1622.726,4552.49,1623.087,4552.522,1623.678Z" transform="translate(-4535.587 -1612.195)" fill="#b0b9cf"/>
      </g>
      <path id="Trazado_667082" data-name="Trazado 667082" d="M4543.688,1670.683l-8.272-.527-1.192-6.4-.845-6.953a2.117,2.117,0,0,0-2.034,2.379s.149,2.264.121,3.854-4.192-2.93-4.192-2.93-3.4-4.676-4.917-4.676-.7,5.907-.239,9.229c.379,2.729,4.249,7.043,4.249,7.043l6.065,4.062a3.411,3.411,0,0,0,1.553.684l20.907,3.46Z" transform="translate(-4475.606 -1602.728)" fill="#ecb7b1"/>
      <path id="Trazado_667083" data-name="Trazado 667083" d="M4615.277,1577.554c1.735,14.91,6.147,19.235,6.147,19.235h-28.7a4.849,4.849,0,0,1-2.993-1.135,1.176,1.176,0,0,0-.888-.238c-1.4.146-2.791,5.9-1.813,8.424.457,1.178,1.117,1.339,1.663,1.205a6.954,6.954,0,0,1,3.013-.147c8.011,1.587,37.167,6.943,42.254,1.881,4.513-4.492,1.9-31.225-2.029-41.528C4628.406,1556.03,4612.89,1557.044,4615.277,1577.554Z" transform="translate(-4525.714 -1529.162)" fill="#e5f4f9"/>
      <g id="Grupo_930149" data-name="Grupo 930149" transform="translate(71.491 0)">
        <path id="Trazado_667084" data-name="Trazado 667084" d="M4663.686,1494.26s-.609,4.49-.609,6.773a3.515,3.515,0,0,1-2.373,2.959c-1.4.606-5.359.6-5.359-1.224l.086-3.734Z" transform="translate(-4649.949 -1478.897)" fill="#e9a5a2"/>
        <path id="Trazado_667085" data-name="Trazado 667085" d="M4646.591,1464.078s-2.18,6.182-8.554,5.916c-3.214-.134-3.379-6.047-3.338-7.347a17.5,17.5,0,0,1,.487-2.364c0-.578-.4-1.022-.353-2.026s.779-4.579.779-4.579l9.589.791,2.009,6.453Z" transform="translate(-4634.082 -1447.715)" fill="#ecb7b1"/>
        <g id="Grupo_930147" data-name="Grupo 930147" transform="translate(0 14.761)">
          <path id="Trazado_667086" data-name="Trazado 667086" d="M4632.681,1498.11c.733,1.86,2.3,2.413,4.186,2.315a9.515,9.515,0,0,0,5.858-2.476c1.943-1.768,2.194-3.465,1.471-5.895,0-.222-.286-.329-.479-.374a.406.406,0,0,0-.362.048.187.187,0,0,0-.043.054.507.507,0,0,0-.048.028c-.015,0-.034.027-.034.03a3.3,3.3,0,0,1-1.048,2.343,2.881,2.881,0,0,1-3.391.145,3.532,3.532,0,0,0-2.092-.418c-1.021.153-1.292.79-2.6.012-.012-.007-.759-.677-1.062-.688a.554.554,0,0,0-.492.264C4631.542,1494.393,4632.313,1497.176,4632.681,1498.11Z" transform="translate(-4632.051 -1491.66)" fill="#263974"/>
        </g>
        <g id="Grupo_930148" data-name="Grupo 930148" transform="translate(0.35)">
          <path id="Trazado_667087" data-name="Trazado 667087" d="M4633.955,1434.447a9.97,9.97,0,0,0,.033,2.653c.011.1.171.141.188.026a16.36,16.36,0,0,1,.394-1.719,3.989,3.989,0,0,0,.4.415,3.529,3.529,0,0,0,2.028.849c1.253.275,3.627-.067,5.051.248,1.563.345,1.055,2.638,1.035,3.572s.974,1.289,1.137,1.538a5.347,5.347,0,0,1,.142,1.486l3.064-.061s3.856-5.774,2.578-9.741-3.684-5.581-8.585-5.763a6.764,6.764,0,0,0-5.715,2.912,2.987,2.987,0,0,1-.453.191,3.19,3.19,0,0,0-1.066.375,1.747,1.747,0,0,0-.621,1.311,1.926,1.926,0,0,0,.017.262A3.789,3.789,0,0,0,4633.955,1434.447Z" transform="translate(-4633.563 -1427.942)" fill="#263974"/>
        </g>
      </g>
      <path id="Trazado_667088" data-name="Trazado 667088" d="M4683.755,1490.811s.065-2.446,1.464-2.5.993,3.37-.825,3.385C4683.834,1491.694,4683.755,1490.811,4683.755,1490.811Z" transform="translate(-4600.286 -1474.325)" fill="#ecb7b1"/>
      <path id="Trazado_667089" data-name="Trazado 667089" d="M4668.149,2263.441s-.967,6.129-9.107,5.634a3.244,3.244,0,0,1-1.246-.3c-2.265-1.123-1.251-3.886-1.251-3.886a1.857,1.857,0,0,1-.009-.188c-1.308,2.281-3.013,7.36-5.176,10.14s-5.846,8.009-6.219,9.561c-1.1,4.578,1.73,6.267,4.351,6.805a13.269,13.269,0,0,0,13.2-6.243c3.917-6.267,6.316-9.327,6.316-9.327l-.155-11.5a.7.7,0,0,0-.7-.69Z" transform="translate(-4570.431 -2069.891)" fill="#283772"/>
      <g id="Grupo_930150" data-name="Grupo 930150" transform="translate(74.469 194.806)">
        <path id="Trazado_667090" data-name="Trazado 667090" d="M4649.5,2320.189a13.271,13.271,0,0,0,13.2-6.243c2.739-4.384,5.1-7.739,6.28-9.362l.037,2.661s-2.4,3.06-6.316,9.328a13.271,13.271,0,0,1-13.2,6.243c-2.52-.518-5.236-2.1-4.457-6.3C4645.575,2318.794,4647.592,2319.8,4649.5,2320.189Z" transform="translate(-4644.905 -2296.308)" fill="#24006d"/>
        <path id="Trazado_667091" data-name="Trazado 667091" d="M4695.041,2269.006c-.012-.029-.025-.058-.036-.088.01-.018.021-.039.031-.056C4695.036,2268.927,4695.039,2268.974,4695.041,2269.006Z" transform="translate(-4683.399 -2268.862)" fill="#6d7880"/>
      </g>
      <path id="Trazado_667092" data-name="Trazado 667092" d="M4531.591,2211.323l.647.2s.863,10.531.839,12.232-2.861,2.441-8.386,3.181-12.6,6.042-19.409,5.376-3.7-6.116-1.134-8.04c.941-.706,5.77-3.509,8.854-5.993a38.1,38.1,0,0,0,5.979-5.911s.549,3.075,6.377,2.8S4531.591,2211.323,4531.591,2211.323Z" transform="translate(-4459.993 -2029.847)" fill="#283772"/>
      <path id="Trazado_667093" data-name="Trazado 667093" d="M4505.292,2268.986c6.807.666,13.885-4.636,19.409-5.376,4.192-.561,7.164-1.168,8.365-2.171.015.355.023.639.02.819-.024,1.7-2.86,2.441-8.385,3.181s-12.6,6.042-19.409,5.376c-3.72-.364-4.476-2.157-3.98-4.022C4501.679,2267.884,4502.84,2268.746,4505.292,2268.986Z" transform="translate(-4460.003 -2068.352)" fill="#24006d"/>
    </g>
  </g>
</svg>
