<svg xmlns="http://www.w3.org/2000/svg" xmlns:xlink="http://www.w3.org/1999/xlink" width="838" height="144.729" viewBox="0 0 838 144.729">
  <defs>
    <filter id="Rectángulo_329500" x="0" y="26.729" width="838" height="118" filterUnits="userSpaceOnUse">
      <feOffset dy="3" input="SourceAlpha"/>
      <feGaussianBlur stdDeviation="3" result="blur"/>
      <feFlood flood-opacity="0.161"/>
      <feComposite operator="in" in2="blur"/>
      <feComposite in="SourceGraphic"/>
    </filter>
  </defs>
  <g id="Grupo_936372" data-name="Grupo 936372" transform="translate(-276 -9500.271)">
    <g transform="matrix(1, 0, 0, 1, 276, 9500.27)" filter="url(#Rectángulo_329500)">
      <rect id="Rectángulo_329500-2" data-name="Rectángulo 329500" width="820" height="100" rx="20" transform="translate(9 32.73)" fill="#fff"/>
    </g>
    <g id="Grupo_936371" data-name="Grupo 936371" transform="translate(-6)">
      <path id="Trazado_678798" data-name="Trazado 678798" d="M40.133,6.609l-.469,2.117h-.75A2.416,2.416,0,0,0,38.5,7.34a1.41,1.41,0,0,0-1.145-.426,2.646,2.646,0,0,0-2,1.078,7.814,7.814,0,0,0-1.465,2.848,11.322,11.322,0,0,0-.539,3.285,2.925,2.925,0,0,0,.422,1.75,1.516,1.516,0,0,0,1.3.563,2.734,2.734,0,0,0,1.023-.176,2.27,2.27,0,0,0,.82-.594,5.149,5.149,0,0,0,.758-1.168h.75l-.477,2.219a11.38,11.38,0,0,1-3.062.406,2.864,2.864,0,0,1-2.234-.844,3.558,3.558,0,0,1-.766-2.469,10.2,10.2,0,0,1,.41-2.648,9.063,9.063,0,0,1,1.16-2.633A5.374,5.374,0,0,1,35.219,6.8a4.4,4.4,0,0,1,2.25-.594,9.393,9.393,0,0,1,1.316.086A9,9,0,0,1,40.133,6.609Zm3.641,10.523a2.515,2.515,0,0,1-1.879-.68,2.671,2.671,0,0,1-.668-1.953,6.588,6.588,0,0,1,.188-1.445,5.411,5.411,0,0,1,.813-1.937,3.916,3.916,0,0,1,1.406-1.27,3.871,3.871,0,0,1,1.836-.441,2.521,2.521,0,0,1,1.906.684,2.715,2.715,0,0,1,.656,1.957,6.62,6.62,0,0,1-.316,1.938,5.308,5.308,0,0,1-.867,1.734,3.568,3.568,0,0,1-1.316,1.059A4.131,4.131,0,0,1,43.773,17.133Zm-1.18-2.3a1.9,1.9,0,0,0,.355,1.27,1.345,1.345,0,0,0,1.074.41,1.761,1.761,0,0,0,1.359-.687A4.943,4.943,0,0,0,46.32,13.9a8.276,8.276,0,0,0,.344-2.176,2.059,2.059,0,0,0-.328-1.27,1.21,1.21,0,0,0-1.023-.426,1.846,1.846,0,0,0-1.418.68,4.814,4.814,0,0,0-.953,1.945A8.426,8.426,0,0,0,42.594,14.836Zm8.43-2.789a5.6,5.6,0,0,0,.172-1.156.787.787,0,0,0-.1-.453.368.368,0,0,0-.32-.141.874.874,0,0,0-.512.2,5.607,5.607,0,0,0-.738.723l-.445-.437a7.756,7.756,0,0,1,1.2-1.066A1.905,1.905,0,0,1,51.352,9.4a.982.982,0,0,1,.777.324,1.236,1.236,0,0,1,.285.848,2.689,2.689,0,0,1-.187.922l.094.031a7.228,7.228,0,0,1,1.457-1.6,2.348,2.348,0,0,1,1.426-.52,1.454,1.454,0,0,1,1.117.418,1.633,1.633,0,0,1,.391,1.16,6.238,6.238,0,0,1-.227,1.4l-.508,2.047a5.872,5.872,0,0,0-.211,1.2.787.787,0,0,0,.1.453.368.368,0,0,0,.32.141.869.869,0,0,0,.5-.191,5.49,5.49,0,0,0,.75-.73l.445.438a7.068,7.068,0,0,1-1.172,1.051,2.015,2.015,0,0,1-1.141.332,1.007,1.007,0,0,1-.812-.363,1.391,1.391,0,0,1-.3-.926,6.463,6.463,0,0,1,.258-1.492l.344-1.352q.188-.734.246-1.086a3.628,3.628,0,0,0,.059-.57,1.31,1.31,0,0,0-.18-.777.687.687,0,0,0-.586-.238,1.266,1.266,0,0,0-.707.262,4.031,4.031,0,0,0-.8.789,6.192,6.192,0,0,0-.684,1.023,5.1,5.1,0,0,0-.422,1.223L51.234,17H49.883Zm12.938-.617a1.71,1.71,0,0,0-.457-1.055,1.629,1.629,0,0,0-1.168-.359,1.519,1.519,0,0,0-1,.316,1.027,1.027,0,0,0-.383.832,1.188,1.188,0,0,0,.1.5,1.5,1.5,0,0,0,.395.473,6.87,6.87,0,0,0,.922.633,6.6,6.6,0,0,1,.789.543,2.618,2.618,0,0,1,.469.488,1.7,1.7,0,0,1,.25.512,2.368,2.368,0,0,1,.078.652,1.933,1.933,0,0,1-.371,1.191,2.2,2.2,0,0,1-1.008.738,4.055,4.055,0,0,1-1.449.242,8.237,8.237,0,0,1-1.273-.1,10.165,10.165,0,0,1-1.391-.332l.375-1.7h.609a1.618,1.618,0,0,0,.422,1.133,1.722,1.722,0,0,0,1.242.383,1.82,1.82,0,0,0,1.16-.332,1.133,1.133,0,0,0,.418-.941,1.435,1.435,0,0,0-.117-.605,1.5,1.5,0,0,0-.383-.488,6.286,6.286,0,0,0-.844-.586,6.85,6.85,0,0,1-.949-.664,2.093,2.093,0,0,1-.512-.645,1.784,1.784,0,0,1-.172-.8,1.813,1.813,0,0,1,.332-1.082,2.1,2.1,0,0,1,.949-.715,3.811,3.811,0,0,1,1.438-.25,9.348,9.348,0,0,1,1.324.086,6.181,6.181,0,0,1,1.191.3l-.352,1.641Zm8.547,3.047a5.6,5.6,0,0,0-.172,1.156.787.787,0,0,0,.1.453.368.368,0,0,0,.32.141.869.869,0,0,0,.5-.191,5.49,5.49,0,0,0,.75-.73l.445.438a6.626,6.626,0,0,1-1.211,1.07,1.971,1.971,0,0,1-1.062.313.991.991,0,0,1-.773-.32,1.223,1.223,0,0,1-.289-.852,2.643,2.643,0,0,1,.188-.922L71.211,15a7.215,7.215,0,0,1-1.465,1.6,2.349,2.349,0,0,1-1.418.516,1.454,1.454,0,0,1-1.117-.418,1.633,1.633,0,0,1-.391-1.16,6.238,6.238,0,0,1,.227-1.4l.508-2.047a5.872,5.872,0,0,0,.211-1.2.787.787,0,0,0-.1-.453.368.368,0,0,0-.32-.141.874.874,0,0,0-.512.2,5.607,5.607,0,0,0-.738.723l-.445-.437a10.153,10.153,0,0,1,1-.922,2.394,2.394,0,0,1,.645-.355,2.129,2.129,0,0,1,.691-.105.987.987,0,0,1,.789.336,1.342,1.342,0,0,1,.289.906,6.275,6.275,0,0,1-.242,1.539l-.344,1.352q-.133.516-.191.8t-.086.5a2.824,2.824,0,0,0-.027.352,1.31,1.31,0,0,0,.18.777.687.687,0,0,0,.586.238,1.266,1.266,0,0,0,.707-.262,4.031,4.031,0,0,0,.8-.789,6.193,6.193,0,0,0,.684-1.023,5.1,5.1,0,0,0,.422-1.223L72.3,9.523h1.352Zm5.57-2.961a6.293,6.293,0,0,1,1.43-1.59,2.421,2.421,0,0,1,1.438-.52,1.471,1.471,0,0,1,1.141.426,1.758,1.758,0,0,1,.391,1.23v.109a.947.947,0,0,1-.008.117,5.717,5.717,0,0,1,1.34-1.418A2.4,2.4,0,0,1,85.2,9.406,1.452,1.452,0,0,1,86.3,9.82a1.63,1.63,0,0,1,.391,1.164,6.238,6.238,0,0,1-.227,1.4l-.508,2.047a5.872,5.872,0,0,0-.211,1.2.787.787,0,0,0,.1.453.368.368,0,0,0,.32.141.869.869,0,0,0,.5-.191,5.49,5.49,0,0,0,.75-.73l.445.438A7.388,7.388,0,0,1,86.7,16.789a2,2,0,0,1-1.141.336,1.007,1.007,0,0,1-.812-.363,1.391,1.391,0,0,1-.3-.926,6.463,6.463,0,0,1,.258-1.492l.344-1.352q.188-.734.246-1.086a3.628,3.628,0,0,0,.059-.57,1.31,1.31,0,0,0-.18-.777.687.687,0,0,0-.586-.238,1.3,1.3,0,0,0-.7.246,3.562,3.562,0,0,0-.789.766,6.35,6.35,0,0,0-.676,1.023,4.923,4.923,0,0,0-.418,1.23L81.281,17H79.93l.9-3.969q.164-.727.223-1.074a3.675,3.675,0,0,0,.059-.6,1.257,1.257,0,0,0-.2-.8.764.764,0,0,0-.621-.238,1.283,1.283,0,0,0-.676.246,3.586,3.586,0,0,0-.809.789,5.053,5.053,0,0,0-1.078,2.262L76.984,17H75.633l1.141-4.953a5.6,5.6,0,0,0,.172-1.156.787.787,0,0,0-.1-.453.368.368,0,0,0-.32-.141.874.874,0,0,0-.512.2,5.607,5.607,0,0,0-.738.723l-.445-.437A7.624,7.624,0,0,1,76.012,9.73,1.919,1.919,0,0,1,77.1,9.4a.982.982,0,0,1,.777.324,1.236,1.236,0,0,1,.285.848,2.633,2.633,0,0,1-.18.914Zm13.383,5.617a2.515,2.515,0,0,1-1.879-.68,2.671,2.671,0,0,1-.668-1.953,6.588,6.588,0,0,1,.188-1.445,5.411,5.411,0,0,1,.813-1.937,3.916,3.916,0,0,1,1.406-1.27,3.871,3.871,0,0,1,1.836-.441,2.521,2.521,0,0,1,1.906.684,2.715,2.715,0,0,1,.656,1.957,6.62,6.62,0,0,1-.316,1.938,5.308,5.308,0,0,1-.867,1.734,3.568,3.568,0,0,1-1.316,1.059A4.131,4.131,0,0,1,91.461,17.133Zm-1.18-2.3a1.9,1.9,0,0,0,.355,1.27,1.345,1.345,0,0,0,1.074.41,1.761,1.761,0,0,0,1.359-.687,4.943,4.943,0,0,0,.938-1.926,8.276,8.276,0,0,0,.344-2.176,2.059,2.059,0,0,0-.328-1.27A1.21,1.21,0,0,0,93,10.031a1.846,1.846,0,0,0-1.418.68,4.814,4.814,0,0,0-.953,1.945A8.426,8.426,0,0,0,90.281,14.836Zm20.969-8.5h2.461l-.086.383a1.454,1.454,0,0,0-.426.141.771.771,0,0,0-.234.234,1.992,1.992,0,0,0-.211.488q-.105.332-.27,1.082l-1.336,6.063q-.1.461-.133.73a4.274,4.274,0,0,0-.031.488.61.61,0,0,0,.176.5,1.068,1.068,0,0,0,.59.176l-.086.383h-3.125l.086-.383a1.066,1.066,0,0,0,.445-.152.844.844,0,0,0,.25-.293,2.668,2.668,0,0,0,.188-.457q.086-.27.258-1.043L110.8,9.961q.219-.977.5-1.945H111.2q-.242.461-1.094,1.875l-3.555,5.867H105.7l-.648-5.023q-.141-1.062-.312-2.859h-.156q-.266,1.75-.594,3.242l-.8,3.609a5.883,5.883,0,0,0-.164,1.219.61.61,0,0,0,.176.5,1.068,1.068,0,0,0,.59.176L103.7,17h-2.734l.086-.383a1.066,1.066,0,0,0,.445-.152.844.844,0,0,0,.25-.293,2.668,2.668,0,0,0,.188-.457q.086-.27.258-1.043l1.328-6.016q.078-.336.125-.641A4.053,4.053,0,0,0,103.7,7.4a.617.617,0,0,0-.184-.512,1.045,1.045,0,0,0-.582-.168l.086-.383H105.8l.891,7.578Zm9.617,3.578.719-.516.5.125-1.148,4.953a5.5,5.5,0,0,0-.172,1.156.787.787,0,0,0,.1.453.368.368,0,0,0,.32.141.869.869,0,0,0,.5-.191,5.49,5.49,0,0,0,.75-.73l.445.438a6.8,6.8,0,0,1-1.2,1.066,1.96,1.96,0,0,1-1.074.316.991.991,0,0,1-.773-.32,1.223,1.223,0,0,1-.289-.852,2.633,2.633,0,0,1,.18-.914l-.1-.031a6.889,6.889,0,0,1-1.422,1.6,2.32,2.32,0,0,1-1.422.508,1.552,1.552,0,0,1-1.332-.648,3.046,3.046,0,0,1-.473-1.82,6.524,6.524,0,0,1,.527-2.582,4.776,4.776,0,0,1,1.449-1.953,3.271,3.271,0,0,1,2.055-.715,3.809,3.809,0,0,1,.949.113A3.318,3.318,0,0,1,120.867,9.914Zm-.687,2.328a4.931,4.931,0,0,0,.094-.555q.023-.234.023-.508a1.277,1.277,0,0,0-.258-.883,1.145,1.145,0,0,0-.875-.281,1.985,1.985,0,0,0-1.445.648,4.377,4.377,0,0,0-1,1.738,6.913,6.913,0,0,0-.359,2.176,2.585,2.585,0,0,0,.223,1.215.784.784,0,0,0,.746.4,1.515,1.515,0,0,0,1.012-.445,6.2,6.2,0,0,0,1.023-1.27,5.537,5.537,0,0,0,.746-1.9Zm6.359-.828a6.511,6.511,0,0,1,1.473-1.523,2.515,2.515,0,0,1,1.434-.484,4.445,4.445,0,0,1,.953.086l-.375,1.75h-.8a1.808,1.808,0,0,0-.133-.508.563.563,0,0,0-.2-.25.569.569,0,0,0-.3-.07,1.067,1.067,0,0,0-.613.242,4.2,4.2,0,0,0-.746.758,6.006,6.006,0,0,0-.66.992,5.079,5.079,0,0,0-.41,1.211L125.414,17h-1.352l1.133-4.953a7.316,7.316,0,0,0,.141-.727,3.686,3.686,0,0,0,.031-.43.787.787,0,0,0-.1-.453.368.368,0,0,0-.32-.141.874.874,0,0,0-.512.2,5.607,5.607,0,0,0-.738.723l-.445-.437a7.51,7.51,0,0,1,1.2-1.066,1.916,1.916,0,0,1,1.07-.316.982.982,0,0,1,.777.324,1.236,1.236,0,0,1,.285.848,2.378,2.378,0,0,1-.148.8Zm6.055,6.258a2.617,2.617,0,0,0-.25.355,1.386,1.386,0,0,0-.145.34,1.557,1.557,0,0,0-.043.391.94.94,0,0,0,.422.855,2.4,2.4,0,0,0,1.273.27,2.521,2.521,0,0,0,1.543-.434,3.339,3.339,0,0,0,1-1.395,15.588,15.588,0,0,0,.8-2.906l-.109-.023a7.008,7.008,0,0,1-1.406,1.516,2.315,2.315,0,0,1-1.4.477,1.551,1.551,0,0,1-1.324-.641,3.039,3.039,0,0,1-.473-1.828,6.491,6.491,0,0,1,.523-2.566,4.814,4.814,0,0,1,1.453-1.957,3.281,3.281,0,0,1,2.07-.727,3.58,3.58,0,0,1,.93.117,3.219,3.219,0,0,1,.883.4l.719-.516.5.125-.8,3.641q-.086.383-.391,1.93-.32,1.641-.52,2.32a6.569,6.569,0,0,1-.5,1.238,3.441,3.441,0,0,1-.766.973,3.289,3.289,0,0,1-1.137.641,4.939,4.939,0,0,1-1.582.227q-2.953,0-2.953-1.719a1.31,1.31,0,0,1,.266-.8,3.511,3.511,0,0,1,.852-.758Zm2.242-1.477a1.383,1.383,0,0,0,.793-.273,3.949,3.949,0,0,0,.844-.867,6.291,6.291,0,0,0,.7-1.133,6.555,6.555,0,0,0,.426-1.344,6.68,6.68,0,0,0,.176-1.4,1.275,1.275,0,0,0-.258-.887,1.131,1.131,0,0,0-.859-.277,1.957,1.957,0,0,0-1.43.645,4.429,4.429,0,0,0-1,1.738,6.881,6.881,0,0,0-.363,2.18,2.474,2.474,0,0,0,.234,1.215A.789.789,0,0,0,134.836,16.2Zm12.172-.75a5.939,5.939,0,0,1-1.535,1.258,3.733,3.733,0,0,1-1.809.422,2.236,2.236,0,0,1-1.754-.691,2.78,2.78,0,0,1-.621-1.926,6,6,0,0,1,.3-1.793A5.239,5.239,0,0,1,142.5,11a4.254,4.254,0,0,1,1.461-1.18,4.06,4.06,0,0,1,1.813-.418,2.22,2.22,0,0,1,1.418.383,1.448,1.448,0,0,1,.473,1.2,2.135,2.135,0,0,1-1.246,1.992,8.1,8.1,0,0,1-3.7.664,5.18,5.18,0,0,0-.094,1.016,1.806,1.806,0,0,0,.32,1.191,1.316,1.316,0,0,0,1.047.371,2.706,2.706,0,0,0,1.3-.312,5.434,5.434,0,0,0,1.23-.961Zm-4.156-2.477a8.37,8.37,0,0,0,1.891-.2,2.53,2.53,0,0,0,1.211-.609,1.518,1.518,0,0,0,.422-1.129,1.138,1.138,0,0,0-.223-.746.807.807,0,0,0-.66-.27,2.084,2.084,0,0,0-1.52.8A5.309,5.309,0,0,0,142.852,12.969Zm7.688-.922a5.6,5.6,0,0,0,.172-1.156.787.787,0,0,0-.1-.453.368.368,0,0,0-.32-.141.874.874,0,0,0-.512.2,5.607,5.607,0,0,0-.738.723l-.445-.437a7.756,7.756,0,0,1,1.2-1.066,1.905,1.905,0,0,1,1.078-.316.982.982,0,0,1,.777.324,1.236,1.236,0,0,1,.285.848,2.689,2.689,0,0,1-.187.922l.094.031a7.228,7.228,0,0,1,1.457-1.6,2.348,2.348,0,0,1,1.426-.52,1.454,1.454,0,0,1,1.117.418,1.633,1.633,0,0,1,.391,1.16,6.237,6.237,0,0,1-.227,1.4l-.508,2.047a5.872,5.872,0,0,0-.211,1.2.787.787,0,0,0,.1.453.368.368,0,0,0,.32.141.869.869,0,0,0,.5-.191,5.49,5.49,0,0,0,.75-.73l.445.438a7.068,7.068,0,0,1-1.172,1.051,2.015,2.015,0,0,1-1.141.332,1.007,1.007,0,0,1-.812-.363,1.391,1.391,0,0,1-.3-.926,6.463,6.463,0,0,1,.258-1.492l.344-1.352q.188-.734.246-1.086a3.628,3.628,0,0,0,.059-.57,1.31,1.31,0,0,0-.18-.777.687.687,0,0,0-.586-.238,1.266,1.266,0,0,0-.707.262,4.031,4.031,0,0,0-.8.789,6.192,6.192,0,0,0-.684,1.023,5.1,5.1,0,0,0-.422,1.223L150.75,17H149.4ZM167.242,17h-1.453V7.367l-2.914,1.07V7.125l4.141-1.555h.227ZM182.2,10.641H175.68V9.383H182.2Zm0,3.242H175.68v-1.25H182.2Zm14.352-7.273-.469,2.117h-.75a2.416,2.416,0,0,0-.418-1.387,1.41,1.41,0,0,0-1.145-.426,2.646,2.646,0,0,0-2,1.078A7.814,7.814,0,0,0,190.3,10.84a11.322,11.322,0,0,0-.539,3.285,2.925,2.925,0,0,0,.422,1.75,1.516,1.516,0,0,0,1.3.563,2.734,2.734,0,0,0,1.023-.176,2.27,2.27,0,0,0,.82-.594,5.149,5.149,0,0,0,.758-1.168h.75l-.477,2.219a11.38,11.38,0,0,1-3.062.406,2.864,2.864,0,0,1-2.234-.844,3.558,3.558,0,0,1-.766-2.469,10.2,10.2,0,0,1,.41-2.648,9.063,9.063,0,0,1,1.16-2.633A5.374,5.374,0,0,1,191.633,6.8a4.4,4.4,0,0,1,2.25-.594A9.393,9.393,0,0,1,195.2,6.3,9,9,0,0,1,196.547,6.609Zm3.641,10.523a2.515,2.515,0,0,1-1.879-.68,2.671,2.671,0,0,1-.668-1.953,6.588,6.588,0,0,1,.188-1.445,5.411,5.411,0,0,1,.813-1.937,3.916,3.916,0,0,1,1.406-1.27,3.871,3.871,0,0,1,1.836-.441,2.521,2.521,0,0,1,1.906.684,2.715,2.715,0,0,1,.656,1.957,6.62,6.62,0,0,1-.316,1.938,5.308,5.308,0,0,1-.867,1.734,3.568,3.568,0,0,1-1.316,1.059A4.131,4.131,0,0,1,200.188,17.133Zm-1.18-2.3a1.9,1.9,0,0,0,.355,1.27,1.345,1.345,0,0,0,1.074.41,1.761,1.761,0,0,0,1.359-.687,4.943,4.943,0,0,0,.938-1.926,8.276,8.276,0,0,0,.344-2.176,2.059,2.059,0,0,0-.328-1.27,1.21,1.21,0,0,0-1.023-.426,1.846,1.846,0,0,0-1.418.68,4.814,4.814,0,0,0-.953,1.945A8.427,8.427,0,0,0,199.008,14.836Zm8.43-2.789a5.6,5.6,0,0,0,.172-1.156.787.787,0,0,0-.1-.453.368.368,0,0,0-.32-.141.874.874,0,0,0-.512.2,5.607,5.607,0,0,0-.738.723l-.445-.437a7.756,7.756,0,0,1,1.2-1.066,1.905,1.905,0,0,1,1.078-.316.982.982,0,0,1,.777.324,1.236,1.236,0,0,1,.285.848,2.689,2.689,0,0,1-.187.922l.094.031a7.228,7.228,0,0,1,1.457-1.6,2.348,2.348,0,0,1,1.426-.52,1.454,1.454,0,0,1,1.117.418,1.633,1.633,0,0,1,.391,1.16,6.237,6.237,0,0,1-.227,1.4l-.508,2.047a5.872,5.872,0,0,0-.211,1.2.787.787,0,0,0,.1.453.368.368,0,0,0,.32.141.869.869,0,0,0,.5-.191,5.49,5.49,0,0,0,.75-.73l.445.438a7.068,7.068,0,0,1-1.172,1.051,2.015,2.015,0,0,1-1.141.332,1.007,1.007,0,0,1-.812-.363,1.391,1.391,0,0,1-.3-.926,6.463,6.463,0,0,1,.258-1.492l.344-1.352q.188-.734.246-1.086a3.628,3.628,0,0,0,.059-.57,1.31,1.31,0,0,0-.18-.777.687.687,0,0,0-.586-.238,1.266,1.266,0,0,0-.707.262,4.031,4.031,0,0,0-.8.789,6.192,6.192,0,0,0-.684,1.023,5.1,5.1,0,0,0-.422,1.223L207.648,17H206.3Zm12.938-.617a1.71,1.71,0,0,0-.457-1.055,1.629,1.629,0,0,0-1.168-.359,1.519,1.519,0,0,0-1,.316,1.027,1.027,0,0,0-.383.832,1.188,1.188,0,0,0,.1.5,1.5,1.5,0,0,0,.395.473,6.87,6.87,0,0,0,.922.633,6.6,6.6,0,0,1,.789.543,2.618,2.618,0,0,1,.469.488,1.7,1.7,0,0,1,.25.512,2.368,2.368,0,0,1,.078.652A1.933,1.933,0,0,1,220,16.152a2.2,2.2,0,0,1-1.008.738,4.055,4.055,0,0,1-1.449.242,8.237,8.237,0,0,1-1.273-.1,10.165,10.165,0,0,1-1.391-.332l.375-1.7h.609a1.618,1.618,0,0,0,.422,1.133,1.722,1.722,0,0,0,1.242.383,1.82,1.82,0,0,0,1.16-.332,1.133,1.133,0,0,0,.418-.941,1.435,1.435,0,0,0-.117-.605,1.5,1.5,0,0,0-.383-.488,6.285,6.285,0,0,0-.844-.586,6.85,6.85,0,0,1-.949-.664,2.093,2.093,0,0,1-.512-.645,1.785,1.785,0,0,1-.172-.8,1.813,1.813,0,0,1,.332-1.082,2.1,2.1,0,0,1,.949-.715,3.811,3.811,0,0,1,1.438-.25,9.348,9.348,0,0,1,1.324.086,6.181,6.181,0,0,1,1.191.3l-.352,1.641Zm8.547,3.047a5.6,5.6,0,0,0-.172,1.156.787.787,0,0,0,.1.453.368.368,0,0,0,.32.141.869.869,0,0,0,.5-.191,5.49,5.49,0,0,0,.75-.73l.445.438a6.626,6.626,0,0,1-1.211,1.07,1.971,1.971,0,0,1-1.062.313.991.991,0,0,1-.773-.32,1.223,1.223,0,0,1-.289-.852,2.643,2.643,0,0,1,.188-.922L227.625,15a7.215,7.215,0,0,1-1.465,1.6,2.349,2.349,0,0,1-1.418.516,1.454,1.454,0,0,1-1.117-.418,1.633,1.633,0,0,1-.391-1.16,6.237,6.237,0,0,1,.227-1.4l.508-2.047a5.872,5.872,0,0,0,.211-1.2.787.787,0,0,0-.1-.453.368.368,0,0,0-.32-.141.874.874,0,0,0-.512.2,5.607,5.607,0,0,0-.738.723l-.445-.437a10.153,10.153,0,0,1,1-.922,2.394,2.394,0,0,1,.645-.355A2.129,2.129,0,0,1,224.4,9.4a.987.987,0,0,1,.789.336,1.342,1.342,0,0,1,.289.906,6.275,6.275,0,0,1-.242,1.539l-.344,1.352q-.133.516-.191.8t-.086.5a2.823,2.823,0,0,0-.027.352,1.31,1.31,0,0,0,.18.777.687.687,0,0,0,.586.238,1.266,1.266,0,0,0,.707-.262,4.031,4.031,0,0,0,.8-.789,6.192,6.192,0,0,0,.684-1.023,5.1,5.1,0,0,0,.422-1.223l.742-3.383h1.352Zm5.57-2.961a6.293,6.293,0,0,1,1.43-1.59,2.421,2.421,0,0,1,1.438-.52,1.471,1.471,0,0,1,1.141.426,1.758,1.758,0,0,1,.391,1.23v.109a.949.949,0,0,1-.008.117,5.717,5.717,0,0,1,1.34-1.418,2.4,2.4,0,0,1,1.387-.465,1.452,1.452,0,0,1,1.109.414,1.63,1.63,0,0,1,.391,1.164,6.237,6.237,0,0,1-.227,1.4l-.508,2.047a5.872,5.872,0,0,0-.211,1.2.787.787,0,0,0,.1.453.368.368,0,0,0,.32.141.869.869,0,0,0,.5-.191,5.49,5.49,0,0,0,.75-.73l.445.438a7.389,7.389,0,0,1-1.172,1.047,2,2,0,0,1-1.141.336,1.007,1.007,0,0,1-.812-.363,1.391,1.391,0,0,1-.3-.926,6.463,6.463,0,0,1,.258-1.492l.344-1.352q.188-.734.246-1.086a3.628,3.628,0,0,0,.059-.57,1.31,1.31,0,0,0-.18-.777.687.687,0,0,0-.586-.238,1.3,1.3,0,0,0-.7.246,3.562,3.562,0,0,0-.789.766,6.35,6.35,0,0,0-.676,1.023,4.923,4.923,0,0,0-.418,1.23L237.7,17h-1.352l.9-3.969q.164-.727.223-1.074a3.675,3.675,0,0,0,.059-.6,1.257,1.257,0,0,0-.2-.8.764.764,0,0,0-.621-.238,1.283,1.283,0,0,0-.676.246,3.586,3.586,0,0,0-.809.789,5.053,5.053,0,0,0-1.078,2.262L233.4,17h-1.352l1.141-4.953a5.6,5.6,0,0,0,.172-1.156.787.787,0,0,0-.1-.453.368.368,0,0,0-.32-.141.874.874,0,0,0-.512.2,5.607,5.607,0,0,0-.738.723l-.445-.437a7.623,7.623,0,0,1,1.184-1.051,1.919,1.919,0,0,1,1.09-.332.982.982,0,0,1,.777.324,1.236,1.236,0,0,1,.285.848,2.632,2.632,0,0,1-.18.914Zm13.383,5.617a2.515,2.515,0,0,1-1.879-.68,2.671,2.671,0,0,1-.668-1.953,6.588,6.588,0,0,1,.188-1.445,5.411,5.411,0,0,1,.813-1.937,3.916,3.916,0,0,1,1.406-1.27,3.871,3.871,0,0,1,1.836-.441,2.521,2.521,0,0,1,1.906.684,2.715,2.715,0,0,1,.656,1.957,6.62,6.62,0,0,1-.316,1.938,5.308,5.308,0,0,1-.867,1.734,3.568,3.568,0,0,1-1.316,1.059A4.131,4.131,0,0,1,247.875,17.133Zm-1.18-2.3a1.9,1.9,0,0,0,.355,1.27,1.345,1.345,0,0,0,1.074.41,1.761,1.761,0,0,0,1.359-.687,4.943,4.943,0,0,0,.938-1.926,8.276,8.276,0,0,0,.344-2.176,2.059,2.059,0,0,0-.328-1.27,1.21,1.21,0,0,0-1.023-.426,1.846,1.846,0,0,0-1.418.68,4.814,4.814,0,0,0-.953,1.945A8.427,8.427,0,0,0,246.7,14.836Zm16.141-3.43a3.52,3.52,0,0,0-.1-.859.742.742,0,0,0-.266-.4.875.875,0,0,0-.52-.133,1.958,1.958,0,0,0-1.418.629,4.612,4.612,0,0,0-1.027,1.781,6.769,6.769,0,0,0-.4,2.215,1.863,1.863,0,0,0,.313,1.184,1.134,1.134,0,0,0,.938.387,2.639,2.639,0,0,0,1.23-.27,4.607,4.607,0,0,0,1.1-.848l.477.477a5.185,5.185,0,0,1-1.48,1.188,3.525,3.525,0,0,1-1.605.375,2.158,2.158,0,0,1-1.719-.672,2.888,2.888,0,0,1-.586-1.953,6.2,6.2,0,0,1,.313-1.836A5.375,5.375,0,0,1,259,10.914a3.882,3.882,0,0,1,1.406-1.133,4.019,4.019,0,0,1,1.719-.375,7.384,7.384,0,0,1,1.914.234l-.383,1.766Zm8.188-1.492.719-.516.5.125-1.148,4.953a5.5,5.5,0,0,0-.172,1.156.787.787,0,0,0,.1.453.368.368,0,0,0,.32.141.869.869,0,0,0,.5-.191,5.489,5.489,0,0,0,.75-.73l.445.438a6.8,6.8,0,0,1-1.2,1.066,1.96,1.96,0,0,1-1.074.316.991.991,0,0,1-.773-.32,1.223,1.223,0,0,1-.289-.852,2.633,2.633,0,0,1,.18-.914l-.1-.031a6.889,6.889,0,0,1-1.422,1.6,2.32,2.32,0,0,1-1.422.508,1.552,1.552,0,0,1-1.332-.648,3.046,3.046,0,0,1-.473-1.82,6.524,6.524,0,0,1,.527-2.582,4.776,4.776,0,0,1,1.449-1.953,3.271,3.271,0,0,1,2.055-.715,3.809,3.809,0,0,1,.949.113A3.318,3.318,0,0,1,271.023,9.914Zm-.687,2.328a4.931,4.931,0,0,0,.094-.555q.023-.234.023-.508a1.277,1.277,0,0,0-.258-.883,1.145,1.145,0,0,0-.875-.281,1.985,1.985,0,0,0-1.445.648,4.377,4.377,0,0,0-1,1.738,6.913,6.913,0,0,0-.359,2.176,2.585,2.585,0,0,0,.223,1.215.784.784,0,0,0,.746.4,1.515,1.515,0,0,0,1.012-.445,6.2,6.2,0,0,0,1.023-1.27,5.537,5.537,0,0,0,.746-1.9Zm5.586-4.211q.094-.414.133-.66a2.929,2.929,0,0,0,.039-.457.612.612,0,0,0-.086-.355.482.482,0,0,0-.246-.176,2.467,2.467,0,0,0-.574-.078l.094-.406,1.969-.07h.461l-1.922,8.648a5.9,5.9,0,0,0-.172,1.156.787.787,0,0,0,.1.453.368.368,0,0,0,.32.141.869.869,0,0,0,.5-.191,5.489,5.489,0,0,0,.75-.73l.445.438a6.815,6.815,0,0,1-1.238,1.09,2.023,2.023,0,0,1-1.074.293,1,1,0,0,1-.812-.371,1.447,1.447,0,0,1-.3-.949,7.654,7.654,0,0,1,.219-1.516Zm8.242,3.375a3.52,3.52,0,0,0-.1-.859.742.742,0,0,0-.266-.4.875.875,0,0,0-.52-.133,1.958,1.958,0,0,0-1.418.629,4.612,4.612,0,0,0-1.027,1.781,6.769,6.769,0,0,0-.4,2.215,1.863,1.863,0,0,0,.313,1.184,1.134,1.134,0,0,0,.938.387,2.639,2.639,0,0,0,1.23-.27,4.607,4.607,0,0,0,1.1-.848l.477.477a5.185,5.185,0,0,1-1.48,1.188,3.525,3.525,0,0,1-1.605.375,2.158,2.158,0,0,1-1.719-.672,2.888,2.888,0,0,1-.586-1.953,6.2,6.2,0,0,1,.313-1.836,5.375,5.375,0,0,1,.914-1.758,3.882,3.882,0,0,1,1.406-1.133,4.019,4.019,0,0,1,1.719-.375,7.384,7.384,0,0,1,1.914.234l-.383,1.766Zm8.523,3.07a5.594,5.594,0,0,0-.172,1.156.787.787,0,0,0,.1.453.368.368,0,0,0,.32.141.869.869,0,0,0,.5-.191,5.489,5.489,0,0,0,.75-.73l.445.438a6.626,6.626,0,0,1-1.211,1.07,1.971,1.971,0,0,1-1.062.313.991.991,0,0,1-.773-.32,1.223,1.223,0,0,1-.289-.852,2.643,2.643,0,0,1,.188-.922L291.391,15a7.215,7.215,0,0,1-1.465,1.6,2.349,2.349,0,0,1-1.418.516,1.454,1.454,0,0,1-1.117-.418,1.633,1.633,0,0,1-.391-1.16,6.238,6.238,0,0,1,.227-1.4l.508-2.047a5.872,5.872,0,0,0,.211-1.2.787.787,0,0,0-.1-.453.368.368,0,0,0-.32-.141.873.873,0,0,0-.512.2,5.607,5.607,0,0,0-.738.723l-.445-.437a10.153,10.153,0,0,1,1-.922,2.4,2.4,0,0,1,.645-.355,2.129,2.129,0,0,1,.691-.105.987.987,0,0,1,.789.336,1.342,1.342,0,0,1,.289.906A6.275,6.275,0,0,1,289,12.18l-.344,1.352q-.133.516-.191.8t-.086.5a2.826,2.826,0,0,0-.027.352,1.31,1.31,0,0,0,.18.777.687.687,0,0,0,.586.238,1.266,1.266,0,0,0,.707-.262,4.031,4.031,0,0,0,.8-.789,6.193,6.193,0,0,0,.684-1.023,5.1,5.1,0,0,0,.422-1.223l.742-3.383h1.352Zm4.828-6.445q.094-.414.133-.66a2.929,2.929,0,0,0,.039-.457.612.612,0,0,0-.086-.355.482.482,0,0,0-.246-.176,2.467,2.467,0,0,0-.574-.078l.094-.406,1.969-.07h.461l-1.922,8.648a5.9,5.9,0,0,0-.172,1.156.787.787,0,0,0,.1.453.368.368,0,0,0,.32.141.869.869,0,0,0,.5-.191,5.489,5.489,0,0,0,.75-.73l.445.438a6.815,6.815,0,0,1-1.238,1.09,2.023,2.023,0,0,1-1.074.293,1,1,0,0,1-.812-.371,1.447,1.447,0,0,1-.3-.949,7.654,7.654,0,0,1,.219-1.516Zm9.07,1.883L307.3,9.4l.5.125-1.148,4.953a5.5,5.5,0,0,0-.172,1.156.787.787,0,0,0,.1.453.368.368,0,0,0,.32.141.869.869,0,0,0,.5-.191,5.489,5.489,0,0,0,.75-.73l.445.438a6.8,6.8,0,0,1-1.2,1.066,1.96,1.96,0,0,1-1.074.316.991.991,0,0,1-.773-.32,1.223,1.223,0,0,1-.289-.852,2.633,2.633,0,0,1,.18-.914l-.1-.031a6.889,6.889,0,0,1-1.422,1.6,2.32,2.32,0,0,1-1.422.508,1.552,1.552,0,0,1-1.332-.648,3.046,3.046,0,0,1-.473-1.82,6.524,6.524,0,0,1,.527-2.582,4.776,4.776,0,0,1,1.449-1.953,3.271,3.271,0,0,1,2.055-.715,3.809,3.809,0,0,1,.949.113A3.318,3.318,0,0,1,306.586,9.914Zm-.687,2.328a4.931,4.931,0,0,0,.094-.555q.023-.234.023-.508a1.277,1.277,0,0,0-.258-.883,1.145,1.145,0,0,0-.875-.281,1.985,1.985,0,0,0-1.445.648,4.377,4.377,0,0,0-1,1.738,6.913,6.913,0,0,0-.359,2.176,2.585,2.585,0,0,0,.223,1.215.784.784,0,0,0,.746.4,1.515,1.515,0,0,0,1.012-.445,6.2,6.2,0,0,0,1.023-1.27,5.537,5.537,0,0,0,.746-1.9Zm8.359,2.766a6.889,6.889,0,0,1-1.422,1.6,2.32,2.32,0,0,1-1.422.508,1.552,1.552,0,0,1-1.332-.648,3.046,3.046,0,0,1-.473-1.82,6.524,6.524,0,0,1,.527-2.582,4.776,4.776,0,0,1,1.449-1.953,3.271,3.271,0,0,1,2.055-.715,3.723,3.723,0,0,1,.879.1,3.16,3.16,0,0,1,.824.34l.406-1.8q.062-.258.109-.57a3.747,3.747,0,0,0,.047-.547.612.612,0,0,0-.086-.355.482.482,0,0,0-.246-.176A2.467,2.467,0,0,0,315,6.3l.094-.406,1.961-.07h.461l-1.945,8.648a5.791,5.791,0,0,0-.172,1.156.787.787,0,0,0,.1.453.368.368,0,0,0,.32.141.869.869,0,0,0,.5-.191,5.489,5.489,0,0,0,.75-.73l.445.438a6.989,6.989,0,0,1-1.211,1.07,1.946,1.946,0,0,1-1.062.313.991.991,0,0,1-.773-.32,1.223,1.223,0,0,1-.289-.852,2.633,2.633,0,0,1,.18-.914Zm.523-2.766a5.219,5.219,0,0,0,.117-1.062,1.275,1.275,0,0,0-.258-.887,1.131,1.131,0,0,0-.859-.277,1.957,1.957,0,0,0-1.43.645,4.429,4.429,0,0,0-1,1.738,6.881,6.881,0,0,0-.363,2.18,2.585,2.585,0,0,0,.223,1.215.784.784,0,0,0,.746.4,1.26,1.26,0,0,0,.492-.105,1.986,1.986,0,0,0,.52-.34,4.054,4.054,0,0,0,.531-.57q.262-.336.48-.676a4.819,4.819,0,0,0,.406-.8,6.442,6.442,0,0,0,.32-1.121Zm6.688,4.891a2.515,2.515,0,0,1-1.879-.68,2.671,2.671,0,0,1-.668-1.953,6.588,6.588,0,0,1,.188-1.445,5.411,5.411,0,0,1,.813-1.937,3.916,3.916,0,0,1,1.406-1.27,3.871,3.871,0,0,1,1.836-.441,2.521,2.521,0,0,1,1.906.684,2.715,2.715,0,0,1,.656,1.957,6.62,6.62,0,0,1-.316,1.938,5.308,5.308,0,0,1-.867,1.734,3.568,3.568,0,0,1-1.316,1.059A4.131,4.131,0,0,1,321.469,17.133Zm-1.18-2.3a1.9,1.9,0,0,0,.355,1.27,1.345,1.345,0,0,0,1.074.41,1.761,1.761,0,0,0,1.359-.687,4.943,4.943,0,0,0,.938-1.926,8.276,8.276,0,0,0,.344-2.176,2.059,2.059,0,0,0-.328-1.27,1.211,1.211,0,0,0-1.023-.426,1.846,1.846,0,0,0-1.418.68,4.814,4.814,0,0,0-.953,1.945A8.426,8.426,0,0,0,320.289,14.836ZM337.844,12l-2.141.438,1.484,1.9-.859.594-1.219-2.07-1.234,2.07-.859-.594,1.484-1.9L332.344,12l.352-.977,2.047.773-.18-2.375h1.078l-.18,2.375,2.055-.773Zm6.8.383a12.079,12.079,0,0,1,.473-3.391,9.849,9.849,0,0,1,1.41-2.953,6,6,0,0,1,1.945-1.875l.3.953a6.222,6.222,0,0,0-1.871,2.672,11.583,11.583,0,0,0-.8,4.023l-.008.664a11.643,11.643,0,0,0,1.1,5.234,6.252,6.252,0,0,0,1.578,2.078l-.3.883a6.192,6.192,0,0,1-1.984-1.937A10.859,10.859,0,0,1,344.641,12.383ZM354.766,17h-1.453V7.367L350.4,8.438V7.125l4.141-1.555h.227Zm12.484-6.1h3.172v1.367H367.25v3.594H365.8V12.266h-3.172V10.9H365.8V7.578h1.453ZM380.742,17h-1.453V7.367l-2.914,1.07V7.125l4.141-1.555h.227Zm4.9-5.7.578-5.672h5.828V6.961h-4.6l-.344,3.1A3.671,3.671,0,0,1,389,9.57a3.138,3.138,0,0,1,2.469,1.027,4.026,4.026,0,0,1,.914,2.777,3.886,3.886,0,0,1-.949,2.77,3.46,3.46,0,0,1-2.652,1.012,3.6,3.6,0,0,1-2.461-.836,3.337,3.337,0,0,1-1.086-2.312H386.6a2.3,2.3,0,0,0,.7,1.473,2.162,2.162,0,0,0,1.484.5,1.95,1.95,0,0,0,1.582-.687,2.874,2.874,0,0,0,.574-1.9,2.638,2.638,0,0,0-.621-1.832,2.113,2.113,0,0,0-1.652-.691,2.383,2.383,0,0,0-1.484.414l-.383.313Zm8.2-3.484a2.308,2.308,0,0,1,.652-1.687,2.451,2.451,0,0,1,3.359,0,2.388,2.388,0,0,1,.645,1.73v.555a2.278,2.278,0,0,1-.652,1.684,2.249,2.249,0,0,1-1.66.652,2.3,2.3,0,0,1-1.68-.652,2.326,2.326,0,0,1-.664-1.738Zm1.078.6a1.478,1.478,0,0,0,.344,1.006,1.16,1.16,0,0,0,.922.4,1.137,1.137,0,0,0,.895-.384,1.527,1.527,0,0,0,.34-1.049V7.808a1.515,1.515,0,0,0-.336-1.01,1.246,1.246,0,0,0-1.828,0,1.563,1.563,0,0,0-.336,1.041Zm4.461,5.8a2.3,2.3,0,0,1,.652-1.684,2.467,2.467,0,0,1,3.355,0,2.355,2.355,0,0,1,.656,1.742v.555a2.3,2.3,0,0,1-.652,1.684,2.244,2.244,0,0,1-1.668.66,2.3,2.3,0,0,1-1.68-.652,2.326,2.326,0,0,1-.664-1.738Zm1.078.606a1.49,1.49,0,0,0,.344,1.014,1.16,1.16,0,0,0,.922.4,1.129,1.129,0,0,0,.9-.388,1.553,1.553,0,0,0,.336-1.053v-.579a1.485,1.485,0,0,0-.34-1.01,1.249,1.249,0,0,0-1.812,0,1.508,1.508,0,0,0-.348,1.045Zm-3.945,1.323-.82-.516,5.555-8.891.82.516Zm12.656-3.68a12.084,12.084,0,0,1-.457,3.34,9.876,9.876,0,0,1-1.4,2.949,6.127,6.127,0,0,1-1.973,1.922l-.3-.883a6.281,6.281,0,0,0,1.934-2.863,12.387,12.387,0,0,0,.746-4.309v-.25a12.862,12.862,0,0,0-.344-3.051,10.3,10.3,0,0,0-.957-2.527,5.838,5.838,0,0,0-1.379-1.742l.3-.883A6.1,6.1,0,0,1,407.3,6.07a9.9,9.9,0,0,1,1.4,2.945A12.363,12.363,0,0,1,409.164,12.461Zm12.8-1.82h-6.516V9.383h6.516Zm0,3.242h-6.516v-1.25h6.516ZM435.4,17h-7.453V15.961l3.938-4.375a9.353,9.353,0,0,0,1.207-1.613,2.693,2.693,0,0,0,.332-1.285,2.041,2.041,0,0,0-.539-1.461,1.885,1.885,0,0,0-1.437-.57,2.232,2.232,0,0,0-1.676.613,2.343,2.343,0,0,0-.6,1.707h-1.445a3.355,3.355,0,0,1,1.012-2.539,3.751,3.751,0,0,1,2.707-.969,3.6,3.6,0,0,1,2.508.832,2.838,2.838,0,0,1,.922,2.215q0,1.68-2.141,4l-3.047,3.3H435.4Zm1.711-.758a.905.905,0,0,1,.223-.625.848.848,0,0,1,.668-.25.874.874,0,0,1,.676.25.887.887,0,0,1,.23.625.839.839,0,0,1-.23.6.89.89,0,0,1-.676.242.8.8,0,0,1-.891-.844Zm9.7-10.625V6.844h-.266a3.805,3.805,0,0,0-2.687,1A4.161,4.161,0,0,0,442.7,10.57a3.085,3.085,0,0,1,2.453-1.031,2.95,2.95,0,0,1,2.371,1.047,4.038,4.038,0,0,1,.887,2.7,4.025,4.025,0,0,1-.957,2.813,3.3,3.3,0,0,1-2.566,1.055,3.247,3.247,0,0,1-2.648-1.254,4.97,4.97,0,0,1-1.016-3.23v-.555a7.488,7.488,0,0,1,1.34-4.8,4.921,4.921,0,0,1,3.988-1.7Zm-1.9,5.125A2.429,2.429,0,0,0,442.68,12.3v.531a3.731,3.731,0,0,0,.633,2.266,1.9,1.9,0,0,0,1.578.859,1.838,1.838,0,0,0,1.535-.719,2.982,2.982,0,0,0,.559-1.883,2.983,2.983,0,0,0-.566-1.895A1.816,1.816,0,0,0,444.914,10.742Zm11.313,2.438H457.8v1.18h-1.578V17h-1.453V14.359h-5.18v-.852l5.094-7.883h1.539Zm-4.992,0h3.539V7.6l-.172.313Zm13.977,0h1.578v1.18h-1.578V17h-1.453V14.359h-5.18v-.852l5.094-7.883h1.539Zm-4.992,0h3.539V7.6l-.172.313ZM478.641,17.1V11.383q0-1.391.07-2.9h-.078l-4.18,8.617h-1.227l-.367-8.687a4.28,4.28,0,0,0-.137-.992,1.06,1.06,0,0,0-.285-.5.967.967,0,0,0-.508-.2l.086-.383h3.258l-.086.383a.872.872,0,0,0-.551.207.979.979,0,0,0-.277.5,3.94,3.94,0,0,0-.078.895v.266q0,.141.008.289l.07,3.055q.008.336.008,1.664l-.008,1.633h.078l4.32-8.891h1.18v5.211q0,1.289-.07,3.68h.078l3.164-6.117q.18-.344.379-.809a2.1,2.1,0,0,0,.2-.8q0-.656-.781-.781l.086-.383h3.2l-.086.383a1.165,1.165,0,0,0-.687.395,7.168,7.168,0,0,0-.875,1.355l-4.7,8.633ZM489.031,8.07a6.35,6.35,0,0,0,.188-1.156.513.513,0,0,0-.2-.461A1.455,1.455,0,0,0,488.3,6.3L488.4,5.9l1.977-.07h.453l-1.344,5.414.094.031a6.17,6.17,0,0,1,1.4-1.426,2.378,2.378,0,0,1,1.332-.441,1.454,1.454,0,0,1,1.117.418,1.633,1.633,0,0,1,.391,1.16,6.238,6.238,0,0,1-.227,1.4l-.508,2.047a5.872,5.872,0,0,0-.211,1.2.787.787,0,0,0,.1.453.368.368,0,0,0,.32.141.869.869,0,0,0,.5-.191,5.489,5.489,0,0,0,.75-.73l.445.438a6.9,6.9,0,0,1-1.23,1.086,2.017,2.017,0,0,1-1.082.3,1,1,0,0,1-.809-.359,1.4,1.4,0,0,1-.3-.93,6.463,6.463,0,0,1,.258-1.492l.336-1.352q.18-.727.242-1.09a3.574,3.574,0,0,0,.063-.566,1.305,1.305,0,0,0-.18-.785.7.7,0,0,0-.586-.23,1.3,1.3,0,0,0-.711.266,3.886,3.886,0,0,0-.82.809,6.384,6.384,0,0,0-.684,1.039,4.843,4.843,0,0,0-.4,1.184L488.375,17h-1.352ZM130.188,36l-2.141.438,1.484,1.9-.859.594-1.219-2.07-1.234,2.07-.859-.594,1.484-1.9L124.688,36l.352-.977,2.047.773-.18-2.375h1.078L127.8,35.8l2.055-.773Zm2.836.383a12.079,12.079,0,0,1,.473-3.391,9.85,9.85,0,0,1,1.41-2.953,6,6,0,0,1,1.945-1.875l.3.953a6.222,6.222,0,0,0-1.871,2.672,11.583,11.583,0,0,0-.8,4.023l-.008.664a11.643,11.643,0,0,0,1.1,5.234,6.252,6.252,0,0,0,1.578,2.078l-.3.883a6.192,6.192,0,0,1-1.984-1.937A10.859,10.859,0,0,1,133.023,36.383ZM143.148,41H141.7V31.367l-2.914,1.07V31.125l4.141-1.555h.227Zm8.523-6.1h3.172v1.367h-3.172v3.594h-1.453V36.266h-3.172V34.9h3.172v-3.32h1.453Zm11.914,1.25a6.61,6.61,0,0,1-.867,3.773,3.6,3.6,0,0,1-5.406.027,6.274,6.274,0,0,1-.906-3.605v-1.93a6.463,6.463,0,0,1,.867-3.727,3.668,3.668,0,0,1,5.422-.043,6.237,6.237,0,0,1,.891,3.629Zm-1.445-1.977a5.3,5.3,0,0,0-.516-2.676,1.775,1.775,0,0,0-1.633-.84,1.751,1.751,0,0,0-1.617.836,5.171,5.171,0,0,0-.523,2.57v2.313a5.381,5.381,0,0,0,.535,2.723,1.771,1.771,0,0,0,1.621.879,1.747,1.747,0,0,0,1.59-.828,5.186,5.186,0,0,0,.543-2.609Zm3.4,9.094-.82-.562a3.77,3.77,0,0,0,.766-2.109v-1.3H166.9v1.133A3.559,3.559,0,0,1,166.512,42,3.7,3.7,0,0,1,165.539,43.266ZM173.328,41h-1.453V31.367l-2.914,1.07V31.125L173.1,29.57h.227Zm4.9-5.7.578-5.672h5.828v1.336h-4.6l-.344,3.1a3.671,3.671,0,0,1,1.9-.492,3.138,3.138,0,0,1,2.469,1.027,4.026,4.026,0,0,1,.914,2.777,3.886,3.886,0,0,1-.949,2.77,3.46,3.46,0,0,1-2.652,1.012,3.6,3.6,0,0,1-2.461-.836,3.337,3.337,0,0,1-1.086-2.312h1.367a2.3,2.3,0,0,0,.7,1.473,2.162,2.162,0,0,0,1.484.5,1.95,1.95,0,0,0,1.582-.687,2.874,2.874,0,0,0,.574-1.9,2.638,2.638,0,0,0-.621-1.832,2.113,2.113,0,0,0-1.652-.691,2.383,2.383,0,0,0-1.484.414l-.383.313Zm11.8,1.164a12.085,12.085,0,0,1-.457,3.34,9.876,9.876,0,0,1-1.4,2.949,6.127,6.127,0,0,1-1.973,1.922l-.3-.883a6.281,6.281,0,0,0,1.934-2.863,12.387,12.387,0,0,0,.746-4.309v-.25a12.861,12.861,0,0,0-.344-3.051,10.3,10.3,0,0,0-.957-2.527,5.838,5.838,0,0,0-1.379-1.742l.3-.883a6.1,6.1,0,0,1,1.965,1.906,9.9,9.9,0,0,1,1.4,2.945A12.364,12.364,0,0,1,190.031,36.461Zm12.8-1.82h-6.516V33.383h6.516Zm0,3.242h-6.516v-1.25h6.516Zm8.086-3.273H212a2.387,2.387,0,0,0,1.609-.539,1.8,1.8,0,0,0,.586-1.414,1.764,1.764,0,0,0-1.992-2,2.072,2.072,0,0,0-1.5.535,1.873,1.873,0,0,0-.559,1.418H208.7a2.9,2.9,0,0,1,.988-2.246,3.6,3.6,0,0,1,2.512-.895,3.558,3.558,0,0,1,2.523.852,3.076,3.076,0,0,1,.914,2.367,2.5,2.5,0,0,1-.48,1.438,2.9,2.9,0,0,1-1.309,1.039,2.8,2.8,0,0,1,1.449.984,2.734,2.734,0,0,1,.512,1.68,3.1,3.1,0,0,1-1,2.43,3.745,3.745,0,0,1-2.6.9,3.844,3.844,0,0,1-2.605-.867,2.877,2.877,0,0,1-1-2.289h1.453a1.859,1.859,0,0,0,.586,1.438,2.229,2.229,0,0,0,1.57.539,2.187,2.187,0,0,0,1.6-.547,2.108,2.108,0,0,0,.555-1.57,1.912,1.912,0,0,0-.609-1.523A2.655,2.655,0,0,0,212,35.789h-1.086Zm7.063,5.633a.905.905,0,0,1,.223-.625.848.848,0,0,1,.668-.25.874.874,0,0,1,.676.25.887.887,0,0,1,.23.625.839.839,0,0,1-.23.6.89.89,0,0,1-.676.242.8.8,0,0,1-.891-.844Zm11.164-4.094a6.61,6.61,0,0,1-.867,3.773,3.6,3.6,0,0,1-5.406.027,6.274,6.274,0,0,1-.906-3.605v-1.93a6.463,6.463,0,0,1,.867-3.727,3.668,3.668,0,0,1,5.422-.043,6.237,6.237,0,0,1,.891,3.629ZM227.7,34.172a5.3,5.3,0,0,0-.516-2.676,1.775,1.775,0,0,0-1.633-.84,1.751,1.751,0,0,0-1.617.836,5.171,5.171,0,0,0-.523,2.57v2.313a5.381,5.381,0,0,0,.535,2.723,1.771,1.771,0,0,0,1.621.879,1.747,1.747,0,0,0,1.59-.828,5.186,5.186,0,0,0,.543-2.609Zm9.4,3.008h1.578v1.18h-1.578V41h-1.453V38.359h-5.18v-.852l5.094-7.883h1.539Zm-4.992,0h3.539V31.6l-.172.313Zm15.008-1.031a6.61,6.61,0,0,1-.867,3.773,3.6,3.6,0,0,1-5.406.027,6.274,6.274,0,0,1-.906-3.605v-1.93a6.463,6.463,0,0,1,.867-3.727,3.668,3.668,0,0,1,5.422-.043,6.237,6.237,0,0,1,.891,3.629Zm-1.445-1.977a5.3,5.3,0,0,0-.516-2.676,1.775,1.775,0,0,0-1.633-.84,1.751,1.751,0,0,0-1.617.836,5.171,5.171,0,0,0-.523,2.57v2.313a5.381,5.381,0,0,0,.535,2.723,1.771,1.771,0,0,0,1.621.879,1.747,1.747,0,0,0,1.59-.828,5.186,5.186,0,0,0,.543-2.609Zm3.4,9.094-.82-.562a3.77,3.77,0,0,0,.766-2.109v-1.3h1.414v1.133A3.559,3.559,0,0,1,250.035,42,3.7,3.7,0,0,1,249.063,43.266Zm8.711-13.648v1.227h-.266a3.805,3.805,0,0,0-2.687,1,4.161,4.161,0,0,0-1.156,2.727,3.085,3.085,0,0,1,2.453-1.031,2.95,2.95,0,0,1,2.371,1.047,4.038,4.038,0,0,1,.887,2.7,4.025,4.025,0,0,1-.957,2.813,3.3,3.3,0,0,1-2.566,1.055A3.247,3.247,0,0,1,253.2,39.9a4.97,4.97,0,0,1-1.016-3.23v-.555a7.488,7.488,0,0,1,1.34-4.8,4.921,4.921,0,0,1,3.988-1.7Zm-1.9,5.125a2.429,2.429,0,0,0-2.234,1.563v.531a3.731,3.731,0,0,0,.633,2.266,1.9,1.9,0,0,0,1.578.859,1.838,1.838,0,0,0,1.535-.719,3.452,3.452,0,0,0-.008-3.777A1.816,1.816,0,0,0,255.875,34.742ZM271.633,41.1V35.383q0-1.391.07-2.9h-.078l-4.18,8.617h-1.227l-.367-8.687a4.28,4.28,0,0,0-.137-.992,1.06,1.06,0,0,0-.285-.5.967.967,0,0,0-.508-.2l.086-.383h3.258l-.086.383a.872.872,0,0,0-.551.207.979.979,0,0,0-.277.5,3.94,3.94,0,0,0-.078.895v.266q0,.141.008.289l.07,3.055q.008.336.008,1.664l-.008,1.633h.078l4.32-8.891h1.18v5.211q0,1.289-.07,3.68h.078l3.164-6.117q.18-.344.379-.809a2.1,2.1,0,0,0,.2-.8q0-.656-.781-.781l.086-.383h3.2l-.086.383a1.165,1.165,0,0,0-.687.395,7.168,7.168,0,0,0-.875,1.355l-4.7,8.633Zm10.391-9.031a6.35,6.35,0,0,0,.188-1.156.513.513,0,0,0-.2-.461,1.455,1.455,0,0,0-.715-.148l.094-.406,1.977-.07h.453l-1.344,5.414.094.031a6.17,6.17,0,0,1,1.4-1.426,2.378,2.378,0,0,1,1.332-.441,1.454,1.454,0,0,1,1.117.418,1.633,1.633,0,0,1,.391,1.16,6.238,6.238,0,0,1-.227,1.4l-.508,2.047a5.872,5.872,0,0,0-.211,1.2.787.787,0,0,0,.1.453.368.368,0,0,0,.32.141.869.869,0,0,0,.5-.191,5.489,5.489,0,0,0,.75-.73l.445.438a6.9,6.9,0,0,1-1.23,1.086,2.017,2.017,0,0,1-1.082.3,1,1,0,0,1-.809-.359,1.4,1.4,0,0,1-.3-.93,6.463,6.463,0,0,1,.258-1.492l.336-1.352q.18-.727.242-1.09a3.574,3.574,0,0,0,.063-.566,1.305,1.305,0,0,0-.18-.785.7.7,0,0,0-.586-.23,1.3,1.3,0,0,0-.711.266,3.886,3.886,0,0,0-.82.809,6.384,6.384,0,0,0-.684,1.039,4.843,4.843,0,0,0-.4,1.184L281.367,41h-1.352Zm17.813,2.57H293.32V33.383h6.516Zm0,3.242H293.32v-1.25h6.516Zm8.086-3.273h1.086a2.387,2.387,0,0,0,1.609-.539,1.8,1.8,0,0,0,.586-1.414,1.764,1.764,0,0,0-1.992-2,2.072,2.072,0,0,0-1.5.535,1.873,1.873,0,0,0-.559,1.418h-1.445a2.9,2.9,0,0,1,.988-2.246,3.6,3.6,0,0,1,2.512-.895,3.558,3.558,0,0,1,2.523.852,3.076,3.076,0,0,1,.914,2.367,2.5,2.5,0,0,1-.48,1.438,2.9,2.9,0,0,1-1.309,1.039,2.8,2.8,0,0,1,1.449.984,2.734,2.734,0,0,1,.512,1.68,3.1,3.1,0,0,1-1,2.43,3.745,3.745,0,0,1-2.6.9,3.844,3.844,0,0,1-2.605-.867,2.877,2.877,0,0,1-1-2.289h1.453a1.859,1.859,0,0,0,.586,1.438,2.229,2.229,0,0,0,1.57.539,2.187,2.187,0,0,0,1.6-.547,2.108,2.108,0,0,0,.555-1.57,1.912,1.912,0,0,0-.609-1.523,2.655,2.655,0,0,0-1.758-.547h-1.086Zm6.984,8.656-.82-.562a3.77,3.77,0,0,0,.766-2.109v-1.3h1.414v1.133A3.559,3.559,0,0,1,315.879,42,3.7,3.7,0,0,1,314.906,43.266Zm10.172-7.117a6.61,6.61,0,0,1-.867,3.773,3.6,3.6,0,0,1-5.406.027,6.274,6.274,0,0,1-.906-3.605v-1.93a6.463,6.463,0,0,1,.867-3.727,3.668,3.668,0,0,1,5.422-.043,6.237,6.237,0,0,1,.891,3.629Zm-1.445-1.977a5.3,5.3,0,0,0-.516-2.676,1.775,1.775,0,0,0-1.633-.84,1.751,1.751,0,0,0-1.617.836,5.171,5.171,0,0,0-.523,2.57v2.313a5.381,5.381,0,0,0,.535,2.723,1.771,1.771,0,0,0,1.621.879,1.747,1.747,0,0,0,1.59-.828,5.186,5.186,0,0,0,.543-2.609Zm9.4,3.008h1.578v1.18h-1.578V41h-1.453V38.359H326.4v-.852l5.094-7.883h1.539Zm-4.992,0h3.539V31.6l-.172.313Zm15.008.609a1.5,1.5,0,0,0-.156-.422.389.389,0,0,0-.18-.156,1.129,1.129,0,0,0-.359-.039h-.539L341,41h-1.352l2.008-8.93q.1-.453.145-.707a2.728,2.728,0,0,0,.043-.449.513.513,0,0,0-.2-.461,1.455,1.455,0,0,0-.715-.148l.094-.406,1.977-.07h.453l-1.531,6.82h.25a2.373,2.373,0,0,0,1.316-.512,8.848,8.848,0,0,0,1.168-.949,1.238,1.238,0,0,0,.438-.844q0-.383-.531-.43l.086-.383h2.531l.148.383q-.648.586-1.375,1.148l-1.937,1.5.766,2.82a3.386,3.386,0,0,0,.168.52.648.648,0,0,0,.172.238.407.407,0,0,0,.262.078.847.847,0,0,0,.484-.219,4.78,4.78,0,0,0,.641-.633l.445.438a6.633,6.633,0,0,1-1.164,1.031,1.679,1.679,0,0,1-.891.289,1.166,1.166,0,0,1-.844-.3,2.109,2.109,0,0,1-.492-1ZM355.289,41.1V35.383q0-1.391.07-2.9h-.078L351.1,41.1h-1.227l-.367-8.687a4.28,4.28,0,0,0-.137-.992,1.06,1.06,0,0,0-.285-.5.967.967,0,0,0-.508-.2l.086-.383h3.258l-.086.383a.872.872,0,0,0-.551.207.979.979,0,0,0-.277.5,3.94,3.94,0,0,0-.078.895v.266q0,.141.008.289l.07,3.055q.008.336.008,1.664l-.008,1.633h.078l4.32-8.891h1.18v5.211q0,1.289-.07,3.68h.078l3.164-6.117q.18-.344.379-.809a2.1,2.1,0,0,0,.2-.8q0-.656-.781-.781l.086-.383h3.2l-.086.383a1.165,1.165,0,0,0-.687.395,7.168,7.168,0,0,0-.875,1.355l-4.7,8.633ZM365.68,32.07a6.35,6.35,0,0,0,.188-1.156.513.513,0,0,0-.2-.461,1.455,1.455,0,0,0-.715-.148l.094-.406,1.977-.07h.453l-1.344,5.414.094.031a6.17,6.17,0,0,1,1.4-1.426,2.378,2.378,0,0,1,1.332-.441,1.454,1.454,0,0,1,1.117.418,1.633,1.633,0,0,1,.391,1.16,6.238,6.238,0,0,1-.227,1.4l-.508,2.047a5.872,5.872,0,0,0-.211,1.2.787.787,0,0,0,.1.453.368.368,0,0,0,.32.141.869.869,0,0,0,.5-.191,5.489,5.489,0,0,0,.75-.73l.445.438a6.9,6.9,0,0,1-1.23,1.086,2.017,2.017,0,0,1-1.082.3,1,1,0,0,1-.809-.359,1.4,1.4,0,0,1-.3-.93,6.463,6.463,0,0,1,.258-1.492l.336-1.352q.18-.727.242-1.09a3.574,3.574,0,0,0,.063-.566,1.305,1.305,0,0,0-.18-.785.7.7,0,0,0-.586-.23,1.3,1.3,0,0,0-.711.266,3.886,3.886,0,0,0-.82.809,6.384,6.384,0,0,0-.684,1.039,4.843,4.843,0,0,0-.4,1.184L365.023,41h-1.352Zm13.984,3.844h-6.523v-1.18h6.523Zm6.773,3.094a6.889,6.889,0,0,1-1.422,1.6,2.32,2.32,0,0,1-1.422.508,1.552,1.552,0,0,1-1.332-.648,3.046,3.046,0,0,1-.473-1.82,6.524,6.524,0,0,1,.527-2.582,4.776,4.776,0,0,1,1.449-1.953,3.271,3.271,0,0,1,2.055-.715,3.723,3.723,0,0,1,.879.1,3.161,3.161,0,0,1,.824.34l.406-1.8q.062-.258.109-.57a3.747,3.747,0,0,0,.047-.547.612.612,0,0,0-.086-.355.482.482,0,0,0-.246-.176,2.467,2.467,0,0,0-.574-.078l.094-.406,1.961-.07h.461l-1.945,8.648a5.791,5.791,0,0,0-.172,1.156.787.787,0,0,0,.1.453.368.368,0,0,0,.32.141.869.869,0,0,0,.5-.191,5.489,5.489,0,0,0,.75-.73l.445.438a6.989,6.989,0,0,1-1.211,1.07,1.946,1.946,0,0,1-1.062.313.991.991,0,0,1-.773-.32,1.223,1.223,0,0,1-.289-.852,2.633,2.633,0,0,1,.18-.914Zm.523-2.766a5.219,5.219,0,0,0,.117-1.062,1.275,1.275,0,0,0-.258-.887,1.131,1.131,0,0,0-.859-.277,1.957,1.957,0,0,0-1.43.645,4.429,4.429,0,0,0-1,1.738,6.881,6.881,0,0,0-.363,2.18,2.585,2.585,0,0,0,.223,1.215.784.784,0,0,0,.746.4,1.26,1.26,0,0,0,.492-.105,1.986,1.986,0,0,0,.52-.34,4.054,4.054,0,0,0,.531-.57q.262-.336.48-.676a4.819,4.819,0,0,0,.406-.8,6.442,6.442,0,0,0,.32-1.121ZM392.906,41h-1.453V32.547h1.453Zm.016-11.992h1.75l-2.094,2.3-1.164,0Zm7.984,4.906.719-.516.5.125-1.148,4.953a5.5,5.5,0,0,0-.172,1.156.787.787,0,0,0,.1.453.368.368,0,0,0,.32.141.869.869,0,0,0,.5-.191,5.489,5.489,0,0,0,.75-.73l.445.438a6.8,6.8,0,0,1-1.2,1.066,1.96,1.96,0,0,1-1.074.316.991.991,0,0,1-.773-.32,1.223,1.223,0,0,1-.289-.852,2.633,2.633,0,0,1,.18-.914l-.1-.031a6.889,6.889,0,0,1-1.422,1.6,2.32,2.32,0,0,1-1.422.508,1.552,1.552,0,0,1-1.332-.648,3.046,3.046,0,0,1-.473-1.82,6.524,6.524,0,0,1,.527-2.582,4.776,4.776,0,0,1,1.449-1.953,3.271,3.271,0,0,1,2.055-.715,3.809,3.809,0,0,1,.949.113A3.318,3.318,0,0,1,400.906,33.914Zm-.687,2.328a4.931,4.931,0,0,0,.094-.555q.023-.234.023-.508a1.277,1.277,0,0,0-.258-.883,1.145,1.145,0,0,0-.875-.281,1.985,1.985,0,0,0-1.445.648,4.377,4.377,0,0,0-1,1.738,6.913,6.913,0,0,0-.359,2.176,2.585,2.585,0,0,0,.223,1.215.784.784,0,0,0,.746.4,1.515,1.515,0,0,0,1.012-.445,6.2,6.2,0,0,0,1.023-1.27,5.537,5.537,0,0,0,.746-1.9Z" transform="translate(330 9561)" fill="#12263f"/>
      <g id="Grupo_936370" data-name="Grupo 936370" transform="translate(602.813 9308.271)">
        <path id="Trazado_677912" data-name="Trazado 677912" d="M468.923,310.057c0,1.878-48.294,3.4-107.866,3.4s-107.87-1.523-107.87-3.4,48.295-3.4,107.87-3.4S468.923,308.179,468.923,310.057Z" fill="#90cc3a"/>
        <g id="Grupo_936201" data-name="Grupo 936201">
          <g id="Grupo_936200" data-name="Grupo 936200">
            <g id="Grupo_936199" data-name="Grupo 936199">
              <g id="Grupo_936198" data-name="Grupo 936198">
                <g id="Grupo_936197" data-name="Grupo 936197">
                  <path id="Trazado_677913" data-name="Trazado 677913" d="M266.565,286.834l.353-.33L268.327,288a1.117,1.117,0,0,0,1.57.051l1.2-1.122a1.594,1.594,0,0,1,2.259.081l.927,1a1.118,1.118,0,0,0,1.588.046l1.051-1.011a1.6,1.6,0,0,1,2.328.124l.574.682a1.117,1.117,0,0,0,1.692.017l1.275-1.454.361.319-1.272,1.455a1.6,1.6,0,0,1-2.426-.028l-.57-.681a1.115,1.115,0,0,0-1.627-.086l-1.054,1.01a1.593,1.593,0,0,1-2.273-.064l-.926-1a1.113,1.113,0,0,0-.778-.355,1.1,1.1,0,0,0-.8.3l-1.2,1.121a1.6,1.6,0,0,1-2.251-.072Z" fill="#ffb502"/>
                </g>
              </g>
            </g>
          </g>
        </g>
        <g id="Grupo_936232" data-name="Grupo 936232">
          <g id="Grupo_936216" data-name="Grupo 936216">
            <g id="Grupo_936203" data-name="Grupo 936203">
              <g id="Grupo_936202" data-name="Grupo 936202">
                <rect id="Rectángulo_329502" data-name="Rectángulo 329502" width="0.71" height="1.688" transform="translate(340.103 277.731) rotate(-0.073)" fill="#848fb7"/>
              </g>
            </g>
            <g id="Grupo_936205" data-name="Grupo 936205">
              <g id="Grupo_936204" data-name="Grupo 936204">
                <path id="Trazado_677914" data-name="Trazado 677914" d="M340.81,275.217H340.1l0,1.689h.71Z" fill="#848fb7"/>
              </g>
            </g>
            <g id="Grupo_936207" data-name="Grupo 936207">
              <g id="Grupo_936206" data-name="Grupo 936206">
                <rect id="Rectángulo_329503" data-name="Rectángulo 329503" width="0.71" height="1.689" transform="translate(340.097 272.703) rotate(-0.081)" fill="#848fb7"/>
              </g>
            </g>
            <g id="Grupo_936209" data-name="Grupo 936209">
              <g id="Grupo_936208" data-name="Grupo 936208">
                <rect id="Rectángulo_329504" data-name="Rectángulo 329504" width="0.71" height="1.687" transform="translate(340.096 270.189)" fill="#848fb7"/>
              </g>
            </g>
            <g id="Grupo_936211" data-name="Grupo 936211">
              <g id="Grupo_936210" data-name="Grupo 936210">
                <rect id="Rectángulo_329505" data-name="Rectángulo 329505" width="0.711" height="1.689" transform="translate(340.092 267.674) rotate(-0.073)" fill="#848fb7"/>
              </g>
            </g>
            <g id="Grupo_936213" data-name="Grupo 936213">
              <g id="Grupo_936212" data-name="Grupo 936212">
                <rect id="Rectángulo_329506" data-name="Rectángulo 329506" width="0.71" height="1.688" transform="translate(340.089 265.159) rotate(-0.081)" fill="#848fb7"/>
              </g>
            </g>
            <g id="Grupo_936215" data-name="Grupo 936215">
              <g id="Grupo_936214" data-name="Grupo 936214">
                <rect id="Rectángulo_329507" data-name="Rectángulo 329507" width="0.711" height="1.688" transform="translate(340.087 262.646)" fill="#848fb7"/>
              </g>
            </g>
          </g>
          <g id="Grupo_936231" data-name="Grupo 936231">
            <g id="Grupo_936218" data-name="Grupo 936218">
              <g id="Grupo_936217" data-name="Grupo 936217">
                <rect id="Rectángulo_329508" data-name="Rectángulo 329508" width="0.71" height="1.688" transform="translate(340.083 260.13)" fill="#848fb7"/>
              </g>
            </g>
            <g id="Grupo_936220" data-name="Grupo 936220">
              <g id="Grupo_936219" data-name="Grupo 936219">
                <path id="Trazado_677915" data-name="Trazado 677915" d="M340.791,257.616h-.71l0,1.688h.71Z" fill="#848fb7"/>
              </g>
            </g>
            <g id="Grupo_936222" data-name="Grupo 936222">
              <g id="Grupo_936221" data-name="Grupo 936221">
                <rect id="Rectángulo_329509" data-name="Rectángulo 329509" width="0.71" height="1.688" transform="translate(340.077 255.102) rotate(-0.08)" fill="#848fb7"/>
              </g>
            </g>
            <g id="Grupo_936224" data-name="Grupo 936224">
              <g id="Grupo_936223" data-name="Grupo 936223">
                <rect id="Rectángulo_329510" data-name="Rectángulo 329510" width="0.71" height="1.688" transform="matrix(1, -0.003, 0.003, 1, 340.074, 252.588)" fill="#848fb7"/>
              </g>
            </g>
            <g id="Grupo_936226" data-name="Grupo 936226">
              <g id="Grupo_936225" data-name="Grupo 936225">
                <rect id="Rectángulo_329511" data-name="Rectángulo 329511" width="0.71" height="1.688" transform="translate(340.073 250.072)" fill="#848fb7"/>
              </g>
            </g>
            <g id="Grupo_936228" data-name="Grupo 936228">
              <g id="Grupo_936227" data-name="Grupo 936227">
                <rect id="Rectángulo_329512" data-name="Rectángulo 329512" width="0.709" height="1.688" transform="translate(340.07 247.559) rotate(-0.121)" fill="#848fb7"/>
              </g>
            </g>
            <g id="Grupo_936230" data-name="Grupo 936230">
              <g id="Grupo_936229" data-name="Grupo 936229">
                <rect id="Rectángulo_329513" data-name="Rectángulo 329513" width="0.711" height="1.688" transform="translate(340.067 245.044)" fill="#848fb7"/>
              </g>
            </g>
          </g>
        </g>
        <g id="Grupo_936238" data-name="Grupo 936238">
          <g id="Grupo_936234" data-name="Grupo 936234">
            <g id="Grupo_936233" data-name="Grupo 936233">
              <path id="Trazado_677916" data-name="Trazado 677916" d="M440.985,264.53a5.678,5.678,0,1,1-5.427-5.919A5.664,5.664,0,0,1,440.985,264.53Z" fill="#cbe9f4"/>
            </g>
          </g>
          <g id="Grupo_936235" data-name="Grupo 936235">
            <path id="Trazado_677917" data-name="Trazado 677917" d="M455.06,261.13a7.685,7.685,0,0,1-2.379-6.593c.222-1.433,4.255-3.93,4.255-3.93l-6.017-6.54s-2.823,3.828-4.267,3.926a7.209,7.209,0,0,1-6.049-2.816c-.854-1.173.251-5.788.251-5.788l-8.888-.382s.7,4.7-.248,5.787a6.173,6.173,0,0,1-5.557,1.891c-1.423-.284-3.723-4.433-3.723-4.433l-6.809,5.721s3.685,2.987,3.724,4.429a8.172,8.172,0,0,1-3.266,6.557c-1.182.842-5.792-.322-5.792-.322l-.5,8.883s4.7-.647,5.772.315a7.708,7.708,0,0,1,2.383,6.6c-.22,1.431-4.261,3.927-4.261,3.927l6.018,6.539s2.821-3.823,4.268-3.923a7.253,7.253,0,0,1,6.055,2.815c.853,1.176-.245,5.786-.245,5.786l8.882.384s-.7-4.695.242-5.786a6.19,6.19,0,0,1,5.566-1.891c1.417.287,3.72,4.432,3.72,4.432l6.807-5.72s-3.682-2.987-3.727-4.432a8.2,8.2,0,0,1,3.27-6.556c1.181-.836,5.8.328,5.8.328l.491-8.881S456.143,262.092,455.06,261.13ZM434.686,279a14.728,14.728,0,1,1,15.349-14.078A14.726,14.726,0,0,1,434.686,279Z" fill="#cbe9f4"/>
          </g>
          <g id="Grupo_936237" data-name="Grupo 936237">
            <g id="Grupo_936236" data-name="Grupo 936236">
              <path id="Trazado_677918" data-name="Trazado 677918" d="M446.566,264.969a11.254,11.254,0,1,1-10.758-11.733A11.248,11.248,0,0,1,446.566,264.969Z" fill="#cbe9f4"/>
            </g>
          </g>
        </g>
        <g id="Grupo_936291" data-name="Grupo 936291">
          <g id="Grupo_936239" data-name="Grupo 936239">
            <rect id="Rectángulo_329514" data-name="Rectángulo 329514" width="19.661" height="72.393" transform="translate(406.161 236.572)" fill="#64b4d7"/>
          </g>
          <g id="Grupo_936240" data-name="Grupo 936240">
            <rect id="Rectángulo_329515" data-name="Rectángulo 329515" width="34.714" height="72.393" transform="translate(371.447 236.572)" fill="#c1e4fa"/>
          </g>
          <g id="Grupo_936241" data-name="Grupo 936241">
            <rect id="Rectángulo_329516" data-name="Rectángulo 329516" width="9.229" height="15.568" transform="translate(411.376 290.053)" fill="#848fb7"/>
          </g>
          <g id="Grupo_936242" data-name="Grupo 936242">
            <rect id="Rectángulo_329517" data-name="Rectángulo 329517" width="6.95" height="0.676" transform="translate(412.517 291.713)" fill="#464f72"/>
          </g>
          <g id="Grupo_936243" data-name="Grupo 936243">
            <rect id="Rectángulo_329518" data-name="Rectángulo 329518" width="6.95" height="0.676" transform="translate(412.517 292.895)" fill="#464f72"/>
          </g>
          <g id="Grupo_936244" data-name="Grupo 936244">
            <rect id="Rectángulo_329519" data-name="Rectángulo 329519" width="6.95" height="0.678" transform="translate(412.517 294.104)" fill="#464f72"/>
          </g>
          <g id="Grupo_936245" data-name="Grupo 936245">
            <rect id="Rectángulo_329520" data-name="Rectángulo 329520" width="6.95" height="0.678" transform="translate(412.517 295.285)" fill="#464f72"/>
          </g>
          <g id="Grupo_936246" data-name="Grupo 936246">
            <rect id="Rectángulo_329521" data-name="Rectángulo 329521" width="6.95" height="0.676" transform="translate(412.517 296.49)" fill="#464f72"/>
          </g>
          <g id="Grupo_936247" data-name="Grupo 936247">
            <rect id="Rectángulo_329522" data-name="Rectángulo 329522" width="6.95" height="0.676" transform="translate(412.517 297.672)" fill="#464f72"/>
          </g>
          <g id="Grupo_936248" data-name="Grupo 936248">
            <rect id="Rectángulo_329523" data-name="Rectángulo 329523" width="6.95" height="0.676" transform="translate(412.517 298.881)" fill="#464f72"/>
          </g>
          <g id="Grupo_936249" data-name="Grupo 936249">
            <rect id="Rectángulo_329524" data-name="Rectángulo 329524" width="6.95" height="0.678" transform="translate(412.517 300.063)" fill="#464f72"/>
          </g>
          <g id="Grupo_936250" data-name="Grupo 936250">
            <rect id="Rectángulo_329525" data-name="Rectángulo 329525" width="6.95" height="0.678" transform="translate(412.517 301.5)" fill="#464f72"/>
          </g>
          <g id="Grupo_936251" data-name="Grupo 936251">
            <rect id="Rectángulo_329526" data-name="Rectángulo 329526" width="6.95" height="0.676" transform="translate(412.517 302.711)" fill="#464f72"/>
          </g>
          <g id="Grupo_936252" data-name="Grupo 936252">
            <rect id="Rectángulo_329527" data-name="Rectángulo 329527" width="6.95" height="0.678" transform="translate(412.517 303.893)" fill="#464f72"/>
          </g>
          <g id="Grupo_936256" data-name="Grupo 936256">
            <g id="Grupo_936253" data-name="Grupo 936253">
              <path id="Trazado_677919" data-name="Trazado 677919" d="M411.26,256.1h9.464l-4.732-9.465Z" fill="#6d76a1"/>
            </g>
            <g id="Grupo_936254" data-name="Grupo 936254">
              <path id="Trazado_677920" data-name="Trazado 677920" d="M419.808,255.455l-3.816-7.432-3.816,7.432Z" fill="#ffcf03"/>
            </g>
            <g id="Grupo_936255" data-name="Grupo 936255">
              <path id="Trazado_677921" data-name="Trazado 677921" d="M416.768,254.838l.072-3.355-.865,1.168-.234-2.953-.015,3.85.7-.973Z" fill="#6d76a1"/>
            </g>
          </g>
          <g id="Grupo_936257" data-name="Grupo 936257">
            <rect id="Rectángulo_329528" data-name="Rectángulo 329528" width="26.513" height="11.072" transform="translate(375.349 242.559)" fill="#6d76a1"/>
          </g>
          <g id="Grupo_936258" data-name="Grupo 936258">
            <rect id="Rectángulo_329529" data-name="Rectángulo 329529" width="19.209" height="5.537" transform="translate(376.7 243.865)" fill="#464f72"/>
          </g>
          <g id="Grupo_936259" data-name="Grupo 936259">
            <rect id="Rectángulo_329530" data-name="Rectángulo 329530" width="26.513" height="3.008" transform="translate(375.349 256.355)" fill="#6d76a1"/>
          </g>
          <g id="Grupo_936260" data-name="Grupo 936260">
            <rect id="Rectángulo_329531" data-name="Rectángulo 329531" width="1.985" height="11.019" transform="translate(399.876 262.943)" fill="#6d76a1"/>
          </g>
          <g id="Grupo_936261" data-name="Grupo 936261">
            <rect id="Rectángulo_329532" data-name="Rectángulo 329532" width="1.987" height="11.019" transform="translate(396.344 262.943)" fill="#6d76a1"/>
          </g>
          <g id="Grupo_936262" data-name="Grupo 936262">
            <rect id="Rectángulo_329533" data-name="Rectángulo 329533" width="1.985" height="11.019" transform="translate(392.813 262.943)" fill="#6d76a1"/>
          </g>
          <g id="Grupo_936263" data-name="Grupo 936263">
            <rect id="Rectángulo_329534" data-name="Rectángulo 329534" width="1.987" height="11.019" transform="translate(389.28 262.943)" fill="#6d76a1"/>
          </g>
          <g id="Grupo_936264" data-name="Grupo 936264">
            <rect id="Rectángulo_329535" data-name="Rectángulo 329535" width="1.987" height="11.019" transform="translate(386.301 262.943)" fill="#6d76a1"/>
          </g>
          <g id="Grupo_936265" data-name="Grupo 936265">
            <rect id="Rectángulo_329536" data-name="Rectángulo 329536" width="1.987" height="11.019" transform="translate(382.77 262.943)" fill="#6d76a1"/>
          </g>
          <g id="Grupo_936266" data-name="Grupo 936266">
            <rect id="Rectángulo_329537" data-name="Rectángulo 329537" width="1.985" height="11.019" transform="translate(379.239 262.943)" fill="#6d76a1"/>
          </g>
          <g id="Grupo_936267" data-name="Grupo 936267">
            <rect id="Rectángulo_329538" data-name="Rectángulo 329538" width="1.987" height="11.019" transform="translate(375.707 262.943)" fill="#6d76a1"/>
          </g>
          <g id="Grupo_936268" data-name="Grupo 936268">
            <rect id="Rectángulo_329539" data-name="Rectángulo 329539" width="0.25" height="22.014" transform="translate(376.575 272.768)" fill="#6d76a1"/>
          </g>
          <g id="Grupo_936269" data-name="Grupo 936269">
            <rect id="Rectángulo_329540" data-name="Rectángulo 329540" width="0.25" height="22.014" transform="translate(380.106 272.768)" fill="#6d76a1"/>
          </g>
          <g id="Grupo_936270" data-name="Grupo 936270">
            <rect id="Rectángulo_329541" data-name="Rectángulo 329541" width="0.25" height="22.014" transform="translate(383.638 272.768)" fill="#6d76a1"/>
          </g>
          <g id="Grupo_936271" data-name="Grupo 936271">
            <rect id="Rectángulo_329542" data-name="Rectángulo 329542" width="0.25" height="22.014" transform="translate(387.17 272.768)" fill="#6d76a1"/>
          </g>
          <g id="Grupo_936272" data-name="Grupo 936272">
            <rect id="Rectángulo_329543" data-name="Rectángulo 329543" width="0.25" height="22.014" transform="translate(390.149 272.768)" fill="#6d76a1"/>
          </g>
          <g id="Grupo_936273" data-name="Grupo 936273">
            <rect id="Rectángulo_329544" data-name="Rectángulo 329544" width="0.25" height="22.014" transform="translate(393.681 272.768)" fill="#6d76a1"/>
          </g>
          <g id="Grupo_936274" data-name="Grupo 936274">
            <rect id="Rectángulo_329545" data-name="Rectángulo 329545" width="0.25" height="22.014" transform="translate(397.212 272.768)" fill="#6d76a1"/>
          </g>
          <g id="Grupo_936275" data-name="Grupo 936275">
            <rect id="Rectángulo_329546" data-name="Rectángulo 329546" width="0.25" height="22.014" transform="translate(400.743 272.768)" fill="#6d76a1"/>
          </g>
          <g id="Grupo_936276" data-name="Grupo 936276">
            <rect id="Rectángulo_329547" data-name="Rectángulo 329547" width="26.513" height="1.334" transform="translate(375.349 294.543)" fill="#6d76a1"/>
          </g>
          <g id="Grupo_936277" data-name="Grupo 936277">
            <path id="Trazado_677922" data-name="Trazado 677922" d="M400.956,264.272l-.015-1.93a.9.9,0,0,0-.257-.627.738.738,0,0,0-.519-.219h-.006l-3.307.026a1.2,1.2,0,0,1-.862-.375,1.308,1.308,0,0,1-.354-.895l-.018-2.4.5,0,.018,2.394a.813.813,0,0,0,.217.555.676.676,0,0,0,.491.219h.005l3.306-.026h.011a1.24,1.24,0,0,1,.869.361,1.4,1.4,0,0,1,.406.981l.015,1.93Z" fill="#6d76a1"/>
          </g>
          <g id="Grupo_936278" data-name="Grupo 936278">
            <path id="Trazado_677923" data-name="Trazado 677923" d="M393.826,264.27l-.014-1.932a.887.887,0,0,0-.238-.607.733.733,0,0,0-.538-.239h-.007l-3.3.026h-.011a1.168,1.168,0,0,1-.853-.375,1.312,1.312,0,0,1-.354-.893l-.017-2.4.5,0,.017,2.4a.808.808,0,0,0,.218.553.666.666,0,0,0,.5.219l3.3-.026h.011a1.235,1.235,0,0,1,.9.395,1.379,1.379,0,0,1,.375.947l.014,1.932Z" fill="#6d76a1"/>
          </g>
          <g id="Grupo_936279" data-name="Grupo 936279">
            <path id="Trazado_677924" data-name="Trazado 677924" d="M387.13,264.268l-.014-1.932a.787.787,0,0,0-.694-.846h0l-3.031.024h-.008a1.051,1.051,0,0,1-.741-.315,1.358,1.358,0,0,1-.389-.955l-.019-2.394.5,0,.019,2.394a.862.862,0,0,0,.239.6.555.555,0,0,0,.391.17h0l3.031-.024h.008a1.282,1.282,0,0,1,1.194,1.342l.014,1.932Z" fill="#6d76a1"/>
          </g>
          <g id="Grupo_936280" data-name="Grupo 936280">
            <path id="Trazado_677925" data-name="Trazado 677925" d="M380.21,264.27l-.014-1.93a1.078,1.078,0,0,0-.194-.629.5.5,0,0,0-.374-.217h0l-2.625.018h-.008a.893.893,0,0,1-.623-.27,1.412,1.412,0,0,1-.388-1l-.019-2.394.5,0,.019,2.394a.927.927,0,0,0,.24.649.4.4,0,0,0,.272.125h0l2.625-.018h.008a.976.976,0,0,1,.772.416,1.566,1.566,0,0,1,.3.926l.014,1.93Z" fill="#6d76a1"/>
          </g>
          <g id="Grupo_936281" data-name="Grupo 936281">
            <rect id="Rectángulo_329548" data-name="Rectángulo 329548" width="26.513" height="4.17" transform="translate(375.349 298.008)" fill="#6d76a1"/>
          </g>
          <g id="Grupo_936282" data-name="Grupo 936282">
            <rect id="Rectángulo_329549" data-name="Rectángulo 329549" width="1.985" height="2.867" transform="translate(399.876 278.391)" fill="#6d76a1"/>
          </g>
          <g id="Grupo_936283" data-name="Grupo 936283">
            <rect id="Rectángulo_329550" data-name="Rectángulo 329550" width="1.987" height="2.867" transform="translate(396.344 286.512)" fill="#6d76a1"/>
          </g>
          <g id="Grupo_936284" data-name="Grupo 936284">
            <rect id="Rectángulo_329551" data-name="Rectángulo 329551" width="1.985" height="2.865" transform="translate(392.813 279.824)" fill="#6d76a1"/>
          </g>
          <g id="Grupo_936285" data-name="Grupo 936285">
            <rect id="Rectángulo_329552" data-name="Rectángulo 329552" width="1.986" height="2.867" transform="translate(389.281 290.617)" fill="#6d76a1"/>
          </g>
          <g id="Grupo_936286" data-name="Grupo 936286">
            <rect id="Rectángulo_329553" data-name="Rectángulo 329553" width="1.987" height="2.867" transform="translate(386.301 276.957)" fill="#6d76a1"/>
          </g>
          <g id="Grupo_936287" data-name="Grupo 936287">
            <rect id="Rectángulo_329554" data-name="Rectángulo 329554" width="1.987" height="2.867" transform="translate(379.467 278.391)" fill="#6d76a1"/>
          </g>
          <g id="Grupo_936288" data-name="Grupo 936288">
            <rect id="Rectángulo_329555" data-name="Rectángulo 329555" width="1.987" height="2.867" transform="translate(375.707 289.184)" fill="#6d76a1"/>
          </g>
          <g id="Grupo_936289" data-name="Grupo 936289">
            <rect id="Rectángulo_329556" data-name="Rectángulo 329556" width="1.272" height="17.498" transform="translate(405.205 243.557)" fill="#c1e4fa"/>
          </g>
          <g id="Grupo_936290" data-name="Grupo 936290">
            <rect id="Rectángulo_329557" data-name="Rectángulo 329557" width="1.272" height="17.5" transform="translate(405.205 283.684)" fill="#c1e4fa"/>
          </g>
        </g>
        <g id="Grupo_936294" data-name="Grupo 936294">
          <g id="Grupo_936292" data-name="Grupo 936292">
            <path id="Trazado_677926" data-name="Trazado 677926" d="M361.732,260.752a2.715,2.715,0,0,1,3.189-.605c1.893,1.017,4.315,4.671,7.279,4.576s3.91-1.875,4.7-2.977.573-1.916,1.1-2.508,1.2.061.374,2.137c-.4.994-1.769,6.131-5.282,6.9C368.486,269.289,359.7,263.418,361.732,260.752Z" fill="#fbc6b4"/>
          </g>
          <g id="Grupo_936293" data-name="Grupo 936293">
            <path id="Trazado_677927" data-name="Trazado 677927" d="M362.193,259.732s-1.77,1.553.467,4.252a18.676,18.676,0,0,0,3.586,3.569,9.046,9.046,0,0,0,3.85-4.037S364.372,257.188,362.193,259.732Z" fill="#eda503"/>
          </g>
        </g>
        <g id="Grupo_936295" data-name="Grupo 936295">
          <path id="Trazado_677928" data-name="Trazado 677928" d="M355.021,265.133a17.432,17.432,0,0,1,0,10.117c1.371.441.554,1.176.517,1.268-1.937,4.021,10.107,1.638,12.224-1.618.728-1.119.032-2.541.162-4.689.047-.484.059-.973.064-1.453a26.911,26.911,0,0,0-.4-5.815c-.946-4.437-5.119-4.654-7.659-4.3a10.418,10.418,0,0,0-3.813,1.033l-.006.01C354.766,260.5,354.045,261.522,355.021,265.133Z" fill="#ffb502"/>
        </g>
        <g id="Grupo_936296" data-name="Grupo 936296">
          <path id="Trazado_677929" data-name="Trazado 677929" d="M358.006,262.752c.52,2.2,2.382,8.93-2.985,12.295,0,0,8.886,6.506,13.97.877,0,0-1.022-9.6-2.443-13.416-.407-1.1-1.491-4.461-3.442-3.975,0,0,3.429,5.4,1.865,6.826s-3.041.229-3.732-.845a30.982,30.982,0,0,1-2.288-5.727l-2.074.528A22.334,22.334,0,0,1,358.006,262.752Z" fill="#1c2745"/>
        </g>
        <g id="Grupo_936300" data-name="Grupo 936300">
          <g id="Grupo_936297" data-name="Grupo 936297">
            <path id="Trazado_677930" data-name="Trazado 677930" d="M359.717,255.428s1.138,1.789-.073,2.98c-1.245,1.221,4.477,3.379,4.2,2.28-.355-1.418-1.2-2.176-.71-3.92Z" fill="#f7b2a0"/>
          </g>
          <g id="Grupo_936298" data-name="Grupo 936298">
            <path id="Trazado_677931" data-name="Trazado 677931" d="M362.289,251.416c1.376,1,3.343,5.9,2.2,7.188-.5.558-2.88.3-4.624-1.741a4.286,4.286,0,0,1-.977-4.3C359.212,251.723,360.692,250.258,362.289,251.416Z" fill="#fbc6b4"/>
          </g>
          <g id="Grupo_936299" data-name="Grupo 936299">
            <path id="Trazado_677932" data-name="Trazado 677932" d="M363.616,251.869c.352.6.293.758-1.587,1.3s-2.224.453-1.97.883c.746,1.271-.655,1.183.253,2.691s-.829.748-1.7-.47a3.656,3.656,0,0,1-.467-3.541C358.926,250.264,362.313,249.66,363.616,251.869Z" fill="#1d1b3a"/>
          </g>
        </g>
        <g id="Grupo_936301" data-name="Grupo 936301">
          <path id="Trazado_677933" data-name="Trazado 677933" d="M359.806,255.166s5.818-1.644,5.547-3.457c-.167-1.119-3.543-.68-3.543-.68Z" fill="#eda503"/>
        </g>
        <g id="Grupo_936302" data-name="Grupo 936302">
          <path id="Trazado_677934" data-name="Trazado 677934" d="M363.616,251.869c-.465,1.75-1.838,2.713-5.4,3.852,0,0-1.93-3.459.571-5.291C360.992,248.818,363.913,250.748,363.616,251.869Z" fill="#ffb502"/>
        </g>
        <g id="Grupo_936307" data-name="Grupo 936307">
          <g id="Grupo_936303" data-name="Grupo 936303">
            <path id="Trazado_677935" data-name="Trazado 677935" d="M351.909,293.754c-1.206,4.719-2.62,14.8-.3,14.853s3.61-.65,2.275-1.023-1.39-.521-1.349-.9c.574-4.868,8.185-12.457,8.831-18.243.218-1.974.367-3.781.47-5.367.866,4.237.229,8.735.3,10.221.244,5.289,1.375,15.287,3.91,15.308,2.7.018,4.026-.73,2.3-1.085-1.493-.317-1.43-.385-1.4-.754.364-5.342,2.953-15.215,3.449-21.559C370.97,277.887,352.959,289.627,351.909,293.754Z" fill="#fbc6b4"/>
          </g>
          <g id="Grupo_936304" data-name="Grupo 936304">
            <path id="Trazado_677936" data-name="Trazado 677936" d="M364.626,307.4s2.014.8,3.257,0c0,0,2.27.305.845.858S364.541,309.273,364.626,307.4Z" fill="#ffb502"/>
          </g>
          <g id="Grupo_936305" data-name="Grupo 936305">
            <path id="Trazado_677937" data-name="Trazado 677937" d="M350.623,307.584s2.016.795,3.258,0c0,0,2.271.311.839.859S350.539,309.455,350.623,307.584Z" fill="#ffb502"/>
          </g>
          <g id="Grupo_936306" data-name="Grupo 936306">
            <path id="Trazado_677938" data-name="Trazado 677938" d="M368.6,272.768c-4.616,3.08-11.07,2.765-13.583,2.279-.679,5.49-4.8,26.092-5.271,28.92a11.031,11.031,0,0,0,3.286.812c9.784-12.617,8.661-18.029,8.765-19.615.368,1.832-.84,10.811,1.272,19.615a4.467,4.467,0,0,0,4.389,0c.077-.562,2.948-10.675,2.886-18.591C370.3,280.791,369.4,277.088,368.6,272.768Z" fill="#1c2745"/>
          </g>
        </g>
        <g id="Grupo_936309" data-name="Grupo 936309">
          <g id="Grupo_936308" data-name="Grupo 936308">
            <path id="Trazado_677939" data-name="Trazado 677939" d="M355.344,279.7a4.557,4.557,0,0,0,3.125-3.775l-.381-.027a4.1,4.1,0,0,1-2.861,3.441Z" fill="#fff"/>
          </g>
        </g>
        <g id="Grupo_936311" data-name="Grupo 936311">
          <g id="Grupo_936310" data-name="Grupo 936310">
            <path id="Trazado_677940" data-name="Trazado 677940" d="M368.776,278.99l.117-.363a4.153,4.153,0,0,1-2.862-3.441l-.382.029A4.557,4.557,0,0,0,368.776,278.99Z" fill="#fff"/>
          </g>
        </g>
        <g id="Grupo_936312" data-name="Grupo 936312">
          <rect id="Rectángulo_329558" data-name="Rectángulo 329558" width="20.127" height="11.625" transform="translate(318.925 298.164)" fill="#c1e4fa"/>
        </g>
        <g id="Grupo_936313" data-name="Grupo 936313">
          <rect id="Rectángulo_329559" data-name="Rectángulo 329559" width="7.809" height="11.625" transform="translate(339.052 298.164)" fill="#4ca1bf"/>
        </g>
        <g id="Grupo_936314" data-name="Grupo 936314">
          <rect id="Rectángulo_329560" data-name="Rectángulo 329560" width="2.891" height="5.668" transform="translate(320.14 294.52)" fill="#c1e4fa"/>
        </g>
        <g id="Grupo_936315" data-name="Grupo 936315">
          <rect id="Rectángulo_329561" data-name="Rectángulo 329561" width="21.516" height="0.693" transform="translate(321.585 295.33)" fill="#464f72"/>
        </g>
        <g id="Grupo_936316" data-name="Grupo 936316">
          <rect id="Rectángulo_329562" data-name="Rectángulo 329562" width="2.891" height="5.668" transform="translate(341.655 294.52)" fill="#4ca1bf"/>
        </g>
        <g id="Grupo_936322" data-name="Grupo 936322">
          <g id="Grupo_936317" data-name="Grupo 936317">
            <rect id="Rectángulo_329563" data-name="Rectángulo 329563" width="16.487" height="9.523" transform="translate(347.576 276.428)" fill="#c1e4fa"/>
          </g>
          <g id="Grupo_936318" data-name="Grupo 936318">
            <rect id="Rectángulo_329564" data-name="Rectángulo 329564" width="6.396" height="9.523" transform="translate(364.063 276.428)" fill="#4ca1bf"/>
          </g>
          <g id="Grupo_936319" data-name="Grupo 936319">
            <rect id="Rectángulo_329565" data-name="Rectángulo 329565" width="2.368" height="4.642" transform="translate(348.571 273.443)" fill="#c1e4fa"/>
          </g>
          <g id="Grupo_936320" data-name="Grupo 936320">
            <rect id="Rectángulo_329566" data-name="Rectángulo 329566" width="17.624" height="0.568" transform="translate(349.756 274.107)" fill="#464f72"/>
          </g>
          <g id="Grupo_936321" data-name="Grupo 936321">
            <rect id="Rectángulo_329567" data-name="Rectángulo 329567" width="2.368" height="4.642" transform="translate(366.195 273.443)" fill="#4ca1bf"/>
          </g>
        </g>
        <g id="Grupo_936325" data-name="Grupo 936325">
          <g id="Grupo_936323" data-name="Grupo 936323">
            <path id="Trazado_677941" data-name="Trazado 677941" d="M356.909,260.113a2.2,2.2,0,0,1,1.225,2.52c-.325,2.027-2.865,5.351-1.85,7.992s2.909,2.938,4.15,3.3,1.9-.078,2.6.209.32,1.109-1.81,1.008c-1.019-.049-6.079.32-7.872-2.608C351.006,268.7,353.873,259.111,356.909,260.113Z" fill="#fbc6b4"/>
          </g>
          <g id="Grupo_936324" data-name="Grupo 936324">
            <path id="Trazado_677942" data-name="Trazado 677942" d="M356.877,259.315s-1.4-.262-3.14,2.6a17.9,17.9,0,0,0-2.093,4.342,8.634,8.634,0,0,0,4.84,2.213S360.3,260.99,356.877,259.315Z" fill="#eda503"/>
          </g>
        </g>
        <g id="Grupo_936332" data-name="Grupo 936332">
          <g id="Grupo_936328" data-name="Grupo 936328">
            <g id="Grupo_936327" data-name="Grupo 936327">
              <g id="Grupo_936326" data-name="Grupo 936326">
                <rect id="Rectángulo_329568" data-name="Rectángulo 329568" width="0.941" height="4.453" transform="matrix(0.701, -0.713, 0.713, 0.701, 360.09, 241.445)" fill="#ffb502"/>
              </g>
            </g>
          </g>
          <g id="Grupo_936331" data-name="Grupo 936331">
            <g id="Grupo_936330" data-name="Grupo 936330">
              <g id="Grupo_936329" data-name="Grupo 936329">
                <rect id="Rectángulo_329569" data-name="Rectángulo 329569" width="4.404" height="0.941" transform="translate(360.12 243.899) rotate(-45.086)" fill="#ffb502"/>
              </g>
            </g>
          </g>
        </g>
        <g id="Grupo_936354" data-name="Grupo 936354">
          <g id="Grupo_936335" data-name="Grupo 936335">
            <g id="Grupo_936334" data-name="Grupo 936334">
              <g id="Grupo_936333" data-name="Grupo 936333">
                <path id="Trazado_677943" data-name="Trazado 677943" d="M398.962,229.324l.409-.453s-.2-.2-.406-.4c-.189-.219-.379-.436-.379-.436l-.474.383s.2.234.407.469C398.741,229.106,398.962,229.324,398.962,229.324Z" fill="#fbe366"/>
              </g>
            </g>
          </g>
          <g id="Grupo_936338" data-name="Grupo 936338">
            <g id="Grupo_936337" data-name="Grupo 936337">
              <g id="Grupo_936336" data-name="Grupo 936336">
                <path id="Trazado_677944" data-name="Trazado 677944" d="M400.645,230.25l.129-.6a2.558,2.558,0,0,1-.5-.169,2.174,2.174,0,0,1-.328-.18l-.144-.094-.347.5.169.107a2.225,2.225,0,0,0,.4.215A3.137,3.137,0,0,0,400.645,230.25Z" fill="#fbe366"/>
              </g>
            </g>
          </g>
          <g id="Grupo_936341" data-name="Grupo 936341">
            <g id="Grupo_936340" data-name="Grupo 936340">
              <g id="Grupo_936339" data-name="Grupo 936339">
                <path id="Trazado_677945" data-name="Trazado 677945" d="M402.569,230l-.243-.56a3.284,3.284,0,0,1-.518.183,2.326,2.326,0,0,1-.526.078l.02.612a3.011,3.011,0,0,0,.657-.1A4.111,4.111,0,0,0,402.569,230Z" fill="#fbe366"/>
              </g>
            </g>
          </g>
          <g id="Grupo_936344" data-name="Grupo 936344">
            <g id="Grupo_936343" data-name="Grupo 936343">
              <g id="Grupo_936342" data-name="Grupo 936342">
                <path id="Trazado_677946" data-name="Trazado 677946" d="M404.152,229.086l-.328-.514-.5.319-.5.3.3.533.528-.315Z" fill="#fbe366"/>
              </g>
            </g>
          </g>
          <g id="Grupo_936347" data-name="Grupo 936347">
            <g id="Grupo_936346" data-name="Grupo 936346">
              <g id="Grupo_936345" data-name="Grupo 936345">
                <path id="Trazado_677947" data-name="Trazado 677947" d="M405.652,228.3l-.183-.582a5.237,5.237,0,0,0-.6.24c-.282.139-.545.3-.545.3l.311.527s.25-.148.5-.275A4.643,4.643,0,0,1,405.652,228.3Z" fill="#fbe366"/>
              </g>
            </g>
          </g>
          <g id="Grupo_936350" data-name="Grupo 936350">
            <g id="Grupo_936349" data-name="Grupo 936349">
              <g id="Grupo_936348" data-name="Grupo 936348">
                <path id="Trazado_677948" data-name="Trazado 677948" d="M407.163,228.377l.252-.555a2.582,2.582,0,0,0-.64-.2,2.441,2.441,0,0,0-.673-.029l.057.609a1.707,1.707,0,0,1,.51.022A2.144,2.144,0,0,1,407.163,228.377Z" fill="#fbe366"/>
              </g>
            </g>
          </g>
          <g id="Grupo_936353" data-name="Grupo 936353">
            <g id="Grupo_936352" data-name="Grupo 936352">
              <g id="Grupo_936351" data-name="Grupo 936351">
                <path id="Trazado_677949" data-name="Trazado 677949" d="M408.437,229.4l.459-.4s-.212-.226-.434-.451c-.121-.1-.241-.207-.332-.283a1.922,1.922,0,0,0-.164-.117l-.351.5a1.5,1.5,0,0,1,.139.1c.08.067.185.158.291.248C408.243,229.191,408.437,229.4,408.437,229.4Z" fill="#fbe366"/>
              </g>
            </g>
          </g>
        </g>
        <g id="Grupo_936357" data-name="Grupo 936357">
          <g id="Grupo_936356" data-name="Grupo 936356">
            <g id="Grupo_936355" data-name="Grupo 936355">
              <rect id="Rectángulo_329570" data-name="Rectángulo 329570" width="8.657" height="0.668" transform="translate(328.015 289.143)" fill="#27355c"/>
            </g>
          </g>
        </g>
        <g id="Grupo_936360" data-name="Grupo 936360">
          <g id="Grupo_936359" data-name="Grupo 936359">
            <g id="Grupo_936358" data-name="Grupo 936358">
              <rect id="Rectángulo_329571" data-name="Rectángulo 329571" width="4.773" height="0.67" transform="translate(331.395 286.955)" fill="#27355c"/>
            </g>
          </g>
        </g>
        <path id="Trazado_677950" data-name="Trazado 677950" d="M292.042,310.147h16.151L304.93,246.73h-4.811Z" fill="#ae6a44"/>
        <path id="Trazado_677951" data-name="Trazado 677951" d="M292.042,310.147h9.3l-1.225-63.416h0Z" fill="#9b5a3a"/>
        <path id="Trazado_677952" data-name="Trazado 677952" d="M302.292,221.182a7.63,7.63,0,1,0,7.607-7.044A7.341,7.341,0,0,0,302.292,221.182Z" fill="#90cc3a"/>
        <path id="Trazado_677953" data-name="Trazado 677953" d="M292.571,209.4c0,6.509,5.7,11.787,12.731,11.787S318.03,215.9,318.03,209.4s-5.7-11.788-12.728-11.788S292.571,202.885,292.571,209.4Z" fill="#90cc3a"/>
        <ellipse id="Elipse_5316" data-name="Elipse 5316" cx="9.393" cy="8.697" rx="9.393" ry="8.697" transform="translate(284.204 192.001)" fill="#90cc3a"/>
        <path id="Trazado_677954" data-name="Trazado 677954" d="M273.26,221.182a4.71,4.71,0,1,0,4.7-4.348A4.532,4.532,0,0,0,273.26,221.182Z" fill="#90cc3a"/>
        <path id="Trazado_677955" data-name="Trazado 677955" d="M275.277,213.922c0,6.51,5.7,11.788,12.732,11.788s12.729-5.278,12.729-11.788-5.7-11.787-12.729-11.787S275.277,207.413,275.277,213.922Z" fill="#90cc3a"/>
        <path id="Trazado_677956" data-name="Trazado 677956" d="M282.652,227.722c0,6.51,5.7,11.788,12.73,11.788s12.731-5.278,12.731-11.788-5.7-11.787-12.731-11.787S282.652,221.213,282.652,227.722Z" fill="#90cc3a"/>
        <path id="Trazado_677957" data-name="Trazado 677957" d="M299.419,234.7c0,7.743,6.779,14.019,15.141,14.019S329.7,242.44,329.7,234.7s-6.777-14.019-15.139-14.019S299.419,226.955,299.419,234.7Z" fill="#90cc3a"/>
        <path id="Trazado_677958" data-name="Trazado 677958" d="M302.366,259.485c0,7.743,6.778,14.019,15.14,14.019s15.139-6.276,15.139-14.019-6.778-14.02-15.139-14.02S302.366,251.742,302.366,259.485Z" fill="#90cc3a"/>
        <path id="Trazado_677959" data-name="Trazado 677959" d="M280.242,263.007c0,7.742,6.778,14.019,15.14,14.019s15.141-6.277,15.141-14.019-6.779-14.02-15.141-14.02S280.242,255.264,280.242,263.007Z" fill="#90cc3a"/>
        <path id="Trazado_677960" data-name="Trazado 677960" d="M274.309,227.722c0,5.061,4.429,9.163,9.9,9.163s9.9-4.1,9.9-9.163-4.431-9.164-9.9-9.164S274.309,222.662,274.309,227.722Z" fill="#90cc3a"/>
        <path id="Trazado_677961" data-name="Trazado 677961" d="M288.009,245.287c0,8.653,7.576,15.668,16.921,15.668s16.922-7.015,16.922-15.668-7.576-15.668-16.922-15.668S288.009,236.634,288.009,245.287Z" fill="#90cc3a"/>
        <path id="Trazado_677962" data-name="Trazado 677962" d="M318.03,245.2c0,4.453,3.9,8.065,8.712,8.065s8.711-3.612,8.711-8.065-3.9-8.067-8.711-8.067S318.03,240.744,318.03,245.2Z" fill="#90cc3a"/>
        <path id="Trazado_677963" data-name="Trazado 677963" d="M301.343,228.081a5.934,5.934,0,0,1,6.149-5.693,6.121,6.121,0,0,1,5.854,3.952,9.88,9.88,0,0,1,1.214-.076c5.033,0,9.114,3.778,9.114,8.439a8.1,8.1,0,0,1-2.574,5.872,3.994,3.994,0,0,1,.948,2.566,4.555,4.555,0,0,1-9.083,0c0-.045.005-.087.006-.13a8.653,8.653,0,0,1-7.525-8.308,7.847,7.847,0,0,1,.1-1.224A5.75,5.75,0,0,1,301.343,228.081Z" opacity="0.2" style="mix-blend-mode: overlay;isolation: isolate"/>
        <path id="Trazado_677964" data-name="Trazado 677964" d="M297.027,235.314a5.936,5.936,0,0,1,6.15-5.695,6.121,6.121,0,0,1,5.854,3.953,9.913,9.913,0,0,1,1.214-.077c5.032,0,9.113,3.778,9.113,8.439a8.1,8.1,0,0,1-2.572,5.873,3.99,3.99,0,0,1,.948,2.564,4.556,4.556,0,0,1-9.085,0c0-.042.005-.086.007-.129a8.653,8.653,0,0,1-7.524-8.308,7.982,7.982,0,0,1,.1-1.224A5.752,5.752,0,0,1,297.027,235.314Z" fill="#90cc3a"/>
        <path id="Trazado_677965" data-name="Trazado 677965" d="M298.442,203.365a3.973,3.973,0,0,0-4.117-3.813,4.1,4.1,0,0,0-3.92,2.647,6.592,6.592,0,0,0-.812-.051,5.889,5.889,0,0,0-6.1,5.65,5.425,5.425,0,0,0,1.723,3.933,2.668,2.668,0,0,0-.635,1.717,3.051,3.051,0,0,0,6.083,0c0-.03,0-.058-.005-.088a5.792,5.792,0,0,0,5.038-5.562,5.413,5.413,0,0,0-.063-.82A3.849,3.849,0,0,0,298.442,203.365Z" opacity="0.2" style="mix-blend-mode: overlay;isolation: isolate"/>
        <path id="Trazado_677966" data-name="Trazado 677966" d="M301.332,208.207a3.975,3.975,0,0,0-4.118-3.813,4.1,4.1,0,0,0-3.92,2.646,6.8,6.8,0,0,0-.813-.051,5.889,5.889,0,0,0-6.1,5.65,5.418,5.418,0,0,0,1.723,3.932,2.674,2.674,0,0,0-.635,1.719,3.051,3.051,0,0,0,6.084,0c0-.031,0-.059-.006-.088a5.793,5.793,0,0,0,5.038-5.563,5.273,5.273,0,0,0-.065-.819A3.852,3.852,0,0,0,301.332,208.207Z" fill="#90cc3a"/>
        <path id="Trazado_677967" data-name="Trazado 677967" d="M266.409,244.663c0,7.165,6.275,12.975,14.015,12.975s14.012-5.81,14.012-12.975-6.273-12.976-14.012-12.976S266.409,237.5,266.409,244.663Z" fill="#90cc3a"/>
        <ellipse id="Elipse_5317" data-name="Elipse 5317" cx="14.357" cy="13.294" rx="14.357" ry="13.294" transform="translate(268.295 246.73)" fill="#90cc3a"/>
        <path id="Trazado_677968" data-name="Trazado 677968" d="M295.951,243.43a5.233,5.233,0,0,0-5.422-5.02,5.394,5.394,0,0,0-5.161,3.485,8.782,8.782,0,0,0-1.07-.068c-4.439,0-8.036,3.331-8.036,7.44a7.139,7.139,0,0,0,2.268,5.178,3.523,3.523,0,0,0-.837,2.263,4.018,4.018,0,0,0,8.011,0c0-.04-.005-.076-.007-.115a7.629,7.629,0,0,0,6.636-7.326,6.989,6.989,0,0,0-.085-1.079A5.07,5.07,0,0,0,295.951,243.43Z" opacity="0.2" style="mix-blend-mode: overlay;isolation: isolate"/>
        <path id="Trazado_677969" data-name="Trazado 677969" d="M299.755,249.8a5.232,5.232,0,0,0-5.421-5.019,5.4,5.4,0,0,0-5.162,3.485,8.781,8.781,0,0,0-1.07-.068c-4.437,0-8.037,3.331-8.037,7.44a7.143,7.143,0,0,0,2.27,5.178,3.515,3.515,0,0,0-.837,2.262,4.017,4.017,0,0,0,8.011,0c0-.039-.005-.076-.007-.115a7.627,7.627,0,0,0,6.635-7.325,7.111,7.111,0,0,0-.084-1.079A5.071,5.071,0,0,0,299.755,249.8Z" fill="#90cc3a"/>
        <g id="Grupo_936361" data-name="Grupo 936361">
          <path id="Trazado_677970" data-name="Trazado 677970" d="M278.615,300.1s6.074,2.157,4.92,9.871h-1.822A10,10,0,0,0,278.615,300.1Z" fill="#90cc3a"/>
          <path id="Trazado_677971" data-name="Trazado 677971" d="M287.6,297.811s-6.075,2.636-4.92,12.064H284.5A14.193,14.193,0,0,1,287.6,297.811Z" fill="#8bbf30"/>
          <path id="Trazado_677972" data-name="Trazado 677972" d="M288.139,300.1s-6.075,2.157-4.92,9.871h1.822A10,10,0,0,1,288.139,300.1Z" fill="#90cc3a"/>
          <path id="Trazado_677973" data-name="Trazado 677973" d="M278.586,303.264s3.629.948,3.869,6.431l-1.014.167A8.361,8.361,0,0,0,278.586,303.264Z" fill="#8bbf30"/>
          <path id="Trazado_677974" data-name="Trazado 677974" d="M288.394,303.264s-3.628.948-3.871,6.431l1.014.167A8.367,8.367,0,0,1,288.394,303.264Z" fill="#8bbf30"/>
        </g>
        <g id="Grupo_936362" data-name="Grupo 936362">
          <path id="Trazado_677975" data-name="Trazado 677975" d="M305.023,300.476s6.075,2.157,4.92,9.871h-1.822A10,10,0,0,0,305.023,300.476Z" fill="#90cc3a"/>
          <path id="Trazado_677976" data-name="Trazado 677976" d="M314.008,298.185s-6.074,2.636-4.92,12.064h1.822A14.193,14.193,0,0,1,314.008,298.185Z" fill="#8bbf30"/>
          <path id="Trazado_677977" data-name="Trazado 677977" d="M314.547,300.476s-6.074,2.157-4.92,9.871h1.822A9.995,9.995,0,0,1,314.547,300.476Z" fill="#90cc3a"/>
          <path id="Trazado_677978" data-name="Trazado 677978" d="M304.994,303.638s3.629.948,3.869,6.431l-1.013.167A8.364,8.364,0,0,0,304.994,303.638Z" fill="#8bbf30"/>
          <path id="Trazado_677979" data-name="Trazado 677979" d="M314.8,303.638s-3.629.948-3.871,6.431l1.013.167A8.366,8.366,0,0,1,314.8,303.638Z" fill="#8bbf30"/>
        </g>
        <g id="Grupo_936363" data-name="Grupo 936363">
          <path id="Trazado_677980" data-name="Trazado 677980" d="M448.784,300.053s6.074,2.157,4.92,9.871h-1.822A10,10,0,0,0,448.784,300.053Z" fill="#90cc3a"/>
          <path id="Trazado_677981" data-name="Trazado 677981" d="M457.769,297.762s-6.075,2.636-4.92,12.064h1.822A14.193,14.193,0,0,1,457.769,297.762Z" fill="#8bbf30"/>
          <path id="Trazado_677982" data-name="Trazado 677982" d="M458.308,300.053s-6.075,2.157-4.92,9.871h1.822A10,10,0,0,1,458.308,300.053Z" fill="#90cc3a"/>
          <path id="Trazado_677983" data-name="Trazado 677983" d="M448.755,303.215s3.629.948,3.869,6.432l-1.014.167A8.363,8.363,0,0,0,448.755,303.215Z" fill="#8bbf30"/>
          <path id="Trazado_677984" data-name="Trazado 677984" d="M458.563,303.215s-3.628.948-3.871,6.432l1.014.167A8.369,8.369,0,0,1,458.563,303.215Z" fill="#8bbf30"/>
        </g>
        <g id="Grupo_936366" data-name="Grupo 936366">
          <g id="Grupo_936365" data-name="Grupo 936365">
            <g id="Grupo_936364" data-name="Grupo 936364">
              <rect id="Rectángulo_329572" data-name="Rectángulo 329572" width="8.656" height="0.669" transform="translate(433.076 299.107)" fill="#27355c"/>
            </g>
          </g>
        </g>
        <g id="Grupo_936369" data-name="Grupo 936369">
          <g id="Grupo_936368" data-name="Grupo 936368">
            <g id="Grupo_936367" data-name="Grupo 936367">
              <rect id="Rectángulo_329573" data-name="Rectángulo 329573" width="4.773" height="0.668" transform="translate(436.455 296.921)" fill="#27355c"/>
            </g>
          </g>
        </g>
      </g>
    </g>
  </g>
</svg>
