<svg xmlns="http://www.w3.org/2000/svg" xmlns:xlink="http://www.w3.org/1999/xlink" width="145" height="145" viewBox="0 0 145 145">
  <defs>
    <filter id="Elipse_5260" x="0" y="0" width="145" height="145" filterUnits="userSpaceOnUse">
      <feOffset dy="3" input="SourceAlpha"/>
      <feGaussianBlur stdDeviation="3" result="blur"/>
      <feFlood flood-opacity="0.161"/>
      <feComposite operator="in" in2="blur"/>
      <feComposite in="SourceGraphic"/>
    </filter>
    <clipPath id="clip-path">
      <rect id="Rectángulo_344900" data-name="Rectángulo 344900" width="69.488" height="119.085" fill="none"/>
    </clipPath>
  </defs>
  <g id="Grupo_999439" data-name="Grupo 999439" transform="translate(-379 -1878)">
    <g transform="matrix(1, 0, 0, 1, 379, 1878)" filter="url(#Elipse_5260)">
      <circle id="Elipse_5260-2" data-name="Elipse 5260" cx="63.5" cy="63.5" r="63.5" transform="translate(9 6)" fill="#ad84ff"/>
    </g>
    <g id="Grupo_999390" data-name="Grupo 999390" transform="translate(416.756 1887.958)">
      <path id="Trazado_678543" data-name="Trazado 678543" d="M9.875,131.348h54.55l4.959,34.716H4.915Z" transform="translate(-2.407 -64.331)" fill="#17abe7"/>
      <g id="Grupo_999389" data-name="Grupo 999389">
        <g id="Grupo_999388" data-name="Grupo 999388" clip-path="url(#clip-path)">
          <path id="Trazado_678544" data-name="Trazado 678544" d="M69.021,37.45s-5.783.142-8.078,3.447-.938,8.951-.938,8.951-5.752-2.7-9.581-.639a10.9,10.9,0,0,0-5,5.375,10.9,10.9,0,0,0-4.994-5.375c-3.829-2.062-9.581.639-9.581.639s1.371-5.647-.938-8.951-8.077-3.447-8.077-3.447,4.339-3.964,4.3-7.659c.038-3.7-4.3-7.658-4.3-7.658s5.775-.142,8.077-3.447.938-8.951.938-8.951,5.752,2.7,9.581.639A10.9,10.9,0,0,0,45.423,5a10.9,10.9,0,0,0,5.008,5.367c3.829,2.062,9.581-.639,9.581-.639s-1.371,5.648.938,8.951,8.077,3.447,8.077,3.447-4.339,3.964-4.3,7.659c-.045,3.7,4.29,7.667,4.29,7.667" transform="translate(-10.693 -2.448)" fill="#ffaa2e"/>
          <path id="Trazado_678545" data-name="Trazado 678545" d="M68.492,44.054a9.919,9.919,0,1,1-9.919-9.919,9.919,9.919,0,0,1,9.919,9.919" transform="translate(-23.83 -16.719)" fill="#ffe133"/>
          <path id="Trazado_678546" data-name="Trazado 678546" d="M32.4,3.361A13.811,13.811,0,0,0,38.559,10.1a11.322,11.322,0,0,0,7.909.7,11.269,11.269,0,0,0,1.749,6.849,9.836,9.836,0,0,0,5.55,3.656,9.325,9.325,0,0,0,0,12.069,9.841,9.841,0,0,0-5.555,3.658,11.289,11.289,0,0,0-1.749,6.848,11.317,11.317,0,0,0-7.909.7,12.253,12.253,0,0,0-3.817,3.413,12.253,12.253,0,0,0-3.817-3.413,11.311,11.311,0,0,0-7.9-.7,11.255,11.255,0,0,0-1.749-6.848,9.849,9.849,0,0,0-5.555-3.658,9.332,9.332,0,0,0,0-12.069,9.85,9.85,0,0,0,5.555-3.656,11.452,11.452,0,0,0,1.758-7,13.074,13.074,0,0,0,4.994.4,2.481,2.481,0,0,0-.574-4.928c-.058.007-.115.015-.172.026a14.708,14.708,0,0,1-6.058-1.114A2.481,2.481,0,0,0,17.752,7.86a14.816,14.816,0,0,1,.328,2.727,7.828,7.828,0,0,1-.886,4.221,6.47,6.47,0,0,1-3.481,1.979,13.061,13.061,0,0,1-2.615.406,2.48,2.48,0,0,0-1.605,4.312A16.39,16.39,0,0,1,11.339,23.6a7.831,7.831,0,0,1,1.648,3.715v.056a7.809,7.809,0,0,1-1.641,3.709,16.278,16.278,0,0,1-1.852,2.1,2.48,2.48,0,0,0,1.613,4.31,13.412,13.412,0,0,1,2.615.407,6.473,6.473,0,0,1,3.487,1.976,7.836,7.836,0,0,1,.886,4.22,14.865,14.865,0,0,1-.328,2.728,2.48,2.48,0,0,0,3.463,2.834,14.9,14.9,0,0,1,2.829-.916,7.319,7.319,0,0,1,4.523.212,8.011,8.011,0,0,1,3.831,4.015,2.481,2.481,0,0,0,4.678,0,8.012,8.012,0,0,1,3.831-4.015,7.32,7.32,0,0,1,4.523-.212,14.926,14.926,0,0,1,2.829.916,2.481,2.481,0,0,0,3.464-2.834,14.866,14.866,0,0,1-.329-2.728,7.836,7.836,0,0,1,.886-4.22,6.469,6.469,0,0,1,3.487-1.976,13.1,13.1,0,0,1,2.615-.407,2.48,2.48,0,0,0,1.613-4.31,16.5,16.5,0,0,1-1.846-2.093,7.83,7.83,0,0,1-1.647-3.715V27.31A7.816,7.816,0,0,1,58.166,23.6a16.5,16.5,0,0,1,1.846-2.093A2.48,2.48,0,0,0,58.4,17.2a13.412,13.412,0,0,1-2.615-.407A6.466,6.466,0,0,1,52.3,14.816a7.837,7.837,0,0,1-.886-4.22,14.866,14.866,0,0,1,.329-2.728,2.481,2.481,0,0,0-3.464-2.834,14.89,14.89,0,0,1-2.829.916,7.32,7.32,0,0,1-4.523-.212,8.01,8.01,0,0,1-3.831-4.015,2.481,2.481,0,0,0-4.723,1.519c.014.043.029.085.045.127Zm2.345,11.566A12.4,12.4,0,1,0,47.142,27.337v0a12.456,12.456,0,0,0-12.393-12.4Zm0,4.96a7.524,7.524,0,1,1-.1,0h.1Zm-9.924,99.2H44.662a2.481,2.481,0,1,0,.124-4.96q-.062,0-.124,0H37.219V104.2H66.946a2.48,2.48,0,0,0,.124-4.959q-.062,0-.124,0H54.407l-.882-12.389h8.786l.755,5.314a2.487,2.487,0,0,0,4.949-.5c-.007-.066-.016-.132-.028-.2l-3.55-24.8a2.481,2.481,0,0,0-2.451-2.126H7.466a2.485,2.485,0,1,0-.151,4.968c.041,0,.082,0,.122,0H17.2L16.316,81.9H7.8l.66-4.611a2.479,2.479,0,0,0-4.906-.71l-3.531,24.8A2.477,2.477,0,0,0,2.474,104.2H32.259v9.924H24.825a2.48,2.48,0,0,0,0,4.959ZM22.176,69.5H32.264V81.89H21.29Zm15.047,0H47.311L48.2,81.89H37.219Zm15.072,0h7.551L61.609,81.89H53.172ZM7.1,86.85h8.862l-.886,12.389H5.331Zm13.842,0H32.265V99.239H20.055Zm16.284,0H48.558l.891,12.389H37.219Z" transform="translate(0 0)" fill="#040405"/>
        </g>
      </g>
    </g>
  </g>
</svg>
