<svg xmlns="http://www.w3.org/2000/svg" xmlns:xlink="http://www.w3.org/1999/xlink" width="838" height="142.948" viewBox="0 0 838 142.948">
  <defs>
    <filter id="Rect치ngulo_329501" x="0" y="24.948" width="838" height="118" filterUnits="userSpaceOnUse">
      <feOffset dy="3" input="SourceAlpha"/>
      <feGaussianBlur stdDeviation="3" result="blur"/>
      <feFlood flood-opacity="0.161"/>
      <feComposite operator="in" in2="blur"/>
      <feComposite in="SourceGraphic"/>
    </filter>
  </defs>
  <g id="Grupo_999444" data-name="Grupo 999444" transform="translate(-381.125 -9976.052)">
    <g transform="matrix(1, 0, 0, 1, 381.13, 9976.05)" filter="url(#Rect치ngulo_329501)">
      <rect id="Rect치ngulo_329501-2" data-name="Rect치ngulo 329501" width="820" height="100" rx="20" transform="translate(9 30.95)" fill="#fff"/>
    </g>
    <g id="Grupo_936599" data-name="Grupo 936599" transform="translate(99.125 186)">
      <path id="Trazado_678799" data-name="Trazado 678799" d="M36.609,6.609l-.469,2.117h-.75a2.416,2.416,0,0,0-.418-1.387,1.41,1.41,0,0,0-1.145-.426,2.646,2.646,0,0,0-2,1.078,7.814,7.814,0,0,0-1.465,2.848,11.322,11.322,0,0,0-.539,3.285,2.925,2.925,0,0,0,.422,1.75,1.516,1.516,0,0,0,1.3.563,2.734,2.734,0,0,0,1.023-.176,2.27,2.27,0,0,0,.82-.594,5.149,5.149,0,0,0,.758-1.168h.75l-.477,2.219a11.38,11.38,0,0,1-3.062.406,2.864,2.864,0,0,1-2.234-.844,3.558,3.558,0,0,1-.766-2.469,10.2,10.2,0,0,1,.41-2.648,9.063,9.063,0,0,1,1.16-2.633A5.374,5.374,0,0,1,31.7,6.8a4.4,4.4,0,0,1,2.25-.594,9.393,9.393,0,0,1,1.316.086A9,9,0,0,1,36.609,6.609ZM40.25,17.133a2.515,2.515,0,0,1-1.879-.68A2.671,2.671,0,0,1,37.7,14.5a6.588,6.588,0,0,1,.188-1.445,5.411,5.411,0,0,1,.813-1.937,3.916,3.916,0,0,1,1.406-1.27,3.871,3.871,0,0,1,1.836-.441,2.521,2.521,0,0,1,1.906.684,2.715,2.715,0,0,1,.656,1.957,6.62,6.62,0,0,1-.316,1.938,5.308,5.308,0,0,1-.867,1.734,3.568,3.568,0,0,1-1.316,1.059A4.131,4.131,0,0,1,40.25,17.133Zm-1.18-2.3a1.9,1.9,0,0,0,.355,1.27,1.345,1.345,0,0,0,1.074.41,1.761,1.761,0,0,0,1.359-.687A4.943,4.943,0,0,0,42.8,13.9a8.276,8.276,0,0,0,.344-2.176,2.059,2.059,0,0,0-.328-1.27,1.21,1.21,0,0,0-1.023-.426,1.846,1.846,0,0,0-1.418.68,4.814,4.814,0,0,0-.953,1.945A8.426,8.426,0,0,0,39.07,14.836Zm8.43-2.789a5.6,5.6,0,0,0,.172-1.156.787.787,0,0,0-.1-.453.368.368,0,0,0-.32-.141.874.874,0,0,0-.512.2,5.607,5.607,0,0,0-.738.723l-.445-.437a7.756,7.756,0,0,1,1.2-1.066A1.905,1.905,0,0,1,47.828,9.4a.982.982,0,0,1,.777.324,1.236,1.236,0,0,1,.285.848,2.689,2.689,0,0,1-.187.922l.094.031a7.228,7.228,0,0,1,1.457-1.6,2.348,2.348,0,0,1,1.426-.52,1.454,1.454,0,0,1,1.117.418,1.633,1.633,0,0,1,.391,1.16,6.238,6.238,0,0,1-.227,1.4l-.508,2.047a5.872,5.872,0,0,0-.211,1.2.787.787,0,0,0,.1.453.368.368,0,0,0,.32.141.869.869,0,0,0,.5-.191,5.49,5.49,0,0,0,.75-.73l.445.438a7.068,7.068,0,0,1-1.172,1.051,2.015,2.015,0,0,1-1.141.332,1.007,1.007,0,0,1-.812-.363,1.391,1.391,0,0,1-.3-.926,6.463,6.463,0,0,1,.258-1.492l.344-1.352q.188-.734.246-1.086a3.628,3.628,0,0,0,.059-.57,1.31,1.31,0,0,0-.18-.777.687.687,0,0,0-.586-.238,1.266,1.266,0,0,0-.707.262,4.031,4.031,0,0,0-.8.789,6.192,6.192,0,0,0-.684,1.023,5.1,5.1,0,0,0-.422,1.223L47.711,17H46.359Zm12.938-.617a1.71,1.71,0,0,0-.457-1.055,1.629,1.629,0,0,0-1.168-.359,1.519,1.519,0,0,0-1,.316,1.027,1.027,0,0,0-.383.832,1.188,1.188,0,0,0,.1.5,1.5,1.5,0,0,0,.395.473,6.87,6.87,0,0,0,.922.633,6.6,6.6,0,0,1,.789.543,2.618,2.618,0,0,1,.469.488,1.7,1.7,0,0,1,.25.512,2.368,2.368,0,0,1,.078.652,1.933,1.933,0,0,1-.371,1.191,2.2,2.2,0,0,1-1.008.738,4.055,4.055,0,0,1-1.449.242,8.237,8.237,0,0,1-1.273-.1,10.165,10.165,0,0,1-1.391-.332l.375-1.7h.609a1.618,1.618,0,0,0,.422,1.133,1.722,1.722,0,0,0,1.242.383,1.82,1.82,0,0,0,1.16-.332,1.133,1.133,0,0,0,.418-.941,1.435,1.435,0,0,0-.117-.605,1.5,1.5,0,0,0-.383-.488,6.286,6.286,0,0,0-.844-.586,6.85,6.85,0,0,1-.949-.664,2.093,2.093,0,0,1-.512-.645,1.784,1.784,0,0,1-.172-.8,1.813,1.813,0,0,1,.332-1.082,2.1,2.1,0,0,1,.949-.715,3.811,3.811,0,0,1,1.438-.25,9.348,9.348,0,0,1,1.324.086,6.181,6.181,0,0,1,1.191.3L61.07,11.43Zm8.547,3.047a5.6,5.6,0,0,0-.172,1.156.787.787,0,0,0,.1.453.368.368,0,0,0,.32.141.869.869,0,0,0,.5-.191,5.49,5.49,0,0,0,.75-.73l.445.438a6.626,6.626,0,0,1-1.211,1.07,1.971,1.971,0,0,1-1.062.313.991.991,0,0,1-.773-.32,1.223,1.223,0,0,1-.289-.852,2.643,2.643,0,0,1,.188-.922L67.688,15a7.215,7.215,0,0,1-1.465,1.6,2.349,2.349,0,0,1-1.418.516,1.454,1.454,0,0,1-1.117-.418,1.633,1.633,0,0,1-.391-1.16,6.238,6.238,0,0,1,.227-1.4l.508-2.047a5.872,5.872,0,0,0,.211-1.2.787.787,0,0,0-.1-.453.368.368,0,0,0-.32-.141.874.874,0,0,0-.512.2,5.607,5.607,0,0,0-.738.723l-.445-.437a10.153,10.153,0,0,1,1-.922A2.394,2.394,0,0,1,63.77,9.5a2.129,2.129,0,0,1,.691-.105.987.987,0,0,1,.789.336,1.342,1.342,0,0,1,.289.906A6.275,6.275,0,0,1,65.3,12.18l-.344,1.352q-.133.516-.191.8t-.086.5a2.824,2.824,0,0,0-.027.352,1.31,1.31,0,0,0,.18.777.687.687,0,0,0,.586.238,1.266,1.266,0,0,0,.707-.262,4.031,4.031,0,0,0,.8-.789,6.193,6.193,0,0,0,.684-1.023,5.1,5.1,0,0,0,.422-1.223l.742-3.383h1.352Zm5.57-2.961a6.293,6.293,0,0,1,1.43-1.59,2.421,2.421,0,0,1,1.438-.52,1.471,1.471,0,0,1,1.141.426,1.758,1.758,0,0,1,.391,1.23v.109a.947.947,0,0,1-.008.117,5.717,5.717,0,0,1,1.34-1.418,2.4,2.4,0,0,1,1.387-.465,1.452,1.452,0,0,1,1.109.414,1.63,1.63,0,0,1,.391,1.164,6.238,6.238,0,0,1-.227,1.4l-.508,2.047a5.872,5.872,0,0,0-.211,1.2.787.787,0,0,0,.1.453.368.368,0,0,0,.32.141.869.869,0,0,0,.5-.191,5.49,5.49,0,0,0,.75-.73l.445.438a7.388,7.388,0,0,1-1.172,1.047,2,2,0,0,1-1.141.336,1.007,1.007,0,0,1-.812-.363,1.391,1.391,0,0,1-.3-.926,6.463,6.463,0,0,1,.258-1.492l.344-1.352q.188-.734.246-1.086a3.628,3.628,0,0,0,.059-.57,1.31,1.31,0,0,0-.18-.777.687.687,0,0,0-.586-.238,1.3,1.3,0,0,0-.7.246,3.562,3.562,0,0,0-.789.766,6.35,6.35,0,0,0-.676,1.023,4.923,4.923,0,0,0-.418,1.23L77.758,17H76.406l.9-3.969q.164-.727.223-1.074a3.675,3.675,0,0,0,.059-.6,1.257,1.257,0,0,0-.2-.8.764.764,0,0,0-.621-.238,1.283,1.283,0,0,0-.676.246,3.586,3.586,0,0,0-.809.789A5.053,5.053,0,0,0,74.2,13.617L73.461,17H72.109l1.141-4.953a5.6,5.6,0,0,0,.172-1.156.787.787,0,0,0-.1-.453A.368.368,0,0,0,73,10.3a.874.874,0,0,0-.512.2,5.607,5.607,0,0,0-.738.723l-.445-.437A7.624,7.624,0,0,1,72.488,9.73a1.919,1.919,0,0,1,1.09-.332.982.982,0,0,1,.777.324,1.236,1.236,0,0,1,.285.848,2.633,2.633,0,0,1-.18.914Zm13.383,5.617a2.515,2.515,0,0,1-1.879-.68,2.671,2.671,0,0,1-.668-1.953,6.588,6.588,0,0,1,.188-1.445,5.411,5.411,0,0,1,.813-1.937A3.916,3.916,0,0,1,87.8,9.848a3.871,3.871,0,0,1,1.836-.441,2.521,2.521,0,0,1,1.906.684,2.715,2.715,0,0,1,.656,1.957,6.62,6.62,0,0,1-.316,1.938,5.308,5.308,0,0,1-.867,1.734A3.568,3.568,0,0,1,89.7,16.777,4.131,4.131,0,0,1,87.938,17.133Zm-1.18-2.3a1.9,1.9,0,0,0,.355,1.27,1.345,1.345,0,0,0,1.074.41,1.761,1.761,0,0,0,1.359-.687,4.943,4.943,0,0,0,.938-1.926,8.276,8.276,0,0,0,.344-2.176,2.059,2.059,0,0,0-.328-1.27,1.21,1.21,0,0,0-1.023-.426,1.846,1.846,0,0,0-1.418.68,4.814,4.814,0,0,0-.953,1.945A8.426,8.426,0,0,0,86.758,14.836Zm13.484,3.344H93.086V17h7.156Zm5.5-3.172a6.889,6.889,0,0,1-1.422,1.6,2.32,2.32,0,0,1-1.422.508,1.552,1.552,0,0,1-1.332-.648,3.046,3.046,0,0,1-.473-1.82,6.524,6.524,0,0,1,.527-2.582,4.776,4.776,0,0,1,1.449-1.953,3.271,3.271,0,0,1,2.055-.715,3.723,3.723,0,0,1,.879.1,3.16,3.16,0,0,1,.824.34l.406-1.8q.062-.258.109-.57a3.747,3.747,0,0,0,.047-.547.612.612,0,0,0-.086-.355.482.482,0,0,0-.246-.176,2.467,2.467,0,0,0-.574-.078l.094-.406,1.961-.07H109l-1.945,8.648a5.792,5.792,0,0,0-.172,1.156.787.787,0,0,0,.1.453.368.368,0,0,0,.32.141.869.869,0,0,0,.5-.191,5.49,5.49,0,0,0,.75-.73l.445.438a6.989,6.989,0,0,1-1.211,1.07,1.946,1.946,0,0,1-1.062.313.991.991,0,0,1-.773-.32,1.223,1.223,0,0,1-.289-.852,2.633,2.633,0,0,1,.18-.914Zm.523-2.766a5.219,5.219,0,0,0,.117-1.062,1.275,1.275,0,0,0-.258-.887,1.131,1.131,0,0,0-.859-.277,1.957,1.957,0,0,0-1.43.645,4.429,4.429,0,0,0-1,1.738,6.881,6.881,0,0,0-.363,2.18,2.585,2.585,0,0,0,.223,1.215.784.784,0,0,0,.746.4,1.26,1.26,0,0,0,.492-.105,1.985,1.985,0,0,0,.52-.34,4.054,4.054,0,0,0,.531-.57q.262-.336.48-.676a4.82,4.82,0,0,0,.406-.8,6.442,6.442,0,0,0,.32-1.121Zm7.7-5.773L113.6,7.984h-1.383l.359-1.516Zm-2.516,5.266a5.771,5.771,0,0,0,.18-1.172.563.563,0,0,0-.168-.477,1.267,1.267,0,0,0-.66-.141l.086-.414,1.906-.07h.461l-1.125,5.016a5.792,5.792,0,0,0-.172,1.156.787.787,0,0,0,.1.453.368.368,0,0,0,.32.141.869.869,0,0,0,.5-.191,5.49,5.49,0,0,0,.75-.73l.445.438a6.817,6.817,0,0,1-1.242,1.094,2.023,2.023,0,0,1-1.07.289,1,1,0,0,1-.812-.371,1.447,1.447,0,0,1-.3-.949,6.84,6.84,0,0,1,.219-1.516Zm9.063-.3a1.71,1.71,0,0,0-.457-1.055,1.629,1.629,0,0,0-1.168-.359,1.519,1.519,0,0,0-1,.316,1.027,1.027,0,0,0-.383.832,1.188,1.188,0,0,0,.1.5,1.5,1.5,0,0,0,.395.473,6.87,6.87,0,0,0,.922.633,6.6,6.6,0,0,1,.789.543,2.619,2.619,0,0,1,.469.488,1.7,1.7,0,0,1,.25.512,2.367,2.367,0,0,1,.078.652,1.933,1.933,0,0,1-.371,1.191,2.2,2.2,0,0,1-1.008.738,4.055,4.055,0,0,1-1.449.242,8.237,8.237,0,0,1-1.273-.1,10.165,10.165,0,0,1-1.391-.332l.375-1.7h.609a1.618,1.618,0,0,0,.422,1.133,1.722,1.722,0,0,0,1.242.383,1.82,1.82,0,0,0,1.16-.332,1.133,1.133,0,0,0,.418-.941,1.435,1.435,0,0,0-.117-.605,1.5,1.5,0,0,0-.383-.488,6.286,6.286,0,0,0-.844-.586,6.85,6.85,0,0,1-.949-.664,2.093,2.093,0,0,1-.512-.645,1.784,1.784,0,0,1-.172-.8,1.813,1.813,0,0,1,.332-1.082,2.1,2.1,0,0,1,.949-.715,3.811,3.811,0,0,1,1.438-.25,9.348,9.348,0,0,1,1.324.086,6.181,6.181,0,0,1,1.191.3l-.352,1.641Zm8.039,4.016a5.939,5.939,0,0,1-1.535,1.258,3.733,3.733,0,0,1-1.809.422,2.236,2.236,0,0,1-1.754-.691,2.78,2.78,0,0,1-.621-1.926,6,6,0,0,1,.3-1.793,5.239,5.239,0,0,1,.91-1.719,4.254,4.254,0,0,1,1.461-1.18,4.06,4.06,0,0,1,1.813-.418,2.22,2.22,0,0,1,1.418.383,1.448,1.448,0,0,1,.473,1.2,2.135,2.135,0,0,1-1.246,1.992,8.1,8.1,0,0,1-3.7.664,5.18,5.18,0,0,0-.094,1.016,1.806,1.806,0,0,0,.32,1.191,1.316,1.316,0,0,0,1.047.371,2.706,2.706,0,0,0,1.3-.312,5.434,5.434,0,0,0,1.23-.961Zm-4.156-2.477a8.37,8.37,0,0,0,1.891-.2,2.53,2.53,0,0,0,1.211-.609,1.518,1.518,0,0,0,.422-1.129,1.138,1.138,0,0,0-.223-.746.807.807,0,0,0-.66-.27,2.084,2.084,0,0,0-1.52.8A5.309,5.309,0,0,0,124.391,12.969Zm8.016-4.422.047,1.063a3.08,3.08,0,0,1,2.531-1.219q2.68,0,2.7,3.023V17h-1.445V11.406a1.946,1.946,0,0,0-.418-1.352,1.675,1.675,0,0,0-1.277-.437,2.086,2.086,0,0,0-1.234.375,2.546,2.546,0,0,0-.828.984V17h-1.445V8.547Zm4.781-3.3a1.942,1.942,0,0,1-.48,1.367,1.561,1.561,0,0,1-1.2.523,1.76,1.76,0,0,1-.555-.078,2.993,2.993,0,0,1-.613-.32,2.656,2.656,0,0,0-.547-.293,1.338,1.338,0,0,0-.387-.051.717.717,0,0,0-.547.246.892.892,0,0,0-.227.629l-.969-.055a2.039,2.039,0,0,1,.473-1.383,1.516,1.516,0,0,1,1.2-.547,1.457,1.457,0,0,1,.492.078,3.587,3.587,0,0,1,.594.3,3.494,3.494,0,0,0,.574.3,1.319,1.319,0,0,0,.441.07A.7.7,0,0,0,136,5.773a.932.932,0,0,0,.223-.617Zm4.992,11.883a2.515,2.515,0,0,1-1.879-.68,2.671,2.671,0,0,1-.668-1.953,6.588,6.588,0,0,1,.188-1.445,5.411,5.411,0,0,1,.813-1.937,3.916,3.916,0,0,1,1.406-1.27,3.871,3.871,0,0,1,1.836-.441,2.521,2.521,0,0,1,1.906.684,2.715,2.715,0,0,1,.656,1.957,6.62,6.62,0,0,1-.316,1.938,5.308,5.308,0,0,1-.867,1.734,3.568,3.568,0,0,1-1.316,1.059A4.131,4.131,0,0,1,142.18,17.133Zm-1.18-2.3a1.9,1.9,0,0,0,.355,1.27,1.345,1.345,0,0,0,1.074.41,1.761,1.761,0,0,0,1.359-.687,4.943,4.943,0,0,0,.938-1.926,8.276,8.276,0,0,0,.344-2.176,2.059,2.059,0,0,0-.328-1.27,1.21,1.21,0,0,0-1.023-.426,1.846,1.846,0,0,0-1.418.68,4.814,4.814,0,0,0-.953,1.945A8.427,8.427,0,0,0,141,14.836Zm14-4.2h-6.516V9.383H155Zm0,3.242h-6.516v-1.25H155Zm10.391-7.273-.469,2.117h-.75a2.416,2.416,0,0,0-.418-1.387,1.41,1.41,0,0,0-1.145-.426,2.646,2.646,0,0,0-2,1.078,7.814,7.814,0,0,0-1.465,2.848,11.322,11.322,0,0,0-.539,3.285,2.925,2.925,0,0,0,.422,1.75,1.516,1.516,0,0,0,1.3.563,2.734,2.734,0,0,0,1.023-.176,2.27,2.27,0,0,0,.82-.594,5.149,5.149,0,0,0,.758-1.168h.75l-.477,2.219a11.38,11.38,0,0,1-3.062.406,2.864,2.864,0,0,1-2.234-.844,3.558,3.558,0,0,1-.766-2.469,10.2,10.2,0,0,1,.41-2.648,9.063,9.063,0,0,1,1.16-2.633A5.374,5.374,0,0,1,160.477,6.8a4.4,4.4,0,0,1,2.25-.594,9.393,9.393,0,0,1,1.316.086A9,9,0,0,1,165.391,6.609Zm3.641,10.523a2.515,2.515,0,0,1-1.879-.68,2.671,2.671,0,0,1-.668-1.953,6.588,6.588,0,0,1,.188-1.445,5.411,5.411,0,0,1,.813-1.937,3.916,3.916,0,0,1,1.406-1.27,3.871,3.871,0,0,1,1.836-.441,2.521,2.521,0,0,1,1.906.684,2.715,2.715,0,0,1,.656,1.957,6.62,6.62,0,0,1-.316,1.938,5.308,5.308,0,0,1-.867,1.734,3.568,3.568,0,0,1-1.316,1.059A4.131,4.131,0,0,1,169.031,17.133Zm-1.18-2.3a1.9,1.9,0,0,0,.355,1.27,1.345,1.345,0,0,0,1.074.41,1.761,1.761,0,0,0,1.359-.687,4.943,4.943,0,0,0,.938-1.926,8.276,8.276,0,0,0,.344-2.176,2.059,2.059,0,0,0-.328-1.27,1.21,1.21,0,0,0-1.023-.426,1.846,1.846,0,0,0-1.418.68,4.814,4.814,0,0,0-.953,1.945A8.427,8.427,0,0,0,167.852,14.836Zm8.43-2.789a5.6,5.6,0,0,0,.172-1.156.787.787,0,0,0-.1-.453.368.368,0,0,0-.32-.141.874.874,0,0,0-.512.2,5.607,5.607,0,0,0-.738.723l-.445-.437a7.756,7.756,0,0,1,1.2-1.066,1.905,1.905,0,0,1,1.078-.316.982.982,0,0,1,.777.324,1.236,1.236,0,0,1,.285.848,2.689,2.689,0,0,1-.187.922l.094.031a7.228,7.228,0,0,1,1.457-1.6,2.348,2.348,0,0,1,1.426-.52,1.454,1.454,0,0,1,1.117.418,1.633,1.633,0,0,1,.391,1.16,6.237,6.237,0,0,1-.227,1.4l-.508,2.047a5.872,5.872,0,0,0-.211,1.2.787.787,0,0,0,.1.453.368.368,0,0,0,.32.141.869.869,0,0,0,.5-.191,5.49,5.49,0,0,0,.75-.73l.445.438a7.068,7.068,0,0,1-1.172,1.051,2.015,2.015,0,0,1-1.141.332,1.007,1.007,0,0,1-.812-.363,1.391,1.391,0,0,1-.3-.926,6.463,6.463,0,0,1,.258-1.492l.344-1.352q.188-.734.246-1.086a3.628,3.628,0,0,0,.059-.57,1.31,1.31,0,0,0-.18-.777.687.687,0,0,0-.586-.238,1.266,1.266,0,0,0-.707.262,4.031,4.031,0,0,0-.8.789,6.192,6.192,0,0,0-.684,1.023,5.1,5.1,0,0,0-.422,1.223L176.492,17h-1.352Zm12.938-.617a1.71,1.71,0,0,0-.457-1.055,1.629,1.629,0,0,0-1.168-.359,1.519,1.519,0,0,0-1,.316,1.027,1.027,0,0,0-.383.832,1.188,1.188,0,0,0,.1.5,1.5,1.5,0,0,0,.395.473,6.87,6.87,0,0,0,.922.633,6.6,6.6,0,0,1,.789.543,2.618,2.618,0,0,1,.469.488,1.7,1.7,0,0,1,.25.512,2.368,2.368,0,0,1,.078.652,1.933,1.933,0,0,1-.371,1.191,2.2,2.2,0,0,1-1.008.738,4.055,4.055,0,0,1-1.449.242,8.237,8.237,0,0,1-1.273-.1,10.165,10.165,0,0,1-1.391-.332l.375-1.7h.609a1.618,1.618,0,0,0,.422,1.133,1.722,1.722,0,0,0,1.242.383,1.82,1.82,0,0,0,1.16-.332,1.133,1.133,0,0,0,.418-.941,1.435,1.435,0,0,0-.117-.605,1.5,1.5,0,0,0-.383-.488,6.285,6.285,0,0,0-.844-.586,6.85,6.85,0,0,1-.949-.664,2.093,2.093,0,0,1-.512-.645,1.785,1.785,0,0,1-.172-.8,1.813,1.813,0,0,1,.332-1.082,2.1,2.1,0,0,1,.949-.715,3.811,3.811,0,0,1,1.438-.25,9.348,9.348,0,0,1,1.324.086,6.181,6.181,0,0,1,1.191.3l-.352,1.641Zm8.547,3.047a5.6,5.6,0,0,0-.172,1.156.787.787,0,0,0,.1.453.368.368,0,0,0,.32.141.869.869,0,0,0,.5-.191,5.49,5.49,0,0,0,.75-.73l.445.438a6.626,6.626,0,0,1-1.211,1.07,1.971,1.971,0,0,1-1.062.313.991.991,0,0,1-.773-.32,1.223,1.223,0,0,1-.289-.852,2.643,2.643,0,0,1,.188-.922L196.469,15A7.215,7.215,0,0,1,195,16.6a2.349,2.349,0,0,1-1.418.516,1.454,1.454,0,0,1-1.117-.418,1.633,1.633,0,0,1-.391-1.16,6.237,6.237,0,0,1,.227-1.4l.508-2.047a5.872,5.872,0,0,0,.211-1.2.787.787,0,0,0-.1-.453.368.368,0,0,0-.32-.141.874.874,0,0,0-.512.2,5.607,5.607,0,0,0-.738.723l-.445-.437a10.153,10.153,0,0,1,1-.922,2.394,2.394,0,0,1,.645-.355,2.129,2.129,0,0,1,.691-.105.987.987,0,0,1,.789.336,1.342,1.342,0,0,1,.289.906,6.275,6.275,0,0,1-.242,1.539l-.344,1.352q-.133.516-.191.8t-.086.5a2.823,2.823,0,0,0-.027.352,1.31,1.31,0,0,0,.18.777.687.687,0,0,0,.586.238,1.266,1.266,0,0,0,.707-.262,4.031,4.031,0,0,0,.8-.789,6.192,6.192,0,0,0,.684-1.023,5.1,5.1,0,0,0,.422-1.223l.742-3.383h1.352Zm5.57-2.961a6.293,6.293,0,0,1,1.43-1.59,2.421,2.421,0,0,1,1.438-.52,1.471,1.471,0,0,1,1.141.426,1.758,1.758,0,0,1,.391,1.23v.109a.949.949,0,0,1-.008.117,5.717,5.717,0,0,1,1.34-1.418,2.4,2.4,0,0,1,1.387-.465,1.452,1.452,0,0,1,1.109.414,1.63,1.63,0,0,1,.391,1.164,6.237,6.237,0,0,1-.227,1.4l-.508,2.047a5.872,5.872,0,0,0-.211,1.2.787.787,0,0,0,.1.453.368.368,0,0,0,.32.141.869.869,0,0,0,.5-.191,5.49,5.49,0,0,0,.75-.73l.445.438a7.389,7.389,0,0,1-1.172,1.047,2,2,0,0,1-1.141.336,1.007,1.007,0,0,1-.812-.363,1.391,1.391,0,0,1-.3-.926,6.463,6.463,0,0,1,.258-1.492l.344-1.352q.188-.734.246-1.086a3.628,3.628,0,0,0,.059-.57,1.31,1.31,0,0,0-.18-.777.687.687,0,0,0-.586-.238,1.3,1.3,0,0,0-.7.246,3.562,3.562,0,0,0-.789.766,6.35,6.35,0,0,0-.676,1.023,4.923,4.923,0,0,0-.418,1.23L206.539,17h-1.352l.9-3.969q.164-.727.223-1.074a3.675,3.675,0,0,0,.059-.6,1.257,1.257,0,0,0-.2-.8.764.764,0,0,0-.621-.238,1.283,1.283,0,0,0-.676.246,3.586,3.586,0,0,0-.809.789,5.053,5.053,0,0,0-1.078,2.262L202.242,17h-1.352l1.141-4.953a5.6,5.6,0,0,0,.172-1.156.787.787,0,0,0-.1-.453.368.368,0,0,0-.32-.141.874.874,0,0,0-.512.2,5.607,5.607,0,0,0-.738.723l-.445-.437A7.623,7.623,0,0,1,201.27,9.73a1.919,1.919,0,0,1,1.09-.332.982.982,0,0,1,.777.324,1.236,1.236,0,0,1,.285.848,2.632,2.632,0,0,1-.18.914Zm13.383,5.617a2.515,2.515,0,0,1-1.879-.68,2.671,2.671,0,0,1-.668-1.953,6.588,6.588,0,0,1,.188-1.445,5.411,5.411,0,0,1,.813-1.937,3.916,3.916,0,0,1,1.406-1.27,3.871,3.871,0,0,1,1.836-.441,2.521,2.521,0,0,1,1.906.684,2.715,2.715,0,0,1,.656,1.957,6.62,6.62,0,0,1-.316,1.938,5.308,5.308,0,0,1-.867,1.734,3.568,3.568,0,0,1-1.316,1.059A4.131,4.131,0,0,1,216.719,17.133Zm-1.18-2.3a1.9,1.9,0,0,0,.355,1.27,1.345,1.345,0,0,0,1.074.41,1.761,1.761,0,0,0,1.359-.687,4.943,4.943,0,0,0,.938-1.926,8.276,8.276,0,0,0,.344-2.176,2.059,2.059,0,0,0-.328-1.27,1.21,1.21,0,0,0-1.023-.426,1.846,1.846,0,0,0-1.418.68,4.814,4.814,0,0,0-.953,1.945A8.427,8.427,0,0,0,215.539,14.836Zm13.484,3.344h-7.156V17h7.156Zm1.07-5.8a12.079,12.079,0,0,1,.473-3.391,9.85,9.85,0,0,1,1.41-2.953,6,6,0,0,1,1.945-1.875l.3.953a6.222,6.222,0,0,0-1.871,2.672,11.583,11.583,0,0,0-.8,4.023l-.008.664a11.643,11.643,0,0,0,1.1,5.234,6.252,6.252,0,0,0,1.578,2.078l-.3.883a6.192,6.192,0,0,1-1.984-1.937A10.859,10.859,0,0,1,230.094,12.383Zm15.141-6.047H247.7l-.086.383a1.454,1.454,0,0,0-.426.141.771.771,0,0,0-.234.234,1.992,1.992,0,0,0-.211.488q-.105.332-.27,1.082l-1.336,6.063q-.1.461-.133.73a4.276,4.276,0,0,0-.031.488.61.61,0,0,0,.176.5,1.068,1.068,0,0,0,.59.176l-.086.383h-3.125l.086-.383a1.066,1.066,0,0,0,.445-.152.844.844,0,0,0,.25-.293,2.669,2.669,0,0,0,.188-.457q.086-.27.258-1.043l1.039-4.711q.219-.977.5-1.945h-.109q-.242.461-1.094,1.875l-3.555,5.867h-.852l-.648-5.023q-.141-1.062-.312-2.859h-.156q-.266,1.75-.594,3.242l-.8,3.609a5.883,5.883,0,0,0-.164,1.219.61.61,0,0,0,.176.5,1.068,1.068,0,0,0,.59.176l-.086.383h-2.734l.086-.383a1.066,1.066,0,0,0,.445-.152.844.844,0,0,0,.25-.293,2.669,2.669,0,0,0,.188-.457q.086-.27.258-1.043l1.328-6.016q.078-.336.125-.641a4.053,4.053,0,0,0,.047-.617.617.617,0,0,0-.184-.512,1.045,1.045,0,0,0-.582-.168L237,6.336h2.789l.891,7.578Zm9.617,3.578.719-.516.5.125-1.148,4.953a5.5,5.5,0,0,0-.172,1.156.787.787,0,0,0,.1.453.368.368,0,0,0,.32.141.869.869,0,0,0,.5-.191,5.49,5.49,0,0,0,.75-.73l.445.438a6.8,6.8,0,0,1-1.2,1.066,1.96,1.96,0,0,1-1.074.316.991.991,0,0,1-.773-.32,1.223,1.223,0,0,1-.289-.852,2.632,2.632,0,0,1,.18-.914l-.1-.031a6.889,6.889,0,0,1-1.422,1.6,2.32,2.32,0,0,1-1.422.508,1.552,1.552,0,0,1-1.332-.648,3.046,3.046,0,0,1-.473-1.82,6.524,6.524,0,0,1,.527-2.582,4.776,4.776,0,0,1,1.449-1.953,3.271,3.271,0,0,1,2.055-.715,3.809,3.809,0,0,1,.949.113A3.318,3.318,0,0,1,254.852,9.914Zm-.687,2.328a4.931,4.931,0,0,0,.094-.555q.023-.234.023-.508a1.277,1.277,0,0,0-.258-.883,1.145,1.145,0,0,0-.875-.281,1.985,1.985,0,0,0-1.445.648,4.377,4.377,0,0,0-1,1.738,6.913,6.913,0,0,0-.359,2.176,2.585,2.585,0,0,0,.223,1.215.784.784,0,0,0,.746.4,1.515,1.515,0,0,0,1.012-.445,6.2,6.2,0,0,0,1.023-1.27,5.537,5.537,0,0,0,.746-1.9Zm6.359-.828A6.511,6.511,0,0,1,262,9.891a2.515,2.515,0,0,1,1.434-.484,4.445,4.445,0,0,1,.953.086l-.375,1.75h-.8a1.809,1.809,0,0,0-.133-.508.563.563,0,0,0-.2-.25.569.569,0,0,0-.3-.07,1.067,1.067,0,0,0-.613.242,4.2,4.2,0,0,0-.746.758,6.006,6.006,0,0,0-.66.992,5.079,5.079,0,0,0-.41,1.211L259.4,17h-1.352l1.133-4.953a7.321,7.321,0,0,0,.141-.727,3.684,3.684,0,0,0,.031-.43.787.787,0,0,0-.1-.453.368.368,0,0,0-.32-.141.873.873,0,0,0-.512.2,5.607,5.607,0,0,0-.738.723l-.445-.437a7.51,7.51,0,0,1,1.2-1.066,1.916,1.916,0,0,1,1.07-.316.982.982,0,0,1,.777.324,1.237,1.237,0,0,1,.285.848,2.377,2.377,0,0,1-.148.8Zm6.055,6.258a2.617,2.617,0,0,0-.25.355,1.386,1.386,0,0,0-.145.34,1.556,1.556,0,0,0-.043.391.94.94,0,0,0,.422.855,2.4,2.4,0,0,0,1.273.27,2.521,2.521,0,0,0,1.543-.434,3.339,3.339,0,0,0,1-1.395,15.588,15.588,0,0,0,.8-2.906l-.109-.023a7.009,7.009,0,0,1-1.406,1.516,2.315,2.315,0,0,1-1.4.477,1.551,1.551,0,0,1-1.324-.641,3.039,3.039,0,0,1-.473-1.828,6.491,6.491,0,0,1,.523-2.566,4.815,4.815,0,0,1,1.453-1.957,3.281,3.281,0,0,1,2.07-.727,3.58,3.58,0,0,1,.93.117,3.219,3.219,0,0,1,.883.4l.719-.516.5.125-.8,3.641q-.086.383-.391,1.93-.32,1.641-.52,2.32a6.57,6.57,0,0,1-.5,1.238,3.441,3.441,0,0,1-.766.973,3.289,3.289,0,0,1-1.137.641,4.939,4.939,0,0,1-1.582.227q-2.953,0-2.953-1.719a1.309,1.309,0,0,1,.266-.8,3.512,3.512,0,0,1,.852-.758ZM268.82,16.2a1.383,1.383,0,0,0,.793-.273,3.949,3.949,0,0,0,.844-.867,6.291,6.291,0,0,0,.7-1.133,6.556,6.556,0,0,0,.426-1.344,6.68,6.68,0,0,0,.176-1.4,1.275,1.275,0,0,0-.258-.887,1.131,1.131,0,0,0-.859-.277,1.957,1.957,0,0,0-1.43.645,4.429,4.429,0,0,0-1,1.738,6.881,6.881,0,0,0-.363,2.18,2.474,2.474,0,0,0,.234,1.215A.789.789,0,0,0,268.82,16.2Zm12.172-.75a5.939,5.939,0,0,1-1.535,1.258,3.733,3.733,0,0,1-1.809.422,2.236,2.236,0,0,1-1.754-.691,2.78,2.78,0,0,1-.621-1.926,6,6,0,0,1,.3-1.793,5.239,5.239,0,0,1,.91-1.719,4.254,4.254,0,0,1,1.461-1.18,4.06,4.06,0,0,1,1.813-.418,2.22,2.22,0,0,1,1.418.383,1.448,1.448,0,0,1,.473,1.2,2.135,2.135,0,0,1-1.246,1.992,8.1,8.1,0,0,1-3.7.664,5.18,5.18,0,0,0-.094,1.016,1.806,1.806,0,0,0,.32,1.191,1.316,1.316,0,0,0,1.047.371,2.706,2.706,0,0,0,1.3-.312,5.434,5.434,0,0,0,1.23-.961Zm-4.156-2.477a8.37,8.37,0,0,0,1.891-.2,2.53,2.53,0,0,0,1.211-.609,1.518,1.518,0,0,0,.422-1.129,1.138,1.138,0,0,0-.223-.746.807.807,0,0,0-.66-.27,2.084,2.084,0,0,0-1.52.8A5.309,5.309,0,0,0,276.836,12.969Zm7.688-.922a5.594,5.594,0,0,0,.172-1.156.787.787,0,0,0-.1-.453.368.368,0,0,0-.32-.141.873.873,0,0,0-.512.2,5.607,5.607,0,0,0-.738.723l-.445-.437a7.755,7.755,0,0,1,1.2-1.066,1.905,1.905,0,0,1,1.078-.316.982.982,0,0,1,.777.324,1.237,1.237,0,0,1,.285.848,2.689,2.689,0,0,1-.187.922l.094.031a7.227,7.227,0,0,1,1.457-1.6,2.348,2.348,0,0,1,1.426-.52,1.454,1.454,0,0,1,1.117.418,1.633,1.633,0,0,1,.391,1.16,6.238,6.238,0,0,1-.227,1.4l-.508,2.047a5.872,5.872,0,0,0-.211,1.2.787.787,0,0,0,.1.453.368.368,0,0,0,.32.141.869.869,0,0,0,.5-.191,5.489,5.489,0,0,0,.75-.73l.445.438a7.067,7.067,0,0,1-1.172,1.051,2.015,2.015,0,0,1-1.141.332,1.007,1.007,0,0,1-.812-.363,1.391,1.391,0,0,1-.3-.926,6.463,6.463,0,0,1,.258-1.492l.344-1.352q.188-.734.246-1.086a3.628,3.628,0,0,0,.059-.57,1.31,1.31,0,0,0-.18-.777.687.687,0,0,0-.586-.238,1.266,1.266,0,0,0-.707.262,4.031,4.031,0,0,0-.8.789,6.193,6.193,0,0,0-.684,1.023,5.1,5.1,0,0,0-.422,1.223L284.734,17h-1.352ZM301.227,17h-1.453V7.367l-2.914,1.07V7.125L301,5.57h.227Zm7.719-4.539a12.084,12.084,0,0,1-.457,3.34,9.876,9.876,0,0,1-1.4,2.949,6.127,6.127,0,0,1-1.973,1.922l-.3-.883a6.281,6.281,0,0,0,1.934-2.863,12.387,12.387,0,0,0,.746-4.309v-.25a12.862,12.862,0,0,0-.344-3.051,10.3,10.3,0,0,0-.957-2.527,5.838,5.838,0,0,0-1.379-1.742l.3-.883a6.1,6.1,0,0,1,1.965,1.906,9.9,9.9,0,0,1,1.4,2.945A12.363,12.363,0,0,1,308.945,12.461Zm10.438,5.516h-1.242l4.75-12.352h1.234ZM338.234,6.336l-.539,2.4h-.75a5.6,5.6,0,0,0-.117-1.023,1.1,1.1,0,0,0-.207-.473.59.59,0,0,0-.289-.172,2.053,2.053,0,0,0-.48-.043H333.3l-.891,4.094h1.492a1.233,1.233,0,0,0,.848-.262,2.871,2.871,0,0,0,.59-.863h.711l-.7,3h-.664a3.005,3.005,0,0,0-.078-.848.425.425,0,0,0-.23-.281,1.747,1.747,0,0,0-.551-.059h-1.562l-1,4.508h2.313a2.292,2.292,0,0,0,.73-.094,1.518,1.518,0,0,0,.508-.3,2.717,2.717,0,0,0,.477-.59q.238-.379.566-1.027h.758L335.93,17H329l.086-.383a1.066,1.066,0,0,0,.445-.152.844.844,0,0,0,.25-.293,2.667,2.667,0,0,0,.188-.457q.086-.27.258-1.043l1.328-6.016a6.158,6.158,0,0,0,.172-1.258.617.617,0,0,0-.184-.512,1.045,1.045,0,0,0-.582-.168l.086-.383Zm3.68,10.8a5.478,5.478,0,0,1-1.1,2.527,2.4,2.4,0,0,1-1.867.832,2.656,2.656,0,0,1-.516-.039l.133-.687a1.7,1.7,0,0,0,.367.023,1,1,0,0,0,.6-.18,1.624,1.624,0,0,0,.465-.625,6.005,6.005,0,0,0,.395-1.234l1.68-7.43h-1.32l.117-.539a4.922,4.922,0,0,0,.754-.086.854.854,0,0,0,.359-.164.912.912,0,0,0,.219-.285,4.4,4.4,0,0,0,.23-.645,4.158,4.158,0,0,1,1.277-2.113,3.357,3.357,0,0,1,2.2-.707,6.078,6.078,0,0,1,1.32.125l-.3,1.328h-.687a1.5,1.5,0,0,0-.285-.641.663.663,0,0,0-.52-.2,1.171,1.171,0,0,0-.754.246,1.927,1.927,0,0,0-.527.73,7.12,7.12,0,0,0-.406,1.3l-.2.852h2.008l-.172.789h-2.016Zm9.844-10.664L351.4,7.984h-1.383l.359-1.516Zm-2.516,5.266a5.771,5.771,0,0,0,.18-1.172.564.564,0,0,0-.168-.477,1.267,1.267,0,0,0-.66-.141l.086-.414,1.906-.07h.461l-1.125,5.016a5.791,5.791,0,0,0-.172,1.156.787.787,0,0,0,.1.453.368.368,0,0,0,.32.141.869.869,0,0,0,.5-.191,5.489,5.489,0,0,0,.75-.73l.445.438a6.816,6.816,0,0,1-1.242,1.094,2.023,2.023,0,0,1-1.07.289,1,1,0,0,1-.812-.371,1.447,1.447,0,0,1-.3-.949,6.84,6.84,0,0,1,.219-1.516Zm9.055-.328a3.52,3.52,0,0,0-.1-.859.742.742,0,0,0-.266-.4.875.875,0,0,0-.52-.133,1.958,1.958,0,0,0-1.418.629,4.612,4.612,0,0,0-1.027,1.781,6.769,6.769,0,0,0-.4,2.215,1.863,1.863,0,0,0,.313,1.184,1.134,1.134,0,0,0,.938.387,2.639,2.639,0,0,0,1.23-.27,4.607,4.607,0,0,0,1.1-.848l.477.477a5.185,5.185,0,0,1-1.48,1.188,3.525,3.525,0,0,1-1.605.375,2.158,2.158,0,0,1-1.719-.672,2.888,2.888,0,0,1-.586-1.953,6.2,6.2,0,0,1,.313-1.836,5.375,5.375,0,0,1,.914-1.758,3.882,3.882,0,0,1,1.406-1.133,4.019,4.019,0,0,1,1.719-.375,7.384,7.384,0,0,1,1.914.234l-.383,1.766Zm5.891-4.937-.359,1.516h-1.383l.359-1.516Zm-2.516,5.266a5.771,5.771,0,0,0,.18-1.172.564.564,0,0,0-.168-.477,1.267,1.267,0,0,0-.66-.141l.086-.414,1.906-.07h.461l-1.125,5.016a5.791,5.791,0,0,0-.172,1.156.787.787,0,0,0,.1.453.368.368,0,0,0,.32.141.869.869,0,0,0,.5-.191,5.489,5.489,0,0,0,.75-.73l.445.438a6.816,6.816,0,0,1-1.242,1.094,2.023,2.023,0,0,1-1.07.289,1,1,0,0,1-.812-.371,1.447,1.447,0,0,1-.3-.949,6.84,6.84,0,0,1,.219-1.516Zm9.711,3.711a5.939,5.939,0,0,1-1.535,1.258,3.733,3.733,0,0,1-1.809.422,2.236,2.236,0,0,1-1.754-.691,2.78,2.78,0,0,1-.621-1.926,6,6,0,0,1,.3-1.793,5.239,5.239,0,0,1,.91-1.719,4.254,4.254,0,0,1,1.461-1.18,4.06,4.06,0,0,1,1.813-.418,2.22,2.22,0,0,1,1.418.383,1.448,1.448,0,0,1,.473,1.2,2.135,2.135,0,0,1-1.246,1.992,8.1,8.1,0,0,1-3.7.664A5.18,5.18,0,0,0,367,14.648a1.806,1.806,0,0,0,.32,1.191,1.316,1.316,0,0,0,1.047.371,2.706,2.706,0,0,0,1.3-.312,5.434,5.434,0,0,0,1.23-.961Zm-4.156-2.477a8.37,8.37,0,0,0,1.891-.2,2.53,2.53,0,0,0,1.211-.609,1.518,1.518,0,0,0,.422-1.129,1.138,1.138,0,0,0-.223-.746.807.807,0,0,0-.66-.27,2.084,2.084,0,0,0-1.52.8A5.309,5.309,0,0,0,367.227,12.969Zm7.688-.922a5.594,5.594,0,0,0,.172-1.156.787.787,0,0,0-.1-.453.368.368,0,0,0-.32-.141.873.873,0,0,0-.512.2,5.607,5.607,0,0,0-.738.723l-.445-.437a7.755,7.755,0,0,1,1.2-1.066,1.905,1.905,0,0,1,1.078-.316.982.982,0,0,1,.777.324,1.237,1.237,0,0,1,.285.848,2.689,2.689,0,0,1-.187.922l.094.031a7.227,7.227,0,0,1,1.457-1.6,2.348,2.348,0,0,1,1.426-.52,1.454,1.454,0,0,1,1.117.418,1.633,1.633,0,0,1,.391,1.16,6.238,6.238,0,0,1-.227,1.4l-.508,2.047a5.872,5.872,0,0,0-.211,1.2.787.787,0,0,0,.1.453.368.368,0,0,0,.32.141.869.869,0,0,0,.5-.191,5.489,5.489,0,0,0,.75-.73l.445.438a7.067,7.067,0,0,1-1.172,1.051,2.015,2.015,0,0,1-1.141.332,1.007,1.007,0,0,1-.812-.363,1.391,1.391,0,0,1-.3-.926,6.463,6.463,0,0,1,.258-1.492l.344-1.352q.188-.734.246-1.086a3.628,3.628,0,0,0,.059-.57,1.31,1.31,0,0,0-.18-.777.687.687,0,0,0-.586-.238,1.266,1.266,0,0,0-.707.262,4.031,4.031,0,0,0-.8.789,6.193,6.193,0,0,0-.684,1.023,5.1,5.1,0,0,0-.422,1.223L375.125,17h-1.352Zm12.93-.641a3.52,3.52,0,0,0-.1-.859.742.742,0,0,0-.266-.4.875.875,0,0,0-.52-.133,1.958,1.958,0,0,0-1.418.629,4.612,4.612,0,0,0-1.027,1.781,6.769,6.769,0,0,0-.4,2.215,1.863,1.863,0,0,0,.313,1.184,1.134,1.134,0,0,0,.938.387,2.639,2.639,0,0,0,1.23-.27,4.607,4.607,0,0,0,1.1-.848l.477.477a5.185,5.185,0,0,1-1.48,1.188,3.525,3.525,0,0,1-1.605.375,2.158,2.158,0,0,1-1.719-.672,2.888,2.888,0,0,1-.586-1.953,6.2,6.2,0,0,1,.313-1.836,5.375,5.375,0,0,1,.914-1.758,3.882,3.882,0,0,1,1.406-1.133,4.019,4.019,0,0,1,1.719-.375,7.384,7.384,0,0,1,1.914.234l-.383,1.766Zm5.891-4.937-.359,1.516h-1.383l.359-1.516Zm-2.516,5.266a5.771,5.771,0,0,0,.18-1.172.564.564,0,0,0-.168-.477,1.267,1.267,0,0,0-.66-.141l.086-.414,1.906-.07h.461L391.9,14.477a5.791,5.791,0,0,0-.172,1.156.787.787,0,0,0,.1.453.368.368,0,0,0,.32.141.869.869,0,0,0,.5-.191,5.489,5.489,0,0,0,.75-.73l.445.438a6.816,6.816,0,0,1-1.242,1.094,2.023,2.023,0,0,1-1.07.289,1,1,0,0,1-.812-.371,1.447,1.447,0,0,1-.3-.949,6.84,6.84,0,0,1,.219-1.516Zm9.883-1.82.719-.516.5.125-1.148,4.953A5.5,5.5,0,0,0,401,15.633a.787.787,0,0,0,.1.453.368.368,0,0,0,.32.141.869.869,0,0,0,.5-.191,5.489,5.489,0,0,0,.75-.73l.445.438a6.8,6.8,0,0,1-1.2,1.066,1.96,1.96,0,0,1-1.074.316.991.991,0,0,1-.773-.32,1.223,1.223,0,0,1-.289-.852,2.633,2.633,0,0,1,.18-.914l-.1-.031a6.889,6.889,0,0,1-1.422,1.6,2.32,2.32,0,0,1-1.422.508,1.552,1.552,0,0,1-1.332-.648,3.046,3.046,0,0,1-.473-1.82,6.524,6.524,0,0,1,.527-2.582,4.776,4.776,0,0,1,1.449-1.953,3.271,3.271,0,0,1,2.055-.715,3.809,3.809,0,0,1,.949.113A3.318,3.318,0,0,1,401.1,9.914Zm-.687,2.328a4.931,4.931,0,0,0,.094-.555q.023-.234.023-.508a1.277,1.277,0,0,0-.258-.883,1.145,1.145,0,0,0-.875-.281,1.985,1.985,0,0,0-1.445.648,4.377,4.377,0,0,0-1,1.738,6.913,6.913,0,0,0-.359,2.176,2.585,2.585,0,0,0,.223,1.215.784.784,0,0,0,.746.4,1.515,1.515,0,0,0,1.012-.445,6.2,6.2,0,0,0,1.023-1.27,5.537,5.537,0,0,0,.746-1.9Zm9.906,2.484q-.1.461-.133.73a4.272,4.272,0,0,0-.031.488.61.61,0,0,0,.176.5,1.068,1.068,0,0,0,.59.176l-.086.383h-3.125l.086-.383a1.066,1.066,0,0,0,.445-.152.844.844,0,0,0,.25-.293,2.667,2.667,0,0,0,.188-.457q.086-.27.258-1.043l1.328-6.016a6.158,6.158,0,0,0,.172-1.258.617.617,0,0,0-.184-.512,1.045,1.045,0,0,0-.582-.168l.086-.383h3.125l-.086.383a1.454,1.454,0,0,0-.426.141.735.735,0,0,0-.23.234,2.215,2.215,0,0,0-.211.488q-.109.332-.273,1.082Zm5.141-2.68a5.594,5.594,0,0,0,.172-1.156.787.787,0,0,0-.1-.453.368.368,0,0,0-.32-.141.873.873,0,0,0-.512.2,5.607,5.607,0,0,0-.738.723l-.445-.437a7.755,7.755,0,0,1,1.2-1.066,1.905,1.905,0,0,1,1.078-.316.982.982,0,0,1,.777.324,1.237,1.237,0,0,1,.285.848,2.689,2.689,0,0,1-.187.922l.094.031a7.227,7.227,0,0,1,1.457-1.6,2.348,2.348,0,0,1,1.426-.52,1.454,1.454,0,0,1,1.117.418,1.633,1.633,0,0,1,.391,1.16,6.238,6.238,0,0,1-.227,1.4l-.508,2.047a5.872,5.872,0,0,0-.211,1.2.787.787,0,0,0,.1.453.368.368,0,0,0,.32.141.869.869,0,0,0,.5-.191,5.489,5.489,0,0,0,.75-.73l.445.438a7.067,7.067,0,0,1-1.172,1.051,2.015,2.015,0,0,1-1.141.332,1.007,1.007,0,0,1-.812-.363,1.391,1.391,0,0,1-.3-.926,6.463,6.463,0,0,1,.258-1.492l.344-1.352q.188-.734.246-1.086a3.628,3.628,0,0,0,.059-.57,1.31,1.31,0,0,0-.18-.777.687.687,0,0,0-.586-.238,1.266,1.266,0,0,0-.707.262,4.031,4.031,0,0,0-.8.789,6.193,6.193,0,0,0-.684,1.023,5.1,5.1,0,0,0-.422,1.223L415.672,17H414.32Zm9.828,5.086a.617.617,0,0,1-.379-.113.8.8,0,0,1-.246-.32,1.775,1.775,0,0,1-.133-.488,4.5,4.5,0,0,1-.039-.617,8.926,8.926,0,0,1,.055-.953q.055-.508.141-1.023l.328-2.164q.031-.187.051-.355a2.38,2.38,0,0,0,.02-.246.89.89,0,0,0-.078-.4.273.273,0,0,0-.266-.156.7.7,0,0,0-.32.09,2.167,2.167,0,0,0-.348.23q-.176.141-.34.3t-.3.3l-.375-.437q.242-.25.516-.5a4.744,4.744,0,0,1,.578-.445,3.069,3.069,0,0,1,.641-.32,2.013,2.013,0,0,1,.688-.121,1.047,1.047,0,0,1,.484.1.765.765,0,0,1,.293.258,1,1,0,0,1,.145.352,1.892,1.892,0,0,1,.039.379q0,.109-.008.211a1.847,1.847,0,0,1-.023.188l-.437,2.828q-.07.445-.117.871a6.979,6.979,0,0,0-.047.754,2.917,2.917,0,0,0,.039.531q.039.2.148.2a1.469,1.469,0,0,0,.648-.207,4.705,4.705,0,0,0,.82-.57,7.864,7.864,0,0,0,.859-.859,7.458,7.458,0,0,0,.773-1.074,6.293,6.293,0,0,0,.559-1.219,4.032,4.032,0,0,0,.215-1.289.682.682,0,0,0-.121-.434.455.455,0,0,0-.379-.152.88.88,0,0,0-.605.254,4.315,4.315,0,0,0-.574.668l-.445-.4a3.778,3.778,0,0,1,.98-.992,2.859,2.859,0,0,1,.59-.312,1.648,1.648,0,0,1,.594-.117,1.014,1.014,0,0,1,.813.293,1.169,1.169,0,0,1,.25.785,3.3,3.3,0,0,1-.133.859,7.078,7.078,0,0,1-.375,1.023,11.053,11.053,0,0,1-.578,1.105,11.651,11.651,0,0,1-.742,1.1,10.763,10.763,0,0,1-.867,1.008,6.965,6.965,0,0,1-.957.824,4.968,4.968,0,0,1-1.008.559A2.7,2.7,0,0,1,425.289,17.133Zm12.461-1.687a5.939,5.939,0,0,1-1.535,1.258,3.733,3.733,0,0,1-1.809.422,2.236,2.236,0,0,1-1.754-.691,2.78,2.78,0,0,1-.621-1.926,6,6,0,0,1,.3-1.793,5.239,5.239,0,0,1,.91-1.719,4.254,4.254,0,0,1,1.461-1.18,4.06,4.06,0,0,1,1.813-.418,2.22,2.22,0,0,1,1.418.383,1.448,1.448,0,0,1,.473,1.2,2.135,2.135,0,0,1-1.246,1.992,8.1,8.1,0,0,1-3.7.664,5.18,5.18,0,0,0-.094,1.016,1.806,1.806,0,0,0,.32,1.191,1.316,1.316,0,0,0,1.047.371,2.706,2.706,0,0,0,1.3-.312,5.434,5.434,0,0,0,1.23-.961Zm-4.156-2.477a8.37,8.37,0,0,0,1.891-.2,2.53,2.53,0,0,0,1.211-.609,1.518,1.518,0,0,0,.422-1.129,1.138,1.138,0,0,0-.223-.746.807.807,0,0,0-.66-.27,2.084,2.084,0,0,0-1.52.8A5.309,5.309,0,0,0,433.594,12.969Zm9.023-1.555a6.511,6.511,0,0,1,1.473-1.523,2.515,2.515,0,0,1,1.434-.484,4.445,4.445,0,0,1,.953.086l-.375,1.75h-.8a1.809,1.809,0,0,0-.133-.508.563.563,0,0,0-.2-.25.569.569,0,0,0-.3-.07,1.067,1.067,0,0,0-.613.242,4.2,4.2,0,0,0-.746.758,6.006,6.006,0,0,0-.66.992,5.079,5.079,0,0,0-.41,1.211L441.492,17h-1.352l1.133-4.953a7.321,7.321,0,0,0,.141-.727,3.684,3.684,0,0,0,.031-.43.787.787,0,0,0-.1-.453.368.368,0,0,0-.32-.141.873.873,0,0,0-.512.2,5.607,5.607,0,0,0-.738.723l-.445-.437a7.51,7.51,0,0,1,1.2-1.066A1.916,1.916,0,0,1,441.6,9.4a.982.982,0,0,1,.777.324,1.237,1.237,0,0,1,.285.848,2.377,2.377,0,0,1-.148.8Zm10.031.016a1.71,1.71,0,0,0-.457-1.055,1.629,1.629,0,0,0-1.168-.359,1.519,1.519,0,0,0-1,.316,1.027,1.027,0,0,0-.383.832,1.188,1.188,0,0,0,.1.5,1.5,1.5,0,0,0,.395.473,6.87,6.87,0,0,0,.922.633,6.6,6.6,0,0,1,.789.543,2.619,2.619,0,0,1,.469.488,1.7,1.7,0,0,1,.25.512,2.367,2.367,0,0,1,.078.652,1.932,1.932,0,0,1-.371,1.191,2.2,2.2,0,0,1-1.008.738,4.055,4.055,0,0,1-1.449.242,8.237,8.237,0,0,1-1.273-.1,10.165,10.165,0,0,1-1.391-.332l.375-1.7h.609a1.618,1.618,0,0,0,.422,1.133,1.722,1.722,0,0,0,1.242.383,1.82,1.82,0,0,0,1.16-.332,1.133,1.133,0,0,0,.418-.941,1.435,1.435,0,0,0-.117-.605,1.5,1.5,0,0,0-.383-.488,6.287,6.287,0,0,0-.844-.586,6.85,6.85,0,0,1-.949-.664,2.093,2.093,0,0,1-.512-.645,1.784,1.784,0,0,1-.172-.8,1.813,1.813,0,0,1,.332-1.082,2.1,2.1,0,0,1,.949-.715,3.811,3.811,0,0,1,1.438-.25,9.348,9.348,0,0,1,1.324.086,6.181,6.181,0,0,1,1.191.3l-.352,1.641Zm4.906,5.7a2.515,2.515,0,0,1-1.879-.68,2.671,2.671,0,0,1-.668-1.953,6.588,6.588,0,0,1,.188-1.445,5.411,5.411,0,0,1,.813-1.937,3.916,3.916,0,0,1,1.406-1.27,3.871,3.871,0,0,1,1.836-.441,2.521,2.521,0,0,1,1.906.684,2.715,2.715,0,0,1,.656,1.957,6.62,6.62,0,0,1-.316,1.938,5.308,5.308,0,0,1-.867,1.734,3.568,3.568,0,0,1-1.316,1.059A4.131,4.131,0,0,1,457.555,17.133Zm-1.18-2.3a1.9,1.9,0,0,0,.355,1.27,1.345,1.345,0,0,0,1.074.41,1.761,1.761,0,0,0,1.359-.687A4.943,4.943,0,0,0,460.1,13.9a8.276,8.276,0,0,0,.344-2.176,2.059,2.059,0,0,0-.328-1.27,1.211,1.211,0,0,0-1.023-.426,1.846,1.846,0,0,0-1.418.68,4.814,4.814,0,0,0-.953,1.945A8.426,8.426,0,0,0,456.375,14.836Zm9.766-3.422a6.511,6.511,0,0,1,1.473-1.523,2.515,2.515,0,0,1,1.434-.484,4.445,4.445,0,0,1,.953.086l-.375,1.75h-.8a1.809,1.809,0,0,0-.133-.508.563.563,0,0,0-.2-.25.569.569,0,0,0-.3-.07,1.067,1.067,0,0,0-.613.242,4.2,4.2,0,0,0-.746.758,6.006,6.006,0,0,0-.66.992,5.079,5.079,0,0,0-.41,1.211L465.016,17h-1.352l1.133-4.953a7.321,7.321,0,0,0,.141-.727,3.684,3.684,0,0,0,.031-.43.787.787,0,0,0-.1-.453.368.368,0,0,0-.32-.141.873.873,0,0,0-.512.2,5.607,5.607,0,0,0-.738.723l-.445-.437a7.51,7.51,0,0,1,1.2-1.066,1.916,1.916,0,0,1,1.07-.316.982.982,0,0,1,.777.324,1.237,1.237,0,0,1,.285.848,2.377,2.377,0,0,1-.148.8Zm8.922-3.6a2.308,2.308,0,0,1,.652-1.687,2.451,2.451,0,0,1,3.359,0,2.388,2.388,0,0,1,.645,1.73v.555a2.278,2.278,0,0,1-.652,1.684,2.249,2.249,0,0,1-1.66.652,2.3,2.3,0,0,1-1.68-.652,2.326,2.326,0,0,1-.664-1.738Zm1.078.6a1.478,1.478,0,0,0,.344,1.006,1.16,1.16,0,0,0,.922.4,1.137,1.137,0,0,0,.895-.384,1.527,1.527,0,0,0,.34-1.049V7.808A1.515,1.515,0,0,0,478.3,6.8a1.246,1.246,0,0,0-1.828,0,1.563,1.563,0,0,0-.336,1.041Zm4.461,5.8a2.3,2.3,0,0,1,.652-1.684,2.467,2.467,0,0,1,3.355,0,2.355,2.355,0,0,1,.656,1.742v.555a2.3,2.3,0,0,1-.652,1.684,2.244,2.244,0,0,1-1.668.66,2.3,2.3,0,0,1-1.68-.652,2.326,2.326,0,0,1-.664-1.738Zm1.078.606a1.49,1.49,0,0,0,.344,1.014,1.16,1.16,0,0,0,.922.4,1.129,1.129,0,0,0,.9-.388,1.553,1.553,0,0,0,.336-1.053v-.579a1.485,1.485,0,0,0-.34-1.01,1.249,1.249,0,0,0-1.812,0,1.508,1.508,0,0,0-.348,1.045Zm-3.945,1.323-.82-.516,5.555-8.891.82.516Zm19.891-5.5h-6.516V9.383h6.516Zm0,3.242h-6.516v-1.25h6.516ZM136.348,34.609h1.086a2.387,2.387,0,0,0,1.609-.539,1.8,1.8,0,0,0,.586-1.414,1.764,1.764,0,0,0-1.992-2,2.072,2.072,0,0,0-1.5.535,1.873,1.873,0,0,0-.559,1.418h-1.445a2.9,2.9,0,0,1,.988-2.246,3.6,3.6,0,0,1,2.512-.895,3.558,3.558,0,0,1,2.523.852,3.076,3.076,0,0,1,.914,2.367,2.5,2.5,0,0,1-.48,1.438,2.9,2.9,0,0,1-1.309,1.039,2.8,2.8,0,0,1,1.449.984,2.734,2.734,0,0,1,.512,1.68,3.1,3.1,0,0,1-1,2.43,3.745,3.745,0,0,1-2.6.9,3.844,3.844,0,0,1-2.605-.867,2.877,2.877,0,0,1-1-2.289h1.453a1.859,1.859,0,0,0,.586,1.438,2.229,2.229,0,0,0,1.57.539,2.187,2.187,0,0,0,1.6-.547,2.108,2.108,0,0,0,.555-1.57,1.912,1.912,0,0,0-.609-1.523,2.655,2.655,0,0,0-1.758-.547h-1.086Zm7.063,5.633a.905.905,0,0,1,.223-.625.848.848,0,0,1,.668-.25.874.874,0,0,1,.676.25.887.887,0,0,1,.23.625.839.839,0,0,1-.23.6.89.89,0,0,1-.676.242.8.8,0,0,1-.891-.844Zm11.164-4.094a6.61,6.61,0,0,1-.867,3.773,3.6,3.6,0,0,1-5.406.027,6.274,6.274,0,0,1-.906-3.605v-1.93a6.463,6.463,0,0,1,.867-3.727,3.668,3.668,0,0,1,5.422-.043,6.237,6.237,0,0,1,.891,3.629Zm-1.445-1.977a5.3,5.3,0,0,0-.516-2.676,1.775,1.775,0,0,0-1.633-.84,1.751,1.751,0,0,0-1.617.836,5.171,5.171,0,0,0-.523,2.57v2.313a5.381,5.381,0,0,0,.535,2.723,1.771,1.771,0,0,0,1.621.879,1.747,1.747,0,0,0,1.59-.828,5.186,5.186,0,0,0,.543-2.609Zm9.4,3.008h1.578v1.18h-1.578V41h-1.453V38.359h-5.18v-.852l5.094-7.883h1.539Zm-4.992,0h3.539V31.6l-.172.313Zm15.008-1.031a6.61,6.61,0,0,1-.867,3.773,3.6,3.6,0,0,1-5.406.027,6.274,6.274,0,0,1-.906-3.605v-1.93a6.463,6.463,0,0,1,.867-3.727,3.668,3.668,0,0,1,5.422-.043,6.237,6.237,0,0,1,.891,3.629ZM171.1,34.172a5.3,5.3,0,0,0-.516-2.676,1.775,1.775,0,0,0-1.633-.84,1.751,1.751,0,0,0-1.617.836,5.171,5.171,0,0,0-.523,2.57v2.313a5.381,5.381,0,0,0,.535,2.723,1.771,1.771,0,0,0,1.621.879,1.747,1.747,0,0,0,1.59-.828,5.186,5.186,0,0,0,.543-2.609Zm3.4,9.094-.82-.562a3.77,3.77,0,0,0,.766-2.109v-1.3h1.414v1.133A3.559,3.559,0,0,1,175.469,42,3.7,3.7,0,0,1,174.5,43.266Zm8.711-13.648v1.227h-.266a3.805,3.805,0,0,0-2.687,1A4.161,4.161,0,0,0,179.1,34.57a3.085,3.085,0,0,1,2.453-1.031,2.95,2.95,0,0,1,2.371,1.047,4.038,4.038,0,0,1,.887,2.7,4.025,4.025,0,0,1-.957,2.813,3.3,3.3,0,0,1-2.566,1.055,3.247,3.247,0,0,1-2.648-1.254,4.97,4.97,0,0,1-1.016-3.23v-.555a7.488,7.488,0,0,1,1.34-4.8,4.921,4.921,0,0,1,3.988-1.7Zm-1.9,5.125a2.429,2.429,0,0,0-2.234,1.563v.531a3.731,3.731,0,0,0,.633,2.266,1.9,1.9,0,0,0,1.578.859,1.838,1.838,0,0,0,1.535-.719,3.452,3.452,0,0,0-.008-3.777A1.816,1.816,0,0,0,181.309,34.742ZM197.066,41.1V35.383q0-1.391.07-2.9h-.078l-4.18,8.617h-1.227l-.367-8.687a4.279,4.279,0,0,0-.137-.992,1.06,1.06,0,0,0-.285-.5.967.967,0,0,0-.508-.2l.086-.383H193.7l-.086.383a.872.872,0,0,0-.551.207.979.979,0,0,0-.277.5,3.941,3.941,0,0,0-.078.895v.266q0,.141.008.289l.07,3.055q.008.336.008,1.664l-.008,1.633h.078l4.32-8.891h1.18v5.211q0,1.289-.07,3.68h.078l3.164-6.117q.18-.344.379-.809a2.1,2.1,0,0,0,.2-.8q0-.656-.781-.781l.086-.383h3.2l-.086.383a1.165,1.165,0,0,0-.687.395,7.167,7.167,0,0,0-.875,1.355l-4.7,8.633Zm10.391-9.031a6.35,6.35,0,0,0,.188-1.156.513.513,0,0,0-.2-.461,1.455,1.455,0,0,0-.715-.148l.094-.406,1.977-.07h.453l-1.344,5.414.094.031a6.17,6.17,0,0,1,1.4-1.426,2.378,2.378,0,0,1,1.332-.441,1.454,1.454,0,0,1,1.117.418,1.633,1.633,0,0,1,.391,1.16,6.237,6.237,0,0,1-.227,1.4l-.508,2.047a5.872,5.872,0,0,0-.211,1.2.787.787,0,0,0,.1.453.368.368,0,0,0,.32.141.869.869,0,0,0,.5-.191,5.491,5.491,0,0,0,.75-.73l.445.438a6.9,6.9,0,0,1-1.23,1.086,2.017,2.017,0,0,1-1.082.3,1,1,0,0,1-.809-.359,1.4,1.4,0,0,1-.3-.93,6.463,6.463,0,0,1,.258-1.492l.336-1.352q.18-.727.242-1.09a3.572,3.572,0,0,0,.063-.566,1.3,1.3,0,0,0-.18-.785.7.7,0,0,0-.586-.23,1.3,1.3,0,0,0-.711.266,3.885,3.885,0,0,0-.82.809,6.384,6.384,0,0,0-.684,1.039,4.843,4.843,0,0,0-.4,1.184L206.8,41h-1.352Zm11.492,9.906h-1.242l4.75-12.352h1.234Zm10.211-5.594a12.079,12.079,0,0,1,.473-3.391,9.85,9.85,0,0,1,1.41-2.953,6,6,0,0,1,1.945-1.875l.3.953a6.222,6.222,0,0,0-1.871,2.672,11.583,11.583,0,0,0-.8,4.023l-.008.664a11.643,11.643,0,0,0,1.1,5.234,6.252,6.252,0,0,0,1.578,2.078l-.3.883A6.192,6.192,0,0,1,231,42.734,10.859,10.859,0,0,1,229.16,36.383Zm12.273-3.789a2.641,2.641,0,0,1-.449,1.516,3.057,3.057,0,0,1-1.215,1.039,3.26,3.26,0,0,1,1.41,1.117,2.811,2.811,0,0,1,.52,1.664,2.972,2.972,0,0,1-1,2.352,4.367,4.367,0,0,1-5.25,0,2.986,2.986,0,0,1-.988-2.348,2.9,2.9,0,0,1,.5-1.664,3.136,3.136,0,0,1,1.395-1.125,2.981,2.981,0,0,1-1.2-1.039,2.679,2.679,0,0,1-.437-1.508,2.94,2.94,0,0,1,.922-2.281,3.915,3.915,0,0,1,4.855,0A2.934,2.934,0,0,1,241.434,32.594Zm-1.18,5.3a2.1,2.1,0,0,0-.605-1.555,2.147,2.147,0,0,0-1.582-.6A2.034,2.034,0,0,0,235.91,37.9a2.019,2.019,0,0,0,.574,1.523,2.565,2.565,0,0,0,3.191,0A2.014,2.014,0,0,0,240.254,37.9Zm-2.172-7.242a1.865,1.865,0,0,0-1.379.527,2.182,2.182,0,0,0-.008,2.836,2.064,2.064,0,0,0,2.773,0,2.138,2.138,0,0,0-.02-2.816A1.839,1.839,0,0,0,238.082,30.656Zm6.1,4.641.578-5.672h5.828v1.336h-4.6l-.344,3.1a3.671,3.671,0,0,1,1.9-.492,3.138,3.138,0,0,1,2.469,1.027,4.026,4.026,0,0,1,.914,2.777,3.886,3.886,0,0,1-.949,2.77,3.46,3.46,0,0,1-2.652,1.012,3.6,3.6,0,0,1-2.461-.836,3.337,3.337,0,0,1-1.086-2.312h1.367a2.3,2.3,0,0,0,.7,1.473,2.162,2.162,0,0,0,1.484.5,1.95,1.95,0,0,0,1.582-.687,2.874,2.874,0,0,0,.574-1.9,2.638,2.638,0,0,0-.621-1.832,2.113,2.113,0,0,0-1.652-.691,2.383,2.383,0,0,0-1.484.414l-.383.313Zm8.758,6.68H251.7l4.75-12.352h1.234ZM263.848,41h-1.453V31.367l-2.914,1.07V31.125l4.141-1.555h.227Zm11.367-4.852a6.61,6.61,0,0,1-.867,3.773,3.6,3.6,0,0,1-5.406.027,6.274,6.274,0,0,1-.906-3.605v-1.93a6.463,6.463,0,0,1,.867-3.727,3.668,3.668,0,0,1,5.422-.043,6.237,6.237,0,0,1,.891,3.629Zm-1.445-1.977a5.3,5.3,0,0,0-.516-2.676,1.775,1.775,0,0,0-1.633-.84,1.751,1.751,0,0,0-1.617.836,5.171,5.171,0,0,0-.523,2.57v2.313a5.381,5.381,0,0,0,.535,2.723,1.771,1.771,0,0,0,1.621.879,1.747,1.747,0,0,0,1.59-.828,5.186,5.186,0,0,0,.543-2.609Zm10.43,1.977a6.61,6.61,0,0,1-.867,3.773,3.6,3.6,0,0,1-5.406.027,6.274,6.274,0,0,1-.906-3.605v-1.93a6.463,6.463,0,0,1,.867-3.727,3.668,3.668,0,0,1,5.422-.043,6.237,6.237,0,0,1,.891,3.629Zm-1.445-1.977a5.3,5.3,0,0,0-.516-2.676,1.775,1.775,0,0,0-1.633-.84,1.751,1.751,0,0,0-1.617.836,5.171,5.171,0,0,0-.523,2.57v2.313A5.381,5.381,0,0,0,279,39.1a1.771,1.771,0,0,0,1.621.879,1.747,1.747,0,0,0,1.59-.828,5.186,5.186,0,0,0,.543-2.609Zm6.781,2.289a12.085,12.085,0,0,1-.457,3.34,9.876,9.876,0,0,1-1.4,2.949,6.127,6.127,0,0,1-1.973,1.922l-.3-.883a6.281,6.281,0,0,0,1.934-2.863,12.387,12.387,0,0,0,.746-4.309v-.25a12.862,12.862,0,0,0-.344-3.051,10.3,10.3,0,0,0-.957-2.527,5.838,5.838,0,0,0-1.379-1.742l.3-.883a6.1,6.1,0,0,1,1.965,1.906,9.9,9.9,0,0,1,1.4,2.945A12.363,12.363,0,0,1,289.535,36.461Zm12.8-1.82h-6.516V33.383h6.516Zm0,3.242h-6.516v-1.25h6.516Zm4.125-3.273h1.086a2.387,2.387,0,0,0,1.609-.539,1.8,1.8,0,0,0,.586-1.414,1.764,1.764,0,0,0-1.992-2,2.072,2.072,0,0,0-1.5.535,1.873,1.873,0,0,0-.559,1.418h-1.445a2.9,2.9,0,0,1,.988-2.246,3.6,3.6,0,0,1,2.512-.895,3.558,3.558,0,0,1,2.523.852,3.076,3.076,0,0,1,.914,2.367,2.5,2.5,0,0,1-.48,1.438,2.9,2.9,0,0,1-1.309,1.039,2.8,2.8,0,0,1,1.449.984,2.734,2.734,0,0,1,.512,1.68,3.1,3.1,0,0,1-1,2.43,3.745,3.745,0,0,1-2.6.9,3.844,3.844,0,0,1-2.605-.867,2.877,2.877,0,0,1-1-2.289H305.6a1.859,1.859,0,0,0,.586,1.438,2.229,2.229,0,0,0,1.57.539,2.187,2.187,0,0,0,1.6-.547,2.108,2.108,0,0,0,.555-1.57,1.912,1.912,0,0,0-.609-1.523,2.655,2.655,0,0,0-1.758-.547h-1.086Zm7.063,5.633a.905.905,0,0,1,.223-.625.848.848,0,0,1,.668-.25.874.874,0,0,1,.676.25.887.887,0,0,1,.23.625.839.839,0,0,1-.23.6.89.89,0,0,1-.676.242.8.8,0,0,1-.891-.844Zm4.7-4.945.578-5.672h5.828v1.336h-4.6l-.344,3.1a3.671,3.671,0,0,1,1.9-.492,3.138,3.138,0,0,1,2.469,1.027,4.026,4.026,0,0,1,.914,2.777,3.886,3.886,0,0,1-.949,2.77,3.46,3.46,0,0,1-2.652,1.012,3.6,3.6,0,0,1-2.461-.836,3.337,3.337,0,0,1-1.086-2.312h1.367a2.3,2.3,0,0,0,.7,1.473,2.162,2.162,0,0,0,1.484.5,1.95,1.95,0,0,0,1.582-.687,2.874,2.874,0,0,0,.574-1.9,2.638,2.638,0,0,0-.621-1.832,2.113,2.113,0,0,0-1.652-.691,2.383,2.383,0,0,0-1.484.414l-.383.313Zm15.664-4.859L329.168,41h-1.516l4.7-10.187h-6.156V29.625h7.688Zm8.984,0L338.152,41h-1.516l4.7-10.187h-6.156V29.625h7.688Zm1.742,12.828-.82-.562a3.77,3.77,0,0,0,.766-2.109v-1.3h1.414v1.133A3.559,3.559,0,0,1,345.578,42,3.7,3.7,0,0,1,344.605,43.266ZM352.395,41h-1.453V31.367l-2.914,1.07V31.125l4.141-1.555h.227Zm11.133-8.406a2.642,2.642,0,0,1-.449,1.516,3.057,3.057,0,0,1-1.215,1.039,3.26,3.26,0,0,1,1.41,1.117,2.811,2.811,0,0,1,.52,1.664,2.972,2.972,0,0,1-1,2.352,4.367,4.367,0,0,1-5.25,0,2.986,2.986,0,0,1-.988-2.348,2.9,2.9,0,0,1,.5-1.664,3.136,3.136,0,0,1,1.395-1.125,2.981,2.981,0,0,1-1.2-1.039,2.679,2.679,0,0,1-.437-1.508,2.94,2.94,0,0,1,.922-2.281,3.915,3.915,0,0,1,4.855,0A2.934,2.934,0,0,1,363.527,32.594Zm-1.18,5.3a2.1,2.1,0,0,0-.605-1.555,2.147,2.147,0,0,0-1.582-.6A2.034,2.034,0,0,0,358,37.9a2.019,2.019,0,0,0,.574,1.523,2.565,2.565,0,0,0,3.191,0A2.014,2.014,0,0,0,362.348,37.9Zm-2.172-7.242a1.865,1.865,0,0,0-1.379.527,2.182,2.182,0,0,0-.008,2.836,2.064,2.064,0,0,0,2.773,0,2.138,2.138,0,0,0-.02-2.816A1.839,1.839,0,0,0,360.176,30.656ZM376.16,41.1V35.383q0-1.391.07-2.9h-.078l-4.18,8.617h-1.227l-.367-8.687a4.28,4.28,0,0,0-.137-.992,1.06,1.06,0,0,0-.285-.5.967.967,0,0,0-.508-.2l.086-.383h3.258l-.086.383a.872.872,0,0,0-.551.207.979.979,0,0,0-.277.5,3.94,3.94,0,0,0-.078.895v.266q0,.141.008.289l.07,3.055q.008.336.008,1.664l-.008,1.633h.078l4.32-8.891h1.18v5.211q0,1.289-.07,3.68h.078l3.164-6.117q.18-.344.379-.809a2.1,2.1,0,0,0,.2-.8q0-.656-.781-.781l.086-.383h3.2l-.086.383a1.165,1.165,0,0,0-.687.395,7.168,7.168,0,0,0-.875,1.355l-4.7,8.633Zm10.391-9.031a6.35,6.35,0,0,0,.188-1.156.513.513,0,0,0-.2-.461,1.455,1.455,0,0,0-.715-.148l.094-.406,1.977-.07h.453L387,35.242l.094.031a6.17,6.17,0,0,1,1.4-1.426,2.378,2.378,0,0,1,1.332-.441,1.454,1.454,0,0,1,1.117.418,1.633,1.633,0,0,1,.391,1.16,6.238,6.238,0,0,1-.227,1.4l-.508,2.047a5.872,5.872,0,0,0-.211,1.2.787.787,0,0,0,.1.453.368.368,0,0,0,.32.141.869.869,0,0,0,.5-.191,5.489,5.489,0,0,0,.75-.73l.445.438a6.9,6.9,0,0,1-1.23,1.086,2.017,2.017,0,0,1-1.082.3,1,1,0,0,1-.809-.359,1.4,1.4,0,0,1-.3-.93,6.463,6.463,0,0,1,.258-1.492l.336-1.352q.18-.727.242-1.09a3.574,3.574,0,0,0,.063-.566,1.305,1.305,0,0,0-.18-.785.7.7,0,0,0-.586-.23,1.3,1.3,0,0,0-.711.266,3.886,3.886,0,0,0-.82.809,6.384,6.384,0,0,0-.684,1.039,4.843,4.843,0,0,0-.4,1.184L385.895,41h-1.352Z" transform="translate(330 9849)" fill="#12263f"/>
      <g id="Grupo_936598" data-name="Grupo 936598" transform="translate(602.813 9728.49)">
        <path id="Trazado_677985" data-name="Trazado 677985" d="M321.889,175.4c5.455-3.987,6.384-12,2.08-17.884a13.155,13.155,0,0,0-14.275-5.144,21.888,21.888,0,0,0-1.406-2.2c-6.38-8.73-18.1-11.017-26.188-5.107a17.384,17.384,0,0,0-6.922,11.9,8.586,8.586,0,0,0-5.653,1.611c-4.029,2.943-4.715,8.856-1.535,13.206s9.024,5.493,13.05,2.549c.079-.057.144-.119.218-.178,6.627,6.533,22.574,1.951,29.786-3.32.721-.526-4.452,4.735-3.839,4.119A12.356,12.356,0,0,0,321.889,175.4Z" fill="#90cc3a"/>
        <path id="Trazado_677986" data-name="Trazado 677986" d="M362.369,175.694a8.919,8.919,0,0,0,1.707-12.495,9.059,9.059,0,0,0-10-3.4,14.032,14.032,0,0,0-.963-1.515,13.217,13.217,0,0,0-18.41-3.211,12.679,12.679,0,0,0-5.045,8.391,6.3,6.3,0,0,0-4.01,1.2,6.712,6.712,0,0,0,7.915,10.83c.056-.041.1-.086.156-.128A13.115,13.115,0,0,0,350.58,176.8a12.57,12.57,0,0,0,1.434-1.225A8.784,8.784,0,0,0,362.369,175.694Z" fill="#81b526"/>
        <path id="Trazado_677987" data-name="Trazado 677987" d="M442.442,174.447a8.918,8.918,0,0,0,1.707-12.5,9.057,9.057,0,0,0-10-3.394,14.292,14.292,0,0,0-.962-1.516,13.217,13.217,0,0,0-18.411-3.21,12.682,12.682,0,0,0-5.045,8.391,6.3,6.3,0,0,0-4.009,1.2,6.711,6.711,0,0,0,7.914,10.83c.056-.041.1-.085.156-.127a13.116,13.116,0,0,0,16.865,1.434,12.565,12.565,0,0,0,1.434-1.224A8.785,8.785,0,0,0,442.442,174.447Z" fill="#81b526"/>
        <path id="Trazado_677988" data-name="Trazado 677988" d="M468.923,176.057c0,1.878-48.294,3.4-107.866,3.4s-107.87-1.524-107.87-3.4,48.295-3.4,107.87-3.4S468.923,174.178,468.923,176.057Z" fill="#90cc3a"/>
        <g id="Grupo_936378" data-name="Grupo 936378">
          <g id="Grupo_936374" data-name="Grupo 936374">
            <g id="Grupo_936373" data-name="Grupo 936373">
              <path id="Trazado_677989" data-name="Trazado 677989" d="M396.867,91.952a6.048,6.048,0,1,1-5.781-6.3A6.037,6.037,0,0,1,396.867,91.952Z" fill="#ebf9fc"/>
            </g>
          </g>
          <g id="Grupo_936375" data-name="Grupo 936375">
            <path id="Trazado_677990" data-name="Trazado 677990" d="M411.857,88.331a8.2,8.2,0,0,1-2.534-7.022c.238-1.528,4.534-4.186,4.534-4.186l-6.41-6.966s-3.006,4.075-4.543,4.181a7.676,7.676,0,0,1-6.444-3c-.908-1.249.268-6.163.268-6.163l-9.466-.408s.74,5-.265,6.163a6.57,6.57,0,0,1-5.92,2.014c-1.515-.3-3.964-4.719-3.964-4.719l-7.253,6.09s3.927,3.183,3.967,4.72a8.7,8.7,0,0,1-3.478,6.984c-1.26.9-6.17-.344-6.17-.344l-.53,9.46s5-.686,6.149.337a8.208,8.208,0,0,1,2.537,7.026c-.234,1.525-4.537,4.184-4.537,4.184l6.408,6.964s3-4.071,4.547-4.179a7.726,7.726,0,0,1,6.448,3c.907,1.251-.261,6.162-.261,6.162l9.459.408s-.748-5,.258-6.162a6.6,6.6,0,0,1,5.931-2.014c1.509.307,3.962,4.723,3.962,4.723l7.25-6.093s-3.923-3.182-3.969-4.722a8.714,8.714,0,0,1,3.479-6.982c1.26-.891,6.173.349,6.173.349l.524-9.457S413.011,89.355,411.857,88.331Zm-21.7,19.029a15.687,15.687,0,1,1,16.348-14.994A15.683,15.683,0,0,1,390.159,107.36Z" fill="#ebf9fc"/>
          </g>
          <g id="Grupo_936377" data-name="Grupo 936377">
            <g id="Grupo_936376" data-name="Grupo 936376">
              <path id="Trazado_677991" data-name="Trazado 677991" d="M402.811,92.419a11.987,11.987,0,1,1-11.458-12.495A11.981,11.981,0,0,1,402.811,92.419Z" fill="#ebf9fc"/>
            </g>
          </g>
        </g>
        <g id="Grupo_936379" data-name="Grupo 936379">
          <path id="Trazado_677992" data-name="Trazado 677992" d="M306.335,136.27l-.149-.606c41.017-10.14,54.274-33.093,54.4-33.323l.543.305C361,102.878,347.611,126.065,306.335,136.27Z" fill="#848fb7"/>
        </g>
        <g id="Grupo_936380" data-name="Grupo 936380">
          <path id="Trazado_677993" data-name="Trazado 677993" d="M333.137,138.016q-1.5,0-3.1-.092l.036-.623c14.9.89,22.639-4.884,22.716-4.943l.377.5C353.1,132.909,346.248,138.016,333.137,138.016Z" fill="#848fb7"/>
        </g>
        <g id="Grupo_936381" data-name="Grupo 936381">
          <path id="Trazado_677994" data-name="Trazado 677994" d="M308.536,135.967a.907.907,0,0,1-.906.906h-2.737a.908.908,0,0,1-.908-.906h0a.908.908,0,0,1,.908-.907h2.737a.907.907,0,0,1,.906.907Z" fill="#64b4d7"/>
        </g>
        <g id="Grupo_936382" data-name="Grupo 936382">
          <path id="Trazado_677995" data-name="Trazado 677995" d="M308.536,137.612a.907.907,0,0,1-.906.907h-2.737a.908.908,0,0,1-.908-.907h0a.907.907,0,0,1,.908-.907h2.737a.906.906,0,0,1,.906.907Z" fill="#64b4d7"/>
        </g>
        <g id="Grupo_936383" data-name="Grupo 936383">
          <path id="Trazado_677996" data-name="Trazado 677996" d="M308.536,139.258a.906.906,0,0,1-.906.9h-2.737a.907.907,0,0,1-.908-.9h0a.906.906,0,0,1,.908-.906h2.737a.905.905,0,0,1,.906.906Z" fill="#64b4d7"/>
        </g>
        <g id="Grupo_936384" data-name="Grupo 936384">
          <path id="Trazado_677997" data-name="Trazado 677997" d="M308.536,140.9a.906.906,0,0,1-.906.906h-2.737a.907.907,0,0,1-.908-.906h0a.907.907,0,0,1,.908-.906h2.737a.906.906,0,0,1,.906.906Z" fill="#64b4d7"/>
        </g>
        <g id="Grupo_936385" data-name="Grupo 936385">
          <path id="Trazado_677998" data-name="Trazado 677998" d="M332.33,135.967a.906.906,0,0,1-.906.906h-2.735a.907.907,0,0,1-.907-.906h0a.908.908,0,0,1,.907-.907h2.735a.907.907,0,0,1,.906.907Z" fill="#64b4d7"/>
        </g>
        <g id="Grupo_936386" data-name="Grupo 936386">
          <path id="Trazado_677999" data-name="Trazado 677999" d="M332.33,137.612a.907.907,0,0,1-.906.907h-2.735a.908.908,0,0,1-.907-.907h0a.906.906,0,0,1,.907-.907h2.735a.905.905,0,0,1,.906.907Z" fill="#64b4d7"/>
        </g>
        <g id="Grupo_936387" data-name="Grupo 936387">
          <path id="Trazado_678000" data-name="Trazado 678000" d="M332.33,139.258a.9.9,0,0,1-.906.9h-2.735a.906.906,0,0,1-.907-.9h0a.905.905,0,0,1,.907-.906h2.735a.9.9,0,0,1,.906.906Z" fill="#64b4d7"/>
        </g>
        <g id="Grupo_936388" data-name="Grupo 936388">
          <path id="Trazado_678001" data-name="Trazado 678001" d="M332.33,140.9a.905.905,0,0,1-.906.906h-2.735a.906.906,0,0,1-.907-.906h0a.906.906,0,0,1,.907-.906h2.735a.905.905,0,0,1,.906.906Z" fill="#64b4d7"/>
        </g>
        <g id="Grupo_936431" data-name="Grupo 936431">
          <g id="Grupo_936389" data-name="Grupo 936389">
            <rect id="Rect치ngulo_329574" data-name="Rect치ngulo 329574" width="30.988" height="1.899" transform="translate(367.957 169.888)" fill="#464f72"/>
          </g>
          <g id="Grupo_936390" data-name="Grupo 936390">
            <path id="Trazado_678002" data-name="Trazado 678002" d="M366.785,111.086l8.537,13.88.691-.583-8.766-14.247Z" fill="#464f72"/>
          </g>
          <g id="Grupo_936391" data-name="Grupo 936391">
            <path id="Trazado_678003" data-name="Trazado 678003" d="M387.635,109.341,378.62,124.56l-.761-.618,9.256-15.623Z" fill="#464f72"/>
          </g>
          <g id="Grupo_936392" data-name="Grupo 936392">
            <path id="Trazado_678004" data-name="Trazado 678004" d="M366.785,95.412l8.537,13.881.691-.582-8.766-14.248Z" fill="#464f72"/>
          </g>
          <g id="Grupo_936393" data-name="Grupo 936393">
            <path id="Trazado_678005" data-name="Trazado 678005" d="M387.357,95.412l-8.537,13.881-.689-.582,8.763-14.248Z" fill="#464f72"/>
          </g>
          <g id="Grupo_936394" data-name="Grupo 936394">
            <rect id="Rect치ngulo_329575" data-name="Rect치ngulo 329575" width="36.503" height="0.895" transform="matrix(0.552, -0.834, 0.834, 0.552, 355.963, 139.474)" fill="#464f72"/>
          </g>
          <g id="Grupo_936395" data-name="Grupo 936395">
            <path id="Trazado_678006" data-name="Trazado 678006" d="M377.353,108.655l19.373,32.062.634-.605-19.372-32.063Z" fill="#464f72"/>
          </g>
          <g id="Grupo_936396" data-name="Grupo 936396">
            <rect id="Rect치ngulo_329576" data-name="Rect치ngulo 329576" width="54.509" height="0.893" transform="translate(353.634 124.511) rotate(-52.761)" fill="#464f72"/>
          </g>
          <g id="Grupo_936397" data-name="Grupo 936397">
            <rect id="Rect치ngulo_329577" data-name="Rect치ngulo 329577" width="0.893" height="54.508" transform="translate(367.157 81.655) rotate(-37.237)" fill="#464f72"/>
          </g>
          <g id="Grupo_936398" data-name="Grupo 936398">
            <rect id="Rect치ngulo_329578" data-name="Rect치ngulo 329578" width="3.801" height="53.192" transform="translate(375.322 79.742)" fill="#848fb7"/>
          </g>
          <g id="Grupo_936399" data-name="Grupo 936399">
            <rect id="Rect치ngulo_329579" data-name="Rect치ngulo 329579" width="1.328" height="18.442" transform="translate(376.555 63.674)" fill="#848fb7"/>
          </g>
          <g id="Grupo_936400" data-name="Grupo 936400">
            <path id="Trazado_678007" data-name="Trazado 678007" d="M365.426,80.717l-1.252-.684,13.014-18.472.551,1.779Z" fill="#848fb7"/>
          </g>
          <g id="Grupo_936401" data-name="Grupo 936401">
            <path id="Trazado_678008" data-name="Trazado 678008" d="M389.011,80.717l1.253-.684L377.188,61.562l-.487,1.779Z" fill="#848fb7"/>
          </g>
          <g id="Grupo_936402" data-name="Grupo 936402">
            <rect id="Rect치ngulo_329580" data-name="Rect치ngulo 329580" width="3.799" height="45.213" transform="translate(364.158 79.742)" fill="#848fb7"/>
          </g>
          <g id="Grupo_936403" data-name="Grupo 936403">
            <rect id="Rect치ngulo_329581" data-name="Rect치ngulo 329581" width="2.259" height="45.213" transform="translate(364.898 79.742)" fill="#6d76a1"/>
          </g>
          <g id="Grupo_936404" data-name="Grupo 936404">
            <rect id="Rect치ngulo_329582" data-name="Rect치ngulo 329582" width="3.799" height="45.213" transform="translate(386.48 79.742)" fill="#848fb7"/>
          </g>
          <g id="Grupo_936405" data-name="Grupo 936405">
            <path id="Trazado_678009" data-name="Trazado 678009" d="M367.957,177.1h-3.8L375.2,124.955l3.982-.572Z" fill="#848fb7"/>
          </g>
          <g id="Grupo_936406" data-name="Grupo 936406">
            <path id="Trazado_678010" data-name="Trazado 678010" d="M366.657,177.1h-1.241l11.053-52.024.143,5.058Z" fill="#6d76a1"/>
          </g>
          <g id="Grupo_936407" data-name="Grupo 936407">
            <rect id="Rect치ngulo_329583" data-name="Rect치ngulo 329583" width="25.441" height="1.9" transform="translate(364.158 107.761)" fill="#848fb7"/>
          </g>
          <g id="Grupo_936408" data-name="Grupo 936408">
            <rect id="Rect치ngulo_329584" data-name="Rect치ngulo 329584" width="50.335" height="1.899" transform="translate(352.056 123.434)" fill="#848fb7"/>
          </g>
          <g id="Grupo_936409" data-name="Grupo 936409">
            <rect id="Rect치ngulo_329585" data-name="Rect치ngulo 329585" width="36.42" height="1.898" transform="translate(358.666 151.841)" fill="#848fb7"/>
          </g>
          <g id="Grupo_936410" data-name="Grupo 936410">
            <rect id="Rect치ngulo_329586" data-name="Rect치ngulo 329586" width="32.179" height="1.9" transform="translate(354.302 172.737)" fill="#464f72"/>
          </g>
          <g id="Grupo_936411" data-name="Grupo 936411">
            <rect id="Rect치ngulo_329587" data-name="Rect치ngulo 329587" width="44.168" height="1.899" transform="translate(354.302 139.017)" fill="#848fb7"/>
          </g>
          <g id="Grupo_936412" data-name="Grupo 936412">
            <rect id="Rect치ngulo_329588" data-name="Rect치ngulo 329588" width="58.163" height="0.893" transform="matrix(0.605, -0.796, 0.796, 0.605, 353.634, 174.378)" fill="#464f72"/>
          </g>
          <g id="Grupo_936413" data-name="Grupo 936413">
            <path id="Trazado_678011" data-name="Trazado 678011" d="M364.574,128.184l35.19,47.125.783-.607-35.189-47.126Z" fill="#464f72"/>
          </g>
          <g id="Grupo_936414" data-name="Grupo 936414">
            <rect id="Rect치ngulo_329589" data-name="Rect치ngulo 329589" width="0.667" height="4.202" transform="translate(353.635 125.052)" fill="#848fb7"/>
          </g>
          <g id="Grupo_936415" data-name="Grupo 936415">
            <rect id="Rect치ngulo_329590" data-name="Rect치ngulo 329590" width="0.667" height="4.201" transform="translate(360.528 94.463)" fill="#848fb7"/>
          </g>
          <g id="Grupo_936416" data-name="Grupo 936416">
            <rect id="Rect치ngulo_329591" data-name="Rect치ngulo 329591" width="0.668" height="4.201" transform="translate(393.299 94.463)" fill="#848fb7"/>
          </g>
          <g id="Grupo_936417" data-name="Grupo 936417">
            <rect id="Rect치ngulo_329592" data-name="Rect치ngulo 329592" width="0.666" height="4.202" transform="translate(400.185 125.052)" fill="#848fb7"/>
          </g>
          <g id="Grupo_936418" data-name="Grupo 936418">
            <path id="Trazado_678012" data-name="Trazado 678012" d="M360.254,94.031l-.787-.536,7.755-11.379.681.69Z" fill="#848fb7"/>
          </g>
          <g id="Grupo_936419" data-name="Grupo 936419">
            <path id="Trazado_678013" data-name="Trazado 678013" d="M356.994,175.523H353.1l11.061-52.09,3.8.41Z" fill="#848fb7"/>
          </g>
          <g id="Grupo_936420" data-name="Grupo 936420">
            <path id="Trazado_678014" data-name="Trazado 678014" d="M355.963,175.523h-1.994l10.9-50.445h2.053Z" fill="#6d76a1"/>
          </g>
          <g id="Grupo_936421" data-name="Grupo 936421">
            <path id="Trazado_678015" data-name="Trazado 678015" d="M396.935,175.523h3.916l-11.162-52.468-3.717.788Z" fill="#848fb7"/>
          </g>
          <g id="Grupo_936422" data-name="Grupo 936422">
            <path id="Trazado_678016" data-name="Trazado 678016" d="M397.8,175.523h2.228l-10.605-50.19h-2.066Z" fill="#6d76a1"/>
          </g>
          <g id="Grupo_936423" data-name="Grupo 936423">
            <path id="Trazado_678017" data-name="Trazado 678017" d="M386.4,177.1h3.857l-11.223-53.014-3.8.415Z" fill="#848fb7"/>
          </g>
          <g id="Grupo_936424" data-name="Grupo 936424">
            <rect id="Rect치ngulo_329593" data-name="Rect치ngulo 329593" width="1.483" height="44.238" transform="translate(376.611 80.717)" fill="#6d76a1"/>
          </g>
          <g id="Grupo_936425" data-name="Grupo 936425">
            <path id="Trazado_678018" data-name="Trazado 678018" d="M388.1,177.1h1.223l-11.224-52.331-1.483.184Z" fill="#6d76a1"/>
          </g>
          <g id="Grupo_936426" data-name="Grupo 936426">
            <path id="Trazado_678019" data-name="Trazado 678019" d="M389.51,123.434h-2.154l-.1-43.128h2.258Z" fill="#6d76a1"/>
          </g>
          <g id="Grupo_936427" data-name="Grupo 936427">
            <rect id="Rect치ngulo_329594" data-name="Rect치ngulo 329594" width="35.296" height="1.898" transform="translate(359.467 93.514)" fill="#848fb7"/>
          </g>
          <g id="Grupo_936428" data-name="Grupo 936428">
            <path id="Trazado_678020" data-name="Trazado 678020" d="M393.932,94.309l.831-.467-6.748-12h-1.121Z" fill="#848fb7"/>
          </g>
          <g id="Grupo_936429" data-name="Grupo 936429">
            <rect id="Rect치ngulo_329595" data-name="Rect치ngulo 329595" width="26.121" height="2.374" transform="translate(364.158 79.742)" fill="#848fb7"/>
          </g>
          <g id="Grupo_936430" data-name="Grupo 936430">
            <rect id="Rect치ngulo_329596" data-name="Rect치ngulo 329596" width="24.549" height="1.039" transform="translate(364.898 80.306)" fill="#6d76a1"/>
          </g>
        </g>
        <g id="Grupo_936432" data-name="Grupo 936432">
          <path id="Trazado_678021" data-name="Trazado 678021" d="M362.507,98.924a.654.654,0,0,1-.655.654h-1.979a.655.655,0,0,1-.656-.654h0a.656.656,0,0,1,.656-.655h1.979a.655.655,0,0,1,.655.655Z" fill="#c1e4fa"/>
        </g>
        <g id="Grupo_936433" data-name="Grupo 936433">
          <path id="Trazado_678022" data-name="Trazado 678022" d="M362.507,100.113a.656.656,0,0,1-.655.656h-1.979a.656.656,0,0,1-.656-.656h0a.656.656,0,0,1,.656-.655h1.979a.655.655,0,0,1,.655.655Z" fill="#c1e4fa"/>
        </g>
        <g id="Grupo_936434" data-name="Grupo 936434">
          <path id="Trazado_678023" data-name="Trazado 678023" d="M362.507,101.3a.655.655,0,0,1-.655.655h-1.979a.656.656,0,0,1-.656-.655h0a.656.656,0,0,1,.656-.655h1.979a.655.655,0,0,1,.655.655Z" fill="#c1e4fa"/>
        </g>
        <g id="Grupo_936435" data-name="Grupo 936435">
          <path id="Trazado_678024" data-name="Trazado 678024" d="M362.507,102.493a.655.655,0,0,1-.655.655h-1.979a.656.656,0,0,1-.656-.655h0a.656.656,0,0,1,.656-.655h1.979a.655.655,0,0,1,.655.655Z" fill="#c1e4fa"/>
        </g>
        <g id="Grupo_936436" data-name="Grupo 936436">
          <path id="Trazado_678025" data-name="Trazado 678025" d="M395.277,98.863a.656.656,0,0,1-.655.656h-1.979a.656.656,0,0,1-.655-.656h0a.655.655,0,0,1,.655-.655h1.979a.656.656,0,0,1,.655.655Z" fill="#c1e4fa"/>
        </g>
        <g id="Grupo_936437" data-name="Grupo 936437">
          <path id="Trazado_678026" data-name="Trazado 678026" d="M395.277,100.053a.656.656,0,0,1-.655.655h-1.979a.655.655,0,0,1-.655-.655h0a.655.655,0,0,1,.655-.655h1.979a.655.655,0,0,1,.655.655Z" fill="#c1e4fa"/>
        </g>
        <g id="Grupo_936438" data-name="Grupo 936438">
          <path id="Trazado_678027" data-name="Trazado 678027" d="M395.277,101.243a.655.655,0,0,1-.655.655h-1.979a.655.655,0,0,1-.655-.655h0a.655.655,0,0,1,.655-.655h1.979a.655.655,0,0,1,.655.655Z" fill="#c1e4fa"/>
        </g>
        <g id="Grupo_936439" data-name="Grupo 936439">
          <path id="Trazado_678028" data-name="Trazado 678028" d="M395.277,102.433a.656.656,0,0,1-.655.655h-1.979a.655.655,0,0,1-.655-.655h0a.656.656,0,0,1,.655-.656h1.979a.656.656,0,0,1,.655.656Z" fill="#c1e4fa"/>
        </g>
        <g id="Grupo_936440" data-name="Grupo 936440">
          <path id="Trazado_678029" data-name="Trazado 678029" d="M355.613,128.382a.656.656,0,0,1-.656.655h-1.979a.655.655,0,0,1-.655-.655h0a.655.655,0,0,1,.655-.655h1.979a.656.656,0,0,1,.656.655Z" fill="#c1e4fa"/>
        </g>
        <g id="Grupo_936441" data-name="Grupo 936441">
          <path id="Trazado_678030" data-name="Trazado 678030" d="M355.613,129.572a.656.656,0,0,1-.656.655h-1.979a.655.655,0,0,1-.655-.655h0a.655.655,0,0,1,.655-.655h1.979a.656.656,0,0,1,.656.655Z" fill="#c1e4fa"/>
        </g>
        <g id="Grupo_936442" data-name="Grupo 936442">
          <path id="Trazado_678031" data-name="Trazado 678031" d="M355.613,130.762a.656.656,0,0,1-.656.655h-1.979a.655.655,0,0,1-.655-.655h0a.656.656,0,0,1,.655-.656h1.979a.656.656,0,0,1,.656.656Z" fill="#c1e4fa"/>
        </g>
        <g id="Grupo_936443" data-name="Grupo 936443">
          <path id="Trazado_678032" data-name="Trazado 678032" d="M355.613,131.951a.656.656,0,0,1-.656.655h-1.979a.655.655,0,0,1-.655-.655h0a.655.655,0,0,1,.655-.655h1.979a.656.656,0,0,1,.656.655Z" fill="#c1e4fa"/>
        </g>
        <g id="Grupo_936444" data-name="Grupo 936444">
          <path id="Trazado_678033" data-name="Trazado 678033" d="M402.164,128.442a.656.656,0,0,1-.655.656H399.53a.656.656,0,0,1-.655-.656h0a.655.655,0,0,1,.655-.655h1.979a.655.655,0,0,1,.655.655Z" fill="#c1e4fa"/>
        </g>
        <g id="Grupo_936445" data-name="Grupo 936445">
          <path id="Trazado_678034" data-name="Trazado 678034" d="M402.164,129.632a.655.655,0,0,1-.655.655H399.53a.655.655,0,0,1-.655-.655h0a.655.655,0,0,1,.655-.655h1.979a.655.655,0,0,1,.655.655Z" fill="#c1e4fa"/>
        </g>
        <g id="Grupo_936446" data-name="Grupo 936446">
          <path id="Trazado_678035" data-name="Trazado 678035" d="M402.164,130.822a.656.656,0,0,1-.655.657H399.53a.656.656,0,0,1-.655-.657h0a.655.655,0,0,1,.655-.655h1.979a.655.655,0,0,1,.655.655Z" fill="#c1e4fa"/>
        </g>
        <g id="Grupo_936447" data-name="Grupo 936447">
          <path id="Trazado_678036" data-name="Trazado 678036" d="M402.164,132.012a.655.655,0,0,1-.655.655H399.53a.655.655,0,0,1-.655-.655h0a.656.656,0,0,1,.655-.656h1.979a.656.656,0,0,1,.655.656Z" fill="#c1e4fa"/>
        </g>
        <g id="Grupo_936448" data-name="Grupo 936448">
          <rect id="Rect치ngulo_329597" data-name="Rect치ngulo 329597" width="55.777" height="33.456" transform="translate(287.941 141.182)" fill="#c1e4fa"/>
        </g>
        <g id="Grupo_936449" data-name="Grupo 936449">
          <rect id="Rect치ngulo_329598" data-name="Rect치ngulo 329598" width="15.092" height="33.456" transform="translate(287.941 141.182)" fill="#64b4d7"/>
        </g>
        <g id="Grupo_936465" data-name="Grupo 936465">
          <g id="Grupo_936450" data-name="Grupo 936450">
            <rect id="Rect치ngulo_329599" data-name="Rect치ngulo 329599" width="12.598" height="2.025" transform="translate(286.341 145.044)" fill="#64b4d7"/>
          </g>
          <g id="Grupo_936451" data-name="Grupo 936451">
            <rect id="Rect치ngulo_329600" data-name="Rect치ngulo 329600" width="2.593" height="2.025" transform="translate(296.346 145.044)" fill="#4ca1bf"/>
          </g>
          <g id="Grupo_936452" data-name="Grupo 936452">
            <path id="Trazado_678037" data-name="Trazado 678037" d="M284.535,148.079h16.4l-.556-2.015H285.091Z" fill="#4ca1bf"/>
          </g>
          <g id="Grupo_936453" data-name="Grupo 936453">
            <rect id="Rect치ngulo_329601" data-name="Rect치ngulo 329601" width="12.088" height="14.333" transform="translate(284.535 148.079)" fill="#464f72"/>
          </g>
          <g id="Grupo_936454" data-name="Grupo 936454">
            <rect id="Rect치ngulo_329602" data-name="Rect치ngulo 329602" width="5.398" height="14.333" transform="translate(295.533 148.079)" fill="#343c56"/>
          </g>
          <g id="Grupo_936455" data-name="Grupo 936455">
            <path id="Trazado_678038" data-name="Trazado 678038" d="M295.533,148.079l.418-2.015h4.424l.556,2.015Z" fill="#3c93aa"/>
          </g>
          <g id="Grupo_936459" data-name="Grupo 936459">
            <g id="Grupo_936456" data-name="Grupo 936456">
              <path id="Trazado_678039" data-name="Trazado 678039" d="M288.726,155.557h3.706l-1.853-3.7Z" fill="#4ca1bf"/>
            </g>
            <g id="Grupo_936457" data-name="Grupo 936457">
              <path id="Trazado_678040" data-name="Trazado 678040" d="M292.072,155.306l-1.494-2.909-1.494,2.909Z" fill="#ffcf03"/>
            </g>
            <g id="Grupo_936458" data-name="Grupo 936458">
              <path id="Trazado_678041" data-name="Trazado 678041" d="M290.882,155.065l.028-1.314-.338.455-.092-1.156-.008,1.508.273-.379Z" fill="#6d76a1"/>
            </g>
          </g>
          <g id="Grupo_936460" data-name="Grupo 936460">
            <rect id="Rect치ngulo_329603" data-name="Rect치ngulo 329603" width="3.797" height="2.268" transform="translate(296.346 149.86)" fill="#848fb7"/>
          </g>
          <g id="Grupo_936461" data-name="Grupo 936461">
            <rect id="Rect치ngulo_329604" data-name="Rect치ngulo 329604" width="2.858" height="0.278" transform="translate(296.814 150.149)" fill="#464f72"/>
          </g>
          <g id="Grupo_936462" data-name="Grupo 936462">
            <rect id="Rect치ngulo_329605" data-name="Rect치ngulo 329605" width="2.858" height="0.277" transform="translate(296.814 150.637)" fill="#464f72"/>
          </g>
          <g id="Grupo_936463" data-name="Grupo 936463">
            <rect id="Rect치ngulo_329606" data-name="Rect치ngulo 329606" width="2.858" height="0.28" transform="translate(296.814 151.134)" fill="#464f72"/>
          </g>
          <g id="Grupo_936464" data-name="Grupo 936464">
            <rect id="Rect치ngulo_329607" data-name="Rect치ngulo 329607" width="2.858" height="0.279" transform="translate(296.814 151.62)" fill="#464f72"/>
          </g>
        </g>
        <g id="Grupo_936466" data-name="Grupo 936466">
          <rect id="Rect치ngulo_329608" data-name="Rect치ngulo 329608" width="21.222" height="35.791" transform="matrix(0.001, -1, 1, 0.001, 305.91, 168.753)" fill="#848fb7"/>
        </g>
        <g id="Grupo_936467" data-name="Grupo 936467">
          <rect id="Rect치ngulo_329609" data-name="Rect치ngulo 329609" width="15.979" height="1.555" transform="translate(336.338 166.169) rotate(-89.94)" fill="#464f72"/>
        </g>
        <g id="Grupo_936468" data-name="Grupo 936468">
          <rect id="Rect치ngulo_329610" data-name="Rect치ngulo 329610" width="15.979" height="1.555" transform="translate(338.867 166.169) rotate(-89.94)" fill="#464f72"/>
        </g>
        <g id="Grupo_936469" data-name="Grupo 936469">
          <rect id="Rect치ngulo_329611" data-name="Rect치ngulo 329611" width="15.98" height="1.557" transform="translate(333.618 166.167) rotate(-89.93)" fill="#464f72"/>
        </g>
        <g id="Grupo_936470" data-name="Grupo 936470">
          <rect id="Rect치ngulo_329612" data-name="Rect치ngulo 329612" width="15.98" height="1.556" transform="matrix(0.001, -1, 1, 0.001, 330.836, 166.163)" fill="#464f72"/>
        </g>
        <g id="Grupo_936471" data-name="Grupo 936471">
          <rect id="Rect치ngulo_329613" data-name="Rect치ngulo 329613" width="15.981" height="1.556" transform="translate(328.117 166.161) rotate(-89.92)" fill="#464f72"/>
        </g>
        <g id="Grupo_936472" data-name="Grupo 936472">
          <rect id="Rect치ngulo_329614" data-name="Rect치ngulo 329614" width="15.98" height="1.557" transform="matrix(0.001, -1, 1, 0.001, 325.353, 166.156)" fill="#464f72"/>
        </g>
        <g id="Grupo_936473" data-name="Grupo 936473">
          <rect id="Rect치ngulo_329615" data-name="Rect치ngulo 329615" width="15.98" height="1.555" transform="translate(322.636 166.152) rotate(-89.933)" fill="#464f72"/>
        </g>
        <g id="Grupo_936474" data-name="Grupo 936474">
          <rect id="Rect치ngulo_329616" data-name="Rect치ngulo 329616" width="15.981" height="1.557" transform="translate(319.852 166.148) rotate(-89.923)" fill="#464f72"/>
        </g>
        <g id="Grupo_936475" data-name="Grupo 936475">
          <rect id="Rect치ngulo_329617" data-name="Rect치ngulo 329617" width="15.98" height="1.556" transform="translate(317.134 166.145) rotate(-89.926)" fill="#464f72"/>
        </g>
        <g id="Grupo_936476" data-name="Grupo 936476">
          <rect id="Rect치ngulo_329618" data-name="Rect치ngulo 329618" width="15.98" height="1.556" transform="translate(313.831 166.142) rotate(-89.93)" fill="#464f72"/>
        </g>
        <g id="Grupo_936477" data-name="Grupo 936477">
          <rect id="Rect치ngulo_329619" data-name="Rect치ngulo 329619" width="15.981" height="1.555" transform="translate(311.047 166.14) rotate(-89.92)" fill="#464f72"/>
        </g>
        <g id="Grupo_936478" data-name="Grupo 936478">
          <rect id="Rect치ngulo_329620" data-name="Rect치ngulo 329620" width="15.98" height="1.556" transform="translate(308.329 166.134) rotate(-89.926)" fill="#464f72"/>
        </g>
        <g id="Grupo_936480" data-name="Grupo 936480">
          <g id="Grupo_936479" data-name="Grupo 936479">
            <path id="Trazado_678042" data-name="Trazado 678042" d="M325.352,121.289a2.626,2.626,0,1,1,2.628-2.626A2.63,2.63,0,0,1,325.352,121.289Zm0-4.082a1.455,1.455,0,1,0,1.457,1.456A1.458,1.458,0,0,0,325.352,117.207Z" fill="#64b4d7"/>
          </g>
        </g>
        <g id="Grupo_936511" data-name="Grupo 936511">
          <g id="Grupo_936495" data-name="Grupo 936495">
            <g id="Grupo_936482" data-name="Grupo 936482">
              <g id="Grupo_936481" data-name="Grupo 936481">
                <rect id="Rect치ngulo_329621" data-name="Rect치ngulo 329621" width="0.914" height="2.173" transform="translate(344.447 110.177) rotate(-88.904)" fill="#848fb7"/>
              </g>
            </g>
            <g id="Grupo_936484" data-name="Grupo 936484">
              <g id="Grupo_936483" data-name="Grupo 936483">
                <rect id="Rect치ngulo_329622" data-name="Rect치ngulo 329622" width="0.913" height="2.173" transform="translate(341.212 110.116) rotate(-88.96)" fill="#848fb7"/>
              </g>
            </g>
            <g id="Grupo_936486" data-name="Grupo 936486">
              <g id="Grupo_936485" data-name="Grupo 936485">
                <rect id="Rect치ngulo_329623" data-name="Rect치ngulo 329623" width="0.914" height="2.173" transform="translate(337.977 110.054) rotate(-88.904)" fill="#848fb7"/>
              </g>
            </g>
            <g id="Grupo_936488" data-name="Grupo 936488">
              <g id="Grupo_936487" data-name="Grupo 936487">
                <rect id="Rect치ngulo_329624" data-name="Rect치ngulo 329624" width="0.914" height="2.173" transform="translate(334.74 109.993) rotate(-88.96)" fill="#848fb7"/>
              </g>
            </g>
            <g id="Grupo_936490" data-name="Grupo 936490">
              <g id="Grupo_936489" data-name="Grupo 936489">
                <rect id="Rect치ngulo_329625" data-name="Rect치ngulo 329625" width="0.915" height="2.174" transform="translate(331.503 109.927) rotate(-88.772)" fill="#848fb7"/>
              </g>
            </g>
            <g id="Grupo_936492" data-name="Grupo 936492">
              <g id="Grupo_936491" data-name="Grupo 936491">
                <path id="Trazado_678043" data-name="Trazado 678043" d="M328.285,108.954l-.017.914,2.172.042.019-.914Z" fill="#848fb7"/>
              </g>
            </g>
            <g id="Grupo_936494" data-name="Grupo 936494">
              <g id="Grupo_936493" data-name="Grupo 936493">
                <rect id="Rect치ngulo_329626" data-name="Rect치ngulo 329626" width="0.914" height="2.173" transform="translate(325.033 109.806) rotate(-88.896)" fill="#848fb7"/>
              </g>
            </g>
          </g>
          <g id="Grupo_936510" data-name="Grupo 936510">
            <g id="Grupo_936497" data-name="Grupo 936497">
              <g id="Grupo_936496" data-name="Grupo 936496">
                <rect id="Rect치ngulo_329627" data-name="Rect치ngulo 329627" width="0.915" height="2.174" transform="translate(321.797 109.745) rotate(-88.897)" fill="#848fb7"/>
              </g>
            </g>
            <g id="Grupo_936499" data-name="Grupo 936499">
              <g id="Grupo_936498" data-name="Grupo 936498">
                <rect id="Rect치ngulo_329628" data-name="Rect치ngulo 329628" width="0.914" height="2.173" transform="translate(318.561 109.683) rotate(-88.959)" fill="#848fb7"/>
              </g>
            </g>
            <g id="Grupo_936501" data-name="Grupo 936501">
              <g id="Grupo_936500" data-name="Grupo 936500">
                <rect id="Rect치ngulo_329629" data-name="Rect치ngulo 329629" width="0.916" height="2.174" transform="translate(315.324 109.621) rotate(-88.837)" fill="#848fb7"/>
              </g>
            </g>
            <g id="Grupo_936503" data-name="Grupo 936503">
              <g id="Grupo_936502" data-name="Grupo 936502">
                <rect id="Rect치ngulo_329630" data-name="Rect치ngulo 329630" width="0.914" height="2.174" transform="matrix(0.018, -1, 1, 0.018, 312.089, 109.56)" fill="#848fb7"/>
              </g>
            </g>
            <g id="Grupo_936505" data-name="Grupo 936505">
              <g id="Grupo_936504" data-name="Grupo 936504">
                <rect id="Rect치ngulo_329631" data-name="Rect치ngulo 329631" width="0.913" height="2.174" transform="matrix(0.019, -1, 1, 0.019, 308.853, 109.496)" fill="#848fb7"/>
              </g>
            </g>
            <g id="Grupo_936507" data-name="Grupo 936507">
              <g id="Grupo_936506" data-name="Grupo 936506">
                <rect id="Rect치ngulo_329632" data-name="Rect치ngulo 329632" width="0.914" height="2.173" transform="matrix(0.018, -1, 1, 0.018, 305.617, 109.436)" fill="#848fb7"/>
              </g>
            </g>
            <g id="Grupo_936509" data-name="Grupo 936509">
              <g id="Grupo_936508" data-name="Grupo 936508">
                <rect id="Rect치ngulo_329633" data-name="Rect치ngulo 329633" width="0.914" height="2.173" transform="matrix(0.02, -1, 1, 0.02, 302.381, 109.372)" fill="#848fb7"/>
              </g>
            </g>
          </g>
        </g>
        <g id="Grupo_936518" data-name="Grupo 936518">
          <g id="Grupo_936514" data-name="Grupo 936514">
            <g id="Grupo_936513" data-name="Grupo 936513">
              <g id="Grupo_936512" data-name="Grupo 936512">
                <rect id="Rect치ngulo_329634" data-name="Rect치ngulo 329634" width="1.171" height="5.544" transform="matrix(0.702, -0.713, 0.713, 0.702, 345.504, 98.051)" fill="#ffb502"/>
              </g>
            </g>
          </g>
          <g id="Grupo_936517" data-name="Grupo 936517">
            <g id="Grupo_936516" data-name="Grupo 936516">
              <g id="Grupo_936515" data-name="Grupo 936515">
                <rect id="Rect치ngulo_329635" data-name="Rect치ngulo 329635" width="5.487" height="1.171" transform="translate(345.539 101.107) rotate(-45.066)" fill="#ffb502"/>
              </g>
            </g>
          </g>
        </g>
        <g id="Grupo_936521" data-name="Grupo 936521">
          <g id="Grupo_936520" data-name="Grupo 936520">
            <g id="Grupo_936519" data-name="Grupo 936519">
              <rect id="Rect치ngulo_329636" data-name="Rect치ngulo 329636" width="10.779" height="0.833" transform="translate(416.726 107.283)" fill="#27355c"/>
            </g>
          </g>
        </g>
        <g id="Grupo_936524" data-name="Grupo 936524">
          <g id="Grupo_936523" data-name="Grupo 936523">
            <g id="Grupo_936522" data-name="Grupo 936522">
              <rect id="Rect치ngulo_329637" data-name="Rect치ngulo 329637" width="5.943" height="0.831" transform="translate(420.934 104.561)" fill="#27355c"/>
            </g>
          </g>
        </g>
        <g id="Grupo_936573" data-name="Grupo 936573">
          <g id="Grupo_936527" data-name="Grupo 936527">
            <g id="Grupo_936525" data-name="Grupo 936525">
              <path id="Trazado_678044" data-name="Trazado 678044" d="M449.913,129.04a2.653,2.653,0,0,0-3.117-.591c-1.854.994-4.223,4.569-7.122,4.474s-3.824-1.832-4.593-2.911-.562-1.874-1.08-2.453-1.177.06-.365,2.091c.386.971,1.73,6,5.168,6.75C443.307,137.391,451.9,131.648,449.913,129.04Z" fill="#fbc6b4"/>
            </g>
            <g id="Grupo_936526" data-name="Grupo 936526">
              <path id="Trazado_678045" data-name="Trazado 678045" d="M449.462,128.042s1.733,1.52-.456,4.161a18.332,18.332,0,0,1-3.507,3.489,8.83,8.83,0,0,1-3.766-3.947S447.331,125.554,449.462,128.042Z" fill="#eda503"/>
            </g>
          </g>
          <g id="Grupo_936528" data-name="Grupo 936528">
            <path id="Trazado_678046" data-name="Trazado 678046" d="M455.411,128l-.006-.01a10.27,10.27,0,0,0-3.729-1.011c-2.484-.346-6.568-.134-7.492,4.207a26.3,26.3,0,0,0-.39,5.687c.005.468.016.947.062,1.42.129,2.1-.553,3.493.16,4.59,2.07,3.183,13.852,5.514,11.956,1.58-.037-.091-.834-.809.506-1.239a17.053,17.053,0,0,1,0-9.9C457.434,129.793,456.727,128.8,455.411,128Z" fill="#ffb502"/>
          </g>
          <g id="Grupo_936529" data-name="Grupo 936529">
            <path id="Trazado_678047" data-name="Trazado 678047" d="M453.558,131c-.509,2.157-2.33,8.735,2.92,12.028,0,0-8.692,6.363-13.666.858,0,0,1-9.394,2.39-13.125.4-1.072,1.459-4.362,3.367-3.886,0,0-3.353,5.283-1.823,6.677s2.975.223,3.649-.829a30.183,30.183,0,0,0,2.238-5.6l2.112.318A23.813,23.813,0,0,0,453.558,131Z" fill="#1c2745"/>
          </g>
          <g id="Grupo_936533" data-name="Grupo 936533">
            <g id="Grupo_936530" data-name="Grupo 936530">
              <path id="Trazado_678048" data-name="Trazado 678048" d="M451.886,123.832s-1.116,1.751.069,2.918c1.219,1.192-4.379,3.3-4.107,2.228.346-1.388,1.173-2.129.694-3.836Z" fill="#f7b2a0"/>
            </g>
            <g id="Grupo_936531" data-name="Grupo 936531">
              <path id="Trazado_678049" data-name="Trazado 678049" d="M449.37,119.909c-1.347.975-3.27,5.774-2.155,7.03.494.547,2.816.3,4.522-1.7a4.192,4.192,0,0,0,.956-4.209C452.38,120.209,450.931,118.776,449.37,119.909Z" fill="#fbc6b4"/>
            </g>
            <g id="Grupo_936532" data-name="Grupo 936532">
              <path id="Trazado_678050" data-name="Trazado 678050" d="M448.07,120.351c-.343.59-.287.741,1.552,1.268s2.176.443,1.929.864c-.73,1.246.64,1.158-.249,2.633s.811.733,1.667-.46a3.58,3.58,0,0,0,.459-3.464C452.658,118.782,449.345,118.191,448.07,120.351Z" fill="#1d1b3a"/>
            </g>
          </g>
          <g id="Grupo_936534" data-name="Grupo 936534">
            <path id="Trazado_678051" data-name="Trazado 678051" d="M451.8,123.576s-5.692-1.607-5.427-3.383c.163-1.093,3.467-.663,3.467-.663Z" fill="#eda503"/>
          </g>
          <g id="Grupo_936535" data-name="Grupo 936535">
            <path id="Trazado_678052" data-name="Trazado 678052" d="M448.07,120.351c.456,1.712,1.8,2.654,5.286,3.767,0,0,1.889-3.383-.558-5.174C450.639,117.367,447.779,119.257,448.07,120.351Z" fill="#ffb502"/>
          </g>
          <g id="Grupo_936538" data-name="Grupo 936538">
            <g id="Grupo_936536" data-name="Grupo 936536">
              <path id="Trazado_678053" data-name="Trazado 678053" d="M455.721,127.743a2.158,2.158,0,0,0-2.416,1.3c-.9,1.792-.8,5.881-3.119,7.393s-3.991.659-5.182.236-1.463-1.155-2.183-1.328-.89.7.856,1.837c.836.545,4.633,3.74,7.733,2.449C455.472,137.936,458.7,128.691,455.721,127.743Z" fill="#fbc6b4"/>
            </g>
            <g id="Grupo_936537" data-name="Grupo 936537">
              <path id="Trazado_678054" data-name="Trazado 678054" d="M455.278,127.486s2.19.242,1.919,3.506a17.419,17.419,0,0,1-.832,4.642,8.427,8.427,0,0,1-5.1-1.024S452.253,126.709,455.278,127.486Z" fill="#eda503"/>
            </g>
          </g>
          <g id="Grupo_936543" data-name="Grupo 936543">
            <g id="Grupo_936539" data-name="Grupo 936539">
              <path id="Trazado_678055" data-name="Trazado 678055" d="M441.439,152.962c.485,6.208,3.019,15.864,3.373,21.089.028.361.089.428-1.371.738-1.687.349-.391,1.081,2.251,1.062,2.48-.019,3.585-9.8,3.826-14.973.073-1.454-.551-5.854.3-10,.1,1.551.248,3.318.46,5.25.633,5.659,8.077,13.082,8.639,17.844.041.366-.014.51-1.32.879s-.039,1.05,2.224,1,.883-9.914-.295-14.53C458.494,157.284,440.879,145.8,441.439,152.962Z" fill="#fbc6b4"/>
            </g>
            <g id="Grupo_936540" data-name="Grupo 936540">
              <path id="Trazado_678056" data-name="Trazado 678056" d="M447.083,174.674s-1.969.781-3.187,0c0,0-2.219.3-.827.839S447.165,176.5,447.083,174.674Z" fill="#ffb502"/>
            </g>
            <g id="Grupo_936541" data-name="Grupo 936541">
              <path id="Trazado_678057" data-name="Trazado 678057" d="M460.78,174.852s-1.971.777-3.187,0c0,0-2.221.3-.821.838S460.862,176.682,460.78,174.852Z" fill="#ffb502"/>
            </g>
            <g id="Grupo_936542" data-name="Grupo 936542">
              <path id="Trazado_678058" data-name="Trazado 678058" d="M443.191,140.795c4.516,3.012,10.829,2.7,13.287,2.229.664,5.37,4.7,25.523,5.156,28.287a10.823,10.823,0,0,1-3.214.8c-9.571-12.344-8.472-17.638-8.572-19.189-.363,1.794.819,10.575-1.246,19.189a4.372,4.372,0,0,1-4.292,0c-.077-.552-2.885-10.444-2.824-18.188C441.529,148.642,442.411,145.02,443.191,140.795Z" fill="#1c2745"/>
            </g>
          </g>
          <g id="Grupo_936545" data-name="Grupo 936545">
            <g id="Grupo_936544" data-name="Grupo 936544">
              <path id="Trazado_678059" data-name="Trazado 678059" d="M456.163,147.573a4.456,4.456,0,0,1-3.058-3.693l.372-.029a4.011,4.011,0,0,0,2.8,3.368Z" fill="#fff"/>
            </g>
          </g>
          <g id="Grupo_936547" data-name="Grupo 936547">
            <g id="Grupo_936546" data-name="Grupo 936546">
              <path id="Trazado_678060" data-name="Trazado 678060" d="M443.023,146.88l-.114-.355a4.061,4.061,0,0,0,2.8-3.367l.372.03A4.452,4.452,0,0,1,443.023,146.88Z" fill="#fff"/>
            </g>
          </g>
          <g id="Grupo_936572" data-name="Grupo 936572">
            <g id="Grupo_936548" data-name="Grupo 936548">
              <rect id="Rect치ngulo_329638" data-name="Rect치ngulo 329638" width="19.755" height="3.178" transform="translate(408.926 112.518)" fill="#64b4d7"/>
            </g>
            <g id="Grupo_936549" data-name="Grupo 936549">
              <rect id="Rect치ngulo_329639" data-name="Rect치ngulo 329639" width="4.066" height="3.178" transform="translate(408.926 112.518)" fill="#4ca1bf"/>
            </g>
            <g id="Grupo_936550" data-name="Grupo 936550">
              <path id="Trazado_678061" data-name="Trazado 678061" d="M431.513,117.277H405.8l.87-3.163h23.969Z" fill="#4ca1bf"/>
            </g>
            <g id="Grupo_936551" data-name="Grupo 936551">
              <rect id="Rect치ngulo_329640" data-name="Rect치ngulo 329640" width="3.413" height="4.063" transform="translate(429.843 121.157)" fill="#64b4d7"/>
            </g>
            <g id="Grupo_936552" data-name="Grupo 936552">
              <rect id="Rect치ngulo_329641" data-name="Rect치ngulo 329641" width="3.413" height="4.064" transform="translate(429.843 132.24)" fill="#64b4d7"/>
            </g>
            <g id="Grupo_936553" data-name="Grupo 936553">
              <rect id="Rect치ngulo_329642" data-name="Rect치ngulo 329642" width="3.703" height="41.617" transform="translate(416.915 133.506)" fill="#848fb7"/>
            </g>
            <g id="Grupo_936554" data-name="Grupo 936554">
              <rect id="Rect치ngulo_329643" data-name="Rect치ngulo 329643" width="1.12" height="41.617" transform="translate(416.915 133.506)" fill="#717ea5"/>
            </g>
            <g id="Grupo_936555" data-name="Grupo 936555">
              <rect id="Rect치ngulo_329644" data-name="Rect치ngulo 329644" width="18.957" height="22.474" transform="translate(412.556 117.277)" fill="#c1e4fa"/>
            </g>
            <g id="Grupo_936556" data-name="Grupo 936556">
              <rect id="Rect치ngulo_329645" data-name="Rect치ngulo 329645" width="8.462" height="22.474" transform="translate(405.803 117.277)" fill="#64b4d7"/>
            </g>
            <g id="Grupo_936557" data-name="Grupo 936557">
              <rect id="Rect치ngulo_329646" data-name="Rect치ngulo 329646" width="11.347" height="13.453" transform="translate(415.114 143.077)" fill="#c1e4fa"/>
            </g>
            <g id="Grupo_936558" data-name="Grupo 936558">
              <rect id="Rect치ngulo_329647" data-name="Rect치ngulo 329647" width="5.065" height="13.453" transform="translate(411.07 143.077)" fill="#64b4d7"/>
            </g>
            <g id="Grupo_936559" data-name="Grupo 936559">
              <rect id="Rect치ngulo_329648" data-name="Rect치ngulo 329648" width="10.332" height="22.474" transform="translate(432.238 117.277)" fill="#c1e4fa"/>
            </g>
            <g id="Grupo_936560" data-name="Grupo 936560">
              <path id="Trazado_678062" data-name="Trazado 678062" d="M414.265,117.277l-.655-3.163h-6.936l-.87,3.163Z" fill="#3c93aa"/>
            </g>
            <g id="Grupo_936561" data-name="Grupo 936561">
              <path id="Trazado_678063" data-name="Trazado 678063" d="M425.193,177.01H412.556v-2.468l4.359-.871h3.7l4.575.871Z" fill="#848fb7"/>
            </g>
            <g id="Grupo_936565" data-name="Grupo 936565">
              <g id="Grupo_936562" data-name="Grupo 936562">
                <path id="Trazado_678064" data-name="Trazado 678064" d="M424.94,129h-5.812l2.906-5.81Z" fill="#6d76a1"/>
              </g>
              <g id="Grupo_936563" data-name="Grupo 936563">
                <path id="Trazado_678065" data-name="Trazado 678065" d="M419.692,128.61l2.343-4.563,2.342,4.563Z" fill="#ffcf03"/>
              </g>
              <g id="Grupo_936564" data-name="Grupo 936564">
                <path id="Trazado_678066" data-name="Trazado 678066" d="M421.559,128.23l-.045-2.06.53.717.145-1.814.01,2.364-.43-.6Z" fill="#6d76a1"/>
              </g>
            </g>
            <g id="Grupo_936566" data-name="Grupo 936566">
              <rect id="Rect치ngulo_329649" data-name="Rect치ngulo 329649" width="5.955" height="3.558" transform="translate(407.037 120.07)" fill="#848fb7"/>
            </g>
            <g id="Grupo_936567" data-name="Grupo 936567">
              <rect id="Rect치ngulo_329650" data-name="Rect치ngulo 329650" width="4.485" height="0.437" transform="translate(407.771 120.523)" fill="#464f72"/>
            </g>
            <g id="Grupo_936568" data-name="Grupo 936568">
              <rect id="Rect치ngulo_329651" data-name="Rect치ngulo 329651" width="4.485" height="0.436" transform="translate(407.771 121.287)" fill="#464f72"/>
            </g>
            <g id="Grupo_936569" data-name="Grupo 936569">
              <rect id="Rect치ngulo_329652" data-name="Rect치ngulo 329652" width="4.485" height="0.436" transform="translate(407.771 122.067)" fill="#464f72"/>
            </g>
            <g id="Grupo_936570" data-name="Grupo 936570">
              <rect id="Rect치ngulo_329653" data-name="Rect치ngulo 329653" width="4.485" height="0.436" transform="translate(407.771 122.83)" fill="#464f72"/>
            </g>
            <g id="Grupo_936571" data-name="Grupo 936571">
              <path id="Trazado_678067" data-name="Trazado 678067" d="M412.556,174.542v2.468h5.479v-3.339h-1.12Z" fill="#717ea5"/>
            </g>
          </g>
        </g>
        <g id="Grupo_936595" data-name="Grupo 936595">
          <g id="Grupo_936576" data-name="Grupo 936576">
            <g id="Grupo_936575" data-name="Grupo 936575">
              <g id="Grupo_936574" data-name="Grupo 936574">
                <path id="Trazado_678068" data-name="Trazado 678068" d="M420.4,82.072l.409-.454-.406-.4c-.188-.218-.379-.436-.379-.436l-.474.385s.2.233.406.469Z" fill="#fbe366"/>
              </g>
            </g>
          </g>
          <g id="Grupo_936579" data-name="Grupo 936579">
            <g id="Grupo_936578" data-name="Grupo 936578">
              <g id="Grupo_936577" data-name="Grupo 936577">
                <path id="Trazado_678069" data-name="Trazado 678069" d="M422.082,83l.129-.6a2.5,2.5,0,0,1-.5-.17,2.228,2.228,0,0,1-.328-.18l-.144-.1-.347.5.169.108a2.349,2.349,0,0,0,.394.215A3.08,3.08,0,0,0,422.082,83Z" fill="#fbe366"/>
              </g>
            </g>
          </g>
          <g id="Grupo_936582" data-name="Grupo 936582">
            <g id="Grupo_936581" data-name="Grupo 936581">
              <g id="Grupo_936580" data-name="Grupo 936580">
                <path id="Trazado_678070" data-name="Trazado 678070" d="M424.006,82.745l-.243-.559a3.211,3.211,0,0,1-.519.182,2.324,2.324,0,0,1-.525.08l.019.61a2.934,2.934,0,0,0,.657-.1A3.853,3.853,0,0,0,424.006,82.745Z" fill="#fbe366"/>
              </g>
            </g>
          </g>
          <g id="Grupo_936585" data-name="Grupo 936585">
            <g id="Grupo_936584" data-name="Grupo 936584">
              <g id="Grupo_936583" data-name="Grupo 936583">
                <path id="Trazado_678071" data-name="Trazado 678071" d="M425.589,81.834l-.328-.514-.5.319-.5.3.3.534.528-.315C425.336,82,425.589,81.834,425.589,81.834Z" fill="#fbe366"/>
              </g>
            </g>
          </g>
          <g id="Grupo_936588" data-name="Grupo 936588">
            <g id="Grupo_936587" data-name="Grupo 936587">
              <g id="Grupo_936586" data-name="Grupo 936586">
                <path id="Trazado_678072" data-name="Trazado 678072" d="M427.089,81.051l-.184-.583a5.527,5.527,0,0,0-.6.241c-.281.139-.544.3-.544.3l.31.526s.25-.148.5-.274A4.7,4.7,0,0,1,427.089,81.051Z" fill="#fbe366"/>
              </g>
            </g>
          </g>
          <g id="Grupo_936591" data-name="Grupo 936591">
            <g id="Grupo_936590" data-name="Grupo 936590">
              <g id="Grupo_936589" data-name="Grupo 936589">
                <path id="Trazado_678073" data-name="Trazado 678073" d="M428.6,81.125l.252-.556a2.577,2.577,0,0,0-.64-.2,2.419,2.419,0,0,0-.673-.03l.057.608a1.78,1.78,0,0,1,.509.022A2.193,2.193,0,0,1,428.6,81.125Z" fill="#fbe366"/>
              </g>
            </g>
          </g>
          <g id="Grupo_936594" data-name="Grupo 936594">
            <g id="Grupo_936593" data-name="Grupo 936593">
              <g id="Grupo_936592" data-name="Grupo 936592">
                <path id="Trazado_678074" data-name="Trazado 678074" d="M429.874,82.147l.459-.405s-.213-.227-.435-.451c-.12-.1-.241-.206-.331-.284a1.766,1.766,0,0,0-.165-.115l-.35.5a1.428,1.428,0,0,1,.139.1l.29.249C429.68,81.94,429.874,82.147,429.874,82.147Z" fill="#fbe366"/>
              </g>
            </g>
          </g>
        </g>
        <g id="Grupo_936596" data-name="Grupo 936596">
          <path id="Trazado_678075" data-name="Trazado 678075" d="M394.481,166.9s6.075,2.158,4.92,9.872h-1.822A10,10,0,0,0,394.481,166.9Z" fill="#90cc3a"/>
          <path id="Trazado_678076" data-name="Trazado 678076" d="M403.466,164.61s-6.074,2.637-4.92,12.065h1.822A14.2,14.2,0,0,1,403.466,164.61Z" fill="#8bbf30"/>
          <path id="Trazado_678077" data-name="Trazado 678077" d="M404.005,166.9s-6.074,2.158-4.92,9.872h1.822A10,10,0,0,1,404.005,166.9Z" fill="#90cc3a"/>
          <path id="Trazado_678078" data-name="Trazado 678078" d="M394.451,170.063s3.63.949,3.87,6.432l-1.013.167A8.365,8.365,0,0,0,394.451,170.063Z" fill="#8bbf30"/>
          <path id="Trazado_678079" data-name="Trazado 678079" d="M404.261,170.063s-3.629.949-3.871,6.432l1.013.167A8.367,8.367,0,0,1,404.261,170.063Z" fill="#8bbf30"/>
        </g>
        <g id="Grupo_936597" data-name="Grupo 936597">
          <path id="Trazado_678080" data-name="Trazado 678080" d="M270.4,165.506s6.074,2.158,4.92,9.872H273.5A10,10,0,0,0,270.4,165.506Z" fill="#90cc3a"/>
          <path id="Trazado_678081" data-name="Trazado 678081" d="M279.388,163.215s-6.075,2.637-4.92,12.065h1.822A14.2,14.2,0,0,1,279.388,163.215Z" fill="#8bbf30"/>
          <path id="Trazado_678082" data-name="Trazado 678082" d="M279.927,165.506s-6.075,2.158-4.92,9.872h1.822A10,10,0,0,1,279.927,165.506Z" fill="#90cc3a"/>
          <path id="Trazado_678083" data-name="Trazado 678083" d="M270.373,168.669s3.63.948,3.87,6.431l-1.014.168A8.362,8.362,0,0,0,270.373,168.669Z" fill="#8bbf30"/>
          <path id="Trazado_678084" data-name="Trazado 678084" d="M280.183,168.669s-3.629.948-3.872,6.431l1.014.168A8.367,8.367,0,0,1,280.183,168.669Z" fill="#8bbf30"/>
        </g>
      </g>
    </g>
  </g>
</svg>
