<svg xmlns="http://www.w3.org/2000/svg" xmlns:xlink="http://www.w3.org/1999/xlink" width="145" height="145" viewBox="0 0 145 145">
  <defs>
    <filter id="Elipse_5264" x="0" y="0" width="145" height="145" filterUnits="userSpaceOnUse">
      <feOffset dy="3" input="SourceAlpha"/>
      <feGaussianBlur stdDeviation="3" result="blur"/>
      <feFlood flood-opacity="0.161"/>
      <feComposite operator="in" in2="blur"/>
      <feComposite in="SourceGraphic"/>
    </filter>
    <clipPath id="clip-path">
      <rect id="Rectángulo_344907" data-name="Rectángulo 344907" width="101.667" height="114.756" transform="translate(-2.647 -8.876)" fill="none"/>
    </clipPath>
  </defs>
  <g id="Grupo_999437" data-name="Grupo 999437" transform="translate(1310 9821)">
    <g transform="matrix(1, 0, 0, 1, -1310, -9821)" filter="url(#Elipse_5264)">
      <circle id="Elipse_5264-2" data-name="Elipse 5264" cx="63.5" cy="63.5" r="63.5" transform="translate(9 6)" fill="#ad84ff"/>
    </g>
    <g id="Grupo_999400" data-name="Grupo 999400" transform="translate(-1283 -9802.089)">
      <g id="Grupo_999399" data-name="Grupo 999399" clip-path="url(#clip-path)">
        <path id="Trazado_678567" data-name="Trazado 678567" d="M96.25,47.15q7.414,0,14.827,0a2.988,2.988,0,0,1,3.32,2.514q2.437,9.135,4.833,18.28c.9,3.428,1.756,6.871,2.726,10.279a3.657,3.657,0,0,1-3.651,4.671c-5.7-.059-11.395-.019-17.093-.018-.7,0-.7,0-.7.694,0,4.6,0,9.2-.014,13.8,0,.433.223.416.516.415q3.32,0,6.641,0a5.273,5.273,0,0,1,1.123.083,1.406,1.406,0,0,1,1.074,1.348,1.424,1.424,0,0,1-1.068,1.354,3.349,3.349,0,0,1-.813.1q-12.2.008-24.4-.011a2.415,2.415,0,0,1-1.29-.374,1.221,1.221,0,0,1-.452-1.423,1.367,1.367,0,0,1,1.15-1.041,4.946,4.946,0,0,1,.821-.038c2.265,0,4.531-.007,6.8.012.408,0,.559-.076.557-.531q-.031-6.925-.007-13.849c0-.442-.129-.542-.548-.542-5.715.01-11.429,0-17.144.006A3.8,3.8,0,0,1,71.2,82.3a3.5,3.5,0,0,1-1.526-3.987c.938-3.311,1.937-6.6,2.9-9.908q1.856-6.335,3.7-12.673.916-3.13,1.841-6.256a2.9,2.9,0,0,1,3.143-2.324H96.25Zm8.594,26.5a2.014,2.014,0,0,0-.026.322c.159,1.914.314,3.828.5,5.739.01.11.266.28.409.281q6.28.026,12.56.014c.885,0,1.121-.3.905-1.16-.407-1.628-.857-3.245-1.273-4.871-.076-.3-.228-.361-.512-.36q-5.018.028-10.037.033c-.822,0-1.643,0-2.525,0M86.291,80.005c.177-1.987.33-3.9.531-5.809.045-.424-.026-.526-.455-.526q-5.944-.006-11.888-.058a.568.568,0,0,0-.648.489c-.415,1.466-.85,2.927-1.274,4.39-.371,1.283-.188,1.526,1.161,1.525q5.352,0,10.705-.011h1.867m2.9-.035h13.271c-.191-2.133-.379-4.221-.565-6.3a1.253,1.253,0,0,0-.2-.04c-3.878,0-7.757.006-11.635.03a.52.52,0,0,0-.354.356c-.187,1.962-.347,3.926-.518,5.955m27.889-9.2c-.507-1.906-.987-3.691-1.454-5.48-.07-.267-.2-.342-.467-.341q-5.38.012-10.761,0c-.131,0-.262.021-.394.033a1.768,1.768,0,0,0-.016.24c.147,1.709.3,3.417.441,5.126.035.436.308.407.611.408q5.51,0,11.019.01h1.021m-42.241-.04a4.165,4.165,0,0,0,.449.053c3.758,0,7.515-.017,11.273-.006.445,0,.6-.15.631-.575.083-1.111.2-2.22.3-3.331.054-.61.1-1.22.15-1.849a2.437,2.437,0,0,0-.3-.042c-3.466-.009-6.932-.01-10.4-.029a.487.487,0,0,0-.542.415c-.161.559-.331,1.116-.493,1.676-.352,1.211-.7,2.423-1.068,3.688m15.193,0h11.57c-.173-1.947-.342-3.848-.511-5.741a1.505,1.505,0,0,0-.2-.038c-3.328,0-6.657,0-9.985-.005-.323,0-.4.123-.42.418-.136,1.76-.293,3.518-.45,5.366m24.694-8.668a1.027,1.027,0,0,0,0-.174c-.422-1.624-.84-3.249-1.282-4.868a.476.476,0,0,0-.373-.23c-3.14-.021-6.28-.026-9.42-.038-.321,0-.444.091-.4.458.16,1.431.3,2.866.4,4.3.031.456.169.563.608.56,3.054-.019,6.109-.01,9.163-.01h1.309M97.557,97.787a.884.884,0,0,0,.066-.2q0-7.181.009-14.362c0-.278-.11-.352-.367-.35-.944.008-1.888.009-2.831-.006-.308,0-.419.094-.419.413q.013,7.052,0,14.1c0,.284.085.407.38.4,1.044-.009,2.089,0,3.159,0M77.4,62.033H87.929l.5-5.268h-.8c-2.677-.008-5.354-.009-8.03-.029-.475,0-.788.1-.853.642a5.7,5.7,0,0,1-.261.885c-.362,1.246-.722,2.492-1.092,3.77m23.4.005c0-.175.012-.325,0-.472-.139-1.466-.289-2.931-.42-4.4-.03-.334-.208-.362-.482-.364-2.467-.013-4.934-.043-7.4-.056-1.188-.006-1.208,0-1.322,1.183-.131,1.358-.221,2.72-.331,4.106Zm11.695-8.1c.034-.121.058-.157.051-.185-.287-1.163-.564-2.328-.882-3.482-.033-.122-.3-.247-.467-.253-.633-.024-1.268,0-1.9.005-2.057,0-4.115.012-6.173,0-.341,0-.5.077-.463.465q.156,1.482.254,2.97c.024.363.137.5.524.492,2.538-.02,5.075-.015,7.613-.018h1.445m-32.71-.057a1.847,1.847,0,0,0,.32.071c2.742,0,5.483-.017,8.225-.015.338,0,.39-.174.409-.446.07-.99.131-1.982.243-2.968.043-.381-.066-.491-.422-.491-2.433,0-4.866-.02-7.3-.012a.527.527,0,0,0-.4.276c-.371,1.171-.709,2.352-1.073,3.586m20.28.026c-.1-1.256-.192-2.433-.321-3.606-.012-.107-.295-.261-.452-.262-2.316-.017-4.632-.007-6.947-.017-.3,0-.44.1-.46.4q-.069.975-.157,1.949c-.045.5-.1,1.006-.161,1.534Z" transform="translate(-40.803 -27.669)" fill="#161615"/>
        <path id="Trazado_678568" data-name="Trazado 678568" d="M32.845,196.489a2.967,2.967,0,0,1-3.131,2.858c-1.184.009-2.369.012-3.553,0a2.82,2.82,0,0,1-2.906-2.515c-.045-.287-.152-.35-.415-.388a2.9,2.9,0,0,1-2.575-2.825c-.047-1.079-.031-2.163,0-3.243a2.832,2.832,0,0,1,1.115-2.174.745.745,0,0,0,.262-.8,12.46,12.46,0,0,0-2.208-5.373c-3.9-5.509-.639-13.052,5.018-15.069a10.243,10.243,0,0,1,11.886,15.588,11.869,11.869,0,0,0-1.931,4.88.722.722,0,0,0,.282.793,2.582,2.582,0,0,1,1.051,1.932,31.4,31.4,0,0,1,.019,3.652,2.911,2.911,0,0,1-2.91,2.691m-1.323-8.941c.018-.07.034-.133.051-.2a33.277,33.277,0,0,1,1.048-3.8,23.088,23.088,0,0,1,1.805-3.28,6.94,6.94,0,0,0,.557-6.222,7.469,7.469,0,0,0-7.018-4.89,7.363,7.363,0,0,0-6.833,4.617,7.039,7.039,0,0,0,.721,6.861,14.973,14.973,0,0,1,2.541,6.391c.056.4.225.558.638.511a5.387,5.387,0,0,1,1.08-.007c.38.033.5-.078.5-.477-.014-2.523.009-5.046-.012-7.569a.9.9,0,0,0-.363-.639c-.837-.534-1.716-1-2.564-1.522a1.394,1.394,0,1,1,1.394-2.395c.839.467,1.673.943,2.492,1.442a.749.749,0,0,0,.888-.016q1.3-.784,2.636-1.5a1.343,1.343,0,0,1,1.7.2,1.325,1.325,0,0,1-.242,2.155c-.842.559-1.715,1.075-2.6,1.566a.784.784,0,0,0-.445.816c.021,2.352.012,4.7.014,7.054v.894Zm1.385,2.941c-.091-.041-.122-.067-.152-.067-3.1-.008-6.207-.018-9.311-.006a.463.463,0,0,0-.315.324q-.058,1.284-.036,2.571c0,.108.2.29.323.3.441.048.891.005,1.332.056a1.346,1.346,0,0,1,1.27,1.265c.045.389,0,.789.043,1.178.015.13.183.346.285.348,1.177.024,2.356.016,3.581.016,0-.4,0-.739,0-1.077.007-1.226.563-1.782,1.8-1.8.386,0,.773,0,1.181,0Z" transform="translate(-10.401 -97.598)" fill="#161615"/>
        <path id="Trazado_678569" data-name="Trazado 678569" d="M94.41,201.392c0-.7,0-1.28,0-1.861q.008-6.383.02-12.766a4.421,4.421,0,0,1,.082-.917,1.407,1.407,0,0,1,1.36-1.114,1.457,1.457,0,0,1,1.344,1.086,3.5,3.5,0,0,1,.081.816q.006,7.8,0,15.6a5.115,5.115,0,0,1-.05.82,1.277,1.277,0,0,1-1.2,1.144c-.613.051-1.232.032-1.849.033q-11.117.01-22.235.015c-.377,0-.756,0-1.13-.036a1.354,1.354,0,0,1-1.272-1.365,1.372,1.372,0,0,1,1.268-1.429,9.216,9.216,0,0,1,.925-.026l21.309,0H94.41" transform="translate(-40.821 -108.412)" fill="#161615"/>
        <path id="Trazado_678570" data-name="Trazado 678570" d="M194.794,24.428a7,7,0,1,1,7.23,7.033,6.914,6.914,0,0,1-7.23-7.033m7-4.122a4.05,4.05,0,0,0-4.115,4.306,4.154,4.154,0,0,0,4.161,4.041,4.047,4.047,0,0,0,4.069-4.254,3.989,3.989,0,0,0-4.115-4.093" transform="translate(-179.597 -11.994)" fill="#161615"/>
        <path id="Trazado_678571" data-name="Trazado 678571" d="M211.173,57c-.033.649-.016,1.306-.112,1.945a1.285,1.285,0,0,1-1.116,1.068,1.2,1.2,0,0,1-1.309-.511,2.029,2.029,0,0,1-.325-1c-.043-1.027-.033-2.058-.015-3.087a1.414,1.414,0,0,1,1.374-1.506,1.453,1.453,0,0,1,1.444,1.393c.048.561.009,1.131.009,1.7l.05,0" transform="translate(-187.512 -33.381)" fill="#161615"/>
        <path id="Trazado_678572" data-name="Trazado 678572" d="M211.086,3.113a17.906,17.906,0,0,1-.015,1.9,1.253,1.253,0,0,1-1.041,1.074,1.218,1.218,0,0,1-1.369-.47,1.908,1.908,0,0,1-.347-.989c-.045-1.044-.04-2.092-.016-3.138A1.411,1.411,0,0,1,209.691,0a1.44,1.44,0,0,1,1.41,1.366c.053.578.01,1.164.01,1.747h-.024" transform="translate(-187.511 -1.746)" fill="#161615"/>
        <path id="Trazado_678573" data-name="Trazado 678573" d="M180.378,33.847c-.513,0-1.027.017-1.539,0a1.447,1.447,0,0,1-1.439-1.387,1.318,1.318,0,0,1,1.267-1.41,35.213,35.213,0,0,1,3.635.014,1.292,1.292,0,0,1,1.186,1.321,1.311,1.311,0,0,1-1.116,1.382,6.526,6.526,0,0,1-1.018.083c-.324.013-.65,0-.975,0Z" transform="translate(-169.388 -19.942)" fill="#161615"/>
        <path id="Trazado_678574" data-name="Trazado 678574" d="M186.423,10.7a1.551,1.551,0,0,1,.9-1.45,1.271,1.271,0,0,1,1.467.286c.8.8,1.615,1.584,2.392,2.4a1.324,1.324,0,0,1,.057,1.895,1.4,1.4,0,0,1-2.028.083q-1.221-1.137-2.354-2.368a3.127,3.127,0,0,1-.438-.851" transform="translate(-174.684 -7.106)" fill="#161615"/>
        <path id="Trazado_678575" data-name="Trazado 678575" d="M229.694,10.691a2.523,2.523,0,0,1-.374.742c-.788.854-1.6,1.688-2.443,2.491a1.319,1.319,0,0,1-1.893-.091,1.361,1.361,0,0,1-.149-1.862c.811-.88,1.665-1.722,2.534-2.545a1.245,1.245,0,0,1,1.484-.182,1.511,1.511,0,0,1,.842,1.446" transform="translate(-197.048 -7.076)" fill="#161615"/>
        <path id="Trazado_678576" data-name="Trazado 678576" d="M234.391,33.8c-.515,0-1.03.022-1.543,0a1.463,1.463,0,0,1-1.507-1.384,1.374,1.374,0,0,1,1.392-1.422,30.347,30.347,0,0,1,3.341-.006,1.4,1.4,0,0,1-.037,2.8c-.545.045-1.1.009-1.646.009Z" transform="translate(-201.045 -19.904)" fill="#161615"/>
        <path id="Trazado_678577" data-name="Trazado 678577" d="M188.052,52.346a1.433,1.433,0,0,1-1.432-.8,1.282,1.282,0,0,1,.163-1.5c.813-.881,1.661-1.733,2.541-2.547a1.339,1.339,0,0,1,1.825.116,1.282,1.282,0,0,1,.152,1.809c-.827.913-1.713,1.774-2.6,2.626a1.837,1.837,0,0,1-.645.294" transform="translate(-174.703 -29.442)" fill="#161615"/>
        <path id="Trazado_678578" data-name="Trazado 678578" d="M226,47.067a4.024,4.024,0,0,1,.915.492q1.217,1.14,2.359,2.359a1.317,1.317,0,0,1,.022,1.927,1.344,1.344,0,0,1-1.972.067c-.82-.775-1.6-1.59-2.367-2.422a1.3,1.3,0,0,1-.24-1.567A1.591,1.591,0,0,1,226,47.067" transform="translate(-197.061 -29.368)" fill="#161615"/>
        <path id="Trazado_678579" data-name="Trazado 678579" d="M39.222,149.662c0-.5-.02-1,0-1.491a1.337,1.337,0,0,1,1.233-1.346,1.447,1.447,0,0,1,1.561,1.061.754.754,0,0,1,.046.2c0,1.094.028,2.19-.038,3.281a1.2,1.2,0,0,1-1.015,1.1A1.324,1.324,0,0,1,39.535,152a1.577,1.577,0,0,1-.285-.746c-.043-.528-.013-1.062-.013-1.593h-.015" transform="translate(-23.013 -86.159)" fill="#161615"/>
        <path id="Trazado_678580" data-name="Trazado 678580" d="M20.8,156.791a1.317,1.317,0,0,1-.866,1.315,1.241,1.241,0,0,1-1.542-.34c-.643-1.028-1.227-2.1-1.767-3.184a1.214,1.214,0,0,1,.562-1.424c.5-.335,1.253-.4,1.562.049.747,1.1,1.37,2.275,2.037,3.423a.323.323,0,0,1,.014.161" transform="translate(-9.71 -89.723)" fill="#161615"/>
        <path id="Trazado_678581" data-name="Trazado 678581" d="M3.855,173.8a1.776,1.776,0,0,1-.464-.132c-.953-.538-1.913-1.067-2.835-1.653a1.224,1.224,0,0,1-.494-1.453,1.281,1.281,0,0,1,1.123-.989,1.182,1.182,0,0,1,.7.088c.96.526,1.921,1.056,2.838,1.65a1.253,1.253,0,0,1,.474,1.591,1.394,1.394,0,0,1-1.338.9" transform="translate(0 -99.508)" fill="#161615"/>
        <path id="Trazado_678582" data-name="Trazado 678582" d="M74.022,173.744a1.415,1.415,0,0,1-1.368-.92,1.254,1.254,0,0,1,.434-1.514c.936-.595,1.9-1.154,2.885-1.66a1.36,1.36,0,0,1,1.421,2.247c-.989.662-2.053,1.212-3.092,1.8a.7.7,0,0,1-.28.048" transform="translate(-42.584 -99.488)" fill="#161615"/>
        <path id="Trazado_678583" data-name="Trazado 678583" d="M58.434,156.78a2.723,2.723,0,0,1,.178-.556c.5-.893.981-1.805,1.551-2.655a1.318,1.318,0,0,1,2.337.168,1.412,1.412,0,0,1,.047,1.069,30.311,30.311,0,0,1-1.62,2.847,1.216,1.216,0,0,1-1.356.511,1.345,1.345,0,0,1-1.061-1,3.736,3.736,0,0,1-.075-.384" transform="translate(-34.292 -89.753)" fill="#161615"/>
        <path id="Trazado_678584" data-name="Trazado 678584" d="M154.969,111.249c.882,0,1.7,0,2.525,0q5.019-.012,10.038-.033c.284,0,.435.063.511.36.417,1.626.866,3.243,1.274,4.871.215.861-.021,1.158-.905,1.16q-6.28.011-12.561-.014c-.142,0-.4-.171-.409-.281-.185-1.911-.341-3.825-.5-5.739a2.067,2.067,0,0,1,.027-.322" transform="translate(-90.928 -65.268)" fill="#dbfdfd"/>
        <path id="Trazado_678585" data-name="Trazado 678585" d="M90.354,117.6H88.487q-5.352.006-10.705.011c-1.349,0-1.532-.243-1.161-1.525.423-1.463.859-2.924,1.274-4.39a.567.567,0,0,1,.647-.489q5.944.051,11.889.058c.428,0,.5.1.455.526-.2,1.909-.354,3.822-.532,5.81" transform="translate(-44.867 -65.26)" fill="#dbfdfd"/>
        <path id="Trazado_678586" data-name="Trazado 678586" d="M117.133,117.588c.172-2.029.331-3.993.518-5.955a.52.52,0,0,1,.354-.356c3.878-.024,7.757-.026,11.635-.03a1.279,1.279,0,0,1,.2.039c.187,2.08.374,4.169.565,6.3Z" transform="translate(-68.74 -65.286)" fill="#dbfdfd"/>
        <path id="Trazado_678587" data-name="Trazado 678587" d="M166.039,96.053h-1.021q-5.51-.006-11.019-.01c-.3,0-.577.029-.611-.407-.136-1.71-.293-3.418-.441-5.126a1.761,1.761,0,0,1,.016-.24c.132-.012.263-.033.395-.033q5.38,0,10.761,0c.269,0,.4.074.467.34.466,1.789.947,3.574,1.454,5.48" transform="translate(-89.757 -52.953)" fill="#dbfdfd"/>
        <path id="Trazado_678588" data-name="Trazado 678588" d="M82.395,96.014c.366-1.265.716-2.476,1.068-3.688.162-.559.333-1.116.493-1.676a.488.488,0,0,1,.543-.415c3.466.019,6.932.021,10.4.029a2.562,2.562,0,0,1,.3.043c-.051.628-.1,1.239-.15,1.849-.1,1.11-.216,2.219-.3,3.331-.031.424-.185.576-.63.575-3.758-.011-7.516,0-11.274.006a4.189,4.189,0,0,1-.449-.053" transform="translate(-48.354 -52.955)" fill="#dbfdfd"/>
        <path id="Trazado_678589" data-name="Trazado 678589" d="M119.17,96.016c.157-1.848.314-3.606.45-5.365.023-.3.1-.419.42-.419,3.328.01,6.657,0,9.985.006a1.443,1.443,0,0,1,.2.038c.168,1.893.338,3.794.511,5.741Z" transform="translate(-69.936 -52.953)" fill="#dbfdfd"/>
        <path id="Trazado_678590" data-name="Trazado 678590" d="M162.623,75.71h-1.309c-3.055,0-6.109-.009-9.164.01-.437,0-.577-.1-.607-.56-.1-1.436-.24-2.871-.4-4.3-.041-.367.082-.459.4-.458,3.14.012,6.28.017,9.42.038a.475.475,0,0,1,.373.23c.442,1.618.86,3.244,1.283,4.868a1.035,1.035,0,0,1,0,.174" transform="translate(-88.695 -41.315)" fill="#dbfdfd"/>
        <path id="Trazado_678591" data-name="Trazado 678591" d="M132.34,148.527c-1.07,0-2.115-.005-3.159,0-.295,0-.38-.12-.38-.4q.009-7.052,0-14.1c0-.319.11-.418.419-.413.943.015,1.887.014,2.831.007.257,0,.368.071.367.35q-.01,7.181-.009,14.362a.884.884,0,0,1-.066.2" transform="translate(-75.586 -78.409)" fill="#9a9393"/>
        <path id="Trazado_678592" data-name="Trazado 678592" d="M88.571,75.651c.37-1.277.73-2.523,1.092-3.77A5.748,5.748,0,0,0,89.924,71c.064-.54.377-.646.853-.642,2.676.02,5.353.021,8.03.03h.8c-.166,1.755-.331,3.5-.5,5.268Z" transform="translate(-51.979 -41.288)" fill="#dbfdfd"/>
        <path id="Trazado_678593" data-name="Trazado 678593" d="M131.075,75.674h-9.957c.11-1.386.2-2.748.331-4.107.114-1.18.134-1.189,1.322-1.183,2.467.013,4.935.043,7.4.056.274,0,.452.03.482.364.131,1.467.281,2.932.419,4.4.014.147,0,.3,0,.472" transform="translate(-71.079 -41.305)" fill="#dbfdfd"/>
        <path id="Trazado_678594" data-name="Trazado 678594" d="M159.545,58H158.1c-2.538,0-5.075,0-7.613.018-.387,0-.5-.129-.524-.492q-.1-1.487-.255-2.97c-.04-.388.122-.466.463-.465,2.057.006,4.115,0,6.172-.005.634,0,1.269-.029,1.9-.005.164.006.433.131.467.253.318,1.154.6,2.319.882,3.482.007.029-.017.064-.051.186" transform="translate(-87.854 -31.734)" fill="#dbfdfd"/>
        <path id="Trazado_678595" data-name="Trazado 678595" d="M94.351,57.96c.364-1.234.7-2.415,1.073-3.586a.527.527,0,0,1,.4-.276c2.433-.007,4.866.01,7.3.013.357,0,.466.11.423.491-.112.986-.173,1.978-.243,2.969-.019.272-.071.446-.409.446-2.742,0-5.483.011-8.224.015a1.811,1.811,0,0,1-.32-.071" transform="translate(-55.371 -31.746)" fill="#dbfdfd"/>
        <path id="Trazado_678596" data-name="Trazado 678596" d="M131.366,57.994h-8.5c.056-.528.115-1.03.161-1.534q.089-.974.157-1.949c.021-.3.157-.4.46-.4,2.316.01,4.632,0,6.947.017.158,0,.441.155.452.262.129,1.173.216,2.35.321,3.606" transform="translate(-72.105 -31.754)" fill="#dbfdfd"/>
        <path id="Trazado_678597" data-name="Trazado 678597" d="M35.549,191.6H33.541v-.894c0-2.352.007-4.7-.014-7.054a.784.784,0,0,1,.445-.816c.883-.491,1.756-1.006,2.6-1.566a1.325,1.325,0,0,0,.242-2.155,1.343,1.343,0,0,0-1.7-.2q-1.337.715-2.636,1.5a.75.75,0,0,1-.889.016c-.819-.5-1.653-.975-2.492-1.442a1.394,1.394,0,1,0-1.394,2.395c.848.518,1.727.987,2.564,1.522a.9.9,0,0,1,.363.639c.021,2.523,0,5.046.012,7.569,0,.4-.118.511-.5.477a5.388,5.388,0,0,0-1.08.007c-.414.047-.583-.107-.638-.511a14.973,14.973,0,0,0-2.541-6.391,7.039,7.039,0,0,1-.721-6.861,7.363,7.363,0,0,1,6.833-4.617,7.469,7.469,0,0,1,7.018,4.89,6.94,6.94,0,0,1-.557,6.222,23.087,23.087,0,0,0-1.805,3.28,33.278,33.278,0,0,0-1.048,3.8c-.017.063-.033.127-.051.2" transform="translate(-14.43 -101.653)" fill="#ffc321"/>
        <path id="Trazado_678598" data-name="Trazado 678598" d="M40.521,224.728v3.111c-.408,0-.794,0-1.181,0-1.237.017-1.793.572-1.8,1.8,0,.339,0,.678,0,1.077-1.225,0-2.4.009-3.581-.016-.1,0-.27-.218-.285-.348-.045-.389,0-.789-.043-1.178a1.346,1.346,0,0,0-1.27-1.265c-.44-.05-.891-.008-1.332-.056-.122-.013-.321-.2-.323-.3q-.022-1.285.036-2.571a.463.463,0,0,1,.315-.323c3.1-.012,6.208,0,9.311.006.031,0,.061.026.152.067" transform="translate(-18.017 -131.837)" fill="#9a9393"/>
        <path id="Trazado_678599" data-name="Trazado 678599" d="M205.9,24.346a3.989,3.989,0,0,1,4.115,4.093,4.047,4.047,0,0,1-4.069,4.254,4.154,4.154,0,0,1-4.161-4.041,4.05,4.05,0,0,1,4.115-4.306" transform="translate(-183.701 -16.033)" fill="#ffc321"/>
      </g>
    </g>
  </g>
</svg>
