<svg xmlns="http://www.w3.org/2000/svg" width="525" height="256.939" viewBox="0 0 525 256.939">
  <g id="Grupo_929827" data-name="Grupo 929827" transform="translate(102.001 -73.102)">
    <path id="Trazado_666790" data-name="Trazado 666790" d="M13.449,143.652c38.55,1.219,76.1-12.157,103.634-35.143,53.659-44.8,147.789-45.6,221.7-10.8,15.323,7.215,50.3,32.383,69.969,69.929,2.935,5.6,30.727,68.971-.317,118.935-2.413,3.883-25.484,28.8-47.9,36.034-5.612,1.81-393.2,1-395.918,0C-153.011,279.116-101.09,140.03,13.449,143.652Z" fill="#d1e5f3"/>
    <ellipse id="Elipse_4905" data-name="Elipse 4905" cx="226.209" cy="12.797" rx="226.209" ry="12.797" transform="translate(-55.802 304.447)" fill="#bcd7e6"/>
    <path id="Trazado_666791" data-name="Trazado 666791" d="M1296.074,338.338l-42.684,79.69a99.9,99.9,0,0,1,38.919,41.6l78.227-45.422A190.735,190.735,0,0,0,1296.074,338.338Z" transform="translate(-1042.791 -204.063)" fill="#9cc43b"/>
    <path id="Trazado_666792" data-name="Trazado 666792" d="M296.778,431.937l79.75,42.716a99.925,99.925,0,0,1,37.205-42.9l-45.39-78.179A190.649,190.649,0,0,0,296.778,431.937Z" transform="translate(-306.807 -215.785)" fill="#ed631d"/>
    <path id="Trazado_666793" data-name="Trazado 666793" d="M837.279,749.192A81.876,81.876,0,0,0,805.454,714.4l-.27-.162a81.158,81.158,0,0,0-41.272-11.3h-.318a81.142,81.142,0,0,0-44.014,12.993c-.089.054-.178.114-.267.172a81.852,81.852,0,0,0-30.349,35.848c-.044.1-.086.194-.127.293a81.256,81.256,0,0,0-6.621,32.235q0,3.783.34,7.476c0,.057.009.118.016.175H844.936c.006-.057.013-.118.016-.175q.339-3.692.34-7.476a81.2,81.2,0,0,0-7.877-35C837.371,749.383,837.326,749.287,837.279,749.192Z" transform="translate(-603.349 -484.578)" fill="#d8d8d8"/>
    <path id="Trazado_666794" data-name="Trazado 666794" d="M311.713,736.063l-79.75-42.716c-.051.1-.1.191-.14.286a189.032,189.032,0,0,0-19.29,83.467q0,3.754.146,7.476c0,.057,0,.118.006.175h90.485c0-.057-.01-.118-.013-.175q-.277-3.7-.277-7.476a99.129,99.129,0,0,1,8.7-40.748C311.624,736.257,311.669,736.159,311.713,736.063Z" transform="translate(-241.993 -477.195)" fill="#ed1423"/>
    <path id="Trazado_666795" data-name="Trazado 666795" d="M705.781,233.275a188.945,188.945,0,0,0-98.438,27.58c-.089.051-.181.108-.27.165L652.463,339.2c.089-.057.178-.114.271-.169a99.039,99.039,0,0,1,53.048-15.407h.318V233.275Z" transform="translate(-545.536 -123.231)" fill="#ffd400"/>
    <path id="Trazado_666796" data-name="Trazado 666796" d="M1128.879,257.347a189.016,189.016,0,0,0-92.441-24.072v90.349a99.033,99.033,0,0,1,49.763,13.41c.092.051.182.1.274.162l42.684-79.69C1129.067,257.452,1128.971,257.4,1128.879,257.347Z" transform="translate(-875.876 -123.231)" fill="#d0dd28"/>
    <path id="Trazado_666797" data-name="Trazado 666797" d="M1500.514,667.568c-.047-.092-.1-.188-.149-.28l-78.227,45.422c.048.1.1.191.14.286a99.071,99.071,0,0,1,10.262,44.055q0,3.773-.277,7.476c0,.057-.01.118-.013.175h90.482c0-.057,0-.118.006-.175q.147-3.721.146-7.476A188.974,188.974,0,0,0,1500.514,667.568Z" transform="translate(-1172.62 -457.146)" fill="#35bc42"/>
    <path id="Trazado_666798" data-name="Trazado 666798" d="M863.537,1102.328l-2.373,2.043-1.118-1.3,1.786-1.54h.005C862.4,1101.788,862.969,1102.056,863.537,1102.328Z" transform="translate(-740.166 -791.241)" fill="#d9e7e8"/>
    <path id="Trazado_666799" data-name="Trazado 666799" d="M924.375,436.449a2.865,2.865,0,0,0-5.644.817c2.165,48.192,6.318,140.143,6.593,142.411a16.694,16.694,0,0,0,33.145-4.019C958.158,573.091,935.992,483.378,924.375,436.449Z" transform="translate(-785.313 -277.869)" fill="#606060"/>
    <circle id="Elipse_4906" data-name="Elipse 4906" cx="13.356" cy="13.356" r="13.356" transform="translate(137.702 300.109) rotate(-45)"/>
    <g id="Grupo_929809" data-name="Grupo 929809" transform="translate(182.47 117.707)">
      <path id="Trazado_666800" data-name="Trazado 666800" d="M1169.939,1080.118c1.315-2.368,6.334-2.788,7.625-1.121.62.8.039,1.645.9,3.439.624,1.3,1.156,1.328,1.421,2.168.564,1.788-.821,4.936-3.588,5.756a5.272,5.272,0,0,1-6.055-2.691c-.089-.2-.939-.562-.3-2.168C1170.624,1083.781,1169.584,1080.756,1169.939,1080.118Z" transform="translate(-1160.874 -890.832)" fill="#d48c6d"/>
      <path id="Trazado_666801" data-name="Trazado 666801" d="M1281.759,1071.046c-.148-1.76-.518-2.016-.224-2.766.953-2.433,6.282-3.415,7.7-1.719.954,1.141-.5,2.731.747,5.232a3.069,3.069,0,0,1,.6,1.944c-.124.729-.659,1.114-1.42,1.794-2.357,2.1-1.989,2.656-3.065,3.065-1.472.56-3.713.117-4.56-1.2C1280.628,1075.993,1282.07,1074.75,1281.759,1071.046Z" transform="translate(-1246.681 -881.386)" fill="#d48c6d"/>
      <path id="Trazado_666802" data-name="Trazado 666802" d="M1232.717,662.564c4.794-5.719,11.384-13.893,14.981-10.5,2.254,2.125,6.352,19.856,4.979,37.4-.343,4.387-1.035,8.7-1.446,10.992-.993,5.547-1.727,7.373-1.735,11.571,0,2.239.2,5.065.289,6.364.2,2.8.407,4.4.579,6.074.782,7.6.224,7.774.578,14.753.228,4.481,0,10.847,0,10.847l-9.112.868a57.582,57.582,0,0,0-.434-6.8c-.767-4.889-1.719-4.906-2.6-9.257-.957-4.709-.707-12.726-.5-16.779a14.634,14.634,0,0,0-.566-4.865c-1.75-5.987-3.307-24.849-1.223-34.01C1237.115,676.547,1226.284,670.237,1232.717,662.564Z" transform="translate(-1207.78 -562.526)" fill="#a1c4fc"/>
      <path id="Trazado_666803" data-name="Trazado 666803" d="M1255.339,724.3c2.078,1.09-1.565,23.185-1.522,27.645a70.346,70.346,0,0,0,.673,8.241c.49,4.053.705,4.012,1.009,7.064.07.7.267,2.792.336,8.914.072,6.352-.12,5.851,0,7.9.32,5.481,1.585,7.253,2.523,12.277a44.637,44.637,0,0,1,.668,10.569l-2.049.2a57.582,57.582,0,0,0-.434-6.8c-.767-4.889-1.719-4.906-2.6-9.257-.957-4.709-.707-12.726-.5-16.779a14.634,14.634,0,0,0-.566-4.865c-1.75-5.987-3.307-24.849-1.223-34.01.156-.685-.436-1.607-1.3-2.729C1252.5,729.783,1254.507,723.86,1255.339,724.3Z" transform="translate(-1222.928 -618.696)" fill="#87b5e6"/>
      <path id="Trazado_666804" data-name="Trazado 666804" d="M1160.516,700.047c.568-3.015.483-6.487.289-13.306-.159-5.608-.238-8.413-.578-12.439-.66-7.815-1.417-10-.579-14.463.583-3.1,4.332-14.56,6.191-16.576,5.655-6.134,17.192-3.106,18.9,1.706.192.539-1,9.489-1.665,13.713-.173,1.094-3.33,27.28-8.895,45.015-.842,2.684-2.567,5.156-3.544,7.632a26.053,26.053,0,0,0-1.446,6.942c-.77,6.448-.151,7.019-.868,13.6-.377,3.461.9,11.295.145,12.414,0,0-9.084.469-9.112-.265-.289-7.666-2.552-16.205-2.6-23.141a51.5,51.5,0,0,1,.868-10.7C1158.658,704.813,1159.637,704.71,1160.516,700.047Z" transform="translate(-1150.91 -553.726)" fill="#a1c4fc"/>
      <path id="Trazado_666805" data-name="Trazado 666805" d="M1167.331,1101.225c.377.022.178,1.929,1.157,2.314.174.069.619.18,2.314-.868,1.6-.99,1.641-1.36,2.6-1.88,1-.539,3.023-1.26,4.05-.434.666.536.24,1.183.868,3.037a10.559,10.559,0,0,0,2.025,3.471,12.47,12.47,0,0,0,2.169,2.025c1.184.851,1.691.869,2.459,1.736a3.417,3.417,0,0,1,1.013,2.025,2.443,2.443,0,0,1-.578,1.88c-.431.421-.943.467-1.88.579-1.063.126-2.116.335-3.182.434-3.61.335-3.421.547-4.484.434a8.544,8.544,0,0,1-3.326-1.012c-1.29-.721-1.171-1.138-2.6-2.025-1.673-1.035-2.32-.766-3.037-1.591-.419-.483-.706-1.159-.723-3.327C1166.147,1104.585,1166.827,1101.195,1167.331,1101.225Z" transform="translate(-1158.16 -907.753)" fill="#3e47b2"/>
      <path id="Trazado_666806" data-name="Trazado 666806" d="M1277.539,1098.809c.443.007.345,1.518,1.591,2.314a2.449,2.449,0,0,0,2.169.289c.876-.379.74-1.235,1.591-2.314,1.028-1.3,2.965-2.256,4.194-1.735.472.2.392.427,1.591,2.025.693.924,1.26,1.569,2.169,2.6a25.344,25.344,0,0,0,1.736,1.88,10.414,10.414,0,0,0,3.327,2.169c2.062.787,2.913.167,3.905,1.157a4,4,0,0,1,1.013,2.17,2.788,2.788,0,0,1-.145,1.736c-.42.8-1.4,1.083-2.748,1.3a16.52,16.52,0,0,1-6.219.145c-2.462-.414-2.228-.829-5.641-1.591-2.74-.611-4.917-.868-4.917-.868-3.105-.366-3.914-.113-4.628-.868s-.629-2.006-.434-4.484C1276.3,1102.1,1276.883,1098.8,1277.539,1098.809Z" transform="translate(-1242.622 -905.626)" fill="#3e47b2"/>
      <path id="Trazado_666807" data-name="Trazado 666807" d="M1171.092,1136.233a10.9,10.9,0,0,0,3.616,1.157,13.458,13.458,0,0,0,3.905,0c1.389-.2,1.926-.5,3.76-.723.484-.058,1.942-.094,3.091-.116a2.868,2.868,0,0,1,.525,1.418,2.443,2.443,0,0,1-.578,1.88c-.431.421-.943.467-1.88.579-1.063.126-2.116.335-3.182.434-3.61.336-3.421.547-4.484.434a8.544,8.544,0,0,1-3.326-1.012c-1.29-.721-1.171-1.138-2.6-2.025-1.673-1.035-2.32-.766-3.037-1.591-.42-.483-.706-1.159-.723-3.327q0-.225,0-.451A48.277,48.277,0,0,0,1171.092,1136.233Z" transform="translate(-1158.16 -933.071)" fill="#1c2751"/>
      <path id="Trazado_666808" data-name="Trazado 666808" d="M1281.878,1136.7a48.4,48.4,0,0,0,8.533,1.736,25.343,25.343,0,0,0,10.29-.286,4.505,4.505,0,0,1,.123.575,2.787,2.787,0,0,1-.145,1.735c-.42.8-1.4,1.084-2.748,1.3a16.524,16.524,0,0,1-6.219.145c-2.462-.414-2.228-.829-5.641-1.591-2.74-.611-4.917-.868-4.917-.868-3.105-.366-3.914-.113-4.628-.868-.577-.61-.632-1.55-.528-3.205C1278.283,1135.894,1281.057,1136.476,1281.878,1136.7Z" transform="translate(-1242.623 -934.98)" fill="#1c2751"/>
      <g id="Grupo_929791" data-name="Grupo 929791" transform="translate(36.244 191.623)">
        <path id="Trazado_666809" data-name="Trazado 666809" d="M1290.048,1101.715a2.116,2.116,0,0,0,1.295-.223,1.023,1.023,0,0,0,.425-.658,4.341,4.341,0,0,1,.489-1.05,5.579,5.579,0,0,1,2.011-1.808,6.331,6.331,0,0,1,1.52-.622l.135.512a5.815,5.815,0,0,0-1.393.57,5.015,5.015,0,0,0-1.828,1.635,3.841,3.841,0,0,0-.433.934,1.51,1.51,0,0,1-.639.932,2.288,2.288,0,0,1-1.248.322c-.146,0-.273-.009-.37-.016a3.413,3.413,0,0,1-1.435-.43l.258-.463A2.887,2.887,0,0,0,1290.048,1101.715Z" transform="translate(-1288.577 -1097.354)" fill="#22226e"/>
      </g>
      <g id="Grupo_929792" data-name="Grupo 929792" transform="translate(9.278 192.624)">
        <path id="Trazado_666810" data-name="Trazado 666810" d="M1172.516,1104.749c.408.193.864.044,1.513-.206a7.2,7.2,0,0,0,1.4-.766,7.731,7.731,0,0,0,.825-.642,7.259,7.259,0,0,1,.7-.549,7.994,7.994,0,0,1,1.712-.89l.188.5a7.466,7.466,0,0,0-1.6.831,6.645,6.645,0,0,0-.649.513,8.292,8.292,0,0,1-.875.68,7.748,7.748,0,0,1-1.51.823,3.72,3.72,0,0,1-1.293.331,1.461,1.461,0,0,1-.636-.14,1.607,1.607,0,0,1-.634-.552l.435-.3A1.088,1.088,0,0,0,1172.516,1104.749Z" transform="translate(-1171.656 -1101.696)" fill="#22226e"/>
      </g>
      <path id="Trazado_666811" data-name="Trazado 666811" d="M1159.313,767.43a84.74,84.74,0,0,1,2.778-9.26,20.25,20.25,0,0,0,1.3-3.89c.533-2.764.026-4.239,0-7.409a37.251,37.251,0,0,1,.556-6.112c1.38-10.589,2.417-18.76,1.111-24.818a22.883,22.883,0,0,0-4.18-8.924c-.6,1.932-1.054,3.593-1.227,4.515-.838,4.464-.081,6.649.579,14.463.34,4.026.419,6.83.578,12.439.194,6.82.279,10.291-.289,13.306-.878,4.662-1.858,4.766-2.893,10.124a51.5,51.5,0,0,0-.868,10.7c.052,6.936,2.314,15.476,2.6,23.141.009.233.927.344,2.176.389-.871-5.465-1.454-10.162-1.852-13.851C1158.518,771.444,1158.913,769.067,1159.313,767.43Z" transform="translate(-1150.91 -605.419)" fill="#87b5e6"/>
      <path id="Trazado_666812" data-name="Trazado 666812" d="M1240.454,301.351c.223.153.381,2,.322,4.914-.014.671-.021,1.007,0,1.238.139,1.564.738,2.008,1.166,3.57a7.053,7.053,0,0,1,.292,2.7c-.134,1.284-.588,1.543-.947,2.987a10.392,10.392,0,0,0-.219,3.206c.093,2.243.592,2.517.8,4.444.158,1.456.425,3.907-1.02,5.9a5.4,5.4,0,0,1-3.279,2.186,5.916,5.916,0,0,1-4.3-1.166,10.505,10.505,0,0,1-4.153-5.683c-1.783-5.714,1.687-11.285,4.007-15.009C1236.264,305.6,1239.783,300.891,1240.454,301.351Z" transform="translate(-1206.209 -293.29)" fill="#101535"/>
      <path id="Trazado_666813" data-name="Trazado 666813" d="M1308.538,426.468c1-.2,2.37,2.3,3.21,3.828a20,20,0,0,1,1.976,6.174,75.252,75.252,0,0,1,1.111,7.779c.586,6-.089,4.051.37,10a7.144,7.144,0,0,1-.494,4.2c-.73,1.393-2.357,2.966-3.581,2.717-1.4-.286-2.3-2.965-3.087-13.953C1307.34,437.4,1306.582,426.861,1308.538,426.468Z" transform="translate(-1266.731 -389.566)" fill="#e6e6e8"/>
      <path id="Trazado_666814" data-name="Trazado 666814" d="M1334.345,506.576a4.775,4.775,0,0,1,0-2.264,4.5,4.5,0,0,1,1.729-2.1,23.535,23.535,0,0,1,4.157-2.511c2.577-1.378,2.4-1.229,2.84-1.523a13.108,13.108,0,0,1,2.634-1.564c1.171-.48,1.65-.411,1.976-.247a1.423,1.423,0,0,1,.782,1.111c.029.431-.209.746-.576,1.235-.471.625-1,.752-.947.947s.563.04,1.112.37a1.554,1.554,0,0,1,.782,1.153c.021.571-.478.838-.329,1.152.127.269.513.117.947.453a1.7,1.7,0,0,1,.576,1.07,2.4,2.4,0,0,1-.288,1.4,5.8,5.8,0,0,1-.823,1.358,12.73,12.73,0,0,1-5.721,3.828c-2.354.65-6.709,1.009-8.068-1.111A7.575,7.575,0,0,1,1334.345,506.576Z" transform="translate(-1287.439 -443.259)" fill="#c37762"/>
      <path id="Trazado_666815" data-name="Trazado 666815" d="M1362.971,498.039h0a.62.62,0,0,0,.467-.738l-3.215-14.28a.619.619,0,0,0-.738-.467h0a.62.62,0,0,0-.467.738l3.215,14.28A.619.619,0,0,0,1362.971,498.039Z" transform="translate(-1306.516 -432.713)" fill="#4f80bc"/>
      <path id="Trazado_666816" data-name="Trazado 666816" d="M1248.367,397.13c.374.257.115,1.238-.027,1.55a2.361,2.361,0,0,1-1.019,1.111c-1.149.581-2.908-.044-3.087-.926a.883.883,0,0,1,.334-.97C1245.7,396.886,1247.567,396.581,1248.367,397.13Z" transform="translate(-1218.195 -366.795)" fill="#9badd4"/>
      <path id="Trazado_666817" data-name="Trazado 666817" d="M1177.838,402.674c-.071-.066.012.01-2.409-.988-3.744-1.544-4.276-1.806-5.541-2.223-.682-.225-2.648.756-4.371.426-2.905-.556-2.451-1.5-4.9-1.908-3.728-.624-4.412-1.9-7.226-1.605a11.153,11.153,0,0,0-2.891.741,19.159,19.159,0,0,0-3.613,2.223c-1.547,1.073-2.6,1.861-3.734,2.717a48.811,48.811,0,0,1-4.668,3.245c-.709.462,1.793.8,2.621,1.818a4.409,4.409,0,0,1,.843,2.223c.831,4.906.938-.807,3.011,14.571.782,5.8,1.174,8.7,1.2,10.5a83,83,0,0,1-.723,10.373c-.895,8.925-1.03,9.769-1.2,11.731-.773,8.681.269,10.278.241,21.98-.034,13.705-1.792,14.032-.12,16.423,5.179,7.409,42.237,5.118,41.925,1.784-.1-1.119-1-32.147-2.54-41.175-1.07-6.264-1.455-6.878-1.927-11.237a121.561,121.561,0,0,1-.6-13.089c-.031-6.071.408-5.628.241-11.237C1181.052,406.6,1178.91,403.669,1177.838,402.674Z" transform="translate(-1136.759 -366.389)" fill="#f6f6f6"/>
      <path id="Trazado_666818" data-name="Trazado 666818" d="M1396.167,507.619l1.358,2.84s-3.311,1.879-7.285,4.137c-3.881,2.2-6.73,3.7-6.73,3.7s-3.835-.791-3.643-1.914C1380.085,515.115,1396.167,507.619,1396.167,507.619Z" transform="translate(-1322.563 -452.009)" fill="#fff"/>
      <path id="Trazado_666819" data-name="Trazado 666819" d="M1339.5,510.631a11.579,11.579,0,0,1,1.451-1.663c.17-.175.648-.707,1.605-1.77.37-.411.53-.59.823-.658.165-.039.428-.054,1.482.535a6.077,6.077,0,0,1,1.729,1.276c.472.534.459.76.453.823-.057.544-.9.833-1.111.906a1.938,1.938,0,0,1-1.358.041c-.452-.184-.62-.526-.782-.453s-.051.465-.123.905a2.162,2.162,0,0,1-1.152,1.523C1341.285,512.642,1338.977,511.357,1339.5,510.631Z" transform="translate(-1291.453 -451.167)" fill="#d48c6d"/>
      <path id="Trazado_666820" data-name="Trazado 666820" d="M1373.681,507.522a1.411,1.411,0,0,1-1.07-.576,1.1,1.1,0,0,1,.041-.988c.266-.49.852-.634.823-.7-.015-.035-.182,0-.494.082-.809.209-.828.258-.988.247a1.083,1.083,0,0,1-.947-.864,1.409,1.409,0,0,1,.247-.7,4.313,4.313,0,0,1,.617-.947c.426-.491.82-.719.782-.782s-.316.151-.741.165a1.329,1.329,0,0,1-.906-.288c-.072-.084-.353-.468.494-2.182a15.488,15.488,0,0,1,1.441-2.3c.178-.25.4-.563.655-.925.107-.049.217-.1.333-.145,1.171-.48,1.651-.411,1.976-.247a1.422,1.422,0,0,1,.782,1.111c.029.431-.209.746-.576,1.235-.471.625-1,.752-.947.947s.563.04,1.111.37a1.555,1.555,0,0,1,.782,1.153c.021.571-.478.838-.329,1.152.127.269.513.117.947.453a1.7,1.7,0,0,1,.576,1.07,2.245,2.245,0,0,1-.247,1.3C1376.637,506.333,1374.739,507.7,1373.681,507.522Z" transform="translate(-1315.703 -443.259)" fill="#d48c6d"/>
      <g id="Grupo_929793" data-name="Grupo 929793" transform="translate(57.115 56.352)">
        <path id="Trazado_666821" data-name="Trazado 666821" d="M1379.131,513.4h0a.185.185,0,0,1-.011-.262q.585-.634,1.174-1.27l.9-.97a.185.185,0,0,1,.262-.009h0a.185.185,0,0,1,.01.261l-.9.969q-.589.635-1.173,1.27A.185.185,0,0,1,1379.131,513.4Z" transform="translate(-1379.072 -510.839)" fill="#ac6254"/>
      </g>
      <g id="Grupo_929794" data-name="Grupo 929794" transform="translate(57.885 59.007)">
        <path id="Trazado_666822" data-name="Trazado 666822" d="M1382.46,525.158h0a.186.186,0,0,1,0-.263c.593-.57,1.209-1.127,1.833-1.658.336-.286.682-.57,1.03-.847a.185.185,0,0,1,.261.031h0a.184.184,0,0,1-.03.259c-.345.274-.687.556-1.021.839-.619.526-1.229,1.078-1.817,1.643A.184.184,0,0,1,1382.46,525.158Z" transform="translate(-1382.407 -522.35)" fill="#ac6254"/>
      </g>
      <path id="Trazado_666823" data-name="Trazado 666823" d="M1362.791,512.443a.942.942,0,0,0-.6-.232.907.907,0,0,0-.54.247.762.762,0,0,0-.309.463c-.031.279.2.5.386.679a1.517,1.517,0,0,0,1.034.509c.358.006.907-.141,1-.479C1363.883,513.213,1363.232,512.754,1362.791,512.443Z" transform="translate(-1308.312 -455.542)" fill="#fbf2e0"/>
      <path id="Trazado_666824" data-name="Trazado 666824" d="M1374.2,515.494c-.029.09-.082.147-.355.355a3.543,3.543,0,0,1-.525.37.871.871,0,0,1-.787-.015.685.685,0,0,1-.232-.4,1.084,1.084,0,0,1,.278-1.127.993.993,0,0,1,.787-.139,1.077,1.077,0,0,1,.741.478A.619.619,0,0,1,1374.2,515.494Z" transform="translate(-1316.709 -457.312)" fill="#fbf2e0"/>
      <g id="Grupo_929795" data-name="Grupo 929795" transform="translate(28.796 39.631)">
        <path id="Trazado_666825" data-name="Trazado 666825" d="M1259.392,532.241h0a.435.435,0,0,1-.418-.451c.342-10.8.7-26.646.48-41.679-.038-2.641-.075-3.937-.125-5.731-.059-2.105-.132-4.725-.246-10.771-.043-2.282-.075-4.177-.1-5.775-.115-6.8-.139-8.21-.512-11.182-.126-1-.269-2.005-.434-3.164-.314-2.2-.705-4.943-1.172-9.1-.209-1.859-.4-3.732-.577-5.574a.436.436,0,0,1,.39-.477h0a.432.432,0,0,1,.47.393c.174,1.838.367,3.706.576,5.559.465,4.14.855,6.873,1.169,9.069.166,1.162.309,2.166.436,3.179.378,3.02.4,4.442.519,11.278.027,1.6.059,3.493.1,5.774.114,6.042.187,8.66.246,10.763.05,1.8.087,3.1.125,5.743.216,15.05-.138,30.914-.48,41.72A.434.434,0,0,1,1259.392,532.241Z" transform="translate(-1256.284 -438.339)" fill="#a1bdfc"/>
      </g>
      <path id="Trazado_666826" data-name="Trazado 666826" d="M1299.276,526.106l-21.486-6.977-7.656,9.323,22.288,6.606Z" transform="translate(-1238.144 -460.865)" fill="#1f307c"/>
      <path id="Trazado_666827" data-name="Trazado 666827" d="M1371.941,520.957c1.131-.475,16.485-8.52,16.485-8.52s-11.348,9.414-16.608,13.46c-5.7,4.38-6.564,5.408-7.039,5.063C1363.692,530.167,1367.261,522.923,1371.941,520.957Z" transform="translate(-1310.809 -455.716)" fill="#17255d"/>
      <g id="Grupo_929798" data-name="Grupo 929798" transform="translate(17.916 52.035)">
        <g id="Grupo_929796" data-name="Grupo 929796" transform="translate(1.681)">
          <path id="Trazado_666828" data-name="Trazado 666828" d="M1220.85,492.432a4.789,4.789,0,0,1,1.9,1.3,20.232,20.232,0,0,1,4.1,7.02,9.592,9.592,0,0,1,.748,4.013,8.179,8.179,0,0,1-2.554,5.04l-.629-.644a7.294,7.294,0,0,0,2.286-4.478,8.741,8.741,0,0,0-.71-3.659,19.632,19.632,0,0,0-3.9-6.669,3.9,3.9,0,0,0-1.549-1.07,4.737,4.737,0,0,0-3.652.222l-.5-.747A5.587,5.587,0,0,1,1220.85,492.432Z" transform="translate(-1216.395 -492.119)" fill="#546c95"/>
        </g>
        <path id="Trazado_666829" data-name="Trazado 666829" d="M1249.263,563.485a.908.908,0,1,1-.619,1.125A.908.908,0,0,1,1249.263,563.485Z" transform="translate(-1239.497 -546.998)" fill="#546c95"/>
        <g id="Grupo_929797" data-name="Grupo 929797" transform="translate(0 0.778)">
          <path id="Trazado_666830" data-name="Trazado 666830" d="M1210.6,495.493l.588.682a4.738,4.738,0,0,0-1.174,3.465,3.9,3.9,0,0,0,.625,1.775,19.625,19.625,0,0,0,5.41,5.513,8.742,8.742,0,0,0,3.343,1.647,7.294,7.294,0,0,0,4.922-1.028l.456.777a8.182,8.182,0,0,1-5.535,1.138,9.592,9.592,0,0,1-3.675-1.777,20.231,20.231,0,0,1-5.693-5.806,4.79,4.79,0,0,1-.751-2.172A5.589,5.589,0,0,1,1210.6,495.493Z" transform="translate(-1209.108 -495.493)" fill="#546c95"/>
        </g>
        <path id="Trazado_666831" data-name="Trazado 666831" d="M1273.481,545.638a.908.908,0,1,1-1.249.3A.908.908,0,0,1,1273.481,545.638Z" transform="translate(-1257.572 -533.192)" fill="#546c95"/>
      </g>
      <g id="Grupo_929799" data-name="Grupo 929799" transform="translate(30.394 31.1)">
        <path id="Trazado_666832" data-name="Trazado 666832" d="M1269.495,409.779a43.012,43.012,0,0,1,2.609,16.42l-1.005-.053a41.972,41.972,0,0,0-2.548-16.021c-1.9-5.164-3.867-7.566-5.128-7.689a1.305,1.305,0,0,1-.112-.272,1.933,1.933,0,0,1-.094-.509,1.54,1.54,0,0,1,.005-.308C1265.5,401.688,1267.639,404.726,1269.495,409.779Z" transform="translate(-1263.212 -401.348)" fill="#2d3e66"/>
      </g>
      <path id="Trazado_666833" data-name="Trazado 666833" d="M1291.457,499.255a2.261,2.261,0,1,1-1.6,2.767A2.261,2.261,0,0,1,1291.457,499.255Z" transform="translate(-1253.256 -445.516)" fill="#546c95"/>
      <path id="Trazado_666834" data-name="Trazado 666834" d="M1295.127,503.649a1.24,1.24,0,1,1-.879,1.517A1.24,1.24,0,0,1,1295.127,503.649Z" transform="translate(-1256.663 -448.922)" fill="#232a53"/>
      <g id="Grupo_929800" data-name="Grupo 929800" transform="translate(12.707 27.865)">
        <path id="Trazado_666835" data-name="Trazado 666835" d="M1188.385,387.323a5.878,5.878,0,0,1,.054,1.287c-1.238.92-1.055,4.411-.151,9.107a41.332,41.332,0,0,0,6.116,14.91l-.848.53a42.246,42.246,0,0,1-6.152-15.27C1186.39,392.623,1185.746,388.2,1188.385,387.323Z" transform="translate(-1186.522 -387.323)" fill="#2d3e66"/>
      </g>
      <path id="Trazado_666836" data-name="Trazado 666836" d="M1211.157,351.441c.2.948-.5,1.115-.6,2.737-.177,2.91,1.389,6.811.766,7.78-.547.85-2.1-1.17-4-1.578-1.116-.239-3.947-1.8-7.116-4.06-1.7-1.21-2.953-2.135-3.094-3.57a4.132,4.132,0,0,1,.833-2.5c2.333-4.272-.779-9.924,0-10.234.65-.259,1.526,4.195,5.474,7.021C1206.912,349.536,1210.7,349.261,1211.157,351.441Z" transform="translate(-1181.955 -323.054)" fill="#d48c6d"/>
      <path id="Trazado_666837" data-name="Trazado 666837" d="M1219.723,364.374c.1-1.622.793-1.789.6-2.737-.454-2.18-4.245-1.9-7.735-4.4a13.21,13.21,0,0,1-3.573-3.975,20.533,20.533,0,0,0,4.9,9.582c1.254,1.309,3.038,3.118,5.156,2.777a3.4,3.4,0,0,0,.693-.191A5.6,5.6,0,0,1,1219.723,364.374Z" transform="translate(-1191.117 -333.25)" fill="#ac6254"/>
      <path id="Trazado_666838" data-name="Trazado 666838" d="M1182.935,387.123c.134-.713.839-1.438,1.494-3.285.336-.947.3-1.647.741-1.811.531-.2,1.231.587,1.894,1.235,1.9,1.86,6.215,4.116,9.714,5.395,1.135.415,2.574,4,3.011,5.607C1200.436,396.637,1182.413,389.9,1182.935,387.123Z" transform="translate(-1171.047 -355.359)" fill="#fff"/>
      <path id="Trazado_666839" data-name="Trazado 666839" d="M1259.864,400.716c-.23-.688-3.34-3.311-3.34-2.546a2.785,2.785,0,0,1-1.31,2.307c-.767.934.148,4.524.6,6.124C1256.324,408.441,1260.259,401.9,1259.864,400.716Z" transform="translate(-1226.437 -367.696)" fill="#fff"/>
      <path id="Trazado_666840" data-name="Trazado 666840" d="M1208.853,281.884c.269.431-.667,4.851-.194,6.689.1.39,1.016,3.022-2.241,8.85-.371.663-.144,1.122-.523,1.989a3.976,3.976,0,0,1-.9,1.441,4.519,4.519,0,0,1-3.361.823,7.708,7.708,0,0,1-3.809-1.715,26.825,26.825,0,0,1-9.037-11.32c-.889-2.58-1.8-5.225-.6-8.233a10.27,10.27,0,0,1,6.8-5.9c3.759-.974,7.384.309,8.663,1.441a24.237,24.237,0,0,1,3.062,3.087C1206.922,279.528,1208.407,281.168,1208.853,281.884Z" transform="translate(-1174.658 -272.397)" fill="#d48c6d"/>
      <path id="Trazado_666841" data-name="Trazado 666841" d="M1216.119,272.374a6.206,6.206,0,0,1,4.656,2.459c1.333,1.825,1.039,5.67,1.161,5.669.155,0,1.536-4.242.359-7.255-1.05-2.687-3.531-3.974-4.73-4.749a11.332,11.332,0,0,0-6.573-1.99c-2.92.087-6.055,1.408-5.966,2.2C1205.176,270.032,1213.69,272.12,1216.119,272.374Z" transform="translate(-1188.051 -266.503)" fill="#181c47"/>
      <path id="Trazado_666842" data-name="Trazado 666842" d="M1172.243,269.975a15.375,15.375,0,0,0-4.371-1.652c-1.686-.163-6.132-1.652-9.229,3.594a8.5,8.5,0,0,0-1.069,3.109,20.273,20.273,0,0,1-.668,3.607c-.454,1.223-1.652,2.57-2.053,3.679-.342.947-.1,2.947-.292,4.469-.223,1.79-1.379,1.967-1.749,3.5-.68,2.817.342,4.524-.144,5.149-3.4,4.374-.038,6.617,4.722,4.94,2.068-.728,5.1,2.837,6.288,1.937,1.04-.79-.512-3.478.46-5.848.669-1.631,1.66-1.885,1.895-2.807.6-2.347-1.087-3.457-.5-5.363.5-1.627.778-1.259,1.459-3.157s.014-2.73.874-3.789c.789-.971,1.536-.5,2.72-1.457,1.5-1.216.892-2.457,2.234-4.177,1.65-2.114,3.864-1.9,3.886-2.915C1176.727,272.077,1175.232,271.367,1172.243,269.975Z" transform="translate(-1146.705 -267.659)" fill="#181c47"/>
      <g id="Grupo_929804" data-name="Grupo 929804" transform="translate(17.435 14.528)">
        <g id="Grupo_929801" data-name="Grupo 929801" transform="translate(0.014)">
          <path id="Trazado_666843" data-name="Trazado 666843" d="M1208.4,329.534c.943-.266,1.85.909,1.9.972,1.339,1.781.671,5.345-.438,5.669-1,.292-2.839-1.894-2.773-4.049C1207.111,331.224,1207.489,329.791,1208.4,329.534Z" transform="translate(-1207.082 -329.495)" fill="#d48c6d"/>
        </g>
        <g id="Grupo_929802" data-name="Grupo 929802" transform="translate(1.211 2.033)">
          <path id="Trazado_666844" data-name="Trazado 666844" d="M1217.623,350.461a.764.764,0,0,1,.066.071Z" transform="translate(-1216.389 -347.659)" fill="#ac6254"/>
          <path id="Trazado_666845" data-name="Trazado 666845" d="M1213.615,338.351a1.19,1.19,0,0,1,.752.8.248.248,0,0,1-.177.325.219.219,0,0,1-.236-.165.73.73,0,0,0-.452-.5.655.655,0,0,0-.708.3,1.307,1.307,0,0,0,.084,1.074,2.9,2.9,0,0,0,.51.788c-.113-.124-.2-.219.006.007l.09.1.087.1c.4.441.052.482.02.482-.3,0-.613-.4-.781-.648a2.263,2.263,0,0,1-.385-2.162A1.073,1.073,0,0,1,1213.615,338.351Z" transform="translate(-1212.272 -338.312)" fill="#ac6254"/>
          <path id="Trazado_666846" data-name="Trazado 666846" d="M1217.205,350l-.09-.1-.007-.007.119.13Z" transform="translate(-1215.993 -347.225)" fill="#ac6254"/>
        </g>
        <g id="Grupo_929803" data-name="Grupo 929803" transform="translate(0 0.02)">
          <path id="Trazado_666847" data-name="Trazado 666847" d="M1207.274,330.718a4.139,4.139,0,0,0-.159,2.336,4.185,4.185,0,0,0,1.823,2.955l.008.02c.107.28.393,1.022,1.119,1.023h0c.557,0,.7-.42.744-.776a.238.238,0,0,0-.2-.278h0a.228.228,0,0,0-.231.212c-.038.306-.117.355-.309.355h0c-.384,0-.571-.35-.717-.728-.053-.139-.1-.259-.236-.282-.441-.074-1.295-1.2-1.57-2.605a3.6,3.6,0,0,1,.133-2.038,1.346,1.346,0,0,1,.521-.732,1.037,1.037,0,0,1,.8-.06,1.722,1.722,0,0,1,1,.824.2.2,0,0,0,.283.079.257.257,0,0,0,.081-.348,2.161,2.161,0,0,0-1.262-1.029,1.423,1.423,0,0,0-1.1.1A1.793,1.793,0,0,0,1207.274,330.718Zm1.773,5.318h0Z" transform="translate(-1207.021 -329.581)" fill="#ac6254"/>
        </g>
        <path id="Trazado_666848" data-name="Trazado 666848" d="M1218.571,342.811c.03.071-.19.163-.353.432-.315.52-.1,1.168-.182,1.188-.065.015-.225-.334-.243-.715a1.009,1.009,0,0,1,.195-.756C1218.2,342.744,1218.537,342.729,1218.571,342.811Z" transform="translate(-1215.305 -339.704)" fill="#ac6254"/>
      </g>
      <g id="Grupo_929808" data-name="Grupo 929808" transform="translate(23.725 13.53)">
        <g id="Grupo_929805" data-name="Grupo 929805" transform="translate(0.405)">
          <path id="Trazado_666849" data-name="Trazado 666849" d="M1236.311,325.328a9.508,9.508,0,0,1,3.47,0,.314.314,0,0,1-.11.618,8.881,8.881,0,0,0-3.251,0,.312.312,0,0,1-.36-.241h0A.315.315,0,0,1,1236.311,325.328Z" transform="translate(-1236.052 -325.168)" fill="#45332e"/>
        </g>
        <g id="Grupo_929806" data-name="Grupo 929806" transform="translate(7.427)">
          <path id="Trazado_666850" data-name="Trazado 666850" d="M1268.543,325.328a2.948,2.948,0,0,0-1.17-.151,3,3,0,0,0-.735.152c-.1.032-.158.2-.137.377s.107.271.2.241a2.812,2.812,0,0,1,.689-.142,2.754,2.754,0,0,1,1.1.142c.091.031.178-.077.2-.241h0C1268.7,325.531,1268.639,325.36,1268.543,325.328Z" transform="translate(-1266.495 -325.168)" fill="#45332e"/>
        </g>
        <g id="Grupo_929807" data-name="Grupo 929807" transform="translate(4.861 2.165)">
          <path id="Trazado_666851" data-name="Trazado 666851" d="M1255.377,339.646a.2.2,0,0,1,.234-.143c.879.167,1.482.1,1.707-.2.184-.245.1-.617-.057-1.357-.058-.266-.123-.568-.189-.926a20.851,20.851,0,0,1-.292-2.263.191.191,0,0,1,.191-.2.2.2,0,0,1,.213.181,20.6,20.6,0,0,0,.287,2.224c.065.353.13.652.187.915.178.82.276,1.272-.007,1.649s-.823.512-1.626.427q-.228-.024-.483-.073a.2.2,0,0,1-.164-.231Z" transform="translate(-1255.372 -334.554)" fill="#ac6254"/>
        </g>
        <path id="Trazado_666852" data-name="Trazado 666852" d="M1245.456,331.983c.317,0,.574.4.574.895s-.257.895-.574.895-.574-.4-.574-.895S1245.139,331.983,1245.456,331.983Z" transform="translate(-1242.44 -330.411)" fill="#45332e"/>
        <path id="Trazado_666853" data-name="Trazado 666853" d="M1269.127,331.983c.317,0,.574.4.574.895s-.257.895-.574.895-.573-.4-.573-.895S1268.811,331.983,1269.127,331.983Z" transform="translate(-1260.652 -330.411)" fill="#45332e"/>
        <path id="Trazado_666854" data-name="Trazado 666854" d="M1249.068,365.654l.989.134a8.459,8.459,0,0,0,2.293,0l.526-.073a.286.286,0,0,1,.3.411,2.224,2.224,0,0,1-1.967,1.326,3.084,3.084,0,0,1-2.429-1.39A.283.283,0,0,1,1249.068,365.654Z" transform="translate(-1245.414 -356.314)" fill="#fff"/>
        <path id="Trazado_666855" data-name="Trazado 666855" d="M1235.916,341.656c.827.105,1.444.61,1.378,1.127s-.79.851-1.617.745-1.444-.61-1.379-1.127S1235.089,341.551,1235.916,341.656Z" transform="translate(-1234.294 -337.839)" fill="#c67f65"/>
      </g>
      <path id="Trazado_666856" data-name="Trazado 666856" d="M1160.905,518.629c-.059-6.009.648-8.36,1.235-14.324,1.909-19.4-2.158-29.232-3.21-31.611-1.53-3.462-3.017-5.483-5.186-6.915a11.878,11.878,0,0,0-2.48-1.246c.416.876.944,2.269,2.236,11.851.782,5.8,1.174,8.7,1.2,10.5a82.964,82.964,0,0,1-.723,10.373c-.894,8.925-1.03,9.769-1.2,11.731-.773,8.681-4.568,34.365-2.9,36.757,1.2,1.717,6.069,4.3,9.92,5.062C1161.06,546.19,1160.969,525.1,1160.905,518.629Z" transform="translate(-1145.301 -418.86)" fill="#ecebf0"/>
      <path id="Trazado_666857" data-name="Trazado 666857" d="M1171.927,577.308c2.952,2.148,5.81,2.447,11.525,3.046a52.89,52.89,0,0,0,16.052-.988c2.592-.494,4.77-1.069,6.4-1.55-.291-1.492-.506-2.736-.744-4.927q-.1-.921-.177-1.807a35.649,35.649,0,0,1-15.607.381c-7.572-1.584-16.843-6.382-17.864-6.915-.6-.313-1.281-.679-2-1.063a91.165,91.165,0,0,1-.728,9.9l-.082.817A17.271,17.271,0,0,0,1171.927,577.308Z" transform="translate(-1160.109 -494.991)" fill="#a3c0e2"/>
      <path id="Trazado_666858" data-name="Trazado 666858" d="M1151.117,459.244c-1.251-2.776-.7-2.356-3.469-10.846-1.813-5.558-2.989-8.62-4.956-11.477a19.669,19.669,0,0,0-4.337-4.288,4.459,4.459,0,0,0-2.6-1.261,3.891,3.891,0,0,0-2.6.883c-1.2,1-1.421,2.489-1.611,3.909a12.777,12.777,0,0,0,.124,4.162c2.151,10.415,3.222,14,3.222,14,2.085,6.98,2.877,8.858,3.841,10.72,1.666,3.216,2.551,4.871,4.461,5.927,4.218,2.334,10.867.329,11.9-2.9C1155.727,466.048,1153.7,464.982,1151.117,459.244Z" transform="translate(-1131.427 -393.343)" fill="#fff"/>
      <path id="Trazado_666859" data-name="Trazado 666859" d="M1324.767,564.834a1.246,1.246,0,0,1,.906-.494.909.909,0,0,1,.535.247,9.23,9.23,0,0,1,1.77,3.128c.782,2.134.731,1.731.988,2.593a15.713,15.713,0,0,1,.617,3.375,3.936,3.936,0,0,1-.247,2.182,1.527,1.527,0,0,1-1.029,1.111c-1.029.439-2.318-.683-2.675-.988C1322,572.89,1323.913,565.772,1324.767,564.834Z" transform="translate(-1279.198 -495.648)" fill="#a3c0e2"/>
      <path id="Trazado_666860" data-name="Trazado 666860" d="M1311.95,558.8c.528.053.477-.064,4.013-1.111a25.656,25.656,0,0,1,4.877-1.235c1.077.028,1.971.275,2.84-.309a10.327,10.327,0,0,0,1.173-1.111c.653-.664,1.119-1.176,1.173-1.235,1.446-1.585,2.7-1.8,4.322-3.457,1.132-1.158.621-1.156,2.037-2.717,0,0,.594-.655,3.087-2.9h0s-.255-.637-.617-.741c-.327-.094-.525.312-1.235.617a4.9,4.9,0,0,1-.988.247,4.032,4.032,0,0,0-1.852,1.358,22.994,22.994,0,0,1-2.47,2.037,12.254,12.254,0,0,1-3.951,1.852,15.7,15.7,0,0,1-4.939.679c-.755.019-1.511,0-1.667-.371-.13-.308.261-.614.864-1.729.5-.925.749-1.4.617-1.914a1.811,1.811,0,0,0-.926-1.05,1.462,1.462,0,0,0-1.173-.185c-.37.15-.485.5-.8,1.111-.288.558-.678,1.058-.988,1.605a11.5,11.5,0,0,1-4.569,4.445c-2.049.955-3.137.288-3.519,1.05C1306.6,555.054,1309.124,558.513,1311.95,558.8Z" transform="translate(-1266.624 -479.974)" fill="#d48c6d"/>
      <path id="Trazado_666861" data-name="Trazado 666861" d="M1204.808,548.81s-2.743.558-7.038,1.358a27.148,27.148,0,0,1-9.508,0c-3.13-.571-8.229-1.5-11.484-4.939a3.112,3.112,0,0,0-1.605-1.111c-2.323-.509-5.411,2.747-6.545,6.05-.322.937-2.32,1.453-1.813,3.343a15.923,15.923,0,0,0,5.764,5.918c2.2,1.359,4.713,2.257,10,2.963,6.013.8,10.1.62,17.534.247,3.932-.2,7.921-1.161,7.923-1.455,0-.167-1.5.489-3.354-4.966A12.069,12.069,0,0,1,1204.808,548.81Z" transform="translate(-1158.59 -480.05)" fill="#fff"/>
      <path id="Trazado_666862" data-name="Trazado 666862" d="M1208.085,493.607c-.63,0-1.219-.022-1.751-.066-8.635-.711-12.53-3.9-12.691-4.036a.181.181,0,0,1-.06-.094c-.041-.157-4.119-15.655-6.7-19.3a.181.181,0,0,1,.028-.245.194.194,0,0,1,.127-.047.188.188,0,0,1,.156.079c2.514,3.591,6.266,17.556,6.686,19.137a.674.674,0,0,0,.26.376c1.028.731,4.949,3.163,12.227,3.763.529.044,1.114.066,1.739.066a59.54,59.54,0,0,0,12.038-1.59.2.2,0,0,1,.046-.006.187.187,0,0,1,.182.137.18.18,0,0,1-.017.142.185.185,0,0,1-.117.085A60.152,60.152,0,0,1,1208.085,493.607Z" transform="translate(-1174.065 -422.927)" fill="#a1bdfc"/>
      <path id="Trazado_666863" data-name="Trazado 666863" d="M1201.135,559.789a.183.183,0,0,1-.042,0,.185.185,0,0,1-.119-.087.181.181,0,0,1-.018-.142,7.355,7.355,0,0,1,2.424-3.752,6.778,6.778,0,0,1,1.056-.691.193.193,0,0,1,.091-.023.184.184,0,0,1,.17.108.186.186,0,0,1-.087.242,6.37,6.37,0,0,0-1,.653,6.989,6.989,0,0,0-2.3,3.561A.187.187,0,0,1,1201.135,559.789Z" transform="translate(-1184.914 -488.53)" fill="#a1bdfc"/>
      <path id="Trazado_666864" data-name="Trazado 666864" d="M1348.819,553.972a.907.907,0,0,1,.412-.659,1.042,1.042,0,0,1,.905-.082,1.067,1.067,0,0,1,.618.535.912.912,0,0,1-.083.988.945.945,0,0,1-.864.164C1349.375,554.83,1348.8,554.471,1348.819,553.972Z" transform="translate(-1298.681 -487.05)" fill="#fbf2e0"/>
      <path id="Trazado_666865" data-name="Trazado 666865" d="M1373.437,527.539a1.148,1.148,0,0,0-.618.535.8.8,0,0,0,.124.906c.107.082.238.083.494.082a1.66,1.66,0,0,0,1.029-.206.942.942,0,0,0,.453-.7.85.85,0,0,0-.494-.782A1.137,1.137,0,0,0,1373.437,527.539Z" transform="translate(-1317.083 -467.161)" fill="#fbf2e0"/>
      <path id="Trazado_666866" data-name="Trazado 666866" d="M1380.009,536.47a1.456,1.456,0,0,0-.618.206.838.838,0,0,0-.411.617.714.714,0,0,0,.206.494c.263.267.663.238,1.111.206.515-.037.773-.056.906-.247a1.041,1.041,0,0,0-.576-1.317A1.338,1.338,0,0,0,1380.009,536.47Z" transform="translate(-1321.886 -474.157)" fill="#fbf2e0"/>
    </g>
    <g id="Grupo_929826" data-name="Grupo 929826" transform="translate(279.341 115.401)">
      <g id="Grupo_929810" data-name="Grupo 929810" transform="translate(4.306 187.967)">
        <rect id="Rectángulo_327583" data-name="Rectángulo 327583" width="5.228" height="2.543" transform="translate(4.136 18.981)" fill="#af213b"/>
        <rect id="Rectángulo_327584" data-name="Rectángulo 327584" width="5.228" height="2.543" transform="translate(60.09 21.524) rotate(180)" fill="#af213b"/>
        <path id="Trazado_666867" data-name="Trazado 666867" d="M1633.245,1097.761H1571.4c-.892,0-1.61-2.282-1.137-3.038l9.753-14.025a2.175,2.175,0,0,1,1.845-1.023h40.919a2.175,2.175,0,0,1,1.845,1.023l9.753,14.032C1634.855,1095.486,1634.136,1097.761,1633.245,1097.761Z" transform="translate(-1570.117 -1077.791)" fill="#be395d"/>
        <path id="Trazado_666868" data-name="Trazado 666868" d="M1633.743,1089.592H1571.9a1.135,1.135,0,0,1-.963-1.737l9.579-15.326a2.176,2.176,0,0,1,1.845-1.023h40.919a2.176,2.176,0,0,1,1.845,1.023l9.578,15.326A1.135,1.135,0,0,1,1633.743,1089.592Z" transform="translate(-1570.616 -1071.506)" fill="#d56486"/>
        <path id="Trazado_666869" data-name="Trazado 666869" d="M1645.947,1119.754a43.289,43.289,0,0,0,30.308.495l-8.76-2.685a23.1,23.1,0,0,1-13.635-.212Z" transform="translate(-1628.458 -1106.778)" fill="#fff"/>
        <rect id="Rectángulo_327585" data-name="Rectángulo 327585" width="0.726" height="3.268" transform="translate(31.481 11.686)" fill="#831537"/>
      </g>
      <g id="Grupo_929825" data-name="Grupo 929825">
        <path id="Trazado_666870" data-name="Trazado 666870" d="M1698,258.744c7.291,2.225,8.123,7.362,9.287,11.342.753,2.575.309,2.89,1.111,4.06,2.156,3.141,6.046,1.86,10.13,5.123a12.8,12.8,0,0,1,3.5,4.444c1.635,3.352,2.6,9.117-.358,12.358-3.476,3.806-10.576,2.171-14.185.558-8.978-4.012-12.438-15.079-12.132-23.069C1695.586,267.545,1695.464,257.97,1698,258.744Z" transform="translate(-1662.152 -258.194)" fill="#181c47"/>
        <path id="Trazado_666871" data-name="Trazado 666871" d="M1659.389,256.62c6.462,1.119,9.24,6.185,9.855,11.285a11.031,11.031,0,0,1-1.614,7.625c-1.94,2.792-5.446,4.48-8.4,3.82-6.6-1.476-15.116-14.466-10.4-19.541C1651.332,257.111,1656.667,256.149,1659.389,256.62Z" transform="translate(-1625.322 -256.505)" fill="#181c47"/>
        <path id="Trazado_666872" data-name="Trazado 666872" d="M1602.454,403.146c-3.728.584-6.146,4.85-6.424,9.037-.2,3,.236,3.8.279,8.218a51.684,51.684,0,0,1-.418,6.546c-.2,1.629.047,4.7-.888,6.119-1.313,1.992.876,2.433,1.027,2.8.546,1.308,1.9,3.405,3.343,3.343,1.159-.05,2.115-1.488,3.343-4.6,1.674-4.236,2.565-8.312,3.2-21.032.147-2.92.206-4.821-1.114-5.989C1603.173,406.143,1604.859,402.769,1602.454,403.146Z" transform="translate(-1584.636 -369.303)" fill="#c67f65"/>
        <path id="Trazado_666873" data-name="Trazado 666873" d="M1567.35,525.588c-1.052.271-1.235,1.449-2.089,2.925-2.88,4.976-8.537,4.944-8.5,7.521a3.243,3.243,0,0,0,2.229,2.646,3.071,3.071,0,0,0,1.95-.139c4.976-1.752,6.544-.472,8.635-2.368,1.918-1.739,3.032-4.993,1.95-7.521C1570.763,526.867,1568.8,525.213,1567.35,525.588Z" transform="translate(-1555.538 -463.487)" fill="#c67f65"/>
        <path id="Trazado_666874" data-name="Trazado 666874" d="M1633.184,400.248c2.882.884,2.1,5.08,2.422,7.3,1.235,8.539-1.857,16.226-2.926,18.8-1.978,4.766-3.272,5.536-3.512,8.983a50.121,50.121,0,0,0,.78,9.4c.254,1.84.485,3.175.585,3.76,1.545,9.059,2.317,13.588,1.756,15.459-2.846,9.49-33.851,11.251-38.238,1.254a25.457,25.457,0,0,1-1.366-7.521,26.22,26.22,0,0,1,.975-8.983,27.941,27.941,0,0,1,2.926-6.476c1.8-2.929,2.681-3.123,3.317-5.223a12.785,12.785,0,0,0,0-6.267c-.642-3.534-1.551-3.384-2.146-6.267-.976-4.728.517-9.741.975-11.281a11.925,11.925,0,0,0,.781-3.76c.022-2.62.232-6.858.038-8.151C1599.238,399.2,1631.643,399.776,1633.184,400.248Z" transform="translate(-1583.137 -366.749)" fill="#d48c6d"/>
        <path id="Trazado_666875" data-name="Trazado 666875" d="M1662.875,343.533c.655.713-.393,1.736-.348,4.728.008.528-1.212,7.61,7.08,7.947,4.611.188.5.58.446,1.777-.047,1.059-2.606,3.205-7.044,3.043-8.484-.31-16.952-4.244-15.86-4.58,1.03-.317,2.959-.365,4.248-2.775.818-1.531.479-2.92,1.022-4.811C1653.691,344.432,1661.406,341.932,1662.875,343.533Z" transform="translate(-1625.004 -323.087)" fill="#d48c6d"/>
        <path id="Trazado_666876" data-name="Trazado 666876" d="M1584.808,607.536s-3.921,6.316-4.078,12.973a57.6,57.6,0,0,0,1.254,13.6c1.128,4.875,1.758,5.567,7.312,21.573.584,1.683,1.619,4.686,2.716,8.746.828,3.067,1.292,5.259,1.671,7,2.022,9.266,3.033,13.9,4.178,17.1,1.669,4.669,4.241,10.066,5.432,14.576a26.971,26.971,0,0,1,.836,5.053,10.463,10.463,0,0,1,0,3.5c-.654,2.224-2.728,3.662-5.014,5.247-1.956,1.357-2.821,1.558-3.343,2.721a4.177,4.177,0,0,0,.209,3.5,5.29,5.29,0,0,0,6.267,2.138c1.182-.6.829-1.545,2.507-3.693a23.724,23.724,0,0,1,3.343-3.11c4.168-3.635,4.378-3.89,4.6-4.276,1.326-2.344.438-5.019,0-6.414-3.089-9.822.207-6.714-4.387-19.629-4.882-13.722-7.322-13.63-8.566-21.184-.7-4.222-.195-8.249.835-16.131,2.743-20.989,7.709-31.337,2.925-34.594-1.049-.714-1.084-.078-6.267-.972C1587.877,613.648,1584.808,607.536,1584.808,607.536Z" transform="translate(-1573.964 -526.576)" fill="#c67f65"/>
        <path id="Trazado_666877" data-name="Trazado 666877" d="M1641.312,681.158c1.673-6.212,1.741-12.706,2.716-19.046,2.544-16.552,3.815-24.828,3.134-27.6a2.843,2.843,0,0,1,.209-2.332c1.373-1.944,6.131-.834,9.4-.583,3.069.236,11.408-3.295,11.506-3.07,2.706,6.212,3.855,17.475,1.656,25.032a56.447,56.447,0,0,1-9.61,18.269,30.645,30.645,0,0,0-4.6,7.968c-1.089,2.782-1.176,4.275-1.044,5.442.3,2.625,1.766,4.109,3.134,6.025a28.7,28.7,0,0,1,5.223,15.937,73.456,73.456,0,0,0-.209,7.774,19.314,19.314,0,0,0,.836,5.636,27.417,27.417,0,0,1,1.462,4.081,12.4,12.4,0,0,1,.209,4.081c-.282,2.33-1.014,2.363-1.254,4.47-.286,2.514.683,3.107,0,4.664a5.782,5.782,0,0,1-3.134,2.721c-2.529,1.076-6.128.874-6.894-.583-.481-.916.487-1.7,1.254-4.081a18.827,18.827,0,0,0,.627-5.636c.114-5.81.182-9.256-.836-13.216-.774-3.012-.993-1.719-5.014-10.495-4.145-9.046-3.431-9.371-5.85-12.827-1.294-1.849-2.494-3.18-3.134-5.636A13.256,13.256,0,0,1,1641.312,681.158Z" transform="translate(-1620.131 -542.719)" fill="#d48c6d"/>
        <path id="Trazado_666878" data-name="Trazado 666878" d="M1702.414,630.054a18.97,18.97,0,0,0,.356,3.664,41.016,41.016,0,0,1,1.3,12.47c-.41,5.716-2.435,10.18-6.486,19.108-1.989,4.384-3.056,7.281-5.189,13.074-.864,2.347-1.471,4.1-1.3,6.436.241,3.247,1.753,4.523,3.675,8.448a40.653,40.653,0,0,1,3.459,11.264c1.03,5.553.121,6.476,1.081,11.465a43.118,43.118,0,0,0,3.676,10.459,20.166,20.166,0,0,1,.986,2.972c.037-.193.07-.4.1-.64a12.4,12.4,0,0,0-.209-4.081,27.42,27.42,0,0,0-1.462-4.081,19.314,19.314,0,0,1-.836-5.636,73.465,73.465,0,0,1,.209-7.774,28.7,28.7,0,0,0-5.223-15.937c-1.367-1.916-2.837-3.4-3.134-6.025-.132-1.167-.044-2.66,1.044-5.442a30.637,30.637,0,0,1,4.6-7.968,56.448,56.448,0,0,0,9.61-18.269c2.2-7.557,1.051-18.82-1.656-25.032C1706.962,628.417,1704.876,629.234,1702.414,630.054Z" transform="translate(-1658.865 -542.719)" fill="#c67f65"/>
        <path id="Trazado_666879" data-name="Trazado 666879" d="M1746.19,420.619a54.894,54.894,0,0,0-7.808,18.659,76.708,76.708,0,0,0-1.3,14.918c-.139,6.868.841,10.454,1.552,18.2.532,5.789,2.182,7.78,2.4,9.321,2.1-1.2,1.85.01,2.375-1.743.561-1.871-.211-6.4-1.756-15.459-.1-.586-.331-1.92-.585-3.76a50.12,50.12,0,0,1-.78-9.4c.24-3.447,1.534-4.217,3.512-8.983,1.069-2.576,4.161-10.263,2.926-18.8C1746.615,422.783,1746.461,421.721,1746.19,420.619Z" transform="translate(-1694.26 -382.769)" fill="#c67f65"/>
        <path id="Trazado_666880" data-name="Trazado 666880" d="M1651.606,406.693c-.321-2.218.461-6.414-2.422-7.3a33.355,33.355,0,0,0-6.4-.706.667.667,0,0,0-.569.294c-3.068,4.471-3.117,11.022-3.649,11.52s-17.369.268-18.072-1.493c-.4-.991-.2-3.28-.07-5.958.063-1.31.061-2.569.038-3.517a.343.343,0,0,0-.37-.332c-2.82.219-4.741.42-4.665.919.195,1.293.109,5.832.086,8.452a11.925,11.925,0,0,1-.781,3.76c-.459,1.54-1.951,6.553-.975,11.281a14.5,14.5,0,0,0,1.425,3.686q1.947.5,3.992.929a96.988,96.988,0,0,0,27.361,1.73c.568-1.1,1.293-2.413,2.144-4.464C1649.749,422.919,1652.841,415.231,1651.606,406.693Z" transform="translate(-1599.138 -365.896)" fill="#fff"/>
        <path id="Trazado_666881" data-name="Trazado 666881" d="M1747.6,412.4c-.25-1.731.17-4.666-1-6.292-2.106,5.328-3.637,10.006-4.745,13.764a121.891,121.891,0,0,0-3.139,12.911c-.211,1.183-.379,2.238-.51,3.121q2.218-.075,4.326-.238c.568-1.1,1.293-2.413,2.144-4.464C1745.744,428.631,1748.837,420.943,1747.6,412.4Z" transform="translate(-1695.133 -371.608)" fill="#f6f6f6"/>
        <path id="Trazado_666882" data-name="Trazado 666882" d="M1588.684,586.128a42.738,42.738,0,0,0,3.311,2.743c3.475,2.61,7.339,2.83,10.811,3.027,10.481.6,17.021-5.8,19.748-3.027a25.243,25.243,0,0,1,1.153,3.171c2.052,6.074,2.572,10.23,2.378,10.739-.316.831-11.1-3.339-18.955,2.234a17.65,17.65,0,0,0-4.709,4.709c-1.1.393-1.351-3.039-2.883-5.381-4.29-6.561-14.152-5.672-16.386-5.377a.321.321,0,0,1-.356-.39C1583.3,596.356,1585.619,586.776,1588.684,586.128Z" transform="translate(-1575.561 -510.105)" fill="#fff"/>
        <path id="Trazado_666883" data-name="Trazado 666883" d="M1740.784,598.851a25.243,25.243,0,0,0-1.153-3.171c-1.02-1.039-2.574-.793-4.668-.11.231,1.551.524,3.479.872,5.684.648,4.1.848,5.111,1.057,6.823.034.28.068.577.1.887,3.473.278,6.018,1.024,6.169.626C1743.356,609.082,1742.836,604.925,1740.784,598.851Z" transform="translate(-1692.638 -516.915)" fill="#f6f6f6"/>
        <path id="Trazado_666884" data-name="Trazado 666884" d="M1750.71,402.594c8.161,7.908,10.991,32.158,11.143,34.264.178,2.478.26,3.909-.7,5.014a5.128,5.128,0,0,1-5.571.975c-1.939-.819-2.758-2.786-4.318-6.686-1.11-2.775-1.3-4.016-2.089-6.407-1.682-5.112-2.659-5.09-3.9-8.775-2.393-7.106-1.36-11.131.166-15.633C1746.271,402.91,1748.748,400.692,1750.71,402.594Z" transform="translate(-1699.482 -368.349)" fill="#db9578"/>
        <path id="Trazado_666885" data-name="Trazado 666885" d="M1665.326,551.037c-1.383.387-1.344.732-4.039,2.228-.743.412-1.729.932-9.053,3.9-5.152,2.088-5.838,2.306-6.964,2.507a33.092,33.092,0,0,1-5.989.418c-3.72-.06-5.489-.674-6.825.557a6.9,6.9,0,0,0-1.393,2.229,4.841,4.841,0,0,0-.7,2.646c.092.683.441,1.177,2.368,2.925,2.021,1.833,3.043,2.751,3.621,2.786,1.577.095,3.011-1.409,4.457-2.925,1.276-1.337,1.289-1.851,2.229-2.228,1.063-.427,1.679-.023,3.621-.279a13.434,13.434,0,0,0,2.368-.557c3.253-.962,7.8-1.269,13.65-2.507,7.833-1.658,9.269-3.139,9.889-3.9.213-.262,2.552-3.206,1.532-5.571C1672.979,550.666,1668.408,550.174,1665.326,551.037Z" transform="translate(-1612.147 -482.807)" fill="#db9578"/>
        <path id="Trazado_666886" data-name="Trazado 666886" d="M1632.607,600.393a2.021,2.021,0,0,1,1.6-.7c.537.081,1.088.506,1.044.836-.035.268-.448.352-1.114.627-1.674.689-2.205,1.447-2.437,1.253C1631.446,602.2,1631.87,601.091,1632.607,600.393Z" transform="translate(-1613.135 -520.533)" fill="#ac6254"/>
        <path id="Trazado_666887" data-name="Trazado 666887" d="M1671.552,353.593c2.87.217,5.216-2.761,5.683-3.355a9.164,9.164,0,0,0,1.526-2.9,20.334,20.334,0,0,1,.52-2.954q.01-.192.015-.381a.784.784,0,0,0-.209-.469c-1.469-1.6-9.185.9-10.457,5.329a25,25,0,0,0-.505,3.247,6.062,6.062,0,0,0,1.031.732A6.656,6.656,0,0,0,1671.552,353.593Z" transform="translate(-1641.215 -323.087)" fill="#ac6254"/>
        <path id="Trazado_666888" data-name="Trazado 666888" d="M1648.743,278.332c-.558.776-.71,1.685-1.015,3.5a12.436,12.436,0,0,0-.039,4.806c.208,1,.364,1.02.55,2.105.277,1.623.031,2.189.179,3.387a9.518,9.518,0,0,0,1.386,3.552c1.21,2.259,1.815,3.389,3.169,4.068a6.13,6.13,0,0,0,4.486.187c1.933-.617,2.954-1.982,4.115-3.534a15.889,15.889,0,0,0,2.466-4.845c.831-2.723,2.019-6.615-.194-10.34a10.885,10.885,0,0,0-8.373-5.111C1654.656,276.051,1650.53,275.85,1648.743,278.332Z" transform="translate(-1625.322 -271.566)" fill="#d48c6d"/>
        <path id="Trazado_666889" data-name="Trazado 666889" d="M1716.511,347.187q0,.189-.015.381A1.551,1.551,0,0,0,1716.511,347.187Z" transform="translate(-1678.43 -326.273)" fill="#d48c6d"/>
        <g id="Grupo_929814" data-name="Grupo 929814" transform="translate(37.421 14.599)">
          <g id="Grupo_929811" data-name="Grupo 929811">
            <path id="Trazado_666890" data-name="Trazado 666890" d="M1716.419,319.843c-.9-.253-1.758.864-1.8.923-1.272,1.692-1.141,5.44-.087,5.748.948.277,2.991-2.22,2.928-4.267C1717.431,321.39,1717.281,320.086,1716.419,319.843Z" transform="translate(-1713.7 -319.806)" fill="#d48c6d"/>
          </g>
          <g id="Grupo_929812" data-name="Grupo 929812" transform="translate(0.829 1.932)">
            <path id="Trazado_666891" data-name="Trazado 666891" d="M1720.681,339.723a.721.721,0,0,0-.062.068Z" transform="translate(-1719.852 -337.061)" fill="#ac6254"/>
            <path id="Trazado_666892" data-name="Trazado 666892" d="M1718.02,328.219a1.131,1.131,0,0,0-.714.764.236.236,0,0,0,.168.309.208.208,0,0,0,.224-.157.694.694,0,0,1,.43-.471.622.622,0,0,1,.672.287,1.244,1.244,0,0,1-.08,1.02,2.753,2.753,0,0,1-.485.749c.108-.118.19-.208-.006.007-.032.036-.061.068-.086.094l-.083.091c-.381.418-.049.458-.019.458.287,0,.582-.375.742-.615a2.151,2.151,0,0,0,.366-2.054A1.02,1.02,0,0,0,1718.02,328.219Z" transform="translate(-1717.293 -328.182)" fill="#ac6254"/>
            <path id="Trazado_666893" data-name="Trazado 666893" d="M1720.91,339.289l.086-.094.006-.007-.113.123Z" transform="translate(-1720.06 -336.65)" fill="#ac6254"/>
          </g>
          <g id="Grupo_929813" data-name="Grupo 929813" transform="translate(0.38 0.019)">
            <path id="Trazado_666894" data-name="Trazado 666894" d="M1718.026,320.047a1.351,1.351,0,0,0-1.044-.1,2.053,2.053,0,0,0-1.2.977.244.244,0,0,0,.077.33.2.2,0,0,0,.269-.075,1.636,1.636,0,0,1,.947-.783.985.985,0,0,1,.758.057,1.28,1.28,0,0,1,.495.7,3.422,3.422,0,0,1,.126,1.936c-.261,1.334-1.073,2.4-1.491,2.475-.129.022-.173.136-.224.268-.138.359-.316.691-.681.691h0c-.182,0-.257-.047-.293-.337a.217.217,0,0,0-.219-.2h0a.226.226,0,0,0-.193.264c.043.338.178.737.706.737h0c.689,0,.961-.706,1.063-.972l.007-.019a3.977,3.977,0,0,0,1.732-2.807,3.931,3.931,0,0,0-.151-2.219A1.7,1.7,0,0,0,1718.026,320.047Zm-1,5.973h0Z" transform="translate(-1715.35 -319.888)" fill="#ac6254"/>
          </g>
          <path id="Trazado_666895" data-name="Trazado 666895" d="M1717.5,332.456c-.028.067.18.155.335.41.3.494.09,1.109.173,1.128.062.014.214-.318.231-.68a.96.96,0,0,0-.185-.718C1717.857,332.392,1717.533,332.377,1717.5,332.456Z" transform="translate(-1716.622 -329.504)" fill="#ac6254"/>
        </g>
        <path id="Trazado_666896" data-name="Trazado 666896" d="M1646.574,262.287c.216-.1.688.22.9.125a8.8,8.8,0,0,1,3.386-.758,10.894,10.894,0,0,1,3.694.554,11.456,11.456,0,0,1,6.383,6.041,19.249,19.249,0,0,1,1.618,6.356c-3.083.846-16.569.482-17.859-6.6-.113-.625-2.247,3.735-.85,8.418C1643.111,274.946,1638.935,265.966,1646.574,262.287Z" transform="translate(-1621.152 -260.464)" fill="#181c47"/>
        <g id="Grupo_929818" data-name="Grupo 929818" transform="translate(22.956 14.146)">
          <g id="Grupo_929815" data-name="Grupo 929815" transform="translate(6.142)">
            <path id="Trazado_666897" data-name="Trazado 666897" d="M1677.872,318.088a10.107,10.107,0,0,1,3.685-.14.335.335,0,0,1,.283.39h0a.331.331,0,0,1-.373.271,9.434,9.434,0,0,0-3.453.131.333.333,0,0,1-.142-.652Z" transform="translate(-1677.611 -317.841)" fill="#1c1939"/>
          </g>
          <g id="Grupo_929816" data-name="Grupo 929816" transform="translate(3.287 1.79)">
            <path id="Trazado_666898" data-name="Trazado 666898" d="M1665.973,325.6a.2.2,0,0,1,.21.2,20.7,20.7,0,0,1-.221,2.327c-.056.369-.114.68-.164.955-.141.764-.212,1.147-.007,1.391.25.3.891.347,1.815.14a.21.21,0,0,1,.253.137h0a.2.2,0,0,1-.165.242q-.269.06-.509.094a1.85,1.85,0,0,1-1.738-.372c-.314-.374-.228-.841-.072-1.687.05-.272.107-.581.163-.944a20.414,20.414,0,0,0,.217-2.287A.212.212,0,0,1,1665.973,325.6Z" transform="translate(-1665.234 -325.603)" fill="#ac6254"/>
          </g>
          <path id="Trazado_666899" data-name="Trazado 666899" d="M1683.936,323.82c.335-.013.623.4.643.924s-.236.958-.571.97-.623-.4-.643-.924S1683.6,323.833,1683.936,323.82Z" transform="translate(-1675.895 -322.441)" fill="#251d3e"/>
          <path id="Trazado_666900" data-name="Trazado 666900" d="M1657.7,323.444c.335-.013.623.4.643.924s-.236.957-.571.97-.623-.4-.643-.924S1657.364,323.457,1657.7,323.444Z" transform="translate(-1655.71 -322.152)" fill="#251d3e"/>
          <g id="Grupo_929817" data-name="Grupo 929817" transform="translate(0 0.031)">
            <path id="Trazado_666901" data-name="Trazado 666901" d="M1651.3,317.992a11.742,11.742,0,0,1,1.547.016,10.849,10.849,0,0,1,1.149.149.333.333,0,0,1-.12.656,10.1,10.1,0,0,0-1.079-.14,11.036,11.036,0,0,0-1.466-.015.333.333,0,1,1-.03-.666Z" transform="translate(-1650.98 -317.974)" fill="#1c1939"/>
          </g>
          <path id="Trazado_666902" data-name="Trazado 666902" d="M1664.256,354.643l.617.037a13.784,13.784,0,0,0,2.675-.1l1.149-.155c.262-.036.463.15.355.325a4.03,4.03,0,0,1-2.79,1.267,2.728,2.728,0,0,1-2.338-1.019C1663.8,354.833,1663.989,354.627,1664.256,354.643Z" transform="translate(-1660.908 -345.985)" fill="#fdfcfa"/>
          <path id="Trazado_666903" data-name="Trazado 666903" d="M1690.515,333.9c.871-.145,1.651.179,1.741.724s-.542,1.1-1.413,1.248-1.651-.179-1.742-.724S1689.644,334.048,1690.515,333.9Z" transform="translate(-1680.303 -330.172)" fill="#c67f65"/>
        </g>
        <g id="Grupo_929819" data-name="Grupo 929819" transform="translate(13.228 73.409)">
          <path id="Trazado_666904" data-name="Trazado 666904" d="M1614.489,581.456l-5.687-5.737,1.523-.923,5.035,5.035Z" transform="translate(-1608.802 -574.797)" fill="#efc237"/>
        </g>
        <g id="Grupo_929820" data-name="Grupo 929820" transform="translate(0.602 69.864)">
          <path id="Trazado_666905" data-name="Trazado 666905" d="M1556.957,609.24a54.233,54.233,0,0,1-1.6-29.145c1.158-4.979,3.1-13.312,9.321-15.745a7.043,7.043,0,0,1,4.286-.245,35.072,35.072,0,0,0,6.118.474,60.184,60.184,0,0,0,16.069-2.422,71.045,71.045,0,0,0,8.393-2.732l.143,1.8a64.482,64.482,0,0,1-8.1,2.605,62.549,62.549,0,0,1-16.507,2.479,37.1,37.1,0,0,1-6.387-.495,5.424,5.424,0,0,0-3.389.147c-5.375,2.1-7.184,9.879-8.265,14.526a52.527,52.527,0,0,0,1.567,28.225Z" transform="translate(-1554.057 -559.425)" fill="#f5dc3b"/>
        </g>
        <path id="Trazado_666906" data-name="Trazado 666906" d="M1554.272,561.534a3.583,3.583,0,0,1,2.507.209c.745.364,1.134.921,1.88,2.02.715,1.052.536,1.079,1.393,2.437,1.276,2.023,1.9,2.32,2.229,2.438.426.15.794.151.836.348.064.3-.664.894-1.393.906-.207,0-.828-.035-2.368-1.811-1.15-1.325-1.555-2.17-1.741-2.089s-.025,1.138.418,2.02a4.335,4.335,0,0,0,2.368,2.228c.791.25,1.393.092,1.462.348.075.278-.554.76-1.044.975-.26.114-.766.278-.766.278h0c-.99,1.273-1.184,1.463-1.184,1.463a3.583,3.583,0,0,1-1.88,1.114c-.96.147-1.728-.374-2.716-1.045a4.81,4.81,0,0,1-2.577-4.178c-.291-2.691-.437-4.037.209-5.362A4.108,4.108,0,0,1,1554.272,561.534Z" transform="translate(-1551.448 -491.076)" fill="#d48c6d"/>
        <g id="Grupo_929824" data-name="Grupo 929824" transform="translate(2.158 77.361)">
          <g id="Grupo_929821" data-name="Grupo 929821" transform="translate(2.086)">
            <path id="Trazado_666907" data-name="Trazado 666907" d="M1573.867,595.193a.287.287,0,0,1-.389.129,11.237,11.237,0,0,1-3.562-2.925.287.287,0,0,1,.052-.407h0a.289.289,0,0,1,.4.052,10.671,10.671,0,0,0,3.37,2.767.288.288,0,0,1,.127.383Z" transform="translate(-1569.854 -591.932)" fill="#ac6254"/>
          </g>
          <g id="Grupo_929822" data-name="Grupo 929822" transform="translate(0.8 1.289)">
            <path id="Trazado_666908" data-name="Trazado 666908" d="M1568.114,600.468a.289.289,0,0,1-.4.091c-.74-.475-1.462-.99-2.148-1.534-.406-.321-.806-.658-1.193-1a.288.288,0,0,1-.02-.409h0a.287.287,0,0,1,.4-.02c.378.337.769.666,1.166.98.672.532,1.377,1.036,2.1,1.5a.287.287,0,0,1,.089.395Z" transform="translate(-1564.278 -597.519)" fill="#ac6254"/>
          </g>
          <g id="Grupo_929823" data-name="Grupo 929823" transform="translate(0 2.575)">
            <path id="Trazado_666909" data-name="Trazado 666909" d="M1564.678,605.66a.29.29,0,0,1-.368.2,7.187,7.187,0,0,1-3.435-2.291.289.289,0,0,1,.046-.416h0a.286.286,0,0,1,.393.042,6.612,6.612,0,0,0,3.175,2.116.286.286,0,0,1,.189.347Z" transform="translate(-1560.807 -603.095)" fill="#ac6254"/>
          </g>
        </g>
      </g>
    </g>
  </g>
</svg>
